<svg version="1.1" viewBox="0.0 0.0 600.0 371.0" fill="none" stroke="none" stroke-linecap="square" stroke-miterlimit="10" width="600" height="371" xmlns:xlink="http://www.w3.org/1999/xlink" xmlns="http://www.w3.org/2000/svg"><path fill="#ffffff" d="M0 0L600.0 0L600.0 371.0L0 371.0L0 0Z" fill-rule="nonzero"/><path stroke="#cccccc" stroke-width="1.0" stroke-linecap="butt" d="M496.5 88.5L496.5 300.5" fill-rule="nonzero"/><path stroke="#cccccc" stroke-width="1.0" stroke-linecap="butt" d="M398.5 88.5L398.5 300.5" fill-rule="nonzero"/><path stroke="#cccccc" stroke-width="1.0" stroke-linecap="butt" d="M300.5 88.5L300.5 300.5" fill-rule="nonzero"/><path stroke="#cccccc" stroke-width="1.0" stroke-linecap="butt" d="M202.5 88.5L202.5 300.5" fill-rule="nonzero"/><path stroke="#cccccc" stroke-width="1.0" stroke-linecap="butt" d="M103.5 88.5L103.5 300.5" fill-rule="nonzero"/><path stroke="#333333" stroke-width="1.0" stroke-linecap="butt" d="M77.5 300.5L581.5 300.5" fill-rule="nonzero"/><path stroke="#cccccc" stroke-width="1.0" stroke-linecap="butt" d="M77.5 229.5L581.5 229.5" fill-rule="nonzero"/><path stroke="#cccccc" stroke-width="1.0" stroke-linecap="butt" d="M77.5 159.5L581.5 159.5" fill-rule="nonzero"/><path stroke="#cccccc" stroke-width="1.0" stroke-linecap="butt" d="M77.5 88.5L581.5 88.5" fill-rule="nonzero"/><clipPath id="id_0"><path d="M77.55 88.28333L581.45 88.28333L581.45 300.45L77.55 300.45L77.55 88.28333Z" clip-rule="nonzero"/></clipPath><path stroke="#4285f4" stroke-width="2.0" stroke-linecap="butt" stroke-opacity="0.4" clip-path="url(#id_0)" d="M0 135.91853L581.45 119.29379" fill-rule="nonzero"/><path fill="#4285f4" clip-path="url(#id_0)" d="M579.1392 112.16357C579.1392 114.64884 577.1245 116.66357 574.6392 116.66357C572.15393 116.66357 570.1392 114.64884 570.1392 112.16357C570.1392 109.67828 572.15393 107.66357 574.6392 107.66357C577.1245 107.66357 579.1392 109.67828 579.1392 112.16357Z" fill-rule="nonzero"/><path fill="#4285f4" clip-path="url(#id_0)" d="M422.25012 123.16005C422.25012 125.645325 420.2354 127.66005 417.75012 127.66005C415.26483 127.66005 413.25012 125.645325 413.25012 123.16005C413.25012 120.67477 415.26483 118.66005 417.75012 118.66005C420.2354 118.66005 422.25012 120.67477 422.25012 123.16005Z" fill-rule="nonzero"/><path fill="#4285f4" clip-path="url(#id_0)" d="M383.02783 142.6062C383.02783 145.09148 381.01312 147.1062 378.52783 147.1062C376.04257 147.1062 374.02783 145.09148 374.02783 142.6062C374.02783 140.12093 376.04257 138.1062 378.52783 138.1062C381.01312 138.1062 383.02783 140.12093 383.02783 142.6062Z" fill-rule="nonzero"/><path fill="#4285f4" clip-path="url(#id_0)" d="M343.80557 125.13857C343.80557 127.623856 341.79086 129.63858 339.30557 129.63858C336.82028 129.63858 334.80557 127.623856 334.80557 125.13857C334.80557 122.6533 336.82028 120.63857 339.30557 120.63857C341.79086 120.63857 343.80557 122.6533 343.80557 125.13857Z" fill-rule="nonzero"/><path fill="#4285f4" clip-path="url(#id_0)" d="M324.19443 133.38156C324.19443 135.86684 322.17972 137.88156 319.69443 137.88156C317.20914 137.88156 315.19443 135.86684 315.19443 133.38156C315.19443 130.89629 317.20914 128.88156 319.69443 128.88156C322.17972 128.88156 324.19443 130.89629 324.19443 133.38156Z" fill-rule="nonzero"/><path fill="#4285f4" clip-path="url(#id_0)" d="M284.97217 116.17379C284.97217 118.659065 282.95743 120.67379 280.47217 120.67379C277.98688 120.67379 275.97217 118.659065 275.97217 116.17379C275.97217 113.68851 277.98688 111.67379 280.47217 111.67379C282.95743 111.67379 284.97217 113.68851 284.97217 116.17379Z" fill-rule="nonzero"/><path fill="#4285f4" clip-path="url(#id_0)" d="M128.08305 125.555855C128.08305 128.04114 126.06833 130.05586 123.58305 130.05586C121.09777 130.05586 119.08305 128.04114 119.08305 125.555855C119.08305 123.07057 121.09777 121.055855 123.58305 121.055855C126.06833 121.055855 128.08305 123.07057 128.08305 125.555855Z" fill-rule="nonzero"/><path fill="#4285f4" clip-path="url(#id_0)" d="M88.86077 137.16487C88.86077 139.65015 86.846054 141.66487 84.36077 141.66487C81.875496 141.66487 79.86077 139.65015 79.86077 137.16487C79.86077 134.67958 81.875496 132.66487 84.36077 132.66487C86.846054 132.66487 88.86077 134.67958 88.86077 137.16487Z" fill-rule="nonzero"/><path fill="#000000" d="M310.60938 349.45L310.60938 341.8719L307.78125 341.8719L307.78125 340.85626L314.59375 340.85626L314.59375 341.8719L311.75 341.8719L311.75 349.45L310.60938 349.45ZM315.29688 342.075L315.29688 340.85626L316.35938 340.85626L316.35938 342.075L315.29688 342.075ZM315.29688 349.45L315.29688 343.23126L316.35938 343.23126L316.35938 349.45L315.29688 349.45ZM318.29688 349.45L318.29688 343.23126L319.23438 343.23126L319.23438 344.10626Q319.53125 343.6375 320.01562 343.3719Q320.5 343.09064 321.125 343.09064Q321.8125 343.09064 322.25 343.3719Q322.70312 343.65314 322.875 344.16876Q323.625 343.09064 324.79688 343.09064Q325.73438 343.09064 326.21875 343.60626Q326.71875 344.10626 326.71875 345.1844L326.71875 349.45L325.67188 349.45L325.67188 345.52814Q325.67188 344.90314 325.5625 344.6219Q325.46875 344.34064 325.20312 344.16876Q324.9375 343.9969 324.5625 343.9969Q323.90625 343.9969 323.46875 344.4344Q323.04688 344.8719 323.04688 345.84064L323.04688 349.45L321.98438 349.45L321.98438 345.40314Q321.98438 344.7 321.71875 344.35626Q321.46875 343.9969 320.89062 343.9969Q320.4375 343.9969 320.0625 344.23126Q319.6875 344.46564 319.51562 344.91876Q319.34375 345.3719 319.34375 346.21564L319.34375 349.45L318.29688 349.45ZM332.54688 347.45L333.64062 347.575Q333.39062 348.52814 332.6875 349.0594Q331.98438 349.59064 330.90625 349.59064Q329.54688 349.59064 328.73438 348.7469Q327.9375 347.90314 327.9375 346.3875Q327.9375 344.825 328.75 343.96564Q329.5625 343.09064 330.84375 343.09064Q332.09375 343.09064 332.875 343.9344Q333.67188 344.77814 333.67188 346.325Q333.67188 346.41876 333.67188 346.60626L329.03125 346.60626Q329.09375 347.6375 329.60938 348.1844Q330.125 348.71564 330.90625 348.71564Q331.48438 348.71564 331.89062 348.41876Q332.3125 348.10626 332.54688 347.45ZM329.09375 345.7469L332.5625 345.7469Q332.5 344.95 332.17188 344.5594Q331.65625 343.95 330.85938 343.95Q330.125 343.95 329.625 344.4344Q329.14062 344.91876 329.09375 345.7469ZM340.3125 351.98126Q339.4375 350.8719 338.82812 349.40314Q338.23438 347.91876 338.23438 346.34064Q338.23438 344.95 338.67188 343.66876Q339.20312 342.1844 340.3125 340.71564L341.0625 340.71564Q340.35938 341.9344 340.125 342.45Q339.76562 343.2625 339.5625 344.1375Q339.3125 345.23126 339.3125 346.34064Q339.3125 349.16876 341.0625 351.98126L340.3125 351.98126ZM341.875 347.59064L342.90625 347.4344Q343.0 348.0594 343.39062 348.3875Q343.79688 348.71564 344.53125 348.71564Q345.25 348.71564 345.59375 348.4344Q345.95312 348.1375 345.95312 347.73126Q345.95312 347.3719 345.64062 347.16876Q345.42188 347.02814 344.5625 346.8094Q343.40625 346.5125 342.95312 346.3094Q342.51562 346.09064 342.28125 345.71564Q342.04688 345.34064 342.04688 344.8719Q342.04688 344.46564 342.23438 344.10626Q342.42188 343.7469 342.75 343.5125Q343.0 343.34064 343.42188 343.21564Q343.84375 343.09064 344.34375 343.09064Q345.0625 343.09064 345.60938 343.3094Q346.17188 343.5125 346.4375 343.8719Q346.70312 344.23126 346.79688 344.825L345.76562 344.96564Q345.70312 344.4969 345.35938 344.23126Q345.03125 343.95 344.40625 343.95Q343.6875 343.95 343.375 344.2Q343.0625 344.4344 343.0625 344.7625Q343.0625 344.96564 343.1875 345.1219Q343.32812 345.29376 343.59375 345.40314Q343.75 345.46564 344.53125 345.66876Q345.65625 345.98126 346.09375 346.16876Q346.53125 346.35626 346.78125 346.71564Q347.03125 347.075 347.03125 347.6219Q347.03125 348.15314 346.71875 348.6219Q346.42188 349.075 345.84375 349.34064Q345.26562 349.59064 344.53125 349.59064Q343.3125 349.59064 342.67188 349.09064Q342.04688 348.575 341.875 347.59064ZM348.98438 351.98126L348.23438 351.98126Q349.98438 349.16876 349.98438 346.34064Q349.98438 345.2469 349.73438 344.15314Q349.53125 343.27814 349.17188 342.46564Q348.9375 341.95 348.23438 340.71564L348.98438 340.71564Q350.07812 342.1844 350.60938 343.66876Q351.0625 344.95 351.0625 346.34064Q351.0625 347.91876 350.45312 349.40314Q349.84375 350.8719 348.98438 351.98126Z" fill-rule="nonzero"/><path fill="#000000" d="M29.550013 279.4448L20.956263 281.72604L20.956263 280.55417L26.596888 279.24167Q27.471888 279.03854 28.346888 278.8823Q26.971888 278.55417 26.753138 278.49167L20.956263 276.86667L20.956263 275.49167L25.300013 274.2573Q26.925013 273.80417 28.346888 273.58542Q27.534388 273.42917 26.471888 273.16354L20.956263 271.8198L20.956263 270.67917L29.550013 273.02292L29.550013 274.1323L23.003138 275.92917Q22.190638 276.16354 22.003138 276.21042Q22.581263 276.33542 23.003138 276.46042L29.550013 278.27292L29.550013 279.4448ZM27.550013 265.8198L27.675013 264.72604Q28.628138 264.97604 29.159388 265.67917Q29.690638 266.3823 29.690638 267.46042Q29.690638 268.8198 28.846888 269.6323Q28.003138 270.42917 26.487513 270.42917Q24.925013 270.42917 24.065638 269.61667Q23.190638 268.80417 23.190638 267.52292Q23.190638 266.27292 24.034388 265.49167Q24.878138 264.6948 26.425013 264.6948Q26.518763 264.6948 26.706263 264.6948L26.706263 269.33542Q27.737513 269.27292 28.284388 268.7573Q28.815638 268.24167 28.815638 267.46042Q28.815638 266.8823 28.518763 266.47604Q28.206263 266.05417 27.550013 265.8198ZM25.846888 269.27292L25.846888 265.80417Q25.050013 265.86667 24.659388 266.1948Q24.050013 266.71042 24.050013 267.5073Q24.050013 268.24167 24.534388 268.74167Q25.018763 269.22604 25.846888 269.27292ZM22.175013 263.0698L20.956263 263.0698L20.956263 262.0073L22.175013 262.0073L22.175013 263.0698ZM29.550013 263.0698L23.331263 263.0698L23.331263 262.0073L29.550013 262.0073L29.550013 263.0698ZM30.065638 260.27292L30.221888 259.24167Q30.690638 259.17917 30.909388 258.8823Q31.206263 258.49167 31.206263 257.8198Q31.206263 257.08542 30.909388 256.6948Q30.612513 256.28854 30.096888 256.14792Q29.768763 256.05417 28.737513 256.0698Q29.550013 256.7573 29.550013 257.78854Q29.550013 259.0698 28.628138 259.77292Q27.690638 260.47604 26.409388 260.47604Q25.518763 260.47604 24.768763 260.16354Q24.003138 259.83542 23.596888 259.22604Q23.190638 258.61667 23.190638 257.78854Q23.190638 256.67917 24.081263 255.96042L23.331263 255.96042L23.331263 254.99167L28.706263 254.99167Q30.159388 254.99167 30.768763 255.28854Q31.378138 255.58542 31.721888 256.22604Q32.08126 256.86667 32.08126 257.80417Q32.08126 258.91354 31.581263 259.60104Q31.081263 260.28854 30.065638 260.27292ZM26.331263 259.39792Q27.550013 259.39792 28.112513 258.91354Q28.675013 258.42917 28.675013 257.6948Q28.675013 256.96042 28.112513 256.47604Q27.550013 255.97604 26.362513 255.97604Q25.221888 255.97604 24.643763 256.49167Q24.065638 256.99167 24.065638 257.71042Q24.065638 258.41354 24.643763 258.91354Q25.206263 259.39792 26.331263 259.39792ZM29.550013 253.0698L20.956263 253.0698L20.956263 252.02292L24.034388 252.02292Q23.190638 251.28854 23.190638 250.16354Q23.190638 249.46042 23.471888 248.96042Q23.737513 248.4448 24.221888 248.22604Q24.690638 248.0073 25.612513 248.0073L29.550013 248.0073L29.550013 249.05417L25.612513 249.05417Q24.815638 249.05417 24.456263 249.39792Q24.096888 249.74167 24.096888 250.36667Q24.096888 250.83542 24.346888 251.2573Q24.581263 251.66354 25.003138 251.85104Q25.409388 252.02292 26.143763 252.02292L29.550013 252.02292L29.550013 253.0698ZM28.612513 243.77292L29.534388 243.61667Q29.628138 244.0698 29.628138 244.41354Q29.628138 244.99167 29.456263 245.30417Q29.268763 245.61667 28.971888 245.7573Q28.675013 245.8823 27.721888 245.8823L24.143763 245.8823L24.143763 246.64792L23.331263 246.64792L23.331263 245.8823L21.784388 245.8823L21.159388 244.83542L23.331263 244.83542L23.331263 243.77292L24.143763 243.77292L24.143763 244.83542L27.784388 244.83542Q28.237513 244.83542 28.362513 244.78854Q28.487513 244.72604 28.565638 244.60104Q28.643763 244.47604 28.643763 244.24167Q28.643763 244.05417 28.612513 243.77292ZM28.612513 237.77292L29.534388 237.61667Q29.628138 238.0698 29.628138 238.41354Q29.628138 238.99167 29.456263 239.30417Q29.268763 239.61667 28.971888 239.7573Q28.675013 239.8823 27.721888 239.8823L24.143763 239.8823L24.143763 240.64792L23.331263 240.64792L23.331263 239.8823L21.784388 239.8823L21.159388 238.83542L23.331263 238.83542L23.331263 237.77292L24.143763 237.77292L24.143763 238.83542L27.784388 238.83542Q28.237513 238.83542 28.362513 238.78854Q28.487513 238.72604 28.565638 238.60104Q28.643763 238.47604 28.643763 238.24167Q28.643763 238.05417 28.612513 237.77292ZM26.440638 237.46042Q24.706263 237.46042 23.878138 236.5073Q23.190638 235.71042 23.190638 234.55417Q23.190638 233.27292 24.034388 232.46042Q24.862513 231.6323 26.346888 231.6323Q27.550013 231.6323 28.237513 231.99167Q28.925013 232.35104 29.315638 233.05417Q29.690638 233.74167 29.690638 234.55417Q29.690638 235.85104 28.862513 236.66354Q28.018763 237.46042 26.440638 237.46042ZM26.440638 236.3823Q27.628138 236.3823 28.221888 235.86667Q28.815638 235.33542 28.815638 234.55417Q28.815638 233.7573 28.221888 233.24167Q27.628138 232.72604 26.409388 232.72604Q25.253138 232.72604 24.659388 233.2573Q24.065638 233.77292 24.065638 234.55417Q24.065638 235.33542 24.659388 235.86667Q25.237513 236.3823 26.440638 236.3823ZM29.550013 226.89792L20.956263 226.89792L20.956263 225.77292L24.487513 225.77292L24.487513 221.30417L20.956263 221.30417L20.956263 220.16354L29.550013 220.16354L29.550013 221.30417L25.503138 221.30417L25.503138 225.77292L29.550013 225.77292L29.550013 226.89792ZM27.550013 213.8198L27.675013 212.72604Q28.628138 212.97604 29.159388 213.67917Q29.690638 214.3823 29.690638 215.46042Q29.690638 216.8198 28.846888 217.6323Q28.003138 218.42917 26.487513 218.42917Q24.925013 218.42917 24.065638 217.61667Q23.190638 216.80417 23.190638 215.52292Q23.190638 214.27292 24.034388 213.49167Q24.878138 212.6948 26.425013 212.6948Q26.518763 212.6948 26.706263 212.6948L26.706263 217.33542Q27.737513 217.27292 28.284388 216.7573Q28.815638 216.24167 28.815638 215.46042Q28.815638 214.8823 28.518763 214.47604Q28.206263 214.05417 27.550013 213.8198ZM25.846888 217.27292L25.846888 213.80417Q25.050013 213.86667 24.659388 214.1948Q24.050013 214.71042 24.050013 215.5073Q24.050013 216.24167 24.534388 216.74167Q25.018763 217.22604 25.846888 217.27292ZM22.175013 211.0698L20.956263 211.0698L20.956263 210.0073L22.175013 210.0073L22.175013 211.0698ZM29.550013 211.0698L23.331263 211.0698L23.331263 210.0073L29.550013 210.0073L29.550013 211.0698ZM30.065638 208.27292L30.221888 207.24167Q30.690638 207.17917 30.909388 206.8823Q31.206263 206.49167 31.206263 205.8198Q31.206263 205.08542 30.909388 204.6948Q30.612513 204.28854 30.096888 204.14792Q29.768763 204.05417 28.737513 204.0698Q29.550013 204.7573 29.550013 205.78854Q29.550013 207.0698 28.628138 207.77292Q27.690638 208.47604 26.409388 208.47604Q25.518763 208.47604 24.768763 208.16354Q24.003138 207.83542 23.596888 207.22604Q23.190638 206.61667 23.190638 205.78854Q23.190638 204.67917 24.081263 203.96042L23.331263 203.96042L23.331263 202.99167L28.706263 202.99167Q30.159388 202.99167 30.768763 203.28854Q31.378138 203.58542 31.721888 204.22604Q32.08126 204.86667 32.08126 205.80417Q32.08126 206.91354 31.581263 207.60104Q31.081263 208.28854 30.065638 208.27292ZM26.331263 207.39792Q27.550013 207.39792 28.112513 206.91354Q28.675013 206.42917 28.675013 205.6948Q28.675013 204.96042 28.112513 204.47604Q27.550013 203.97604 26.362513 203.97604Q25.221888 203.97604 24.643763 204.49167Q24.065638 204.99167 24.065638 205.71042Q24.065638 206.41354 24.643763 206.91354Q25.206263 207.39792 26.331263 207.39792ZM29.550013 201.0698L20.956263 201.0698L20.956263 200.02292L24.034388 200.02292Q23.190638 199.28854 23.190638 198.16354Q23.190638 197.46042 23.471888 196.96042Q23.737513 196.4448 24.221888 196.22604Q24.690638 196.0073 25.612513 196.0073L29.550013 196.0073L29.550013 197.05417L25.612513 197.05417Q24.815638 197.05417 24.456263 197.39792Q24.096888 197.74167 24.096888 198.36667Q24.096888 198.83542 24.346888 199.2573Q24.581263 199.66354 25.003138 199.85104Q25.409388 200.02292 26.143763 200.02292L29.550013 200.02292L29.550013 201.0698ZM28.612513 191.77292L29.534388 191.61667Q29.628138 192.0698 29.628138 192.41354Q29.628138 192.99167 29.456263 193.30417Q29.268763 193.61667 28.971888 193.7573Q28.675013 193.8823 27.721888 193.8823L24.143763 193.8823L24.143763 194.64792L23.331263 194.64792L23.331263 193.8823L21.784388 193.8823L21.159388 192.83542L23.331263 192.83542L23.331263 191.77292L24.143763 191.77292L24.143763 192.83542L27.784388 192.83542Q28.237513 192.83542 28.362513 192.78854Q28.487513 192.72604 28.565638 192.60104Q28.643763 192.47604 28.643763 192.24167Q28.643763 192.05417 28.612513 191.77292ZM29.550013 187.92917L20.956263 187.92917L20.956263 184.11667Q20.956263 182.96042 21.190638 182.36667Q21.425013 181.77292 22.018763 181.41354Q22.596888 181.05417 23.300013 181.05417Q24.221888 181.05417 24.846888 181.64792Q25.471888 182.24167 25.643763 183.47604Q25.862513 183.02292 26.065638 182.78854Q26.518763 182.28854 27.206263 181.85104L29.550013 180.35104L29.550013 181.78854L27.768763 182.91354Q26.987513 183.41354 26.581263 183.74167Q26.175013 184.05417 26.018763 184.3198Q25.846888 184.5698 25.768763 184.83542Q25.737513 185.02292 25.737513 185.46042L25.737513 186.78854L29.550013 186.78854L29.550013 187.92917ZM24.753138 186.78854L24.753138 184.33542Q24.753138 183.5698 24.596888 183.1323Q24.425013 182.67917 24.081263 182.46042Q23.721888 182.22604 23.300013 182.22604Q22.690638 182.22604 22.300013 182.67917Q21.909388 183.11667 21.909388 184.0698L21.909388 186.78854L24.753138 186.78854ZM28.784388 175.0073Q29.284388 175.60104 29.487513 176.14792Q29.690638 176.67917 29.690638 177.30417Q29.690638 178.33542 29.190638 178.8823Q28.690638 179.42917 27.909388 179.42917Q27.456263 179.42917 27.081263 179.22604Q26.690638 179.02292 26.471888 178.67917Q26.237513 178.33542 26.128138 177.91354Q26.034388 177.61667 25.956263 176.97604Q25.815638 175.71042 25.596888 175.10104Q25.378138 175.10104 25.331263 175.10104Q24.675013 175.10104 24.409388 175.39792Q24.065638 175.80417 24.065638 176.60104Q24.065638 177.33542 24.331263 177.6948Q24.581263 178.05417 25.237513 178.22604L25.096888 179.2573Q24.440638 179.11667 24.034388 178.78854Q23.628138 178.46042 23.409388 177.85104Q23.190638 177.24167 23.190638 176.4448Q23.190638 175.64792 23.378138 175.14792Q23.565638 174.64792 23.846888 174.41354Q24.128138 174.17917 24.565638 174.08542Q24.831263 174.03854 25.534388 174.03854L26.940638 174.03854Q28.409388 174.03854 28.800013 173.97604Q29.190638 173.89792 29.550013 173.6948L29.550013 174.80417Q29.221888 174.96042 28.784388 175.0073ZM26.425013 175.10104Q26.659388 175.67917 26.831263 176.8198Q26.925013 177.47604 27.050013 177.74167Q27.159388 178.0073 27.378138 178.16354Q27.596888 178.30417 27.878138 178.30417Q28.300013 178.30417 28.581263 177.99167Q28.862513 177.66354 28.862513 177.05417Q28.862513 176.4448 28.596888 175.97604Q28.331263 175.49167 27.862513 175.27292Q27.503138 175.10104 26.815638 175.10104L26.425013 175.10104ZM28.612513 169.77292L29.534388 169.61667Q29.628138 170.0698 29.628138 170.41354Q29.628138 170.99167 29.456263 171.30417Q29.268763 171.61667 28.971888 171.7573Q28.675013 171.8823 27.721888 171.8823L24.143763 171.8823L24.143763 172.64792L23.331263 172.64792L23.331263 171.8823L21.784388 171.8823L21.159388 170.83542L23.331263 170.83542L23.331263 169.77292L24.143763 169.77292L24.143763 170.83542L27.784388 170.83542Q28.237513 170.83542 28.362513 170.78854Q28.487513 170.72604 28.565638 170.60104Q28.643763 170.47604 28.643763 170.24167Q28.643763 170.05417 28.612513 169.77292ZM22.175013 169.0698L20.956263 169.0698L20.956263 168.0073L22.175013 168.0073L22.175013 169.0698ZM29.550013 169.0698L23.331263 169.0698L23.331263 168.0073L29.550013 168.0073L29.550013 169.0698ZM26.440638 166.46042Q24.706263 166.46042 23.878138 165.5073Q23.190638 164.71042 23.190638 163.55417Q23.190638 162.27292 24.034388 161.46042Q24.862513 160.6323 26.346888 160.6323Q27.550013 160.6323 28.237513 160.99167Q28.925013 161.35104 29.315638 162.05417Q29.690638 162.74167 29.690638 163.55417Q29.690638 164.85104 28.862513 165.66354Q28.018763 166.46042 26.440638 166.46042ZM26.440638 165.3823Q27.628138 165.3823 28.221888 164.86667Q28.815638 164.33542 28.815638 163.55417Q28.815638 162.7573 28.221888 162.24167Q27.628138 161.72604 26.409388 161.72604Q25.253138 161.72604 24.659388 162.2573Q24.065638 162.77292 24.065638 163.55417Q24.065638 164.33542 24.659388 164.86667Q25.237513 165.3823 26.440638 165.3823ZM32.08126 154.05417Q30.971888 154.92917 29.503138 155.53854Q28.018763 156.1323 26.440638 156.1323Q25.050013 156.1323 23.768763 155.6948Q22.284388 155.16354 20.815638 154.05417L20.815638 153.30417Q22.034388 154.0073 22.550013 154.24167Q23.362513 154.60104 24.237513 154.80417Q25.331263 155.05417 26.440638 155.05417Q29.268763 155.05417 32.08126 153.30417L32.08126 154.05417ZM29.550013 152.10104L20.956263 152.10104L20.956263 151.03854L29.550013 151.03854L29.550013 152.10104ZM29.550013 148.10104L29.550013 149.08542L20.956263 149.08542L20.956263 148.02292L24.018763 148.02292Q23.190638 147.35104 23.190638 146.3198Q23.190638 145.74167 23.425013 145.24167Q23.643763 144.72604 24.065638 144.39792Q24.487513 144.05417 25.081263 143.86667Q25.675013 143.67917 26.346888 143.67917Q27.940638 143.67917 28.815638 144.47604Q29.690638 145.27292 29.690638 146.36667Q29.690638 147.47604 28.768763 148.10104L29.550013 148.10104ZM26.393763 148.11667Q27.503138 148.11667 28.003138 147.80417Q28.815638 147.30417 28.815638 146.46042Q28.815638 145.77292 28.221888 145.27292Q27.628138 144.7573 26.425013 144.7573Q25.206263 144.7573 24.628138 145.24167Q24.050013 145.72604 24.050013 146.41354Q24.050013 147.10104 24.659388 147.61667Q25.253138 148.11667 26.393763 148.11667ZM27.690638 142.49167L27.534388 141.46042Q28.159388 141.36667 28.487513 140.97604Q28.815638 140.5698 28.815638 139.83542Q28.815638 139.11667 28.534388 138.77292Q28.237513 138.41354 27.831263 138.41354Q27.471888 138.41354 27.268763 138.72604Q27.128138 138.9448 26.909388 139.80417Q26.612513 140.96042 26.409388 141.41354Q26.190638 141.85104 25.815638 142.08542Q25.440638 142.3198 24.971888 142.3198Q24.565638 142.3198 24.206263 142.1323Q23.846888 141.9448 23.612513 141.61667Q23.440638 141.36667 23.315638 140.9448Q23.190638 140.52292 23.190638 140.02292Q23.190638 139.30417 23.409388 138.7573Q23.612513 138.1948 23.971888 137.92917Q24.331263 137.66354 24.925013 137.5698L25.065638 138.60104Q24.596888 138.66354 24.331263 139.0073Q24.050013 139.33542 24.050013 139.96042Q24.050013 140.67917 24.300013 140.99167Q24.534388 141.30417 24.862513 141.30417Q25.065638 141.30417 25.221888 141.17917Q25.393763 141.03854 25.503138 140.77292Q25.565638 140.61667 25.768763 139.83542Q26.081263 138.71042 26.268763 138.27292Q26.456263 137.83542 26.815638 137.58542Q27.175013 137.33542 27.721888 137.33542Q28.253138 137.33542 28.721888 137.64792Q29.175013 137.9448 29.440638 138.52292Q29.690638 139.10104 29.690638 139.83542Q29.690638 141.05417 29.190638 141.6948Q28.675013 142.3198 27.690638 142.49167ZM29.690638 136.86667L20.815638 134.3823L20.815638 133.53854L29.690638 136.02292L29.690638 136.86667ZM22.175013 133.0698L20.956263 133.0698L20.956263 132.0073L22.175013 132.0073L22.175013 133.0698ZM29.550013 133.0698L23.331263 133.0698L23.331263 132.0073L29.550013 132.0073L29.550013 133.0698ZM29.550013 130.0698L23.331263 130.0698L23.331263 129.1323L24.206263 129.1323Q23.190638 128.4448 23.190638 127.14792Q23.190638 126.58542 23.393763 126.11667Q23.596888 125.63229 23.925013 125.39792Q24.253138 125.16354 24.690638 125.06979Q24.987513 125.02292 25.721888 125.02292L29.550013 125.02292L29.550013 126.06979L25.768763 126.06979Q25.112513 126.06979 24.800013 126.19479Q24.487513 126.31979 24.300013 126.63229Q24.096888 126.94479 24.096888 127.36667Q24.096888 128.03854 24.534388 128.53854Q24.956263 129.02292 26.143763 129.02292L29.550013 129.02292L29.550013 130.0698ZM32.08126 122.38229L32.08126 123.13229Q29.268763 121.38229 26.440638 121.38229Q25.346888 121.38229 24.253138 121.63229Q23.378138 121.83542 22.565638 122.19479Q22.050013 122.42917 20.815638 123.13229L20.815638 122.38229Q22.284388 121.28854 23.768763 120.75729Q25.050013 120.30417 26.440638 120.30417Q28.018763 120.30417 29.503138 120.91354Q30.971888 121.52292 32.08126 122.38229Z" fill-rule="nonzero"/><path fill="#000000" d="M65.05 300.21564Q65.05 298.6844 65.3625 297.7625Q65.675 296.825 66.28438 296.325Q66.90938 295.825 67.84688 295.825Q68.53438 295.825 69.05 296.10626Q69.58125 296.3875 69.925 296.91876Q70.26875 297.4344 70.45625 298.1844Q70.64375 298.9344 70.64375 300.21564Q70.64375 301.73126 70.33125 302.65314Q70.03438 303.575 69.40938 304.09064Q68.8 304.59064 67.84688 304.59064Q66.6125 304.59064 65.89375 303.7Q65.05 302.6375 65.05 300.21564ZM66.12813 300.21564Q66.12813 302.325 66.62813 303.02814Q67.12813 303.73126 67.84688 303.73126Q68.58125 303.73126 69.06563 303.02814Q69.56563 302.325 69.56563 300.21564Q69.56563 298.09064 69.06563 297.40314Q68.58125 296.7 67.83125 296.7Q67.1125 296.7 66.675 297.3094Q66.12813 298.09064 66.12813 300.21564Z" fill-rule="nonzero"/><path fill="#000000" d="M69.01875 233.72778L67.97188 233.72778L67.97188 227.00903Q67.58125 227.36841 66.95625 227.74341Q66.34688 228.10278 65.8625 228.27466L65.8625 227.25903Q66.7375 226.83716 67.39375 226.25903Q68.06563 225.66528 68.34688 225.10278L69.01875 225.10278L69.01875 233.72778Z" fill-rule="nonzero"/><path fill="#000000" d="M70.59688 161.98993L70.59688 163.00555L64.90938 163.00555Q64.90938 162.63055 65.03438 162.27118Q65.25313 161.69305 65.72188 161.13055Q66.20625 160.56805 67.1125 159.83368Q68.51875 158.67743 69.00313 158.00555Q69.50313 157.33368 69.50313 156.73993Q69.50313 156.11493 69.05 155.69305Q68.59688 155.25555 67.87813 155.25555Q67.1125 155.25555 66.65938 155.70868Q66.20625 156.1618 66.19063 156.9743L65.1125 156.86493Q65.22188 155.64618 65.94063 155.02118Q66.675 154.38055 67.90938 154.38055Q69.14375 154.38055 69.8625 155.06805Q70.58125 155.75555 70.58125 156.77118Q70.58125 157.2868 70.3625 157.7868Q70.15938 158.27118 69.65938 158.83368Q69.175 159.38055 68.05 160.33368Q67.09688 161.13055 66.81563 161.42743Q66.55 161.70868 66.37813 161.98993L70.59688 161.98993Z" fill-rule="nonzero"/><path fill="#000000" d="M65.05 90.01771L66.1125 89.87708Q66.28438 90.76771 66.72188 91.17396Q67.15938 91.56458 67.78438 91.56458Q68.53438 91.56458 69.05 91.04896Q69.56563 90.53333 69.56563 89.76771Q69.56563 89.04896 69.08125 88.58021Q68.6125 88.09583 67.87813 88.09583Q67.58125 88.09583 67.12813 88.22083L67.25313 87.28333Q67.3625 87.29896 67.425 87.29896Q68.09688 87.29896 68.62813 86.95521Q69.175 86.59583 69.175 85.86146Q69.175 85.28333 68.78438 84.90833Q68.39375 84.51771 67.76875 84.51771Q67.15938 84.51771 66.7375 84.90833Q66.33125 85.29896 66.22188 86.06458L65.15938 85.87708Q65.34688 84.83021 66.03438 84.25208Q66.72188 83.65833 67.7375 83.65833Q68.44063 83.65833 69.03438 83.97083Q69.62813 84.26771 69.94063 84.78333Q70.25313 85.29896 70.25313 85.89271Q70.25313 86.43958 69.95625 86.90833Q69.65938 87.36146 69.08125 87.62708Q69.83125 87.79896 70.25313 88.36146Q70.675 88.90833 70.675 89.75208Q70.675 90.87708 69.84688 91.65833Q69.03438 92.43958 67.78438 92.43958Q66.65938 92.43958 65.90938 91.76771Q65.15938 91.08021 65.05 90.01771Z" fill-rule="nonzero"/><path fill="#000000" d="M484.85092 315.46564L485.86655 315.3719Q485.99155 316.09064 486.35092 316.41876Q486.72592 316.73126 487.28842 316.73126Q487.7728 316.73126 488.13217 316.5125Q488.50717 316.27814 488.74155 315.91876Q488.97592 315.54376 489.13217 314.91876Q489.28842 314.27814 489.28842 313.6219Q489.28842 313.54376 489.28842 313.40314Q488.97592 313.90314 488.42905 314.23126Q487.88217 314.54376 487.24155 314.54376Q486.16342 314.54376 485.42905 313.77814Q484.69467 312.9969 484.69467 311.73126Q484.69467 310.41876 485.4603 309.6219Q486.24155 308.825 487.3978 308.825Q488.22592 308.825 488.91342 309.27814Q489.61655 309.73126 489.97592 310.575Q490.3353 311.40314 490.3353 312.98126Q490.3353 314.6219 489.97592 315.60626Q489.63217 316.575 488.91342 317.09064Q488.2103 317.59064 487.2728 317.59064Q486.25717 317.59064 485.61655 317.04376Q484.97592 316.48126 484.85092 315.46564ZM489.16342 311.66876Q489.16342 310.7625 488.67905 310.23126Q488.2103 309.7 487.5228 309.7Q486.81967 309.7 486.28842 310.27814Q485.7728 310.84064 485.7728 311.7625Q485.7728 312.575 486.2728 313.09064Q486.7728 313.60626 487.49155 313.60626Q488.22592 313.60626 488.69467 313.09064Q489.16342 312.575 489.16342 311.66876ZM492.28842 317.45L492.28842 316.2469L493.49155 316.2469L493.49155 317.45L492.28842 317.45ZM496.31967 312.79376Q495.66342 312.54376 495.3353 312.10626Q495.0228 311.65314 495.0228 311.04376Q495.0228 310.10626 495.69467 309.46564Q496.38217 308.825 497.49155 308.825Q498.61655 308.825 499.30405 309.48126Q499.99155 310.1375 499.99155 311.075Q499.99155 311.66876 499.67905 312.10626Q499.36655 312.54376 498.72592 312.79376Q499.5228 313.04376 499.92905 313.6219Q500.3353 314.2 500.3353 314.9969Q500.3353 316.09064 499.55405 316.84064Q498.78842 317.59064 497.50717 317.59064Q496.24155 317.59064 495.4603 316.84064Q494.67905 316.09064 494.67905 314.96564Q494.67905 314.1219 495.10092 313.5594Q495.53842 312.9969 496.31967 312.79376ZM496.10092 310.9969Q496.10092 311.60626 496.49155 311.9969Q496.8978 312.3875 497.5228 312.3875Q498.13217 312.3875 498.5228 312.0125Q498.91342 311.6219 498.91342 311.0594Q498.91342 310.48126 498.50717 310.09064Q498.10092 309.6844 497.50717 309.6844Q496.8978 309.6844 496.49155 310.075Q496.10092 310.46564 496.10092 310.9969ZM495.7728 314.96564Q495.7728 315.41876 495.97592 315.84064Q496.19467 316.2625 496.61655 316.4969Q497.03842 316.73126 497.5228 316.73126Q498.2728 316.73126 498.75717 316.2469Q499.25717 315.7625 499.25717 315.0125Q499.25717 314.2469 498.75717 313.7469Q498.25717 313.2469 497.49155 313.2469Q496.74155 313.2469 496.25717 313.7469Q495.7728 314.23126 495.7728 314.96564ZM501.69467 315.2L502.80405 315.10626Q502.92905 315.91876 503.36655 316.325Q503.81967 316.73126 504.4603 316.73126Q505.2103 316.73126 505.74155 316.15314Q506.2728 315.575 506.2728 314.6375Q506.2728 313.73126 505.75717 313.21564Q505.25717 312.6844 504.42905 312.6844Q503.92905 312.6844 503.50717 312.91876Q503.10092 313.15314 502.86655 313.5125L501.88217 313.3875L502.7103 308.98126L506.99155 308.98126L506.99155 309.98126L503.55405 309.98126L503.10092 312.29376Q503.86655 311.7469 504.7103 311.7469Q505.8353 311.7469 506.60092 312.52814Q507.38217 313.3094 507.38217 314.54376Q507.38217 315.7 506.7103 316.5594Q505.88217 317.59064 504.4603 317.59064Q503.28842 317.59064 502.53842 316.9344Q501.80405 316.27814 501.69467 315.2Z" fill-rule="nonzero"/><path fill="#000000" d="M386.79523 315.46564L387.81085 315.3719Q387.93585 316.09064 388.29523 316.41876Q388.67023 316.73126 389.23273 316.73126Q389.7171 316.73126 390.07648 316.5125Q390.45148 316.27814 390.68585 315.91876Q390.92023 315.54376 391.07648 314.91876Q391.23273 314.27814 391.23273 313.6219Q391.23273 313.54376 391.23273 313.40314Q390.92023 313.90314 390.37335 314.23126Q389.82648 314.54376 389.18585 314.54376Q388.10773 314.54376 387.37335 313.77814Q386.63898 312.9969 386.63898 311.73126Q386.63898 310.41876 387.4046 309.6219Q388.18585 308.825 389.3421 308.825Q390.17023 308.825 390.85773 309.27814Q391.56085 309.73126 391.92023 310.575Q392.2796 311.40314 392.2796 312.98126Q392.2796 314.6219 391.92023 315.60626Q391.57648 316.575 390.85773 317.09064Q390.1546 317.59064 389.2171 317.59064Q388.20148 317.59064 387.56085 317.04376Q386.92023 316.48126 386.79523 315.46564ZM391.10773 311.66876Q391.10773 310.7625 390.62335 310.23126Q390.1546 309.7 389.4671 309.7Q388.76398 309.7 388.23273 310.27814Q387.7171 310.84064 387.7171 311.7625Q387.7171 312.575 388.2171 313.09064Q388.7171 313.60626 389.43585 313.60626Q390.17023 313.60626 390.63898 313.09064Q391.10773 312.575 391.10773 311.66876ZM394.23273 317.45L394.23273 316.2469L395.43585 316.2469L395.43585 317.45L394.23273 317.45ZM396.79523 315.46564L397.81085 315.3719Q397.93585 316.09064 398.29523 316.41876Q398.67023 316.73126 399.23273 316.73126Q399.7171 316.73126 400.07648 316.5125Q400.45148 316.27814 400.68585 315.91876Q400.92023 315.54376 401.07648 314.91876Q401.23273 314.27814 401.23273 313.6219Q401.23273 313.54376 401.23273 313.40314Q400.92023 313.90314 400.37335 314.23126Q399.82648 314.54376 399.18585 314.54376Q398.10773 314.54376 397.37335 313.77814Q396.63898 312.9969 396.63898 311.73126Q396.63898 310.41876 397.4046 309.6219Q398.18585 308.825 399.3421 308.825Q400.17023 308.825 400.85773 309.27814Q401.56085 309.73126 401.92023 310.575Q402.2796 311.40314 402.2796 312.98126Q402.2796 314.6219 401.92023 315.60626Q401.57648 316.575 400.85773 317.09064Q400.1546 317.59064 399.2171 317.59064Q398.20148 317.59064 397.56085 317.04376Q396.92023 316.48126 396.79523 315.46564ZM401.10773 311.66876Q401.10773 310.7625 400.62335 310.23126Q400.1546 309.7 399.4671 309.7Q398.76398 309.7 398.23273 310.27814Q397.7171 310.84064 397.7171 311.7625Q397.7171 312.575 398.2171 313.09064Q398.7171 313.60626 399.43585 313.60626Q400.17023 313.60626 400.63898 313.09064Q401.10773 312.575 401.10773 311.66876ZM403.63898 313.21564Q403.63898 311.6844 403.95148 310.7625Q404.26398 309.825 404.87335 309.325Q405.49835 308.825 406.43585 308.825Q407.12335 308.825 407.63898 309.10626Q408.17023 309.3875 408.51398 309.91876Q408.85773 310.4344 409.04523 311.1844Q409.23273 311.9344 409.23273 313.21564Q409.23273 314.73126 408.92023 315.65314Q408.62335 316.575 407.99835 317.09064Q407.38898 317.59064 406.43585 317.59064Q405.20148 317.59064 404.48273 316.7Q403.63898 315.6375 403.63898 313.21564ZM404.7171 313.21564Q404.7171 315.325 405.2171 316.02814Q405.7171 316.73126 406.43585 316.73126Q407.17023 316.73126 407.6546 316.02814Q408.1546 315.325 408.1546 313.21564Q408.1546 311.09064 407.6546 310.40314Q407.17023 309.7 406.42023 309.7Q405.70148 309.7 405.26398 310.3094Q404.7171 311.09064 404.7171 313.21564Z" fill-rule="nonzero"/><path fill="#000000" d="M288.73953 315.46564L289.75516 315.3719Q289.88016 316.09064 290.23953 316.41876Q290.61453 316.73126 291.17703 316.73126Q291.6614 316.73126 292.02078 316.5125Q292.39578 316.27814 292.63016 315.91876Q292.86453 315.54376 293.02078 314.91876Q293.17703 314.27814 293.17703 313.6219Q293.17703 313.54376 293.17703 313.40314Q292.86453 313.90314 292.31766 314.23126Q291.77078 314.54376 291.13016 314.54376Q290.05203 314.54376 289.31766 313.77814Q288.58328 312.9969 288.58328 311.73126Q288.58328 310.41876 289.3489 309.6219Q290.13016 308.825 291.2864 308.825Q292.11453 308.825 292.80203 309.27814Q293.50516 309.73126 293.86453 310.575Q294.2239 311.40314 294.2239 312.98126Q294.2239 314.6219 293.86453 315.60626Q293.52078 316.575 292.80203 317.09064Q292.0989 317.59064 291.1614 317.59064Q290.14578 317.59064 289.50516 317.04376Q288.86453 316.48126 288.73953 315.46564ZM293.05203 311.66876Q293.05203 310.7625 292.56766 310.23126Q292.0989 309.7 291.4114 309.7Q290.70828 309.7 290.17703 310.27814Q289.6614 310.84064 289.6614 311.7625Q289.6614 312.575 290.1614 313.09064Q290.6614 313.60626 291.38016 313.60626Q292.11453 313.60626 292.58328 313.09064Q293.05203 312.575 293.05203 311.66876ZM296.17703 317.45L296.17703 316.2469L297.38016 316.2469L297.38016 317.45L296.17703 317.45ZM298.73953 315.46564L299.75516 315.3719Q299.88016 316.09064 300.23953 316.41876Q300.61453 316.73126 301.17703 316.73126Q301.6614 316.73126 302.02078 316.5125Q302.39578 316.27814 302.63016 315.91876Q302.86453 315.54376 303.02078 314.91876Q303.17703 314.27814 303.17703 313.6219Q303.17703 313.54376 303.17703 313.40314Q302.86453 313.90314 302.31766 314.23126Q301.77078 314.54376 301.13016 314.54376Q300.05203 314.54376 299.31766 313.77814Q298.58328 312.9969 298.58328 311.73126Q298.58328 310.41876 299.3489 309.6219Q300.13016 308.825 301.2864 308.825Q302.11453 308.825 302.80203 309.27814Q303.50516 309.73126 303.86453 310.575Q304.2239 311.40314 304.2239 312.98126Q304.2239 314.6219 303.86453 315.60626Q303.52078 316.575 302.80203 317.09064Q302.0989 317.59064 301.1614 317.59064Q300.14578 317.59064 299.50516 317.04376Q298.86453 316.48126 298.73953 315.46564ZM303.05203 311.66876Q303.05203 310.7625 302.56766 310.23126Q302.0989 309.7 301.4114 309.7Q300.70828 309.7 300.17703 310.27814Q299.6614 310.84064 299.6614 311.7625Q299.6614 312.575 300.1614 313.09064Q300.6614 313.60626 301.38016 313.60626Q302.11453 313.60626 302.58328 313.09064Q303.05203 312.575 303.05203 311.66876ZM305.58328 315.2L306.69266 315.10626Q306.81766 315.91876 307.25516 316.325Q307.70828 316.73126 308.3489 316.73126Q309.0989 316.73126 309.63016 316.15314Q310.1614 315.575 310.1614 314.6375Q310.1614 313.73126 309.64578 313.21564Q309.14578 312.6844 308.31766 312.6844Q307.81766 312.6844 307.39578 312.91876Q306.98953 313.15314 306.75516 313.5125L305.77078 313.3875L306.5989 308.98126L310.88016 308.98126L310.88016 309.98126L307.44266 309.98126L306.98953 312.29376Q307.75516 311.7469 308.5989 311.7469Q309.7239 311.7469 310.48953 312.52814Q311.27078 313.3094 311.27078 314.54376Q311.27078 315.7 310.5989 316.5594Q309.77078 317.59064 308.3489 317.59064Q307.17703 317.59064 306.42703 316.9344Q305.69266 316.27814 305.58328 315.2Z" fill-rule="nonzero"/><path fill="#000000" d="M190.99635 317.45L189.94948 317.45L189.94948 310.73126Q189.55885 311.09064 188.93385 311.46564Q188.32448 311.825 187.8401 311.9969L187.8401 310.98126Q188.7151 310.5594 189.37135 309.98126Q190.04323 309.3875 190.32448 308.825L190.99635 308.825L190.99635 317.45ZM194.0276 313.21564Q194.0276 311.6844 194.3401 310.7625Q194.6526 309.825 195.26198 309.325Q195.88698 308.825 196.82448 308.825Q197.51198 308.825 198.0276 309.10626Q198.55885 309.3875 198.9026 309.91876Q199.24635 310.4344 199.43385 311.1844Q199.62135 311.9344 199.62135 313.21564Q199.62135 314.73126 199.30885 315.65314Q199.01198 316.575 198.38698 317.09064Q197.7776 317.59064 196.82448 317.59064Q195.5901 317.59064 194.87135 316.7Q194.0276 315.6375 194.0276 313.21564ZM195.10573 313.21564Q195.10573 315.325 195.60573 316.02814Q196.10573 316.73126 196.82448 316.73126Q197.55885 316.73126 198.04323 316.02814Q198.54323 315.325 198.54323 313.21564Q198.54323 311.09064 198.04323 310.40314Q197.55885 309.7 196.80885 309.7Q196.0901 309.7 195.6526 310.3094Q195.10573 311.09064 195.10573 313.21564ZM201.62135 317.45L201.62135 316.2469L202.82448 316.2469L202.82448 317.45L201.62135 317.45ZM204.0276 313.21564Q204.0276 311.6844 204.3401 310.7625Q204.6526 309.825 205.26198 309.325Q205.88698 308.825 206.82448 308.825Q207.51198 308.825 208.0276 309.10626Q208.55885 309.3875 208.9026 309.91876Q209.24635 310.4344 209.43385 311.1844Q209.62135 311.9344 209.62135 313.21564Q209.62135 314.73126 209.30885 315.65314Q209.01198 316.575 208.38698 317.09064Q207.7776 317.59064 206.82448 317.59064Q205.5901 317.59064 204.87135 316.7Q204.0276 315.6375 204.0276 313.21564ZM205.10573 313.21564Q205.10573 315.325 205.60573 316.02814Q206.10573 316.73126 206.82448 316.73126Q207.55885 316.73126 208.04323 316.02814Q208.54323 315.325 208.54323 313.21564Q208.54323 311.09064 208.04323 310.40314Q207.55885 309.7 206.80885 309.7Q206.0901 309.7 205.6526 310.3094Q205.10573 311.09064 205.10573 313.21564ZM211.0276 313.21564Q211.0276 311.6844 211.3401 310.7625Q211.6526 309.825 212.26198 309.325Q212.88698 308.825 213.82448 308.825Q214.51198 308.825 215.0276 309.10626Q215.55885 309.3875 215.9026 309.91876Q216.24635 310.4344 216.43385 311.1844Q216.62135 311.9344 216.62135 313.21564Q216.62135 314.73126 216.30885 315.65314Q216.01198 316.575 215.38698 317.09064Q214.7776 317.59064 213.82448 317.59064Q212.5901 317.59064 211.87135 316.7Q211.0276 315.6375 211.0276 313.21564ZM212.10573 313.21564Q212.10573 315.325 212.60573 316.02814Q213.10573 316.73126 213.82448 316.73126Q214.55885 316.73126 215.04323 316.02814Q215.54323 315.325 215.54323 313.21564Q215.54323 311.09064 215.04323 310.40314Q214.55885 309.7 213.80885 309.7Q213.0901 309.7 212.6526 310.3094Q212.10573 311.09064 212.10573 313.21564Z" fill-rule="nonzero"/><path fill="#000000" d="M92.94066 317.45L91.89378 317.45L91.89378 310.73126Q91.50316 311.09064 90.87816 311.46564Q90.26878 311.825 89.78441 311.9969L89.78441 310.98126Q90.65941 310.5594 91.31566 309.98126Q91.98753 309.3875 92.26878 308.825L92.94066 308.825L92.94066 317.45ZM95.97191 313.21564Q95.97191 311.6844 96.28441 310.7625Q96.59691 309.825 97.20628 309.325Q97.83128 308.825 98.76878 308.825Q99.45628 308.825 99.97191 309.10626Q100.50316 309.3875 100.84691 309.91876Q101.19066 310.4344 101.37816 311.1844Q101.56566 311.9344 101.56566 313.21564Q101.56566 314.73126 101.25316 315.65314Q100.95628 316.575 100.33128 317.09064Q99.72191 317.59064 98.76878 317.59064Q97.53441 317.59064 96.81566 316.7Q95.97191 315.6375 95.97191 313.21564ZM97.05003 313.21564Q97.05003 315.325 97.55003 316.02814Q98.05003 316.73126 98.76878 316.73126Q99.50316 316.73126 99.98753 316.02814Q100.48753 315.325 100.48753 313.21564Q100.48753 311.09064 99.98753 310.40314Q99.50316 309.7 98.75316 309.7Q98.03441 309.7 97.59691 310.3094Q97.05003 311.09064 97.05003 313.21564ZM103.56566 317.45L103.56566 316.2469L104.76878 316.2469L104.76878 317.45L103.56566 317.45ZM105.97191 313.21564Q105.97191 311.6844 106.28441 310.7625Q106.59691 309.825 107.20628 309.325Q107.83128 308.825 108.76878 308.825Q109.45628 308.825 109.97191 309.10626Q110.50316 309.3875 110.84691 309.91876Q111.19066 310.4344 111.37816 311.1844Q111.56566 311.9344 111.56566 313.21564Q111.56566 314.73126 111.25316 315.65314Q110.95628 316.575 110.33128 317.09064Q109.72191 317.59064 108.76878 317.59064Q107.53441 317.59064 106.81566 316.7Q105.97191 315.6375 105.97191 313.21564ZM107.05003 313.21564Q107.05003 315.325 107.55003 316.02814Q108.05003 316.73126 108.76878 316.73126Q109.50316 316.73126 109.98753 316.02814Q110.48753 315.325 110.48753 313.21564Q110.48753 311.09064 109.98753 310.40314Q109.50316 309.7 108.75316 309.7Q108.03441 309.7 107.59691 310.3094Q107.05003 311.09064 107.05003 313.21564ZM112.97191 315.2L114.08128 315.10626Q114.20628 315.91876 114.64378 316.325Q115.09691 316.73126 115.73753 316.73126Q116.48753 316.73126 117.01878 316.15314Q117.55003 315.575 117.55003 314.6375Q117.55003 313.73126 117.03441 313.21564Q116.53441 312.6844 115.70628 312.6844Q115.20628 312.6844 114.78441 312.91876Q114.37816 313.15314 114.14378 313.5125L113.15941 313.3875L113.98753 308.98126L118.26878 308.98126L118.26878 309.98126L114.83128 309.98126L114.37816 312.29376Q115.14378 311.7469 115.98753 311.7469Q117.11253 311.7469 117.87816 312.52814Q118.65941 313.3094 118.65941 314.54376Q118.65941 315.7 117.98753 316.5594Q117.15941 317.59064 115.73753 317.59064Q114.56566 317.59064 113.81566 316.9344Q113.08128 316.27814 112.97191 315.2Z" fill-rule="nonzero"/><path fill="#4285f4" d="M204.0 61.916668C204.0 65.23038 201.3137 67.916664 198.0 67.916664C194.6863 67.916664 192.0 65.23038 192.0 61.916668C192.0 58.60296 194.6863 55.916668 198.0 55.916668C201.3137 55.916668 204.0 58.60296 204.0 61.916668Z" fill-rule="nonzero"/><path stroke="#4285f4" stroke-width="4.0" stroke-linecap="butt" stroke-opacity="0.4" d="M220.0 61.916668L232.0 61.916668" fill-rule="nonzero"/><path fill="#1a1a1a" d="M243.10938 65.916664L243.10938 58.33854L240.28125 58.33854L240.28125 57.322914L247.09375 57.322914L247.09375 58.33854L244.25 58.33854L244.25 65.916664L243.10938 65.916664ZM247.78125 65.916664L247.78125 59.697914L248.73438 59.697914L248.73438 60.635414Q249.09375 59.979164 249.39062 59.77604Q249.70312 59.55729 250.07812 59.55729Q250.60938 59.55729 251.15625 59.885414L250.79688 60.86979Q250.40625 60.635414 250.03125 60.635414Q249.67188 60.635414 249.39062 60.854164Q249.125 61.05729 249.01562 61.43229Q248.82812 61.99479 248.82812 62.65104L248.82812 65.916664L247.78125 65.916664ZM256.04688 63.916664L257.14062 64.041664Q256.89062 64.99479 256.1875 65.52604Q255.48438 66.05729 254.40625 66.05729Q253.04688 66.05729 252.23438 65.21354Q251.4375 64.36979 251.4375 62.854164Q251.4375 61.291664 252.25 60.43229Q253.0625 59.55729 254.34375 59.55729Q255.59375 59.55729 256.375 60.40104Q257.17188 61.24479 257.17188 62.791664Q257.17188 62.885414 257.17188 63.072914L252.53125 63.072914Q252.59375 64.104164 253.10938 64.65104Q253.625 65.18229 254.40625 65.18229Q254.98438 65.18229 255.39062 64.885414Q255.8125 64.572914 256.04688 63.916664ZM252.59375 62.21354L256.0625 62.21354Q256.0 61.416664 255.67188 61.02604Q255.15625 60.416664 254.35938 60.416664Q253.625 60.416664 253.125 60.90104Q252.64062 61.385414 252.59375 62.21354ZM258.79688 65.916664L258.79688 59.697914L259.73438 59.697914L259.73438 60.572914Q260.42188 59.55729 261.71875 59.55729Q262.28125 59.55729 262.75 59.760414Q263.23438 59.96354 263.46875 60.291664Q263.70312 60.61979 263.79688 61.05729Q263.84375 61.354164 263.84375 62.08854L263.84375 65.916664L262.79688 65.916664L262.79688 62.135414Q262.79688 61.479164 262.67188 61.166664Q262.54688 60.854164 262.23438 60.666664Q261.92188 60.46354 261.5 60.46354Q260.82812 60.46354 260.32812 60.90104Q259.84375 61.322914 259.84375 62.510414L259.84375 65.916664L258.79688 65.916664ZM269.82812 65.916664L269.82812 65.135414Q269.23438 66.05729 268.09375 66.05729Q267.34375 66.05729 266.71875 65.65104Q266.09375 65.229164 265.75 64.49479Q265.40625 63.760414 265.40625 62.80729Q265.40625 61.885414 265.71875 61.11979Q266.03125 60.354164 266.65625 59.96354Q267.28125 59.55729 268.04688 59.55729Q268.60938 59.55729 269.04688 59.791664Q269.48438 60.02604 269.76562 60.40104L269.76562 57.322914L270.8125 57.322914L270.8125 65.916664L269.82812 65.916664ZM266.5 62.80729Q266.5 64.010414 267.0 64.604164Q267.5 65.18229 268.1875 65.18229Q268.875 65.18229 269.35938 64.61979Q269.84375 64.05729 269.84375 62.90104Q269.84375 61.61979 269.34375 61.02604Q268.85938 60.43229 268.14062 60.43229Q267.4375 60.43229 266.96875 61.010414Q266.5 61.572914 266.5 62.80729ZM272.76562 65.916664L272.76562 57.322914L273.82812 57.322914L273.82812 65.916664L272.76562 65.916664ZM275.79688 58.541664L275.79688 57.322914L276.85938 57.322914L276.85938 58.541664L275.79688 58.541664ZM275.79688 65.916664L275.79688 59.697914L276.85938 59.697914L276.85938 65.916664L275.79688 65.916664ZM278.79688 65.916664L278.79688 59.697914L279.73438 59.697914L279.73438 60.572914Q280.42188 59.55729 281.71875 59.55729Q282.28125 59.55729 282.75 59.760414Q283.23438 59.96354 283.46875 60.291664Q283.70312 60.61979 283.79688 61.05729Q283.84375 61.354164 283.84375 62.08854L283.84375 65.916664L282.79688 65.916664L282.79688 62.135414Q282.79688 61.479164 282.67188 61.166664Q282.54688 60.854164 282.23438 60.666664Q281.92188 60.46354 281.5 60.46354Q280.82812 60.46354 280.32812 60.90104Q279.84375 61.322914 279.84375 62.510414L279.84375 65.916664L278.79688 65.916664ZM290.04688 63.916664L291.14062 64.041664Q290.89062 64.99479 290.1875 65.52604Q289.48438 66.05729 288.40625 66.05729Q287.04688 66.05729 286.23438 65.21354Q285.4375 64.36979 285.4375 62.854164Q285.4375 61.291664 286.25 60.43229Q287.0625 59.55729 288.34375 59.55729Q289.59375 59.55729 290.375 60.40104Q291.17188 61.24479 291.17188 62.791664Q291.17188 62.885414 291.17188 63.072914L286.53125 63.072914Q286.59375 64.104164 287.10938 64.65104Q287.625 65.18229 288.40625 65.18229Q288.98438 65.18229 289.39062 64.885414Q289.8125 64.572914 290.04688 63.916664ZM286.59375 62.21354L290.0625 62.21354Q290.0 61.416664 289.67188 61.02604Q289.15625 60.416664 288.35938 60.416664Q287.625 60.416664 287.125 60.90104Q286.64062 61.385414 286.59375 62.21354ZM296.04688 65.916664L296.04688 60.510414L295.10938 60.510414L295.10938 59.697914L296.04688 59.697914L296.04688 59.02604Q296.04688 58.40104 296.15625 58.104164Q296.3125 57.68229 296.6875 57.43229Q297.07812 57.18229 297.76562 57.18229Q298.21875 57.18229 298.75 57.291664L298.59375 58.197914Q298.26562 58.15104 297.96875 58.15104Q297.48438 58.15104 297.28125 58.354164Q297.09375 58.55729 297.09375 59.11979L297.09375 59.697914L298.3125 59.697914L298.3125 60.510414L297.09375 60.510414L297.09375 65.916664L296.04688 65.916664ZM298.40625 62.80729Q298.40625 61.072914 299.35938 60.24479Q300.15625 59.55729 301.3125 59.55729Q302.59375 59.55729 303.40625 60.40104Q304.23438 61.229164 304.23438 62.71354Q304.23438 63.916664 303.875 64.604164Q303.51562 65.291664 302.8125 65.68229Q302.125 66.05729 301.3125 66.05729Q300.01562 66.05729 299.20312 65.229164Q298.40625 64.385414 298.40625 62.80729ZM299.48438 62.80729Q299.48438 63.99479 300.0 64.58854Q300.53125 65.18229 301.3125 65.18229Q302.10938 65.18229 302.625 64.58854Q303.14062 63.99479 303.14062 62.77604Q303.14062 61.61979 302.60938 61.02604Q302.09375 60.43229 301.3125 60.43229Q300.53125 60.43229 300.0 61.02604Q299.48438 61.604164 299.48438 62.80729ZM305.78125 65.916664L305.78125 59.697914L306.73438 59.697914L306.73438 60.635414Q307.09375 59.979164 307.39062 59.77604Q307.70312 59.55729 308.07812 59.55729Q308.60938 59.55729 309.15625 59.885414L308.79688 60.86979Q308.40625 60.635414 308.03125 60.635414Q307.67188 60.635414 307.39062 60.854164Q307.125 61.05729 307.01562 61.43229Q306.82812 61.99479 306.82812 62.65104L306.82812 65.916664L305.78125 65.916664ZM312.375 64.05729L313.40625 63.90104Q313.5 64.52604 313.89062 64.854164Q314.29688 65.18229 315.03125 65.18229Q315.75 65.18229 316.09375 64.90104Q316.45312 64.604164 316.45312 64.197914Q316.45312 63.83854 316.14062 63.635414Q315.92188 63.49479 315.0625 63.27604Q313.90625 62.979164 313.45312 62.77604Q313.01562 62.55729 312.78125 62.18229Q312.54688 61.80729 312.54688 61.33854Q312.54688 60.93229 312.73438 60.572914Q312.92188 60.21354 313.25 59.979164Q313.5 59.80729 313.92188 59.68229Q314.34375 59.55729 314.84375 59.55729Q315.5625 59.55729 316.10938 59.77604Q316.67188 59.979164 316.9375 60.33854Q317.20312 60.697914 317.29688 61.291664L316.26562 61.43229Q316.20312 60.96354 315.85938 60.697914Q315.53125 60.416664 314.90625 60.416664Q314.1875 60.416664 313.875 60.666664Q313.5625 60.90104 313.5625 61.229164Q313.5625 61.43229 313.6875 61.58854Q313.82812 61.760414 314.09375 61.86979Q314.25 61.93229 315.03125 62.135414Q316.15625 62.447914 316.59375 62.635414Q317.03125 62.822914 317.28125 63.18229Q317.53125 63.541664 317.53125 64.08854Q317.53125 64.61979 317.21875 65.08854Q316.92188 65.541664 316.34375 65.80729Q315.76562 66.05729 315.03125 66.05729Q313.8125 66.05729 313.17188 65.55729Q312.54688 65.041664 312.375 64.05729ZM323.04688 63.916664L324.14062 64.041664Q323.89062 64.99479 323.1875 65.52604Q322.48438 66.05729 321.40625 66.05729Q320.04688 66.05729 319.23438 65.21354Q318.4375 64.36979 318.4375 62.854164Q318.4375 61.291664 319.25 60.43229Q320.0625 59.55729 321.34375 59.55729Q322.59375 59.55729 323.375 60.40104Q324.17188 61.24479 324.17188 62.791664Q324.17188 62.885414 324.17188 63.072914L319.53125 63.072914Q319.59375 64.104164 320.10938 64.65104Q320.625 65.18229 321.40625 65.18229Q321.98438 65.18229 322.39062 64.885414Q322.8125 64.572914 323.04688 63.916664ZM319.59375 62.21354L323.0625 62.21354Q323.0 61.416664 322.67188 61.02604Q322.15625 60.416664 321.35938 60.416664Q320.625 60.416664 320.125 60.90104Q319.64062 61.385414 319.59375 62.21354ZM325.78125 65.916664L325.78125 59.697914L326.73438 59.697914L326.73438 60.635414Q327.09375 59.979164 327.39062 59.77604Q327.70312 59.55729 328.07812 59.55729Q328.60938 59.55729 329.15625 59.885414L328.79688 60.86979Q328.40625 60.635414 328.03125 60.635414Q327.67188 60.635414 327.39062 60.854164Q327.125 61.05729 327.01562 61.43229Q326.82812 61.99479 326.82812 62.65104L326.82812 65.916664L325.78125 65.916664ZM329.79688 58.541664L329.79688 57.322914L330.85938 57.322914L330.85938 58.541664L329.79688 58.541664ZM329.79688 65.916664L329.79688 59.697914L330.85938 59.697914L330.85938 65.916664L329.79688 65.916664ZM337.04688 63.916664L338.14062 64.041664Q337.89062 64.99479 337.1875 65.52604Q336.48438 66.05729 335.40625 66.05729Q334.04688 66.05729 333.23438 65.21354Q332.4375 64.36979 332.4375 62.854164Q332.4375 61.291664 333.25 60.43229Q334.0625 59.55729 335.34375 59.55729Q336.59375 59.55729 337.375 60.40104Q338.17188 61.24479 338.17188 62.791664Q338.17188 62.885414 338.17188 63.072914L333.53125 63.072914Q333.59375 64.104164 334.10938 64.65104Q334.625 65.18229 335.40625 65.18229Q335.98438 65.18229 336.39062 64.885414Q336.8125 64.572914 337.04688 63.916664ZM333.59375 62.21354L337.0625 62.21354Q337.0 61.416664 336.67188 61.02604Q336.15625 60.416664 335.35938 60.416664Q334.625 60.416664 334.125 60.90104Q333.64062 61.385414 333.59375 62.21354ZM339.375 64.05729L340.40625 63.90104Q340.5 64.52604 340.89062 64.854164Q341.29688 65.18229 342.03125 65.18229Q342.75 65.18229 343.09375 64.90104Q343.45312 64.604164 343.45312 64.197914Q343.45312 63.83854 343.14062 63.635414Q342.92188 63.49479 342.0625 63.27604Q340.90625 62.979164 340.45312 62.77604Q340.01562 62.55729 339.78125 62.18229Q339.54688 61.80729 339.54688 61.33854Q339.54688 60.93229 339.73438 60.572914Q339.92188 60.21354 340.25 59.979164Q340.5 59.80729 340.92188 59.68229Q341.34375 59.55729 341.84375 59.55729Q342.5625 59.55729 343.10938 59.77604Q343.67188 59.979164 343.9375 60.33854Q344.20312 60.697914 344.29688 61.291664L343.26562 61.43229Q343.20312 60.96354 342.85938 60.697914Q342.53125 60.416664 341.90625 60.416664Q341.1875 60.416664 340.875 60.666664Q340.5625 60.90104 340.5625 61.229164Q340.5625 61.43229 340.6875 61.58854Q340.82812 61.760414 341.09375 61.86979Q341.25 61.93229 342.03125 62.135414Q343.15625 62.447914 343.59375 62.635414Q344.03125 62.822914 344.28125 63.18229Q344.53125 63.541664 344.53125 64.08854Q344.53125 64.61979 344.21875 65.08854Q343.92188 65.541664 343.34375 65.80729Q342.76562 66.05729 342.03125 66.05729Q340.8125 66.05729 340.17188 65.55729Q339.54688 65.041664 339.375 64.05729ZM352.46875 65.916664L351.42188 65.916664L351.42188 59.197914Q351.03125 59.55729 350.40625 59.93229Q349.79688 60.291664 349.3125 60.46354L349.3125 59.447914Q350.1875 59.02604 350.84375 58.447914Q351.51562 57.854164 351.79688 57.291664L352.46875 57.291664L352.46875 65.916664ZM358.9375 65.916664L358.9375 57.322914L362.75 57.322914Q363.90625 57.322914 364.5 57.55729Q365.09375 57.791664 365.45312 58.385414Q365.8125 58.96354 365.8125 59.666664Q365.8125 60.58854 365.21875 61.21354Q364.625 61.83854 363.39062 62.010414Q363.84375 62.229164 364.07812 62.43229Q364.57812 62.885414 365.01562 63.572914L366.51562 65.916664L365.07812 65.916664L363.95312 64.135414Q363.45312 63.354164 363.125 62.947914Q362.8125 62.541664 362.54688 62.385414Q362.29688 62.21354 362.03125 62.135414Q361.84375 62.104164 361.40625 62.104164L360.07812 62.104164L360.07812 65.916664L358.9375 65.916664ZM360.07812 61.11979L362.53125 61.11979Q363.29688 61.11979 363.73438 60.96354Q364.1875 60.791664 364.40625 60.447914Q364.64062 60.08854 364.64062 59.666664Q364.64062 59.05729 364.1875 58.666664Q363.75 58.27604 362.79688 58.27604L360.07812 58.27604L360.07812 61.11979ZM367.14062 61.61979Q367.1875 61.291664 367.42188 60.947914Q367.79688 60.447914 368.64062 59.83854Q369.48438 59.229164 369.64062 59.041664Q369.85938 58.80729 369.85938 58.55729Q369.85938 58.27604 369.64062 58.104164Q369.4375 57.916664 369.04688 57.916664Q368.65625 57.916664 368.46875 58.05729Q368.28125 58.18229 368.15625 58.572914L367.26562 58.479164Q367.4375 57.83854 367.85938 57.52604Q368.28125 57.21354 369.0625 57.21354Q369.95312 57.21354 370.35938 57.572914Q370.78125 57.916664 370.78125 58.416664Q370.78125 58.90104 370.42188 59.33854Q370.17188 59.666664 369.23438 60.33854Q368.73438 60.697914 368.53125 60.916664L370.79688 60.916664L370.79688 61.61979L367.14062 61.61979ZM380.34375 60.86979L374.67188 60.86979L374.67188 59.885414L380.34375 59.885414L380.34375 60.86979ZM380.34375 63.479164L374.67188 63.479164L374.67188 62.49479L380.34375 62.49479L380.34375 63.479164ZM384.5 61.68229Q384.5 60.15104 384.8125 59.229164Q385.125 58.291664 385.73438 57.791664Q386.35938 57.291664 387.29688 57.291664Q387.98438 57.291664 388.5 57.572914Q389.03125 57.854164 389.375 58.385414Q389.71875 58.90104 389.90625 59.65104Q390.09375 60.40104 390.09375 61.68229Q390.09375 63.197914 389.78125 64.11979Q389.48438 65.041664 388.85938 65.55729Q388.25 66.05729 387.29688 66.05729Q386.0625 66.05729 385.34375 65.166664Q384.5 64.104164 384.5 61.68229ZM385.57812 61.68229Q385.57812 63.791664 386.07812 64.49479Q386.57812 65.197914 387.29688 65.197914Q388.03125 65.197914 388.51562 64.49479Q389.01562 63.791664 389.01562 61.68229Q389.01562 59.55729 388.51562 58.86979Q388.03125 58.166664 387.28125 58.166664Q386.5625 58.166664 386.125 58.77604Q385.57812 59.55729 385.57812 61.68229ZM392.09375 65.916664L392.09375 64.71354L393.29688 64.71354L393.29688 65.916664L392.09375 65.916664ZM398.46875 65.916664L397.42188 65.916664L397.42188 59.197914Q397.03125 59.55729 396.40625 59.93229Q395.79688 60.291664 395.3125 60.46354L395.3125 59.447914Q396.1875 59.02604 396.84375 58.447914Q397.51562 57.854164 397.79688 57.291664L398.46875 57.291664L398.46875 65.916664ZM401.65625 63.93229L402.67188 63.83854Q402.79688 64.55729 403.15625 64.885414Q403.53125 65.197914 404.09375 65.197914Q404.57812 65.197914 404.9375 64.979164Q405.3125 64.74479 405.54688 64.385414Q405.78125 64.010414 405.9375 63.385414Q406.09375 62.74479 406.09375 62.08854Q406.09375 62.010414 406.09375 61.86979Q405.78125 62.36979 405.23438 62.697914Q404.6875 63.010414 404.04688 63.010414Q402.96875 63.010414 402.23438 62.24479Q401.5 61.46354 401.5 60.197914Q401.5 58.885414 402.26562 58.08854Q403.04688 57.291664 404.20312 57.291664Q405.03125 57.291664 405.71875 57.74479Q406.42188 58.197914 406.78125 59.041664Q407.14062 59.86979 407.14062 61.447914Q407.14062 63.08854 406.78125 64.072914Q406.4375 65.041664 405.71875 65.55729Q405.01562 66.05729 404.07812 66.05729Q403.0625 66.05729 402.42188 65.510414Q401.78125 64.947914 401.65625 63.93229ZM405.96875 60.135414Q405.96875 59.229164 405.48438 58.697914Q405.01562 58.166664 404.32812 58.166664Q403.625 58.166664 403.09375 58.74479Q402.57812 59.30729 402.57812 60.229164Q402.57812 61.041664 403.07812 61.55729Q403.57812 62.072914 404.29688 62.072914Q405.03125 62.072914 405.5 61.55729Q405.96875 61.041664 405.96875 60.135414Z" fill-rule="nonzero"/><path fill="#757575" d="M26.003124 37.55L24.2375 37.55L24.2375 26.346874Q23.6125 26.95625 22.58125 27.565624Q21.55 28.159374 20.721874 28.471874L20.721874 26.76875Q22.20625 26.08125 23.3 25.096874Q24.409374 24.096874 24.8625 23.175L26.003124 23.175L26.003124 37.55ZM30.378124 30.4875Q30.378124 27.95625 30.89375 26.409374Q31.425 24.846874 32.45625 24.01875Q33.4875 23.175 35.05 23.175Q36.20625 23.175 37.065624 23.64375Q37.940624 24.096874 38.503124 24.971874Q39.065624 25.846874 39.39375 27.1125Q39.721874 28.3625 39.721874 30.4875Q39.721874 33.003124 39.190624 34.55Q38.675 36.096874 37.64375 36.95625Q36.628124 37.8 35.05 37.8Q32.971874 37.8 31.8 36.315624Q30.378124 34.51875 30.378124 30.4875ZM32.190624 30.4875Q32.190624 34.01875 33.003124 35.190624Q33.83125 36.346874 35.05 36.346874Q36.253124 36.346874 37.08125 35.175Q37.909374 34.003124 37.909374 30.4875Q37.909374 26.95625 37.08125 25.8Q36.253124 24.628124 35.034374 24.628124Q33.815624 24.628124 33.096874 25.659374Q32.190624 26.95625 32.190624 30.4875ZM41.378124 30.4875Q41.378124 27.95625 41.89375 26.409374Q42.425 24.846874 43.45625 24.01875Q44.4875 23.175 46.05 23.175Q47.20625 23.175 48.065624 23.64375Q48.940624 24.096874 49.503124 24.971874Q50.065624 25.846874 50.39375 27.1125Q50.721874 28.3625 50.721874 30.4875Q50.721874 33.003124 50.190624 34.55Q49.675 36.096874 48.64375 36.95625Q47.628124 37.8 46.05 37.8Q43.971874 37.8 42.8 36.315624Q41.378124 34.51875 41.378124 30.4875ZM43.190624 30.4875Q43.190624 34.01875 44.003124 35.190624Q44.83125 36.346874 46.05 36.346874Q47.253124 36.346874 48.08125 35.175Q48.909374 34.003124 48.909374 30.4875Q48.909374 26.95625 48.08125 25.8Q47.253124 24.628124 46.034374 24.628124Q44.815624 24.628124 44.096874 25.659374Q43.190624 26.95625 43.190624 30.4875ZM53.034374 37.55L53.034374 23.2375L55.89375 23.2375L59.26875 33.3625Q59.7375 34.784374 59.95625 35.4875Q60.20625 34.70625 60.721874 33.190624L64.14375 23.2375L66.69063 23.2375L66.69063 37.55L64.87813 37.55L64.87813 25.565624L60.70625 37.55L59.003124 37.55L54.8625 25.3625L54.8625 37.55L53.034374 37.55ZM78.59688 37.55L74.8 23.2375L76.7375 23.2375L78.90938 32.6125Q79.26875 34.096874 79.51875 35.55Q80.06563 33.253124 80.15938 32.89375L82.89375 23.2375L85.175 23.2375L87.22188 30.471874Q88.00313 33.175 88.34688 35.55Q88.6125 34.190624 89.05 32.425L91.3 23.2375L93.20625 23.2375L89.28438 37.55L87.45625 37.55L84.44063 26.64375Q84.05 25.26875 83.9875 24.95625Q83.75313 25.940624 83.56563 26.64375L80.53438 37.55L78.59688 37.55ZM101.97188 34.20625L103.78438 34.440624Q103.3625 36.01875 102.19063 36.909374Q101.03438 37.784374 99.22188 37.784374Q96.95625 37.784374 95.6125 36.39375Q94.28438 34.9875 94.28438 32.45625Q94.28438 29.83125 95.62813 28.39375Q96.97188 26.940624 99.12813 26.940624Q101.20625 26.940624 102.51875 28.3625Q103.84688 29.76875 103.84688 32.346874Q103.84688 32.503124 103.83125 32.815624L96.09688 32.815624Q96.19063 34.51875 97.06563 35.425Q97.94063 36.33125 99.2375 36.33125Q100.20625 36.33125 100.87813 35.83125Q101.56563 35.315624 101.97188 34.20625ZM96.19063 31.3625L101.9875 31.3625Q101.87813 30.065624 101.33125 29.409374Q100.4875 28.39375 99.14375 28.39375Q97.94063 28.39375 97.1125 29.20625Q96.28438 30.003124 96.19063 31.3625ZM105.87813 25.253124L105.87813 23.2375L107.64375 23.2375L107.64375 25.253124L105.87813 25.253124ZM105.87813 37.55L105.87813 27.175L107.64375 27.175L107.64375 37.55L105.87813 37.55ZM109.55 38.409374L111.25313 38.659374Q111.3625 39.45625 111.84688 39.815624Q112.50313 40.3 113.64375 40.3Q114.8625 40.3 115.51875 39.815624Q116.19063 39.33125 116.425 38.45625Q116.56563 37.909374 116.55 36.190624Q115.39375 37.55 113.675 37.55Q111.53438 37.55 110.3625 36.003124Q109.19063 34.45625 109.19063 32.3Q109.19063 30.815624 109.72188 29.565624Q110.26875 28.315624 111.28438 27.628124Q112.31563 26.940624 113.69063 26.940624Q115.51875 26.940624 116.72188 28.425L116.72188 27.175L118.33125 27.175L118.33125 36.14375Q118.33125 38.565624 117.83125 39.565624Q117.34688 40.58125 116.26875 41.159374Q115.20625 41.753124 113.64375 41.753124Q111.8 41.753124 110.64375 40.925Q109.50313 40.096874 109.55 38.409374ZM111.00313 32.175Q111.00313 34.221874 111.81563 35.159374Q112.62813 36.096874 113.84688 36.096874Q115.05 36.096874 115.8625 35.159374Q116.69063 34.221874 116.69063 32.2375Q116.69063 30.33125 115.84688 29.3625Q115.00313 28.39375 113.81563 28.39375Q112.64375 28.39375 111.81563 29.346874Q111.00313 30.3 111.00313 32.175ZM120.8625 37.55L120.8625 23.2375L122.62813 23.2375L122.62813 28.3625Q123.8625 26.940624 125.7375 26.940624Q126.87813 26.940624 127.72188 27.39375Q128.58125 27.846874 128.94063 28.659374Q129.31563 29.45625 129.31563 30.971874L129.31563 37.55L127.56563 37.55L127.56563 30.971874Q127.56563 29.659374 126.9875 29.065624Q126.40938 28.45625 125.37813 28.45625Q124.59688 28.45625 123.89375 28.8625Q123.20625 29.26875 122.90938 29.971874Q122.62813 30.659374 122.62813 31.878124L122.62813 37.55L120.8625 37.55ZM135.70625 35.971874L135.95625 37.534374Q135.22188 37.690624 134.62813 37.690624Q133.675 37.690624 133.14375 37.39375Q132.62813 37.08125 132.40938 36.596874Q132.19063 36.096874 132.19063 34.51875L132.19063 28.55L130.90938 28.55L130.90938 27.175L132.19063 27.175L132.19063 24.6125L133.94063 23.55L133.94063 27.175L135.70625 27.175L135.70625 28.55L133.94063 28.55L133.94063 34.6125Q133.94063 35.3625 134.03438 35.58125Q134.12813 35.784374 134.33125 35.925Q134.55 36.05 134.94063 36.05Q135.22188 36.05 135.70625 35.971874ZM136.55 37.8L140.70625 22.9875L142.1125 22.9875L137.97188 37.8L136.55 37.8ZM144.15938 37.55L144.15938 23.2375L146.05 23.2375L146.05 29.1125L153.4875 29.1125L153.4875 23.2375L155.37813 23.2375L155.37813 37.55L153.4875 37.55L153.4875 30.8L146.05 30.8L146.05 37.55L144.15938 37.55ZM164.97188 34.20625L166.78438 34.440624Q166.3625 36.01875 165.19063 36.909374Q164.03438 37.784374 162.22188 37.784374Q159.95625 37.784374 158.6125 36.39375Q157.28438 34.9875 157.28438 32.45625Q157.28438 29.83125 158.62813 28.39375Q159.97188 26.940624 162.12813 26.940624Q164.20625 26.940624 165.51875 28.3625Q166.84688 29.76875 166.84688 32.346874Q166.84688 32.503124 166.83125 32.815624L159.09688 32.815624Q159.19063 34.51875 160.06563 35.425Q160.94063 36.33125 162.2375 36.33125Q163.20625 36.33125 163.87813 35.83125Q164.56563 35.315624 164.97188 34.20625ZM159.19063 31.3625L164.9875 31.3625Q164.87813 30.065624 164.33125 29.409374Q163.4875 28.39375 162.14375 28.39375Q160.94063 28.39375 160.1125 29.20625Q159.28438 30.003124 159.19063 31.3625ZM168.87813 25.253124L168.87813 23.2375L170.64375 23.2375L170.64375 25.253124L168.87813 25.253124ZM168.87813 37.55L168.87813 27.175L170.64375 27.175L170.64375 37.55L168.87813 37.55ZM172.55 38.409374L174.25313 38.659374Q174.3625 39.45625 174.84688 39.815624Q175.50313 40.3 176.64375 40.3Q177.8625 40.3 178.51875 39.815624Q179.19063 39.33125 179.425 38.45625Q179.56563 37.909374 179.55 36.190624Q178.39375 37.55 176.675 37.55Q174.53438 37.55 173.3625 36.003124Q172.19063 34.45625 172.19063 32.3Q172.19063 30.815624 172.72188 29.565624Q173.26875 28.315624 174.28438 27.628124Q175.31563 26.940624 176.69063 26.940624Q178.51875 26.940624 179.72188 28.425L179.72188 27.175L181.33125 27.175L181.33125 36.14375Q181.33125 38.565624 180.83125 39.565624Q180.34688 40.58125 179.26875 41.159374Q178.20625 41.753124 176.64375 41.753124Q174.8 41.753124 173.64375 40.925Q172.50313 40.096874 172.55 38.409374ZM174.00313 32.175Q174.00313 34.221874 174.81563 35.159374Q175.62813 36.096874 176.84688 36.096874Q178.05 36.096874 178.8625 35.159374Q179.69063 34.221874 179.69063 32.2375Q179.69063 30.33125 178.84688 29.3625Q178.00313 28.39375 176.81563 28.39375Q175.64375 28.39375 174.81563 29.346874Q174.00313 30.3 174.00313 32.175ZM183.8625 37.55L183.8625 23.2375L185.62813 23.2375L185.62813 28.3625Q186.8625 26.940624 188.7375 26.940624Q189.87813 26.940624 190.72188 27.39375Q191.58125 27.846874 191.94063 28.659374Q192.31563 29.45625 192.31563 30.971874L192.31563 37.55L190.56563 37.55L190.56563 30.971874Q190.56563 29.659374 189.9875 29.065624Q189.40938 28.45625 188.37813 28.45625Q187.59688 28.45625 186.89375 28.8625Q186.20625 29.26875 185.90938 29.971874Q185.62813 30.659374 185.62813 31.878124L185.62813 37.55L183.8625 37.55ZM198.70625 35.971874L198.95625 37.534374Q198.22188 37.690624 197.62813 37.690624Q196.675 37.690624 196.14375 37.39375Q195.62813 37.08125 195.40938 36.596874Q195.19063 36.096874 195.19063 34.51875L195.19063 28.55L193.90938 28.55L193.90938 27.175L195.19063 27.175L195.19063 24.6125L196.94063 23.55L196.94063 27.175L198.70625 27.175L198.70625 28.55L196.94063 28.55L196.94063 34.6125Q196.94063 35.3625 197.03438 35.58125Q197.12813 35.784374 197.33125 35.925Q197.55 36.05 197.94063 36.05Q198.22188 36.05 198.70625 35.971874ZM207.12813 37.55L207.12813 23.2375L213.47188 23.2375Q215.37813 23.2375 216.37813 23.628124Q217.37813 24.003124 217.97188 24.9875Q218.56563 25.95625 218.56563 27.14375Q218.56563 28.659374 217.58125 29.70625Q216.59688 30.753124 214.53438 31.034374Q215.28438 31.39375 215.675 31.753124Q216.50313 32.503124 217.25313 33.659374L219.7375 37.55L217.3625 37.55L215.45625 34.565624Q214.62813 33.284374 214.09688 32.596874Q213.56563 31.909374 213.12813 31.64375Q212.70625 31.3625 212.26875 31.253124Q211.94063 31.190624 211.22188 31.190624L209.01875 31.190624L209.01875 37.55L207.12813 37.55ZM209.01875 29.55L213.09688 29.55Q214.39375 29.55 215.1125 29.284374Q215.84688 29.01875 216.22188 28.425Q216.6125 27.83125 216.6125 27.14375Q216.6125 26.128124 215.87813 25.471874Q215.14375 24.815624 213.55 24.815624L209.01875 24.815624L209.01875 29.55ZM227.64375 36.26875Q226.65938 37.096874 225.75313 37.440624Q224.84688 37.784374 223.81563 37.784374Q222.1125 37.784374 221.19063 36.95625Q220.26875 36.1125 220.26875 34.815624Q220.26875 34.05 220.6125 33.425Q220.97188 32.8 221.53438 32.425Q222.09688 32.034374 222.8 31.83125Q223.31563 31.70625 224.3625 31.565624Q226.4875 31.315624 227.4875 30.971874Q227.50313 30.6125 227.50313 30.503124Q227.50313 29.440624 227.00313 28.9875Q226.33125 28.39375 225.00313 28.39375Q223.75313 28.39375 223.15938 28.83125Q222.58125 29.26875 222.3 30.378124L220.58125 30.14375Q220.81563 29.034374 221.34688 28.3625Q221.87813 27.675 222.89375 27.315624Q223.90938 26.940624 225.25313 26.940624Q226.58125 26.940624 227.40938 27.253124Q228.2375 27.565624 228.62813 28.05Q229.01875 28.51875 229.175 29.2375Q229.26875 29.690624 229.26875 30.8625L229.26875 33.20625Q229.26875 35.659374 229.37813 36.315624Q229.4875 36.95625 229.83125 37.55L227.9875 37.55Q227.72188 37.003124 227.64375 36.26875ZM227.4875 32.346874Q226.53438 32.7375 224.6125 33.003124Q223.53438 33.159374 223.08125 33.3625Q222.64375 33.55 222.39375 33.925Q222.14375 34.3 222.14375 34.76875Q222.14375 35.471874 222.675 35.940624Q223.20625 36.409374 224.2375 36.409374Q225.25313 36.409374 226.03438 35.971874Q226.83125 35.51875 227.20625 34.753124Q227.4875 34.14375 227.4875 32.9875L227.4875 32.346874ZM235.70625 35.971874L235.95625 37.534374Q235.22188 37.690624 234.62813 37.690624Q233.675 37.690624 233.14375 37.39375Q232.62813 37.08125 232.40938 36.596874Q232.19063 36.096874 232.19063 34.51875L232.19063 28.55L230.90938 28.55L230.90938 27.175L232.19063 27.175L232.19063 24.6125L233.94063 23.55L233.94063 27.175L235.70625 27.175L235.70625 28.55L233.94063 28.55L233.94063 34.6125Q233.94063 35.3625 234.03438 35.58125Q234.12813 35.784374 234.33125 35.925Q234.55 36.05 234.94063 36.05Q235.22188 36.05 235.70625 35.971874ZM237.87813 25.253124L237.87813 23.2375L239.64375 23.2375L239.64375 25.253124L237.87813 25.253124ZM237.87813 37.55L237.87813 27.175L239.64375 27.175L239.64375 37.55L237.87813 37.55ZM241.22188 32.3625Q241.22188 29.4875 242.81563 28.096874Q244.15938 26.940624 246.08125 26.940624Q248.22188 26.940624 249.56563 28.346874Q250.925 29.753124 250.925 32.221874Q250.925 34.221874 250.33125 35.378124Q249.7375 36.51875 248.58125 37.159374Q247.44063 37.784374 246.08125 37.784374Q243.89375 37.784374 242.55 36.39375Q241.22188 34.9875 241.22188 32.3625ZM243.01875 32.3625Q243.01875 34.3625 243.87813 35.346874Q244.75313 36.33125 246.08125 36.33125Q247.39375 36.33125 248.25313 35.346874Q249.12813 34.346874 249.12813 32.3Q249.12813 30.378124 248.25313 29.39375Q247.37813 28.39375 246.08125 28.39375Q244.75313 28.39375 243.87813 29.39375Q243.01875 30.378124 243.01875 32.3625ZM261.7531 37.55L257.8 27.175L259.65936 27.175L261.89374 33.39375Q262.2531 34.39375 262.55 35.471874Q262.78436 34.659374 263.20624 33.503124L265.5031 27.175L267.3156 27.175L263.39374 37.55L261.7531 37.55ZM268.15936 34.45625L269.90936 34.175Q270.05 35.221874 270.72186 35.784374Q271.39374 36.33125 272.59686 36.33125Q273.8 36.33125 274.3781 35.846874Q274.97186 35.346874 274.97186 34.690624Q274.97186 34.096874 274.45624 33.753124Q274.09686 33.51875 272.65936 33.159374Q270.72186 32.659374 269.97186 32.315624Q269.2375 31.95625 268.84686 31.33125Q268.45624 30.690624 268.45624 29.925Q268.45624 29.2375 268.76874 28.64375Q269.09686 28.05 269.64374 27.659374Q270.05 27.3625 270.7531 27.159374Q271.47186 26.940624 272.28436 26.940624Q273.5031 26.940624 274.425 27.3Q275.34686 27.64375 275.78436 28.253124Q276.22186 28.846874 276.39374 29.846874L274.675 30.08125Q274.55 29.284374 273.9875 28.846874Q273.425 28.39375 272.40936 28.39375Q271.1906 28.39375 270.675 28.8Q270.15936 29.190624 270.15936 29.721874Q270.15936 30.065624 270.3781 30.346874Q270.58124 30.628124 271.05 30.815624Q271.3156 30.909374 272.59686 31.253124Q274.47186 31.753124 275.20624 32.08125Q275.9406 32.39375 276.3625 33.003124Q276.78436 33.596874 276.78436 34.503124Q276.78436 35.378124 276.26874 36.159374Q275.7531 36.940624 274.78436 37.3625Q273.8156 37.784374 272.59686 37.784374Q270.58124 37.784374 269.51874 36.940624Q268.45624 36.096874 268.15936 34.45625ZM285.1281 37.55L285.1281 23.2375L291.47186 23.2375Q293.3781 23.2375 294.3781 23.628124Q295.3781 24.003124 295.97186 24.9875Q296.5656 25.95625 296.5656 27.14375Q296.5656 28.659374 295.58124 29.70625Q294.59686 30.753124 292.53436 31.034374Q293.28436 31.39375 293.675 31.753124Q294.5031 32.503124 295.2531 33.659374L297.7375 37.55L295.3625 37.55L293.45624 34.565624Q292.6281 33.284374 292.09686 32.596874Q291.5656 31.909374 291.1281 31.64375Q290.70624 31.3625 290.26874 31.253124Q289.9406 31.190624 289.22186 31.190624L287.01874 31.190624L287.01874 37.55L285.1281 37.55ZM287.01874 29.55L291.09686 29.55Q292.39374 29.55 293.1125 29.284374Q293.84686 29.01875 294.22186 28.425Q294.6125 27.83125 294.6125 27.14375Q294.6125 26.128124 293.8781 25.471874Q293.14374 24.815624 291.55 24.815624L287.01874 24.815624L287.01874 29.55ZM305.97186 34.20625L307.78436 34.440624Q307.3625 36.01875 306.1906 36.909374Q305.03436 37.784374 303.22186 37.784374Q300.95624 37.784374 299.6125 36.39375Q298.28436 34.9875 298.28436 32.45625Q298.28436 29.83125 299.6281 28.39375Q300.97186 26.940624 303.1281 26.940624Q305.20624 26.940624 306.51874 28.3625Q307.84686 29.76875 307.84686 32.346874Q307.84686 32.503124 307.83124 32.815624L300.09686 32.815624Q300.1906 34.51875 301.0656 35.425Q301.9406 36.33125 303.2375 36.33125Q304.20624 36.33125 304.8781 35.83125Q305.5656 35.315624 305.97186 34.20625ZM300.1906 31.3625L305.9875 31.3625Q305.8781 30.065624 305.33124 29.409374Q304.4875 28.39375 303.14374 28.39375Q301.9406 28.39375 301.1125 29.20625Q300.28436 30.003124 300.1906 31.3625ZM309.15936 34.45625L310.90936 34.175Q311.05 35.221874 311.72186 35.784374Q312.39374 36.33125 313.59686 36.33125Q314.8 36.33125 315.3781 35.846874Q315.97186 35.346874 315.97186 34.690624Q315.97186 34.096874 315.45624 33.753124Q315.09686 33.51875 313.65936 33.159374Q311.72186 32.659374 310.97186 32.315624Q310.2375 31.95625 309.84686 31.33125Q309.45624 30.690624 309.45624 29.925Q309.45624 29.2375 309.76874 28.64375Q310.09686 28.05 310.64374 27.659374Q311.05 27.3625 311.7531 27.159374Q312.47186 26.940624 313.28436 26.940624Q314.5031 26.940624 315.425 27.3Q316.34686 27.64375 316.78436 28.253124Q317.22186 28.846874 317.39374 29.846874L315.675 30.08125Q315.55 29.284374 314.9875 28.846874Q314.425 28.39375 313.40936 28.39375Q312.1906 28.39375 311.675 28.8Q311.15936 29.190624 311.15936 29.721874Q311.15936 30.065624 311.3781 30.346874Q311.58124 30.628124 312.05 30.815624Q312.3156 30.909374 313.59686 31.253124Q315.47186 31.753124 316.20624 32.08125Q316.9406 32.39375 317.3625 33.003124Q317.78436 33.596874 317.78436 34.503124Q317.78436 35.378124 317.26874 36.159374Q316.7531 36.940624 315.78436 37.3625Q314.8156 37.784374 313.59686 37.784374Q311.58124 37.784374 310.51874 36.940624Q309.45624 36.096874 309.15936 34.45625ZM326.65936 37.55L326.65936 36.01875Q325.45624 37.784374 323.3781 37.784374Q322.45624 37.784374 321.65936 37.440624Q320.8625 37.08125 320.47186 36.55Q320.09686 36.01875 319.9406 35.2375Q319.83124 34.721874 319.83124 33.596874L319.83124 27.175L321.58124 27.175L321.58124 32.925Q321.58124 34.3 321.6906 34.784374Q321.8625 35.471874 322.39374 35.878124Q322.9406 36.26875 323.72186 36.26875Q324.51874 36.26875 325.20624 35.8625Q325.90936 35.45625 326.1906 34.76875Q326.4875 34.065624 326.4875 32.7375L326.4875 27.175L328.2375 27.175L328.2375 37.55L326.65936 37.55ZM330.83124 37.55L330.83124 23.2375L332.58124 23.2375L332.58124 37.55L330.83124 37.55ZM338.70624 35.971874L338.95624 37.534374Q338.22186 37.690624 337.6281 37.690624Q336.675 37.690624 336.14374 37.39375Q335.6281 37.08125 335.40936 36.596874Q335.1906 36.096874 335.1906 34.51875L335.1906 28.55L333.90936 28.55L333.90936 27.175L335.1906 27.175L335.1906 24.6125L336.9406 23.55L336.9406 27.175L338.70624 27.175L338.70624 28.55L336.9406 28.55L336.9406 34.6125Q336.9406 35.3625 337.03436 35.58125Q337.1281 35.784374 337.33124 35.925Q337.55 36.05 337.9406 36.05Q338.22186 36.05 338.70624 35.971874Z" fill-rule="nonzero"/></svg>