<svg version="1.1" viewBox="0.0 0.0 600.0 371.0" fill="none" stroke="none" stroke-linecap="square" stroke-miterlimit="10" width="600" height="371" xmlns:xlink="http://www.w3.org/1999/xlink" xmlns="http://www.w3.org/2000/svg"><path fill="#ffffff" d="M0 0L600.0 0L600.0 371.0L0 371.0L0 0Z" fill-rule="nonzero"/><path stroke="#cccccc" stroke-width="1.0" stroke-linecap="butt" d="M506.5 88.5L506.5 300.5" fill-rule="nonzero"/><path stroke="#cccccc" stroke-width="1.0" stroke-linecap="butt" d="M370.5 88.5L370.5 300.5" fill-rule="nonzero"/><path stroke="#cccccc" stroke-width="1.0" stroke-linecap="butt" d="M234.5 88.5L234.5 300.5" fill-rule="nonzero"/><path stroke="#cccccc" stroke-width="1.0" stroke-linecap="butt" d="M97.5 88.5L97.5 300.5" fill-rule="nonzero"/><path stroke="#333333" stroke-width="1.0" stroke-linecap="butt" d="M77.5 300.5L581.5 300.5" fill-rule="nonzero"/><path stroke="#cccccc" stroke-width="1.0" stroke-linecap="butt" d="M77.5 229.5L581.5 229.5" fill-rule="nonzero"/><path stroke="#cccccc" stroke-width="1.0" stroke-linecap="butt" d="M77.5 159.5L581.5 159.5" fill-rule="nonzero"/><path stroke="#cccccc" stroke-width="1.0" stroke-linecap="butt" d="M77.5 88.5L581.5 88.5" fill-rule="nonzero"/><clipPath id="id_0"><path d="M77.55 88.28333L581.45 88.28333L581.45 300.45L77.55 300.45L77.55 88.28333Z" clip-rule="nonzero"/></clipPath><path stroke="#4285f4" stroke-width="2.0" stroke-linecap="butt" stroke-opacity="0.4" clip-path="url(#id_0)" d="M0 121.76481L581.45 147.96611" fill-rule="nonzero"/><path fill="#4285f4" clip-path="url(#id_0)" d="M579.1392 140.0799C579.1392 142.56517 577.1245 144.5799 574.6392 144.5799C572.15393 144.5799 570.1392 142.56517 570.1392 140.0799C570.1392 137.5946 572.15393 135.5799 574.6392 135.5799C577.1245 135.5799 579.1392 137.5946 579.1392 140.0799Z" fill-rule="nonzero"/><path fill="#4285f4" clip-path="url(#id_0)" d="M415.71307 151.25517C415.71307 153.74046 413.69836 155.75517 411.21307 155.75517C408.72778 155.75517 406.71307 153.74046 406.71307 151.25517C406.71307 148.7699 408.72778 146.75517 411.21307 146.75517C413.69836 146.75517 415.71307 148.7699 415.71307 151.25517Z" fill-rule="nonzero"/><path fill="#4285f4" clip-path="url(#id_0)" d="M320.38116 144.27176C320.38116 146.75703 318.36642 148.77176 315.88116 148.77176C313.39587 148.77176 311.38116 146.75703 311.38116 144.27176C311.38116 141.78648 313.39587 139.77176 315.88116 139.77176C318.36642 139.77176 320.38116 141.78648 320.38116 144.27176Z" fill-rule="nonzero"/><path fill="#4285f4" clip-path="url(#id_0)" d="M252.28693 134.48853C252.28693 136.9738 250.2722 138.98853 247.78693 138.98853C245.30165 138.98853 243.28693 136.9738 243.28693 134.48853C243.28693 132.00323 245.30165 129.98853 247.78693 129.98853C250.2722 129.98853 252.28693 132.00323 252.28693 134.48853Z" fill-rule="nonzero"/><path fill="#4285f4" clip-path="url(#id_0)" d="M225.04924 116.76867C225.04924 119.25395 223.03452 121.26867 220.54924 121.26867C218.06395 121.26867 216.04924 119.25395 216.04924 116.76867C216.04924 114.283394 218.06395 112.26867 220.54924 112.26867C223.03452 112.26867 225.04924 114.283394 225.04924 116.76867Z" fill-rule="nonzero"/><path fill="#4285f4" clip-path="url(#id_0)" d="M102.47962 126.001854C102.47962 128.48714 100.464905 130.50185 97.97962 130.50185C95.49434 130.50185 93.47962 128.48714 93.47962 126.001854C93.47962 123.51657 95.49434 121.501854 97.97962 121.501854C100.464905 121.501854 102.47962 123.51657 102.47962 126.001854Z" fill-rule="nonzero"/><path fill="#4285f4" clip-path="url(#id_0)" d="M88.86077 127.46727C88.86077 129.95255 86.846054 131.96727 84.36077 131.96727C81.875496 131.96727 79.86077 129.95255 79.86077 127.46727C79.86077 124.98199 81.875496 122.96727 84.36077 122.96727C86.846054 122.96727 88.86077 124.98199 88.86077 127.46727Z" fill-rule="nonzero"/><path fill="#000000" d="M310.60938 349.45L310.60938 341.8719L307.78125 341.8719L307.78125 340.85626L314.59375 340.85626L314.59375 341.8719L311.75 341.8719L311.75 349.45L310.60938 349.45ZM315.29688 342.075L315.29688 340.85626L316.35938 340.85626L316.35938 342.075L315.29688 342.075ZM315.29688 349.45L315.29688 343.23126L316.35938 343.23126L316.35938 349.45L315.29688 349.45ZM318.29688 349.45L318.29688 343.23126L319.23438 343.23126L319.23438 344.10626Q319.53125 343.6375 320.01562 343.3719Q320.5 343.09064 321.125 343.09064Q321.8125 343.09064 322.25 343.3719Q322.70312 343.65314 322.875 344.16876Q323.625 343.09064 324.79688 343.09064Q325.73438 343.09064 326.21875 343.60626Q326.71875 344.10626 326.71875 345.1844L326.71875 349.45L325.67188 349.45L325.67188 345.52814Q325.67188 344.90314 325.5625 344.6219Q325.46875 344.34064 325.20312 344.16876Q324.9375 343.9969 324.5625 343.9969Q323.90625 343.9969 323.46875 344.4344Q323.04688 344.8719 323.04688 345.84064L323.04688 349.45L321.98438 349.45L321.98438 345.40314Q321.98438 344.7 321.71875 344.35626Q321.46875 343.9969 320.89062 343.9969Q320.4375 343.9969 320.0625 344.23126Q319.6875 344.46564 319.51562 344.91876Q319.34375 345.3719 319.34375 346.21564L319.34375 349.45L318.29688 349.45ZM332.54688 347.45L333.64062 347.575Q333.39062 348.52814 332.6875 349.0594Q331.98438 349.59064 330.90625 349.59064Q329.54688 349.59064 328.73438 348.7469Q327.9375 347.90314 327.9375 346.3875Q327.9375 344.825 328.75 343.96564Q329.5625 343.09064 330.84375 343.09064Q332.09375 343.09064 332.875 343.9344Q333.67188 344.77814 333.67188 346.325Q333.67188 346.41876 333.67188 346.60626L329.03125 346.60626Q329.09375 347.6375 329.60938 348.1844Q330.125 348.71564 330.90625 348.71564Q331.48438 348.71564 331.89062 348.41876Q332.3125 348.10626 332.54688 347.45ZM329.09375 345.7469L332.5625 345.7469Q332.5 344.95 332.17188 344.5594Q331.65625 343.95 330.85938 343.95Q330.125 343.95 329.625 344.4344Q329.14062 344.91876 329.09375 345.7469ZM340.3125 351.98126Q339.4375 350.8719 338.82812 349.40314Q338.23438 347.91876 338.23438 346.34064Q338.23438 344.95 338.67188 343.66876Q339.20312 342.1844 340.3125 340.71564L341.0625 340.71564Q340.35938 341.9344 340.125 342.45Q339.76562 343.2625 339.5625 344.1375Q339.3125 345.23126 339.3125 346.34064Q339.3125 349.16876 341.0625 351.98126L340.3125 351.98126ZM341.875 347.59064L342.90625 347.4344Q343.0 348.0594 343.39062 348.3875Q343.79688 348.71564 344.53125 348.71564Q345.25 348.71564 345.59375 348.4344Q345.95312 348.1375 345.95312 347.73126Q345.95312 347.3719 345.64062 347.16876Q345.42188 347.02814 344.5625 346.8094Q343.40625 346.5125 342.95312 346.3094Q342.51562 346.09064 342.28125 345.71564Q342.04688 345.34064 342.04688 344.8719Q342.04688 344.46564 342.23438 344.10626Q342.42188 343.7469 342.75 343.5125Q343.0 343.34064 343.42188 343.21564Q343.84375 343.09064 344.34375 343.09064Q345.0625 343.09064 345.60938 343.3094Q346.17188 343.5125 346.4375 343.8719Q346.70312 344.23126 346.79688 344.825L345.76562 344.96564Q345.70312 344.4969 345.35938 344.23126Q345.03125 343.95 344.40625 343.95Q343.6875 343.95 343.375 344.2Q343.0625 344.4344 343.0625 344.7625Q343.0625 344.96564 343.1875 345.1219Q343.32812 345.29376 343.59375 345.40314Q343.75 345.46564 344.53125 345.66876Q345.65625 345.98126 346.09375 346.16876Q346.53125 346.35626 346.78125 346.71564Q347.03125 347.075 347.03125 347.6219Q347.03125 348.15314 346.71875 348.6219Q346.42188 349.075 345.84375 349.34064Q345.26562 349.59064 344.53125 349.59064Q343.3125 349.59064 342.67188 349.09064Q342.04688 348.575 341.875 347.59064ZM348.98438 351.98126L348.23438 351.98126Q349.98438 349.16876 349.98438 346.34064Q349.98438 345.2469 349.73438 344.15314Q349.53125 343.27814 349.17188 342.46564Q348.9375 341.95 348.23438 340.71564L348.98438 340.71564Q350.07812 342.1844 350.60938 343.66876Q351.0625 344.95 351.0625 346.34064Q351.0625 347.91876 350.45312 349.40314Q349.84375 350.8719 348.98438 351.98126Z" fill-rule="nonzero"/><path fill="#000000" d="M29.550013 279.4448L20.956263 281.72604L20.956263 280.55417L26.596888 279.24167Q27.471888 279.03854 28.346888 278.8823Q26.971888 278.55417 26.753138 278.49167L20.956263 276.86667L20.956263 275.49167L25.300013 274.2573Q26.925013 273.80417 28.346888 273.58542Q27.534388 273.42917 26.471888 273.16354L20.956263 271.8198L20.956263 270.67917L29.550013 273.02292L29.550013 274.1323L23.003138 275.92917Q22.190638 276.16354 22.003138 276.21042Q22.581263 276.33542 23.003138 276.46042L29.550013 278.27292L29.550013 279.4448ZM27.550013 265.8198L27.675013 264.72604Q28.628138 264.97604 29.159388 265.67917Q29.690638 266.3823 29.690638 267.46042Q29.690638 268.8198 28.846888 269.6323Q28.003138 270.42917 26.487513 270.42917Q24.925013 270.42917 24.065638 269.61667Q23.190638 268.80417 23.190638 267.52292Q23.190638 266.27292 24.034388 265.49167Q24.878138 264.6948 26.425013 264.6948Q26.518763 264.6948 26.706263 264.6948L26.706263 269.33542Q27.737513 269.27292 28.284388 268.7573Q28.815638 268.24167 28.815638 267.46042Q28.815638 266.8823 28.518763 266.47604Q28.206263 266.05417 27.550013 265.8198ZM25.846888 269.27292L25.846888 265.80417Q25.050013 265.86667 24.659388 266.1948Q24.050013 266.71042 24.050013 267.5073Q24.050013 268.24167 24.534388 268.74167Q25.018763 269.22604 25.846888 269.27292ZM22.175013 263.0698L20.956263 263.0698L20.956263 262.0073L22.175013 262.0073L22.175013 263.0698ZM29.550013 263.0698L23.331263 263.0698L23.331263 262.0073L29.550013 262.0073L29.550013 263.0698ZM30.065638 260.27292L30.221888 259.24167Q30.690638 259.17917 30.909388 258.8823Q31.206263 258.49167 31.206263 257.8198Q31.206263 257.08542 30.909388 256.6948Q30.612513 256.28854 30.096888 256.14792Q29.768763 256.05417 28.737513 256.0698Q29.550013 256.7573 29.550013 257.78854Q29.550013 259.0698 28.628138 259.77292Q27.690638 260.47604 26.409388 260.47604Q25.518763 260.47604 24.768763 260.16354Q24.003138 259.83542 23.596888 259.22604Q23.190638 258.61667 23.190638 257.78854Q23.190638 256.67917 24.081263 255.96042L23.331263 255.96042L23.331263 254.99167L28.706263 254.99167Q30.159388 254.99167 30.768763 255.28854Q31.378138 255.58542 31.721888 256.22604Q32.08126 256.86667 32.08126 257.80417Q32.08126 258.91354 31.581263 259.60104Q31.081263 260.28854 30.065638 260.27292ZM26.331263 259.39792Q27.550013 259.39792 28.112513 258.91354Q28.675013 258.42917 28.675013 257.6948Q28.675013 256.96042 28.112513 256.47604Q27.550013 255.97604 26.362513 255.97604Q25.221888 255.97604 24.643763 256.49167Q24.065638 256.99167 24.065638 257.71042Q24.065638 258.41354 24.643763 258.91354Q25.206263 259.39792 26.331263 259.39792ZM29.550013 253.0698L20.956263 253.0698L20.956263 252.02292L24.034388 252.02292Q23.190638 251.28854 23.190638 250.16354Q23.190638 249.46042 23.471888 248.96042Q23.737513 248.4448 24.221888 248.22604Q24.690638 248.0073 25.612513 248.0073L29.550013 248.0073L29.550013 249.05417L25.612513 249.05417Q24.815638 249.05417 24.456263 249.39792Q24.096888 249.74167 24.096888 250.36667Q24.096888 250.83542 24.346888 251.2573Q24.581263 251.66354 25.003138 251.85104Q25.409388 252.02292 26.143763 252.02292L29.550013 252.02292L29.550013 253.0698ZM28.612513 243.77292L29.534388 243.61667Q29.628138 244.0698 29.628138 244.41354Q29.628138 244.99167 29.456263 245.30417Q29.268763 245.61667 28.971888 245.7573Q28.675013 245.8823 27.721888 245.8823L24.143763 245.8823L24.143763 246.64792L23.331263 246.64792L23.331263 245.8823L21.784388 245.8823L21.159388 244.83542L23.331263 244.83542L23.331263 243.77292L24.143763 243.77292L24.143763 244.83542L27.784388 244.83542Q28.237513 244.83542 28.362513 244.78854Q28.487513 244.72604 28.565638 244.60104Q28.643763 244.47604 28.643763 244.24167Q28.643763 244.05417 28.612513 243.77292ZM28.612513 237.77292L29.534388 237.61667Q29.628138 238.0698 29.628138 238.41354Q29.628138 238.99167 29.456263 239.30417Q29.268763 239.61667 28.971888 239.7573Q28.675013 239.8823 27.721888 239.8823L24.143763 239.8823L24.143763 240.64792L23.331263 240.64792L23.331263 239.8823L21.784388 239.8823L21.159388 238.83542L23.331263 238.83542L23.331263 237.77292L24.143763 237.77292L24.143763 238.83542L27.784388 238.83542Q28.237513 238.83542 28.362513 238.78854Q28.487513 238.72604 28.565638 238.60104Q28.643763 238.47604 28.643763 238.24167Q28.643763 238.05417 28.612513 237.77292ZM26.440638 237.46042Q24.706263 237.46042 23.878138 236.5073Q23.190638 235.71042 23.190638 234.55417Q23.190638 233.27292 24.034388 232.46042Q24.862513 231.6323 26.346888 231.6323Q27.550013 231.6323 28.237513 231.99167Q28.925013 232.35104 29.315638 233.05417Q29.690638 233.74167 29.690638 234.55417Q29.690638 235.85104 28.862513 236.66354Q28.018763 237.46042 26.440638 237.46042ZM26.440638 236.3823Q27.628138 236.3823 28.221888 235.86667Q28.815638 235.33542 28.815638 234.55417Q28.815638 233.7573 28.221888 233.24167Q27.628138 232.72604 26.409388 232.72604Q25.253138 232.72604 24.659388 233.2573Q24.065638 233.77292 24.065638 234.55417Q24.065638 235.33542 24.659388 235.86667Q25.237513 236.3823 26.440638 236.3823ZM29.550013 226.89792L20.956263 226.89792L20.956263 225.77292L24.487513 225.77292L24.487513 221.30417L20.956263 221.30417L20.956263 220.16354L29.550013 220.16354L29.550013 221.30417L25.503138 221.30417L25.503138 225.77292L29.550013 225.77292L29.550013 226.89792ZM27.550013 213.8198L27.675013 212.72604Q28.628138 212.97604 29.159388 213.67917Q29.690638 214.3823 29.690638 215.46042Q29.690638 216.8198 28.846888 217.6323Q28.003138 218.42917 26.487513 218.42917Q24.925013 218.42917 24.065638 217.61667Q23.190638 216.80417 23.190638 215.52292Q23.190638 214.27292 24.034388 213.49167Q24.878138 212.6948 26.425013 212.6948Q26.518763 212.6948 26.706263 212.6948L26.706263 217.33542Q27.737513 217.27292 28.284388 216.7573Q28.815638 216.24167 28.815638 215.46042Q28.815638 214.8823 28.518763 214.47604Q28.206263 214.05417 27.550013 213.8198ZM25.846888 217.27292L25.846888 213.80417Q25.050013 213.86667 24.659388 214.1948Q24.050013 214.71042 24.050013 215.5073Q24.050013 216.24167 24.534388 216.74167Q25.018763 217.22604 25.846888 217.27292ZM22.175013 211.0698L20.956263 211.0698L20.956263 210.0073L22.175013 210.0073L22.175013 211.0698ZM29.550013 211.0698L23.331263 211.0698L23.331263 210.0073L29.550013 210.0073L29.550013 211.0698ZM30.065638 208.27292L30.221888 207.24167Q30.690638 207.17917 30.909388 206.8823Q31.206263 206.49167 31.206263 205.8198Q31.206263 205.08542 30.909388 204.6948Q30.612513 204.28854 30.096888 204.14792Q29.768763 204.05417 28.737513 204.0698Q29.550013 204.7573 29.550013 205.78854Q29.550013 207.0698 28.628138 207.77292Q27.690638 208.47604 26.409388 208.47604Q25.518763 208.47604 24.768763 208.16354Q24.003138 207.83542 23.596888 207.22604Q23.190638 206.61667 23.190638 205.78854Q23.190638 204.67917 24.081263 203.96042L23.331263 203.96042L23.331263 202.99167L28.706263 202.99167Q30.159388 202.99167 30.768763 203.28854Q31.378138 203.58542 31.721888 204.22604Q32.08126 204.86667 32.08126 205.80417Q32.08126 206.91354 31.581263 207.60104Q31.081263 208.28854 30.065638 208.27292ZM26.331263 207.39792Q27.550013 207.39792 28.112513 206.91354Q28.675013 206.42917 28.675013 205.6948Q28.675013 204.96042 28.112513 204.47604Q27.550013 203.97604 26.362513 203.97604Q25.221888 203.97604 24.643763 204.49167Q24.065638 204.99167 24.065638 205.71042Q24.065638 206.41354 24.643763 206.91354Q25.206263 207.39792 26.331263 207.39792ZM29.550013 201.0698L20.956263 201.0698L20.956263 200.02292L24.034388 200.02292Q23.190638 199.28854 23.190638 198.16354Q23.190638 197.46042 23.471888 196.96042Q23.737513 196.4448 24.221888 196.22604Q24.690638 196.0073 25.612513 196.0073L29.550013 196.0073L29.550013 197.05417L25.612513 197.05417Q24.815638 197.05417 24.456263 197.39792Q24.096888 197.74167 24.096888 198.36667Q24.096888 198.83542 24.346888 199.2573Q24.581263 199.66354 25.003138 199.85104Q25.409388 200.02292 26.143763 200.02292L29.550013 200.02292L29.550013 201.0698ZM28.612513 191.77292L29.534388 191.61667Q29.628138 192.0698 29.628138 192.41354Q29.628138 192.99167 29.456263 193.30417Q29.268763 193.61667 28.971888 193.7573Q28.675013 193.8823 27.721888 193.8823L24.143763 193.8823L24.143763 194.64792L23.331263 194.64792L23.331263 193.8823L21.784388 193.8823L21.159388 192.83542L23.331263 192.83542L23.331263 191.77292L24.143763 191.77292L24.143763 192.83542L27.784388 192.83542Q28.237513 192.83542 28.362513 192.78854Q28.487513 192.72604 28.565638 192.60104Q28.643763 192.47604 28.643763 192.24167Q28.643763 192.05417 28.612513 191.77292ZM29.550013 187.92917L20.956263 187.92917L20.956263 184.11667Q20.956263 182.96042 21.190638 182.36667Q21.425013 181.77292 22.018763 181.41354Q22.596888 181.05417 23.300013 181.05417Q24.221888 181.05417 24.846888 181.64792Q25.471888 182.24167 25.643763 183.47604Q25.862513 183.02292 26.065638 182.78854Q26.518763 182.28854 27.206263 181.85104L29.550013 180.35104L29.550013 181.78854L27.768763 182.91354Q26.987513 183.41354 26.581263 183.74167Q26.175013 184.05417 26.018763 184.3198Q25.846888 184.5698 25.768763 184.83542Q25.737513 185.02292 25.737513 185.46042L25.737513 186.78854L29.550013 186.78854L29.550013 187.92917ZM24.753138 186.78854L24.753138 184.33542Q24.753138 183.5698 24.596888 183.1323Q24.425013 182.67917 24.081263 182.46042Q23.721888 182.22604 23.300013 182.22604Q22.690638 182.22604 22.300013 182.67917Q21.909388 183.11667 21.909388 184.0698L21.909388 186.78854L24.753138 186.78854ZM28.784388 175.0073Q29.284388 175.60104 29.487513 176.14792Q29.690638 176.67917 29.690638 177.30417Q29.690638 178.33542 29.190638 178.8823Q28.690638 179.42917 27.909388 179.42917Q27.456263 179.42917 27.081263 179.22604Q26.690638 179.02292 26.471888 178.67917Q26.237513 178.33542 26.128138 177.91354Q26.034388 177.61667 25.956263 176.97604Q25.815638 175.71042 25.596888 175.10104Q25.378138 175.10104 25.331263 175.10104Q24.675013 175.10104 24.409388 175.39792Q24.065638 175.80417 24.065638 176.60104Q24.065638 177.33542 24.331263 177.6948Q24.581263 178.05417 25.237513 178.22604L25.096888 179.2573Q24.440638 179.11667 24.034388 178.78854Q23.628138 178.46042 23.409388 177.85104Q23.190638 177.24167 23.190638 176.4448Q23.190638 175.64792 23.378138 175.14792Q23.565638 174.64792 23.846888 174.41354Q24.128138 174.17917 24.565638 174.08542Q24.831263 174.03854 25.534388 174.03854L26.940638 174.03854Q28.409388 174.03854 28.800013 173.97604Q29.190638 173.89792 29.550013 173.6948L29.550013 174.80417Q29.221888 174.96042 28.784388 175.0073ZM26.425013 175.10104Q26.659388 175.67917 26.831263 176.8198Q26.925013 177.47604 27.050013 177.74167Q27.159388 178.0073 27.378138 178.16354Q27.596888 178.30417 27.878138 178.30417Q28.300013 178.30417 28.581263 177.99167Q28.862513 177.66354 28.862513 177.05417Q28.862513 176.4448 28.596888 175.97604Q28.331263 175.49167 27.862513 175.27292Q27.503138 175.10104 26.815638 175.10104L26.425013 175.10104ZM28.612513 169.77292L29.534388 169.61667Q29.628138 170.0698 29.628138 170.41354Q29.628138 170.99167 29.456263 171.30417Q29.268763 171.61667 28.971888 171.7573Q28.675013 171.8823 27.721888 171.8823L24.143763 171.8823L24.143763 172.64792L23.331263 172.64792L23.331263 171.8823L21.784388 171.8823L21.159388 170.83542L23.331263 170.83542L23.331263 169.77292L24.143763 169.77292L24.143763 170.83542L27.784388 170.83542Q28.237513 170.83542 28.362513 170.78854Q28.487513 170.72604 28.565638 170.60104Q28.643763 170.47604 28.643763 170.24167Q28.643763 170.05417 28.612513 169.77292ZM22.175013 169.0698L20.956263 169.0698L20.956263 168.0073L22.175013 168.0073L22.175013 169.0698ZM29.550013 169.0698L23.331263 169.0698L23.331263 168.0073L29.550013 168.0073L29.550013 169.0698ZM26.440638 166.46042Q24.706263 166.46042 23.878138 165.5073Q23.190638 164.71042 23.190638 163.55417Q23.190638 162.27292 24.034388 161.46042Q24.862513 160.6323 26.346888 160.6323Q27.550013 160.6323 28.237513 160.99167Q28.925013 161.35104 29.315638 162.05417Q29.690638 162.74167 29.690638 163.55417Q29.690638 164.85104 28.862513 165.66354Q28.018763 166.46042 26.440638 166.46042ZM26.440638 165.3823Q27.628138 165.3823 28.221888 164.86667Q28.815638 164.33542 28.815638 163.55417Q28.815638 162.7573 28.221888 162.24167Q27.628138 161.72604 26.409388 161.72604Q25.253138 161.72604 24.659388 162.2573Q24.065638 162.77292 24.065638 163.55417Q24.065638 164.33542 24.659388 164.86667Q25.237513 165.3823 26.440638 165.3823ZM32.08126 154.05417Q30.971888 154.92917 29.503138 155.53854Q28.018763 156.1323 26.440638 156.1323Q25.050013 156.1323 23.768763 155.6948Q22.284388 155.16354 20.815638 154.05417L20.815638 153.30417Q22.034388 154.0073 22.550013 154.24167Q23.362513 154.60104 24.237513 154.80417Q25.331263 155.05417 26.440638 155.05417Q29.268763 155.05417 32.08126 153.30417L32.08126 154.05417ZM29.550013 152.10104L20.956263 152.10104L20.956263 151.03854L29.550013 151.03854L29.550013 152.10104ZM29.550013 148.10104L29.550013 149.08542L20.956263 149.08542L20.956263 148.02292L24.018763 148.02292Q23.190638 147.35104 23.190638 146.3198Q23.190638 145.74167 23.425013 145.24167Q23.643763 144.72604 24.065638 144.39792Q24.487513 144.05417 25.081263 143.86667Q25.675013 143.67917 26.346888 143.67917Q27.940638 143.67917 28.815638 144.47604Q29.690638 145.27292 29.690638 146.36667Q29.690638 147.47604 28.768763 148.10104L29.550013 148.10104ZM26.393763 148.11667Q27.503138 148.11667 28.003138 147.80417Q28.815638 147.30417 28.815638 146.46042Q28.815638 145.77292 28.221888 145.27292Q27.628138 144.7573 26.425013 144.7573Q25.206263 144.7573 24.628138 145.24167Q24.050013 145.72604 24.050013 146.41354Q24.050013 147.10104 24.659388 147.61667Q25.253138 148.11667 26.393763 148.11667ZM27.690638 142.49167L27.534388 141.46042Q28.159388 141.36667 28.487513 140.97604Q28.815638 140.5698 28.815638 139.83542Q28.815638 139.11667 28.534388 138.77292Q28.237513 138.41354 27.831263 138.41354Q27.471888 138.41354 27.268763 138.72604Q27.128138 138.9448 26.909388 139.80417Q26.612513 140.96042 26.409388 141.41354Q26.190638 141.85104 25.815638 142.08542Q25.440638 142.3198 24.971888 142.3198Q24.565638 142.3198 24.206263 142.1323Q23.846888 141.9448 23.612513 141.61667Q23.440638 141.36667 23.315638 140.9448Q23.190638 140.52292 23.190638 140.02292Q23.190638 139.30417 23.409388 138.7573Q23.612513 138.1948 23.971888 137.92917Q24.331263 137.66354 24.925013 137.5698L25.065638 138.60104Q24.596888 138.66354 24.331263 139.0073Q24.050013 139.33542 24.050013 139.96042Q24.050013 140.67917 24.300013 140.99167Q24.534388 141.30417 24.862513 141.30417Q25.065638 141.30417 25.221888 141.17917Q25.393763 141.03854 25.503138 140.77292Q25.565638 140.61667 25.768763 139.83542Q26.081263 138.71042 26.268763 138.27292Q26.456263 137.83542 26.815638 137.58542Q27.175013 137.33542 27.721888 137.33542Q28.253138 137.33542 28.721888 137.64792Q29.175013 137.9448 29.440638 138.52292Q29.690638 139.10104 29.690638 139.83542Q29.690638 141.05417 29.190638 141.6948Q28.675013 142.3198 27.690638 142.49167ZM29.690638 136.86667L20.815638 134.3823L20.815638 133.53854L29.690638 136.02292L29.690638 136.86667ZM22.175013 133.0698L20.956263 133.0698L20.956263 132.0073L22.175013 132.0073L22.175013 133.0698ZM29.550013 133.0698L23.331263 133.0698L23.331263 132.0073L29.550013 132.0073L29.550013 133.0698ZM29.550013 130.0698L23.331263 130.0698L23.331263 129.1323L24.206263 129.1323Q23.190638 128.4448 23.190638 127.14792Q23.190638 126.58542 23.393763 126.11667Q23.596888 125.63229 23.925013 125.39792Q24.253138 125.16354 24.690638 125.06979Q24.987513 125.02292 25.721888 125.02292L29.550013 125.02292L29.550013 126.06979L25.768763 126.06979Q25.112513 126.06979 24.800013 126.19479Q24.487513 126.31979 24.300013 126.63229Q24.096888 126.94479 24.096888 127.36667Q24.096888 128.03854 24.534388 128.53854Q24.956263 129.02292 26.143763 129.02292L29.550013 129.02292L29.550013 130.0698ZM32.08126 122.38229L32.08126 123.13229Q29.268763 121.38229 26.440638 121.38229Q25.346888 121.38229 24.253138 121.63229Q23.378138 121.83542 22.565638 122.19479Q22.050013 122.42917 20.815638 123.13229L20.815638 122.38229Q22.284388 121.28854 23.768763 120.75729Q25.050013 120.30417 26.440638 120.30417Q28.018763 120.30417 29.503138 120.91354Q30.971888 121.52292 32.08126 122.38229Z" fill-rule="nonzero"/><path fill="#000000" d="M65.05 300.21564Q65.05 298.6844 65.3625 297.7625Q65.675 296.825 66.28438 296.325Q66.90938 295.825 67.84688 295.825Q68.53438 295.825 69.05 296.10626Q69.58125 296.3875 69.925 296.91876Q70.26875 297.4344 70.45625 298.1844Q70.64375 298.9344 70.64375 300.21564Q70.64375 301.73126 70.33125 302.65314Q70.03438 303.575 69.40938 304.09064Q68.8 304.59064 67.84688 304.59064Q66.6125 304.59064 65.89375 303.7Q65.05 302.6375 65.05 300.21564ZM66.12813 300.21564Q66.12813 302.325 66.62813 303.02814Q67.12813 303.73126 67.84688 303.73126Q68.58125 303.73126 69.06563 303.02814Q69.56563 302.325 69.56563 300.21564Q69.56563 298.09064 69.06563 297.40314Q68.58125 296.7 67.83125 296.7Q67.1125 296.7 66.675 297.3094Q66.12813 298.09064 66.12813 300.21564Z" fill-rule="nonzero"/><path fill="#000000" d="M69.01875 233.72778L67.97188 233.72778L67.97188 227.00903Q67.58125 227.36841 66.95625 227.74341Q66.34688 228.10278 65.8625 228.27466L65.8625 227.25903Q66.7375 226.83716 67.39375 226.25903Q68.06563 225.66528 68.34688 225.10278L69.01875 225.10278L69.01875 233.72778Z" fill-rule="nonzero"/><path fill="#000000" d="M70.59688 161.98993L70.59688 163.00555L64.90938 163.00555Q64.90938 162.63055 65.03438 162.27118Q65.25313 161.69305 65.72188 161.13055Q66.20625 160.56805 67.1125 159.83368Q68.51875 158.67743 69.00313 158.00555Q69.50313 157.33368 69.50313 156.73993Q69.50313 156.11493 69.05 155.69305Q68.59688 155.25555 67.87813 155.25555Q67.1125 155.25555 66.65938 155.70868Q66.20625 156.1618 66.19063 156.9743L65.1125 156.86493Q65.22188 155.64618 65.94063 155.02118Q66.675 154.38055 67.90938 154.38055Q69.14375 154.38055 69.8625 155.06805Q70.58125 155.75555 70.58125 156.77118Q70.58125 157.2868 70.3625 157.7868Q70.15938 158.27118 69.65938 158.83368Q69.175 159.38055 68.05 160.33368Q67.09688 161.13055 66.81563 161.42743Q66.55 161.70868 66.37813 161.98993L70.59688 161.98993Z" fill-rule="nonzero"/><path fill="#000000" d="M65.05 90.01771L66.1125 89.87708Q66.28438 90.76771 66.72188 91.17396Q67.15938 91.56458 67.78438 91.56458Q68.53438 91.56458 69.05 91.04896Q69.56563 90.53333 69.56563 89.76771Q69.56563 89.04896 69.08125 88.58021Q68.6125 88.09583 67.87813 88.09583Q67.58125 88.09583 67.12813 88.22083L67.25313 87.28333Q67.3625 87.29896 67.425 87.29896Q68.09688 87.29896 68.62813 86.95521Q69.175 86.59583 69.175 85.86146Q69.175 85.28333 68.78438 84.90833Q68.39375 84.51771 67.76875 84.51771Q67.15938 84.51771 66.7375 84.90833Q66.33125 85.29896 66.22188 86.06458L65.15938 85.87708Q65.34688 84.83021 66.03438 84.25208Q66.72188 83.65833 67.7375 83.65833Q68.44063 83.65833 69.03438 83.97083Q69.62813 84.26771 69.94063 84.78333Q70.25313 85.29896 70.25313 85.89271Q70.25313 86.43958 69.95625 86.90833Q69.65938 87.36146 69.08125 87.62708Q69.83125 87.79896 70.25313 88.36146Q70.675 88.90833 70.675 89.75208Q70.675 90.87708 69.84688 91.65833Q69.03438 92.43958 67.78438 92.43958Q66.65938 92.43958 65.90938 91.76771Q65.15938 91.08021 65.05 90.01771Z" fill-rule="nonzero"/><path fill="#000000" d="M499.01373 317.45L497.96686 317.45L497.96686 310.73126Q497.57623 311.09064 496.95123 311.46564Q496.34186 311.825 495.85748 311.9969L495.85748 310.98126Q496.73248 310.5594 497.38873 309.98126Q498.0606 309.3875 498.34186 308.825L499.01373 308.825L499.01373 317.45ZM502.04498 315.1844L503.10748 315.04376Q503.27936 315.9344 503.71686 316.34064Q504.15436 316.73126 504.77936 316.73126Q505.52936 316.73126 506.04498 316.21564Q506.5606 315.7 506.5606 314.9344Q506.5606 314.21564 506.07623 313.7469Q505.60748 313.2625 504.8731 313.2625Q504.57623 313.2625 504.1231 313.3875L504.2481 312.45Q504.35748 312.46564 504.41998 312.46564Q505.09186 312.46564 505.6231 312.1219Q506.16998 311.7625 506.16998 311.02814Q506.16998 310.45 505.77936 310.075Q505.38873 309.6844 504.76373 309.6844Q504.15436 309.6844 503.73248 310.075Q503.32623 310.46564 503.21686 311.23126L502.15436 311.04376Q502.34186 309.9969 503.02936 309.41876Q503.71686 308.825 504.73248 308.825Q505.4356 308.825 506.02936 309.1375Q506.6231 309.4344 506.9356 309.95Q507.2481 310.46564 507.2481 311.0594Q507.2481 311.60626 506.95123 312.075Q506.65436 312.52814 506.07623 312.79376Q506.82623 312.96564 507.2481 313.52814Q507.66998 314.075 507.66998 314.91876Q507.66998 316.04376 506.84186 316.825Q506.02936 317.60626 504.77936 317.60626Q503.65436 317.60626 502.90436 316.9344Q502.15436 316.2469 502.04498 315.1844ZM509.63873 317.45L509.63873 316.2469L510.84186 316.2469L510.84186 317.45L509.63873 317.45ZM516.01373 317.45L514.96686 317.45L514.96686 310.73126Q514.57623 311.09064 513.95123 311.46564Q513.34186 311.825 512.8575 311.9969L512.8575 310.98126Q513.7325 310.5594 514.38873 309.98126Q515.0606 309.3875 515.34186 308.825L516.01373 308.825L516.01373 317.45Z" fill-rule="nonzero"/><path fill="#000000" d="M362.8253 317.45L361.7784 317.45L361.7784 310.73126Q361.3878 311.09064 360.7628 311.46564Q360.1534 311.825 359.66904 311.9969L359.66904 310.98126Q360.54404 310.5594 361.2003 309.98126Q361.87216 309.3875 362.1534 308.825L362.8253 308.825L362.8253 317.45ZM365.85654 315.1844L366.91904 315.04376Q367.0909 315.9344 367.5284 316.34064Q367.9659 316.73126 368.5909 316.73126Q369.3409 316.73126 369.85654 316.21564Q370.37216 315.7 370.37216 314.9344Q370.37216 314.21564 369.8878 313.7469Q369.41904 313.2625 368.68466 313.2625Q368.3878 313.2625 367.93466 313.3875L368.05966 312.45Q368.16904 312.46564 368.23154 312.46564Q368.9034 312.46564 369.43466 312.1219Q369.98154 311.7625 369.98154 311.02814Q369.98154 310.45 369.5909 310.075Q369.2003 309.6844 368.5753 309.6844Q367.9659 309.6844 367.54404 310.075Q367.1378 310.46564 367.0284 311.23126L365.9659 311.04376Q366.1534 309.9969 366.8409 309.41876Q367.5284 308.825 368.54404 308.825Q369.24716 308.825 369.8409 309.1375Q370.43466 309.4344 370.74716 309.95Q371.05966 310.46564 371.05966 311.0594Q371.05966 311.60626 370.7628 312.075Q370.4659 312.52814 369.8878 312.79376Q370.6378 312.96564 371.05966 313.52814Q371.48154 314.075 371.48154 314.91876Q371.48154 316.04376 370.6534 316.825Q369.8409 317.60626 368.5909 317.60626Q367.4659 317.60626 366.7159 316.9344Q365.9659 316.2469 365.85654 315.1844ZM373.4503 317.45L373.4503 316.2469L374.6534 316.2469L374.6534 317.45L373.4503 317.45ZM381.4034 316.4344L381.4034 317.45L375.7159 317.45Q375.7159 317.075 375.8409 316.71564Q376.05966 316.1375 376.5284 315.575Q377.0128 315.0125 377.91904 314.27814Q379.3253 313.1219 379.80966 312.45Q380.30966 311.77814 380.30966 311.1844Q380.30966 310.5594 379.85654 310.1375Q379.4034 309.7 378.68466 309.7Q377.91904 309.7 377.4659 310.15314Q377.0128 310.60626 376.99716 311.41876L375.91904 311.3094Q376.0284 310.09064 376.74716 309.46564Q377.48154 308.825 378.7159 308.825Q379.9503 308.825 380.66904 309.5125Q381.3878 310.2 381.3878 311.21564Q381.3878 311.73126 381.16904 312.23126Q380.9659 312.71564 380.4659 313.27814Q379.98154 313.825 378.85654 314.77814Q377.9034 315.575 377.62216 315.8719Q377.35654 316.15314 377.18466 316.4344L381.4034 316.4344Z" fill-rule="nonzero"/><path fill="#000000" d="M226.63683 317.45L225.58995 317.45L225.58995 310.73126Q225.19933 311.09064 224.57433 311.46564Q223.96495 311.825 223.48058 311.9969L223.48058 310.98126Q224.35558 310.5594 225.01183 309.98126Q225.6837 309.3875 225.96495 308.825L226.63683 308.825L226.63683 317.45ZM229.66808 315.1844L230.73058 315.04376Q230.90245 315.9344 231.33995 316.34064Q231.77745 316.73126 232.40245 316.73126Q233.15245 316.73126 233.66808 316.21564Q234.1837 315.7 234.1837 314.9344Q234.1837 314.21564 233.69933 313.7469Q233.23058 313.2625 232.4962 313.2625Q232.19933 313.2625 231.7462 313.3875L231.8712 312.45Q231.98058 312.46564 232.04308 312.46564Q232.71495 312.46564 233.2462 312.1219Q233.79308 311.7625 233.79308 311.02814Q233.79308 310.45 233.40245 310.075Q233.01183 309.6844 232.38683 309.6844Q231.77745 309.6844 231.35558 310.075Q230.94933 310.46564 230.83995 311.23126L229.77745 311.04376Q229.96495 309.9969 230.65245 309.41876Q231.33995 308.825 232.35558 308.825Q233.0587 308.825 233.65245 309.1375Q234.2462 309.4344 234.5587 309.95Q234.8712 310.46564 234.8712 311.0594Q234.8712 311.60626 234.57433 312.075Q234.27745 312.52814 233.69933 312.79376Q234.44933 312.96564 234.8712 313.52814Q235.29308 314.075 235.29308 314.91876Q235.29308 316.04376 234.46495 316.825Q233.65245 317.60626 232.40245 317.60626Q231.27745 317.60626 230.52745 316.9344Q229.77745 316.2469 229.66808 315.1844ZM237.26183 317.45L237.26183 316.2469L238.46495 316.2469L238.46495 317.45L237.26183 317.45ZM239.66808 315.1844L240.73058 315.04376Q240.90245 315.9344 241.33995 316.34064Q241.77745 316.73126 242.40245 316.73126Q243.15245 316.73126 243.66808 316.21564Q244.1837 315.7 244.1837 314.9344Q244.1837 314.21564 243.69933 313.7469Q243.23058 313.2625 242.4962 313.2625Q242.19933 313.2625 241.7462 313.3875L241.8712 312.45Q241.98058 312.46564 242.04308 312.46564Q242.71495 312.46564 243.2462 312.1219Q243.79308 311.7625 243.79308 311.02814Q243.79308 310.45 243.40245 310.075Q243.01183 309.6844 242.38683 309.6844Q241.77745 309.6844 241.35558 310.075Q240.94933 310.46564 240.83995 311.23126L239.77745 311.04376Q239.96495 309.9969 240.65245 309.41876Q241.33995 308.825 242.35558 308.825Q243.0587 308.825 243.65245 309.1375Q244.2462 309.4344 244.5587 309.95Q244.8712 310.46564 244.8712 311.0594Q244.8712 311.60626 244.57433 312.075Q244.27745 312.52814 243.69933 312.79376Q244.44933 312.96564 244.8712 313.52814Q245.29308 314.075 245.29308 314.91876Q245.29308 316.04376 244.46495 316.825Q243.65245 317.60626 242.40245 317.60626Q241.27745 317.60626 240.52745 316.9344Q239.77745 316.2469 239.66808 315.1844Z" fill-rule="nonzero"/><path fill="#000000" d="M90.44837 317.45L89.4015 317.45L89.4015 310.73126Q89.01087 311.09064 88.38587 311.46564Q87.7765 311.825 87.29212 311.9969L87.29212 310.98126Q88.16712 310.5594 88.82337 309.98126Q89.49525 309.3875 89.7765 308.825L90.44837 308.825L90.44837 317.45ZM93.47962 315.1844L94.54212 315.04376Q94.714 315.9344 95.1515 316.34064Q95.589 316.73126 96.214 316.73126Q96.964 316.73126 97.47962 316.21564Q97.99525 315.7 97.99525 314.9344Q97.99525 314.21564 97.51087 313.7469Q97.04212 313.2625 96.30775 313.2625Q96.01087 313.2625 95.55775 313.3875L95.68275 312.45Q95.79212 312.46564 95.85462 312.46564Q96.5265 312.46564 97.05775 312.1219Q97.60462 311.7625 97.60462 311.02814Q97.60462 310.45 97.214 310.075Q96.82337 309.6844 96.19837 309.6844Q95.589 309.6844 95.16712 310.075Q94.76087 310.46564 94.6515 311.23126L93.589 311.04376Q93.7765 309.9969 94.464 309.41876Q95.1515 308.825 96.16712 308.825Q96.87025 308.825 97.464 309.1375Q98.05775 309.4344 98.37025 309.95Q98.68275 310.46564 98.68275 311.0594Q98.68275 311.60626 98.38587 312.075Q98.089 312.52814 97.51087 312.79376Q98.26087 312.96564 98.68275 313.52814Q99.10462 314.075 99.10462 314.91876Q99.10462 316.04376 98.2765 316.825Q97.464 317.60626 96.214 317.60626Q95.089 317.60626 94.339 316.9344Q93.589 316.2469 93.47962 315.1844ZM101.07337 317.45L101.07337 316.2469L102.2765 316.2469L102.2765 317.45L101.07337 317.45ZM106.85462 317.45L106.85462 315.3875L103.13587 315.3875L103.13587 314.41876L107.05775 308.85626L107.91712 308.85626L107.91712 314.41876L109.07337 314.41876L109.07337 315.3875L107.91712 315.3875L107.91712 317.45L106.85462 317.45ZM106.85462 314.41876L106.85462 310.5594L104.16712 314.41876L106.85462 314.41876Z" fill-rule="nonzero"/><path fill="#4285f4" d="M200.5 61.916668C200.5 65.23038 197.8137 67.916664 194.5 67.916664C191.1863 67.916664 188.5 65.23038 188.5 61.916668C188.5 58.60296 191.1863 55.916668 194.5 55.916668C197.8137 55.916668 200.5 58.60296 200.5 61.916668Z" fill-rule="nonzero"/><path stroke="#4285f4" stroke-width="4.0" stroke-linecap="butt" stroke-opacity="0.4" d="M216.5 61.916668L228.5 61.916668" fill-rule="nonzero"/><path fill="#1a1a1a" d="M239.60938 65.916664L239.60938 58.33854L236.78125 58.33854L236.78125 57.322914L243.59375 57.322914L243.59375 58.33854L240.75 58.33854L240.75 65.916664L239.60938 65.916664ZM244.28125 65.916664L244.28125 59.697914L245.23438 59.697914L245.23438 60.635414Q245.59375 59.979164 245.89062 59.77604Q246.20312 59.55729 246.57812 59.55729Q247.10938 59.55729 247.65625 59.885414L247.29688 60.86979Q246.90625 60.635414 246.53125 60.635414Q246.17188 60.635414 245.89062 60.854164Q245.625 61.05729 245.51562 61.43229Q245.32812 61.99479 245.32812 62.65104L245.32812 65.916664L244.28125 65.916664ZM252.54688 63.916664L253.64062 64.041664Q253.39062 64.99479 252.6875 65.52604Q251.98438 66.05729 250.90625 66.05729Q249.54688 66.05729 248.73438 65.21354Q247.9375 64.36979 247.9375 62.854164Q247.9375 61.291664 248.75 60.43229Q249.5625 59.55729 250.84375 59.55729Q252.09375 59.55729 252.875 60.40104Q253.67188 61.24479 253.67188 62.791664Q253.67188 62.885414 253.67188 63.072914L249.03125 63.072914Q249.09375 64.104164 249.60938 64.65104Q250.125 65.18229 250.90625 65.18229Q251.48438 65.18229 251.89062 64.885414Q252.3125 64.572914 252.54688 63.916664ZM249.09375 62.21354L252.5625 62.21354Q252.5 61.416664 252.17188 61.02604Q251.65625 60.416664 250.85938 60.416664Q250.125 60.416664 249.625 60.90104Q249.14062 61.385414 249.09375 62.21354ZM255.29688 65.916664L255.29688 59.697914L256.23438 59.697914L256.23438 60.572914Q256.92188 59.55729 258.21875 59.55729Q258.78125 59.55729 259.25 59.760414Q259.73438 59.96354 259.96875 60.291664Q260.20312 60.61979 260.29688 61.05729Q260.34375 61.354164 260.34375 62.08854L260.34375 65.916664L259.29688 65.916664L259.29688 62.135414Q259.29688 61.479164 259.17188 61.166664Q259.04688 60.854164 258.73438 60.666664Q258.42188 60.46354 258.0 60.46354Q257.32812 60.46354 256.82812 60.90104Q256.34375 61.322914 256.34375 62.510414L256.34375 65.916664L255.29688 65.916664ZM266.32812 65.916664L266.32812 65.135414Q265.73438 66.05729 264.59375 66.05729Q263.84375 66.05729 263.21875 65.65104Q262.59375 65.229164 262.25 64.49479Q261.90625 63.760414 261.90625 62.80729Q261.90625 61.885414 262.21875 61.11979Q262.53125 60.354164 263.15625 59.96354Q263.78125 59.55729 264.54688 59.55729Q265.10938 59.55729 265.54688 59.791664Q265.98438 60.02604 266.26562 60.40104L266.26562 57.322914L267.3125 57.322914L267.3125 65.916664L266.32812 65.916664ZM263.0 62.80729Q263.0 64.010414 263.5 64.604164Q264.0 65.18229 264.6875 65.18229Q265.375 65.18229 265.85938 64.61979Q266.34375 64.05729 266.34375 62.90104Q266.34375 61.61979 265.84375 61.02604Q265.35938 60.43229 264.64062 60.43229Q263.9375 60.43229 263.46875 61.010414Q263.0 61.572914 263.0 62.80729ZM269.26562 65.916664L269.26562 57.322914L270.32812 57.322914L270.32812 65.916664L269.26562 65.916664ZM272.29688 58.541664L272.29688 57.322914L273.35938 57.322914L273.35938 58.541664L272.29688 58.541664ZM272.29688 65.916664L272.29688 59.697914L273.35938 59.697914L273.35938 65.916664L272.29688 65.916664ZM275.29688 65.916664L275.29688 59.697914L276.23438 59.697914L276.23438 60.572914Q276.92188 59.55729 278.21875 59.55729Q278.78125 59.55729 279.25 59.760414Q279.73438 59.96354 279.96875 60.291664Q280.20312 60.61979 280.29688 61.05729Q280.34375 61.354164 280.34375 62.08854L280.34375 65.916664L279.29688 65.916664L279.29688 62.135414Q279.29688 61.479164 279.17188 61.166664Q279.04688 60.854164 278.73438 60.666664Q278.42188 60.46354 278.0 60.46354Q277.32812 60.46354 276.82812 60.90104Q276.34375 61.322914 276.34375 62.510414L276.34375 65.916664L275.29688 65.916664ZM286.54688 63.916664L287.64062 64.041664Q287.39062 64.99479 286.6875 65.52604Q285.98438 66.05729 284.90625 66.05729Q283.54688 66.05729 282.73438 65.21354Q281.9375 64.36979 281.9375 62.854164Q281.9375 61.291664 282.75 60.43229Q283.5625 59.55729 284.84375 59.55729Q286.09375 59.55729 286.875 60.40104Q287.67188 61.24479 287.67188 62.791664Q287.67188 62.885414 287.67188 63.072914L283.03125 63.072914Q283.09375 64.104164 283.60938 64.65104Q284.125 65.18229 284.90625 65.18229Q285.48438 65.18229 285.89062 64.885414Q286.3125 64.572914 286.54688 63.916664ZM283.09375 62.21354L286.5625 62.21354Q286.5 61.416664 286.17188 61.02604Q285.65625 60.416664 284.85938 60.416664Q284.125 60.416664 283.625 60.90104Q283.14062 61.385414 283.09375 62.21354ZM292.54688 65.916664L292.54688 60.510414L291.60938 60.510414L291.60938 59.697914L292.54688 59.697914L292.54688 59.02604Q292.54688 58.40104 292.65625 58.104164Q292.8125 57.68229 293.1875 57.43229Q293.57812 57.18229 294.26562 57.18229Q294.71875 57.18229 295.25 57.291664L295.09375 58.197914Q294.76562 58.15104 294.46875 58.15104Q293.98438 58.15104 293.78125 58.354164Q293.59375 58.55729 293.59375 59.11979L293.59375 59.697914L294.8125 59.697914L294.8125 60.510414L293.59375 60.510414L293.59375 65.916664L292.54688 65.916664ZM294.90625 62.80729Q294.90625 61.072914 295.85938 60.24479Q296.65625 59.55729 297.8125 59.55729Q299.09375 59.55729 299.90625 60.40104Q300.73438 61.229164 300.73438 62.71354Q300.73438 63.916664 300.375 64.604164Q300.01562 65.291664 299.3125 65.68229Q298.625 66.05729 297.8125 66.05729Q296.51562 66.05729 295.70312 65.229164Q294.90625 64.385414 294.90625 62.80729ZM295.98438 62.80729Q295.98438 63.99479 296.5 64.58854Q297.03125 65.18229 297.8125 65.18229Q298.60938 65.18229 299.125 64.58854Q299.64062 63.99479 299.64062 62.77604Q299.64062 61.61979 299.10938 61.02604Q298.59375 60.43229 297.8125 60.43229Q297.03125 60.43229 296.5 61.02604Q295.98438 61.604164 295.98438 62.80729ZM302.28125 65.916664L302.28125 59.697914L303.23438 59.697914L303.23438 60.635414Q303.59375 59.979164 303.89062 59.77604Q304.20312 59.55729 304.57812 59.55729Q305.10938 59.55729 305.65625 59.885414L305.29688 60.86979Q304.90625 60.635414 304.53125 60.635414Q304.17188 60.635414 303.89062 60.854164Q303.625 61.05729 303.51562 61.43229Q303.32812 61.99479 303.32812 62.65104L303.32812 65.916664L302.28125 65.916664ZM308.875 64.05729L309.90625 63.90104Q310.0 64.52604 310.39062 64.854164Q310.79688 65.18229 311.53125 65.18229Q312.25 65.18229 312.59375 64.90104Q312.95312 64.604164 312.95312 64.197914Q312.95312 63.83854 312.64062 63.635414Q312.42188 63.49479 311.5625 63.27604Q310.40625 62.979164 309.95312 62.77604Q309.51562 62.55729 309.28125 62.18229Q309.04688 61.80729 309.04688 61.33854Q309.04688 60.93229 309.23438 60.572914Q309.42188 60.21354 309.75 59.979164Q310.0 59.80729 310.42188 59.68229Q310.84375 59.55729 311.34375 59.55729Q312.0625 59.55729 312.60938 59.77604Q313.17188 59.979164 313.4375 60.33854Q313.70312 60.697914 313.79688 61.291664L312.76562 61.43229Q312.70312 60.96354 312.35938 60.697914Q312.03125 60.416664 311.40625 60.416664Q310.6875 60.416664 310.375 60.666664Q310.0625 60.90104 310.0625 61.229164Q310.0625 61.43229 310.1875 61.58854Q310.32812 61.760414 310.59375 61.86979Q310.75 61.93229 311.53125 62.135414Q312.65625 62.447914 313.09375 62.635414Q313.53125 62.822914 313.78125 63.18229Q314.03125 63.541664 314.03125 64.08854Q314.03125 64.61979 313.71875 65.08854Q313.42188 65.541664 312.84375 65.80729Q312.26562 66.05729 311.53125 66.05729Q310.3125 66.05729 309.67188 65.55729Q309.04688 65.041664 308.875 64.05729ZM319.54688 63.916664L320.64062 64.041664Q320.39062 64.99479 319.6875 65.52604Q318.98438 66.05729 317.90625 66.05729Q316.54688 66.05729 315.73438 65.21354Q314.9375 64.36979 314.9375 62.854164Q314.9375 61.291664 315.75 60.43229Q316.5625 59.55729 317.84375 59.55729Q319.09375 59.55729 319.875 60.40104Q320.67188 61.24479 320.67188 62.791664Q320.67188 62.885414 320.67188 63.072914L316.03125 63.072914Q316.09375 64.104164 316.60938 64.65104Q317.125 65.18229 317.90625 65.18229Q318.48438 65.18229 318.89062 64.885414Q319.3125 64.572914 319.54688 63.916664ZM316.09375 62.21354L319.5625 62.21354Q319.5 61.416664 319.17188 61.02604Q318.65625 60.416664 317.85938 60.416664Q317.125 60.416664 316.625 60.90104Q316.14062 61.385414 316.09375 62.21354ZM322.28125 65.916664L322.28125 59.697914L323.23438 59.697914L323.23438 60.635414Q323.59375 59.979164 323.89062 59.77604Q324.20312 59.55729 324.57812 59.55729Q325.10938 59.55729 325.65625 59.885414L325.29688 60.86979Q324.90625 60.635414 324.53125 60.635414Q324.17188 60.635414 323.89062 60.854164Q323.625 61.05729 323.51562 61.43229Q323.32812 61.99479 323.32812 62.65104L323.32812 65.916664L322.28125 65.916664ZM326.29688 58.541664L326.29688 57.322914L327.35938 57.322914L327.35938 58.541664L326.29688 58.541664ZM326.29688 65.916664L326.29688 59.697914L327.35938 59.697914L327.35938 65.916664L326.29688 65.916664ZM333.54688 63.916664L334.64062 64.041664Q334.39062 64.99479 333.6875 65.52604Q332.98438 66.05729 331.90625 66.05729Q330.54688 66.05729 329.73438 65.21354Q328.9375 64.36979 328.9375 62.854164Q328.9375 61.291664 329.75 60.43229Q330.5625 59.55729 331.84375 59.55729Q333.09375 59.55729 333.875 60.40104Q334.67188 61.24479 334.67188 62.791664Q334.67188 62.885414 334.67188 63.072914L330.03125 63.072914Q330.09375 64.104164 330.60938 64.65104Q331.125 65.18229 331.90625 65.18229Q332.48438 65.18229 332.89062 64.885414Q333.3125 64.572914 333.54688 63.916664ZM330.09375 62.21354L333.5625 62.21354Q333.5 61.416664 333.17188 61.02604Q332.65625 60.416664 331.85938 60.416664Q331.125 60.416664 330.625 60.90104Q330.14062 61.385414 330.09375 62.21354ZM335.875 64.05729L336.90625 63.90104Q337.0 64.52604 337.39062 64.854164Q337.79688 65.18229 338.53125 65.18229Q339.25 65.18229 339.59375 64.90104Q339.95312 64.604164 339.95312 64.197914Q339.95312 63.83854 339.64062 63.635414Q339.42188 63.49479 338.5625 63.27604Q337.40625 62.979164 336.95312 62.77604Q336.51562 62.55729 336.28125 62.18229Q336.04688 61.80729 336.04688 61.33854Q336.04688 60.93229 336.23438 60.572914Q336.42188 60.21354 336.75 59.979164Q337.0 59.80729 337.42188 59.68229Q337.84375 59.55729 338.34375 59.55729Q339.0625 59.55729 339.60938 59.77604Q340.17188 59.979164 340.4375 60.33854Q340.70312 60.697914 340.79688 61.291664L339.76562 61.43229Q339.70312 60.96354 339.35938 60.697914Q339.03125 60.416664 338.40625 60.416664Q337.6875 60.416664 337.375 60.666664Q337.0625 60.90104 337.0625 61.229164Q337.0625 61.43229 337.1875 61.58854Q337.32812 61.760414 337.59375 61.86979Q337.75 61.93229 338.53125 62.135414Q339.65625 62.447914 340.09375 62.635414Q340.53125 62.822914 340.78125 63.18229Q341.03125 63.541664 341.03125 64.08854Q341.03125 64.61979 340.71875 65.08854Q340.42188 65.541664 339.84375 65.80729Q339.26562 66.05729 338.53125 66.05729Q337.3125 66.05729 336.67188 65.55729Q336.04688 65.041664 335.875 64.05729ZM348.96875 65.916664L347.92188 65.916664L347.92188 59.197914Q347.53125 59.55729 346.90625 59.93229Q346.29688 60.291664 345.8125 60.46354L345.8125 59.447914Q346.6875 59.02604 347.34375 58.447914Q348.01562 57.854164 348.29688 57.291664L348.96875 57.291664L348.96875 65.916664ZM355.4375 65.916664L355.4375 57.322914L359.25 57.322914Q360.40625 57.322914 361.0 57.55729Q361.59375 57.791664 361.95312 58.385414Q362.3125 58.96354 362.3125 59.666664Q362.3125 60.58854 361.71875 61.21354Q361.125 61.83854 359.89062 62.010414Q360.34375 62.229164 360.57812 62.43229Q361.07812 62.885414 361.51562 63.572914L363.01562 65.916664L361.57812 65.916664L360.45312 64.135414Q359.95312 63.354164 359.625 62.947914Q359.3125 62.541664 359.04688 62.385414Q358.79688 62.21354 358.53125 62.135414Q358.34375 62.104164 357.90625 62.104164L356.57812 62.104164L356.57812 65.916664L355.4375 65.916664ZM356.57812 61.11979L359.03125 61.11979Q359.79688 61.11979 360.23438 60.96354Q360.6875 60.791664 360.90625 60.447914Q361.14062 60.08854 361.14062 59.666664Q361.14062 59.05729 360.6875 58.666664Q360.25 58.27604 359.29688 58.27604L356.57812 58.27604L356.57812 61.11979ZM363.64062 61.61979Q363.6875 61.291664 363.92188 60.947914Q364.29688 60.447914 365.14062 59.83854Q365.98438 59.229164 366.14062 59.041664Q366.35938 58.80729 366.35938 58.55729Q366.35938 58.27604 366.14062 58.104164Q365.9375 57.916664 365.54688 57.916664Q365.15625 57.916664 364.96875 58.05729Q364.78125 58.18229 364.65625 58.572914L363.76562 58.479164Q363.9375 57.83854 364.35938 57.52604Q364.78125 57.21354 365.5625 57.21354Q366.45312 57.21354 366.85938 57.572914Q367.28125 57.916664 367.28125 58.416664Q367.28125 58.90104 366.92188 59.33854Q366.67188 59.666664 365.73438 60.33854Q365.23438 60.697914 365.03125 60.916664L367.29688 60.916664L367.29688 61.61979L363.64062 61.61979ZM376.84375 60.86979L371.17188 60.86979L371.17188 59.885414L376.84375 59.885414L376.84375 60.86979ZM376.84375 63.479164L371.17188 63.479164L371.17188 62.49479L376.84375 62.49479L376.84375 63.479164ZM381.0 61.68229Q381.0 60.15104 381.3125 59.229164Q381.625 58.291664 382.23438 57.791664Q382.85938 57.291664 383.79688 57.291664Q384.48438 57.291664 385.0 57.572914Q385.53125 57.854164 385.875 58.385414Q386.21875 58.90104 386.40625 59.65104Q386.59375 60.40104 386.59375 61.68229Q386.59375 63.197914 386.28125 64.11979Q385.98438 65.041664 385.35938 65.55729Q384.75 66.05729 383.79688 66.05729Q382.5625 66.05729 381.84375 65.166664Q381.0 64.104164 381.0 61.68229ZM382.07812 61.68229Q382.07812 63.791664 382.57812 64.49479Q383.07812 65.197914 383.79688 65.197914Q384.53125 65.197914 385.01562 64.49479Q385.51562 63.791664 385.51562 61.68229Q385.51562 59.55729 385.01562 58.86979Q384.53125 58.166664 383.78125 58.166664Q383.0625 58.166664 382.625 58.77604Q382.07812 59.55729 382.07812 61.68229ZM388.59375 65.916664L388.59375 64.71354L389.79688 64.71354L389.79688 65.916664L388.59375 65.916664ZM394.375 65.916664L394.375 63.854164L390.65625 63.854164L390.65625 62.885414L394.57812 57.322914L395.4375 57.322914L395.4375 62.885414L396.59375 62.885414L396.59375 63.854164L395.4375 63.854164L395.4375 65.916664L394.375 65.916664ZM394.375 62.885414L394.375 59.02604L391.6875 62.885414L394.375 62.885414ZM398.0 63.65104L399.0625 63.510414Q399.23438 64.40104 399.67188 64.80729Q400.10938 65.197914 400.73438 65.197914Q401.48438 65.197914 402.0 64.68229Q402.51562 64.166664 402.51562 63.40104Q402.51562 62.68229 402.03125 62.21354Q401.5625 61.729164 400.82812 61.729164Q400.53125 61.729164 400.07812 61.854164L400.20312 60.916664Q400.3125 60.93229 400.375 60.93229Q401.04688 60.93229 401.57812 60.58854Q402.125 60.229164 402.125 59.49479Q402.125 58.916664 401.73438 58.541664Q401.34375 58.15104 400.71875 58.15104Q400.10938 58.15104 399.6875 58.541664Q399.28125 58.93229 399.17188 59.697914L398.10938 59.510414Q398.29688 58.46354 398.98438 57.885414Q399.67188 57.291664 400.6875 57.291664Q401.39062 57.291664 401.98438 57.604164Q402.57812 57.90104 402.89062 58.416664Q403.20312 58.93229 403.20312 59.52604Q403.20312 60.072914 402.90625 60.541664Q402.60938 60.99479 402.03125 61.260414Q402.78125 61.43229 403.20312 61.99479Q403.625 62.541664 403.625 63.385414Q403.625 64.510414 402.79688 65.291664Q401.98438 66.072914 400.73438 66.072914Q399.60938 66.072914 398.85938 65.40104Q398.10938 64.71354 398.0 63.65104ZM405.0625 58.447914L405.0625 57.43229L410.625 57.43229L410.625 58.260414Q409.8125 59.135414 409.0 60.58854Q408.20312 62.02604 407.76562 63.55729Q407.4375 64.635414 407.35938 65.916664L406.26562 65.916664Q406.28125 64.90104 406.65625 63.46354Q407.04688 62.02604 407.75 60.697914Q408.46875 59.36979 409.28125 58.447914L405.0625 58.447914Z" fill-rule="nonzero"/><path fill="#757575" d="M26.003124 37.55L24.2375 37.55L24.2375 26.346874Q23.6125 26.95625 22.58125 27.565624Q21.55 28.159374 20.721874 28.471874L20.721874 26.76875Q22.20625 26.08125 23.3 25.096874Q24.409374 24.096874 24.8625 23.175L26.003124 23.175L26.003124 37.55ZM37.003124 37.55L35.2375 37.55L35.2375 26.346874Q34.6125 26.95625 33.58125 27.565624Q32.55 28.159374 31.721874 28.471874L31.721874 26.76875Q33.20625 26.08125 34.3 25.096874Q35.409374 24.096874 35.8625 23.175L37.003124 23.175L37.003124 37.55ZM41.378124 30.4875Q41.378124 27.95625 41.89375 26.409374Q42.425 24.846874 43.45625 24.01875Q44.4875 23.175 46.05 23.175Q47.20625 23.175 48.065624 23.64375Q48.940624 24.096874 49.503124 24.971874Q50.065624 25.846874 50.39375 27.1125Q50.721874 28.3625 50.721874 30.4875Q50.721874 33.003124 50.190624 34.55Q49.675 36.096874 48.64375 36.95625Q47.628124 37.8 46.05 37.8Q43.971874 37.8 42.8 36.315624Q41.378124 34.51875 41.378124 30.4875ZM43.190624 30.4875Q43.190624 34.01875 44.003124 35.190624Q44.83125 36.346874 46.05 36.346874Q47.253124 36.346874 48.08125 35.175Q48.909374 34.003124 48.909374 30.4875Q48.909374 26.95625 48.08125 25.8Q47.253124 24.628124 46.034374 24.628124Q44.815624 24.628124 44.096874 25.659374Q43.190624 26.95625 43.190624 30.4875ZM53.034374 37.55L53.034374 23.2375L55.89375 23.2375L59.26875 33.3625Q59.7375 34.784374 59.95625 35.4875Q60.20625 34.70625 60.721874 33.190624L64.14375 23.2375L66.69063 23.2375L66.69063 37.55L64.87813 37.55L64.87813 25.565624L60.70625 37.55L59.003124 37.55L54.8625 25.3625L54.8625 37.55L53.034374 37.55ZM76.15938 37.55L76.15938 23.2375L78.05 23.2375L78.05 29.1125L85.4875 29.1125L85.4875 23.2375L87.37813 23.2375L87.37813 37.55L85.4875 37.55L85.4875 30.8L78.05 30.8L78.05 37.55L76.15938 37.55ZM96.65938 37.55L96.65938 36.01875Q95.45625 37.784374 93.37813 37.784374Q92.45625 37.784374 91.65938 37.440624Q90.8625 37.08125 90.47188 36.55Q90.09688 36.01875 89.94063 35.2375Q89.83125 34.721874 89.83125 33.596874L89.83125 27.175L91.58125 27.175L91.58125 32.925Q91.58125 34.3 91.69063 34.784374Q91.8625 35.471874 92.39375 35.878124Q92.94063 36.26875 93.72188 36.26875Q94.51875 36.26875 95.20625 35.8625Q95.90938 35.45625 96.19063 34.76875Q96.4875 34.065624 96.4875 32.7375L96.4875 27.175L98.2375 27.175L98.2375 37.55L96.65938 37.55ZM100.84688 37.55L100.84688 27.175L102.425 27.175L102.425 28.753124Q103.03438 27.64375 103.55 27.3Q104.06563 26.940624 104.675 26.940624Q105.56563 26.940624 106.4875 27.503124L105.87813 29.14375Q105.2375 28.753124 104.59688 28.753124Q104.01875 28.753124 103.55 29.1125Q103.09688 29.45625 102.89375 30.065624Q102.6125 31.003124 102.6125 32.1125L102.6125 37.55L100.84688 37.55ZM114.59688 37.55L114.59688 36.2375Q113.6125 37.784374 111.69063 37.784374Q110.45625 37.784374 109.40938 37.096874Q108.37813 36.409374 107.8 35.190624Q107.2375 33.971874 107.2375 32.378124Q107.2375 30.815624 107.75313 29.55Q108.26875 28.284374 109.3 27.6125Q110.34688 26.940624 111.6125 26.940624Q112.55 26.940624 113.28438 27.346874Q114.01875 27.7375 114.4875 28.3625L114.4875 23.2375L116.22188 23.2375L116.22188 37.55L114.59688 37.55ZM109.03438 32.378124Q109.03438 34.3625 109.87813 35.346874Q110.72188 36.33125 111.8625 36.33125Q113.01875 36.33125 113.81563 35.39375Q114.62813 34.45625 114.62813 32.51875Q114.62813 30.39375 113.8 29.39375Q112.9875 28.39375 111.78438 28.39375Q110.6125 28.39375 109.81563 29.3625Q109.03438 30.315624 109.03438 32.378124ZM118.83125 37.55L118.83125 23.2375L120.58125 23.2375L120.58125 37.55L118.83125 37.55ZM129.97188 34.20625L131.78438 34.440624Q131.3625 36.01875 130.19063 36.909374Q129.03438 37.784374 127.22188 37.784374Q124.95625 37.784374 123.6125 36.39375Q122.28438 34.9875 122.28438 32.45625Q122.28438 29.83125 123.62813 28.39375Q124.97188 26.940624 127.12813 26.940624Q129.20625 26.940624 130.51875 28.3625Q131.84688 29.76875 131.84688 32.346874Q131.84688 32.503124 131.83125 32.815624L124.09688 32.815624Q124.19063 34.51875 125.06563 35.425Q125.94063 36.33125 127.2375 36.33125Q128.20625 36.33125 128.87813 35.83125Q129.56563 35.315624 129.97188 34.20625ZM124.19063 31.3625L129.9875 31.3625Q129.87813 30.065624 129.33125 29.409374Q128.4875 28.39375 127.14375 28.39375Q125.94063 28.39375 125.1125 29.20625Q124.28438 30.003124 124.19063 31.3625ZM133.15938 34.45625L134.90938 34.175Q135.05 35.221874 135.72188 35.784374Q136.39375 36.33125 137.59688 36.33125Q138.8 36.33125 139.37813 35.846874Q139.97188 35.346874 139.97188 34.690624Q139.97188 34.096874 139.45625 33.753124Q139.09688 33.51875 137.65938 33.159374Q135.72188 32.659374 134.97188 32.315624Q134.2375 31.95625 133.84688 31.33125Q133.45625 30.690624 133.45625 29.925Q133.45625 29.2375 133.76875 28.64375Q134.09688 28.05 134.64375 27.659374Q135.05 27.3625 135.75313 27.159374Q136.47188 26.940624 137.28438 26.940624Q138.50313 26.940624 139.425 27.3Q140.34688 27.64375 140.78438 28.253124Q141.22188 28.846874 141.39375 29.846874L139.675 30.08125Q139.55 29.284374 138.9875 28.846874Q138.425 28.39375 137.40938 28.39375Q136.19063 28.39375 135.675 28.8Q135.15938 29.190624 135.15938 29.721874Q135.15938 30.065624 135.37813 30.346874Q135.58125 30.628124 136.05 30.815624Q136.31563 30.909374 137.59688 31.253124Q139.47188 31.753124 140.20625 32.08125Q140.94063 32.39375 141.3625 33.003124Q141.78438 33.596874 141.78438 34.503124Q141.78438 35.378124 141.26875 36.159374Q140.75313 36.940624 139.78438 37.3625Q138.81563 37.784374 137.59688 37.784374Q135.58125 37.784374 134.51875 36.940624Q133.45625 36.096874 133.15938 34.45625ZM152.59688 37.55L148.8 23.2375L150.7375 23.2375L152.90938 32.6125Q153.26875 34.096874 153.51875 35.55Q154.06563 33.253124 154.15938 32.89375L156.89375 23.2375L159.175 23.2375L161.22188 30.471874Q162.00313 33.175 162.34688 35.55Q162.6125 34.190624 163.05 32.425L165.3 23.2375L167.20625 23.2375L163.28438 37.55L161.45625 37.55L158.44063 26.64375Q158.05 25.26875 157.9875 24.95625Q157.75313 25.940624 157.56563 26.64375L154.53438 37.55L152.59688 37.55ZM175.97188 34.20625L177.78438 34.440624Q177.3625 36.01875 176.19063 36.909374Q175.03438 37.784374 173.22188 37.784374Q170.95625 37.784374 169.6125 36.39375Q168.28438 34.9875 168.28438 32.45625Q168.28438 29.83125 169.62813 28.39375Q170.97188 26.940624 173.12813 26.940624Q175.20625 26.940624 176.51875 28.3625Q177.84688 29.76875 177.84688 32.346874Q177.84688 32.503124 177.83125 32.815624L170.09688 32.815624Q170.19063 34.51875 171.06563 35.425Q171.94063 36.33125 173.2375 36.33125Q174.20625 36.33125 174.87813 35.83125Q175.56563 35.315624 175.97188 34.20625ZM170.19063 31.3625L175.9875 31.3625Q175.87813 30.065624 175.33125 29.409374Q174.4875 28.39375 173.14375 28.39375Q171.94063 28.39375 171.1125 29.20625Q170.28438 30.003124 170.19063 31.3625ZM179.87813 25.253124L179.87813 23.2375L181.64375 23.2375L181.64375 25.253124L179.87813 25.253124ZM179.87813 37.55L179.87813 27.175L181.64375 27.175L181.64375 37.55L179.87813 37.55ZM183.55 38.409374L185.25313 38.659374Q185.3625 39.45625 185.84688 39.815624Q186.50313 40.3 187.64375 40.3Q188.8625 40.3 189.51875 39.815624Q190.19063 39.33125 190.425 38.45625Q190.56563 37.909374 190.55 36.190624Q189.39375 37.55 187.675 37.55Q185.53438 37.55 184.3625 36.003124Q183.19063 34.45625 183.19063 32.3Q183.19063 30.815624 183.72188 29.565624Q184.26875 28.315624 185.28438 27.628124Q186.31563 26.940624 187.69063 26.940624Q189.51875 26.940624 190.72188 28.425L190.72188 27.175L192.33125 27.175L192.33125 36.14375Q192.33125 38.565624 191.83125 39.565624Q191.34688 40.58125 190.26875 41.159374Q189.20625 41.753124 187.64375 41.753124Q185.8 41.753124 184.64375 40.925Q183.50313 40.096874 183.55 38.409374ZM185.00313 32.175Q185.00313 34.221874 185.81563 35.159374Q186.62813 36.096874 187.84688 36.096874Q189.05 36.096874 189.8625 35.159374Q190.69063 34.221874 190.69063 32.2375Q190.69063 30.33125 189.84688 29.3625Q189.00313 28.39375 187.81563 28.39375Q186.64375 28.39375 185.81563 29.346874Q185.00313 30.3 185.00313 32.175ZM194.8625 37.55L194.8625 23.2375L196.62813 23.2375L196.62813 28.3625Q197.8625 26.940624 199.7375 26.940624Q200.87813 26.940624 201.72188 27.39375Q202.58125 27.846874 202.94063 28.659374Q203.31563 29.45625 203.31563 30.971874L203.31563 37.55L201.56563 37.55L201.56563 30.971874Q201.56563 29.659374 200.9875 29.065624Q200.40938 28.45625 199.37813 28.45625Q198.59688 28.45625 197.89375 28.8625Q197.20625 29.26875 196.90938 29.971874Q196.62813 30.659374 196.62813 31.878124L196.62813 37.55L194.8625 37.55ZM209.70625 35.971874L209.95625 37.534374Q209.22188 37.690624 208.62813 37.690624Q207.675 37.690624 207.14375 37.39375Q206.62813 37.08125 206.40938 36.596874Q206.19063 36.096874 206.19063 34.51875L206.19063 28.55L204.90938 28.55L204.90938 27.175L206.19063 27.175L206.19063 24.6125L207.94063 23.55L207.94063 27.175L209.70625 27.175L209.70625 28.55L207.94063 28.55L207.94063 34.6125Q207.94063 35.3625 208.03438 35.58125Q208.12813 35.784374 208.33125 35.925Q208.55 36.05 208.94063 36.05Q209.22188 36.05 209.70625 35.971874ZM210.55 37.8L214.70625 22.9875L216.1125 22.9875L211.97188 37.8L210.55 37.8ZM218.15938 37.55L218.15938 23.2375L220.05 23.2375L220.05 29.1125L227.4875 29.1125L227.4875 23.2375L229.37813 23.2375L229.37813 37.55L227.4875 37.55L227.4875 30.8L220.05 30.8L220.05 37.55L218.15938 37.55ZM238.97188 34.20625L240.78438 34.440624Q240.3625 36.01875 239.19063 36.909374Q238.03438 37.784374 236.22188 37.784374Q233.95625 37.784374 232.6125 36.39375Q231.28438 34.9875 231.28438 32.45625Q231.28438 29.83125 232.62813 28.39375Q233.97188 26.940624 236.12813 26.940624Q238.20625 26.940624 239.51875 28.3625Q240.84688 29.76875 240.84688 32.346874Q240.84688 32.503124 240.83125 32.815624L233.09688 32.815624Q233.19063 34.51875 234.06563 35.425Q234.94063 36.33125 236.2375 36.33125Q237.20625 36.33125 237.87813 35.83125Q238.56563 35.315624 238.97188 34.20625ZM233.19063 31.3625L238.9875 31.3625Q238.87813 30.065624 238.33125 29.409374Q237.4875 28.39375 236.14375 28.39375Q234.94063 28.39375 234.1125 29.20625Q233.28438 30.003124 233.19063 31.3625ZM242.87813 25.253124L242.87813 23.2375L244.64375 23.2375L244.64375 25.253124L242.87813 25.253124ZM242.87813 37.55L242.87813 27.175L244.64375 27.175L244.64375 37.55L242.87813 37.55ZM246.55 38.409374L248.25313 38.659374Q248.3625 39.45625 248.84688 39.815624Q249.50313 40.3 250.64375 40.3Q251.8625 40.3 252.51875 39.815624Q253.19063 39.33125 253.425 38.45625Q253.56563 37.909374 253.55 36.190624Q252.39375 37.55 250.675 37.55Q248.53438 37.55 247.3625 36.003124Q246.19063 34.45625 246.19063 32.3Q246.19063 30.815624 246.72188 29.565624Q247.26875 28.315624 248.28438 27.628124Q249.31563 26.940624 250.69063 26.940624Q252.51875 26.940624 253.72188 28.425L253.72188 27.175L255.33125 27.175L255.33125 36.14375Q255.33125 38.565624 254.83125 39.565624Q254.34688 40.58125 253.26875 41.159374Q252.20625 41.753124 250.64375 41.753124Q248.8 41.753124 247.64375 40.925Q246.50313 40.096874 246.55 38.409374ZM248.00313 32.175Q248.00313 34.221874 248.81563 35.159374Q249.62813 36.096874 250.84688 36.096874Q252.05 36.096874 252.8625 35.159374Q253.69063 34.221874 253.69063 32.2375Q253.69063 30.33125 252.84688 29.3625Q252.00313 28.39375 250.81563 28.39375Q249.64375 28.39375 248.81563 29.346874Q248.00313 30.3 248.00313 32.175ZM257.8625 37.55L257.8625 23.2375L259.6281 23.2375L259.6281 28.3625Q260.8625 26.940624 262.7375 26.940624Q263.8781 26.940624 264.72186 27.39375Q265.58124 27.846874 265.9406 28.659374Q266.3156 29.45625 266.3156 30.971874L266.3156 37.55L264.5656 37.55L264.5656 30.971874Q264.5656 29.659374 263.9875 29.065624Q263.40936 28.45625 262.3781 28.45625Q261.59686 28.45625 260.89374 28.8625Q260.20624 29.26875 259.90936 29.971874Q259.6281 30.659374 259.6281 31.878124L259.6281 37.55L257.8625 37.55ZM272.70624 35.971874L272.95624 37.534374Q272.22186 37.690624 271.6281 37.690624Q270.675 37.690624 270.14374 37.39375Q269.6281 37.08125 269.40936 36.596874Q269.1906 36.096874 269.1906 34.51875L269.1906 28.55L267.90936 28.55L267.90936 27.175L269.1906 27.175L269.1906 24.6125L270.9406 23.55L270.9406 27.175L272.70624 27.175L272.70624 28.55L270.9406 28.55L270.9406 34.6125Q270.9406 35.3625 271.03436 35.58125Q271.1281 35.784374 271.33124 35.925Q271.55 36.05 271.9406 36.05Q272.22186 36.05 272.70624 35.971874ZM281.1281 37.55L281.1281 23.2375L287.47186 23.2375Q289.3781 23.2375 290.3781 23.628124Q291.3781 24.003124 291.97186 24.9875Q292.5656 25.95625 292.5656 27.14375Q292.5656 28.659374 291.58124 29.70625Q290.59686 30.753124 288.53436 31.034374Q289.28436 31.39375 289.675 31.753124Q290.5031 32.503124 291.2531 33.659374L293.7375 37.55L291.3625 37.55L289.45624 34.565624Q288.6281 33.284374 288.09686 32.596874Q287.5656 31.909374 287.1281 31.64375Q286.70624 31.3625 286.26874 31.253124Q285.9406 31.190624 285.22186 31.190624L283.01874 31.190624L283.01874 37.55L281.1281 37.55ZM283.01874 29.55L287.09686 29.55Q288.39374 29.55 289.1125 29.284374Q289.84686 29.01875 290.22186 28.425Q290.6125 27.83125 290.6125 27.14375Q290.6125 26.128124 289.8781 25.471874Q289.14374 24.815624 287.55 24.815624L283.01874 24.815624L283.01874 29.55ZM301.64374 36.26875Q300.65936 37.096874 299.7531 37.440624Q298.84686 37.784374 297.8156 37.784374Q296.1125 37.784374 295.1906 36.95625Q294.26874 36.1125 294.26874 34.815624Q294.26874 34.05 294.6125 33.425Q294.97186 32.8 295.53436 32.425Q296.09686 32.034374 296.8 31.83125Q297.3156 31.70625 298.3625 31.565624Q300.4875 31.315624 301.4875 30.971874Q301.5031 30.6125 301.5031 30.503124Q301.5031 29.440624 301.0031 28.9875Q300.33124 28.39375 299.0031 28.39375Q297.7531 28.39375 297.15936 28.83125Q296.58124 29.26875 296.3 30.378124L294.58124 30.14375Q294.8156 29.034374 295.34686 28.3625Q295.8781 27.675 296.89374 27.315624Q297.90936 26.940624 299.2531 26.940624Q300.58124 26.940624 301.40936 27.253124Q302.2375 27.565624 302.6281 28.05Q303.01874 28.51875 303.175 29.2375Q303.26874 29.690624 303.26874 30.8625L303.26874 33.20625Q303.26874 35.659374 303.3781 36.315624Q303.4875 36.95625 303.83124 37.55L301.9875 37.55Q301.72186 37.003124 301.64374 36.26875ZM301.4875 32.346874Q300.53436 32.7375 298.6125 33.003124Q297.53436 33.159374 297.08124 33.3625Q296.64374 33.55 296.39374 33.925Q296.14374 34.3 296.14374 34.76875Q296.14374 35.471874 296.675 35.940624Q297.20624 36.409374 298.2375 36.409374Q299.2531 36.409374 300.03436 35.971874Q300.83124 35.51875 301.20624 34.753124Q301.4875 34.14375 301.4875 32.9875L301.4875 32.346874ZM309.70624 35.971874L309.95624 37.534374Q309.22186 37.690624 308.6281 37.690624Q307.675 37.690624 307.14374 37.39375Q306.6281 37.08125 306.40936 36.596874Q306.1906 36.096874 306.1906 34.51875L306.1906 28.55L304.90936 28.55L304.90936 27.175L306.1906 27.175L306.1906 24.6125L307.9406 23.55L307.9406 27.175L309.70624 27.175L309.70624 28.55L307.9406 28.55L307.9406 34.6125Q307.9406 35.3625 308.03436 35.58125Q308.1281 35.784374 308.33124 35.925Q308.55 36.05 308.9406 36.05Q309.22186 36.05 309.70624 35.971874ZM311.8781 25.253124L311.8781 23.2375L313.64374 23.2375L313.64374 25.253124L311.8781 25.253124ZM311.8781 37.55L311.8781 27.175L313.64374 27.175L313.64374 37.55L311.8781 37.55ZM315.22186 32.3625Q315.22186 29.4875 316.8156 28.096874Q318.15936 26.940624 320.08124 26.940624Q322.22186 26.940624 323.5656 28.346874Q324.925 29.753124 324.925 32.221874Q324.925 34.221874 324.33124 35.378124Q323.7375 36.51875 322.58124 37.159374Q321.4406 37.784374 320.08124 37.784374Q317.89374 37.784374 316.55 36.39375Q315.22186 34.9875 315.22186 32.3625ZM317.01874 32.3625Q317.01874 34.3625 317.8781 35.346874Q318.7531 36.33125 320.08124 36.33125Q321.39374 36.33125 322.2531 35.346874Q323.1281 34.346874 323.1281 32.3Q323.1281 30.378124 322.2531 29.39375Q321.3781 28.39375 320.08124 28.39375Q318.7531 28.39375 317.8781 29.39375Q317.01874 30.378124 317.01874 32.3625ZM335.7531 37.55L331.8 27.175L333.65936 27.175L335.89374 33.39375Q336.2531 34.39375 336.55 35.471874Q336.78436 34.659374 337.20624 33.503124L339.5031 27.175L341.3156 27.175L337.39374 37.55L335.7531 37.55ZM342.15936 34.45625L343.90936 34.175Q344.05 35.221874 344.72186 35.784374Q345.39374 36.33125 346.59686 36.33125Q347.8 36.33125 348.3781 35.846874Q348.97186 35.346874 348.97186 34.690624Q348.97186 34.096874 348.45624 33.753124Q348.09686 33.51875 346.65936 33.159374Q344.72186 32.659374 343.97186 32.315624Q343.2375 31.95625 342.84686 31.33125Q342.45624 30.690624 342.45624 29.925Q342.45624 29.2375 342.76874 28.64375Q343.09686 28.05 343.64374 27.659374Q344.05 27.3625 344.7531 27.159374Q345.47186 26.940624 346.28436 26.940624Q347.5031 26.940624 348.425 27.3Q349.34686 27.64375 349.78436 28.253124Q350.22186 28.846874 350.39374 29.846874L348.675 30.08125Q348.55 29.284374 347.9875 28.846874Q347.425 28.39375 346.40936 28.39375Q345.1906 28.39375 344.675 28.8Q344.15936 29.190624 344.15936 29.721874Q344.15936 30.065624 344.3781 30.346874Q344.58124 30.628124 345.05 30.815624Q345.3156 30.909374 346.59686 31.253124Q348.47186 31.753124 349.20624 32.08125Q349.9406 32.39375 350.3625 33.003124Q350.78436 33.596874 350.78436 34.503124Q350.78436 35.378124 350.26874 36.159374Q349.7531 36.940624 348.78436 37.3625Q347.8156 37.784374 346.59686 37.784374Q344.58124 37.784374 343.51874 36.940624Q342.45624 36.096874 342.15936 34.45625ZM359.1281 37.55L359.1281 23.2375L365.47186 23.2375Q367.3781 23.2375 368.3781 23.628124Q369.3781 24.003124 369.97186 24.9875Q370.5656 25.95625 370.5656 27.14375Q370.5656 28.659374 369.58124 29.70625Q368.59686 30.753124 366.53436 31.034374Q367.28436 31.39375 367.675 31.753124Q368.5031 32.503124 369.2531 33.659374L371.7375 37.55L369.3625 37.55L367.45624 34.565624Q366.6281 33.284374 366.09686 32.596874Q365.5656 31.909374 365.1281 31.64375Q364.70624 31.3625 364.26874 31.253124Q363.9406 31.190624 363.22186 31.190624L361.01874 31.190624L361.01874 37.55L359.1281 37.55ZM361.01874 29.55L365.09686 29.55Q366.39374 29.55 367.1125 29.284374Q367.84686 29.01875 368.22186 28.425Q368.6125 27.83125 368.6125 27.14375Q368.6125 26.128124 367.8781 25.471874Q367.14374 24.815624 365.55 24.815624L361.01874 24.815624L361.01874 29.55ZM379.97186 34.20625L381.78436 34.440624Q381.3625 36.01875 380.1906 36.909374Q379.03436 37.784374 377.22186 37.784374Q374.95624 37.784374 373.6125 36.39375Q372.28436 34.9875 372.28436 32.45625Q372.28436 29.83125 373.6281 28.39375Q374.97186 26.940624 377.1281 26.940624Q379.20624 26.940624 380.51874 28.3625Q381.84686 29.76875 381.84686 32.346874Q381.84686 32.503124 381.83124 32.815624L374.09686 32.815624Q374.1906 34.51875 375.0656 35.425Q375.9406 36.33125 377.2375 36.33125Q378.20624 36.33125 378.8781 35.83125Q379.5656 35.315624 379.97186 34.20625ZM374.1906 31.3625L379.9875 31.3625Q379.8781 30.065624 379.33124 29.409374Q378.4875 28.39375 377.14374 28.39375Q375.9406 28.39375 375.1125 29.20625Q374.28436 30.003124 374.1906 31.3625ZM383.15936 34.45625L384.90936 34.175Q385.05 35.221874 385.72186 35.784374Q386.39374 36.33125 387.59686 36.33125Q388.8 36.33125 389.3781 35.846874Q389.97186 35.346874 389.97186 34.690624Q389.97186 34.096874 389.45624 33.753124Q389.09686 33.51875 387.65936 33.159374Q385.72186 32.659374 384.97186 32.315624Q384.2375 31.95625 383.84686 31.33125Q383.45624 30.690624 383.45624 29.925Q383.45624 29.2375 383.76874 28.64375Q384.09686 28.05 384.64374 27.659374Q385.05 27.3625 385.7531 27.159374Q386.47186 26.940624 387.28436 26.940624Q388.5031 26.940624 389.425 27.3Q390.34686 27.64375 390.78436 28.253124Q391.22186 28.846874 391.39374 29.846874L389.675 30.08125Q389.55 29.284374 388.9875 28.846874Q388.425 28.39375 387.40936 28.39375Q386.1906 28.39375 385.675 28.8Q385.15936 29.190624 385.15936 29.721874Q385.15936 30.065624 385.3781 30.346874Q385.58124 30.628124 386.05 30.815624Q386.3156 30.909374 387.59686 31.253124Q389.47186 31.753124 390.20624 32.08125Q390.9406 32.39375 391.3625 33.003124Q391.78436 33.596874 391.78436 34.503124Q391.78436 35.378124 391.26874 36.159374Q390.7531 36.940624 389.78436 37.3625Q388.8156 37.784374 387.59686 37.784374Q385.58124 37.784374 384.51874 36.940624Q383.45624 36.096874 383.15936 34.45625ZM400.65936 37.55L400.65936 36.01875Q399.45624 37.784374 397.3781 37.784374Q396.45624 37.784374 395.65936 37.440624Q394.8625 37.08125 394.47186 36.55Q394.09686 36.01875 393.9406 35.2375Q393.83124 34.721874 393.83124 33.596874L393.83124 27.175L395.58124 27.175L395.58124 32.925Q395.58124 34.3 395.6906 34.784374Q395.8625 35.471874 396.39374 35.878124Q396.9406 36.26875 397.72186 36.26875Q398.51874 36.26875 399.20624 35.8625Q399.90936 35.45625 400.1906 34.76875Q400.4875 34.065624 400.4875 32.7375L400.4875 27.175L402.2375 27.175L402.2375 37.55L400.65936 37.55ZM404.83124 37.55L404.83124 23.2375L406.58124 23.2375L406.58124 37.55L404.83124 37.55ZM412.70624 35.971874L412.95624 37.534374Q412.22186 37.690624 411.6281 37.690624Q410.675 37.690624 410.14374 37.39375Q409.6281 37.08125 409.40936 36.596874Q409.1906 36.096874 409.1906 34.51875L409.1906 28.55L407.90936 28.55L407.90936 27.175L409.1906 27.175L409.1906 24.6125L410.9406 23.55L410.9406 27.175L412.70624 27.175L412.70624 28.55L410.9406 28.55L410.9406 34.6125Q410.9406 35.3625 411.03436 35.58125Q411.1281 35.784374 411.33124 35.925Q411.55 36.05 411.9406 36.05Q412.22186 36.05 412.70624 35.971874Z" fill-rule="nonzero"/></svg>