<svg version="1.1" viewBox="0.0 0.0 600.0 371.0" fill="none" stroke="none" stroke-linecap="square" stroke-miterlimit="10" width="600" height="371" xmlns:xlink="http://www.w3.org/1999/xlink" xmlns="http://www.w3.org/2000/svg"><path fill="#ffffff" d="M0 0L600.0 0L600.0 371.0L0 371.0L0 0Z" fill-rule="nonzero"/><path stroke="#cccccc" stroke-width="1.0" stroke-linecap="butt" d="M559.5 88.5L559.5 300.5" fill-rule="nonzero"/><path stroke="#cccccc" stroke-width="1.0" stroke-linecap="butt" d="M408.5 88.5L408.5 300.5" fill-rule="nonzero"/><path stroke="#cccccc" stroke-width="1.0" stroke-linecap="butt" d="M257.5 88.5L257.5 300.5" fill-rule="nonzero"/><path stroke="#cccccc" stroke-width="1.0" stroke-linecap="butt" d="M106.5 88.5L106.5 300.5" fill-rule="nonzero"/><path stroke="#333333" stroke-width="1.0" stroke-linecap="butt" d="M77.5 300.5L581.5 300.5" fill-rule="nonzero"/><path stroke="#cccccc" stroke-width="1.0" stroke-linecap="butt" d="M77.5 229.5L581.5 229.5" fill-rule="nonzero"/><path stroke="#cccccc" stroke-width="1.0" stroke-linecap="butt" d="M77.5 159.5L581.5 159.5" fill-rule="nonzero"/><path stroke="#cccccc" stroke-width="1.0" stroke-linecap="butt" d="M77.5 88.5L581.5 88.5" fill-rule="nonzero"/><clipPath id="id_0"><path d="M77.55 88.28333L581.45 88.28333L581.45 300.45L77.55 300.45L77.55 88.28333Z" clip-rule="nonzero"/></clipPath><path stroke="#4285f4" stroke-width="2.0" stroke-linecap="butt" stroke-opacity="0.4" clip-path="url(#id_0)" d="M0 140.60295L581.45 123.99588" fill-rule="nonzero"/><path fill="#4285f4" clip-path="url(#id_0)" d="M579.1392 112.16357C579.1392 114.64884 577.1245 116.66357 574.6392 116.66357C572.15393 116.66357 570.1392 114.64884 570.1392 112.16357C570.1392 109.67828 572.15393 107.66357 574.6392 107.66357C577.1245 107.66357 579.1392 109.67828 579.1392 112.16357Z" fill-rule="nonzero"/><path fill="#4285f4" clip-path="url(#id_0)" d="M398.11334 142.6062C398.11334 145.09148 396.0986 147.1062 393.61334 147.1062C391.12805 147.1062 389.11334 145.09148 389.11334 142.6062C389.11334 140.12093 391.12805 138.1062 393.61334 138.1062C396.0986 138.1062 398.11334 140.12093 398.11334 142.6062Z" fill-rule="nonzero"/><path fill="#4285f4" clip-path="url(#id_0)" d="M322.68588 146.74704C322.68588 149.23232 320.67117 151.24704 318.18588 151.24704C315.7006 151.24704 313.68588 149.23232 313.68588 146.74704C313.68588 144.26175 315.7006 142.24704 318.18588 142.24704C320.67117 142.24704 322.68588 144.26175 322.68588 146.74704Z" fill-rule="nonzero"/><path fill="#4285f4" clip-path="url(#id_0)" d="M322.68588 129.12292C322.68588 131.60822 320.67117 133.62292 318.18588 133.62292C315.7006 133.62292 313.68588 131.60822 313.68588 129.12292C313.68588 126.63764 315.7006 124.622925 318.18588 124.622925C320.67117 124.622925 322.68588 126.63764 322.68588 129.12292Z" fill-rule="nonzero"/><path fill="#4285f4" clip-path="url(#id_0)" d="M315.14313 135.76825C315.14313 138.25354 313.12842 140.26825 310.64313 140.26825C308.15787 140.26825 306.14313 138.25354 306.14313 135.76825C306.14313 133.28297 308.15787 131.26825 310.64313 131.26825C313.12842 131.26825 315.14313 133.28297 315.14313 135.76825Z" fill-rule="nonzero"/><path fill="#4285f4" clip-path="url(#id_0)" d="M269.88666 123.64445C269.88666 126.12972 267.87195 128.14444 265.38666 128.14444C262.9014 128.14444 260.88666 126.12972 260.88666 123.64445C260.88666 121.159164 262.9014 119.14445 265.38666 119.14445C267.87195 119.14445 269.88666 121.159164 269.88666 123.64445Z" fill-rule="nonzero"/><path fill="#4285f4" clip-path="url(#id_0)" d="M239.71568 131.1151C239.71568 133.60039 237.70096 135.6151 235.21568 135.6151C232.73041 135.6151 230.71568 133.60039 230.71568 131.1151C230.71568 128.62982 232.73041 126.615105 235.21568 126.615105C237.70096 126.615105 239.71568 128.62982 239.71568 131.1151Z" fill-rule="nonzero"/><path fill="#4285f4" clip-path="url(#id_0)" d="M88.86077 132.24579C88.86077 134.73108 86.846054 136.74579 84.36077 136.74579C81.875496 136.74579 79.86077 134.73108 79.86077 132.24579C79.86077 129.76051 81.875496 127.7458 84.36077 127.7458C86.846054 127.7458 88.86077 129.76051 88.86077 132.24579Z" fill-rule="nonzero"/><path fill="#000000" d="M310.60938 349.45L310.60938 341.8719L307.78125 341.8719L307.78125 340.85626L314.59375 340.85626L314.59375 341.8719L311.75 341.8719L311.75 349.45L310.60938 349.45ZM315.29688 342.075L315.29688 340.85626L316.35938 340.85626L316.35938 342.075L315.29688 342.075ZM315.29688 349.45L315.29688 343.23126L316.35938 343.23126L316.35938 349.45L315.29688 349.45ZM318.29688 349.45L318.29688 343.23126L319.23438 343.23126L319.23438 344.10626Q319.53125 343.6375 320.01562 343.3719Q320.5 343.09064 321.125 343.09064Q321.8125 343.09064 322.25 343.3719Q322.70312 343.65314 322.875 344.16876Q323.625 343.09064 324.79688 343.09064Q325.73438 343.09064 326.21875 343.60626Q326.71875 344.10626 326.71875 345.1844L326.71875 349.45L325.67188 349.45L325.67188 345.52814Q325.67188 344.90314 325.5625 344.6219Q325.46875 344.34064 325.20312 344.16876Q324.9375 343.9969 324.5625 343.9969Q323.90625 343.9969 323.46875 344.4344Q323.04688 344.8719 323.04688 345.84064L323.04688 349.45L321.98438 349.45L321.98438 345.40314Q321.98438 344.7 321.71875 344.35626Q321.46875 343.9969 320.89062 343.9969Q320.4375 343.9969 320.0625 344.23126Q319.6875 344.46564 319.51562 344.91876Q319.34375 345.3719 319.34375 346.21564L319.34375 349.45L318.29688 349.45ZM332.54688 347.45L333.64062 347.575Q333.39062 348.52814 332.6875 349.0594Q331.98438 349.59064 330.90625 349.59064Q329.54688 349.59064 328.73438 348.7469Q327.9375 347.90314 327.9375 346.3875Q327.9375 344.825 328.75 343.96564Q329.5625 343.09064 330.84375 343.09064Q332.09375 343.09064 332.875 343.9344Q333.67188 344.77814 333.67188 346.325Q333.67188 346.41876 333.67188 346.60626L329.03125 346.60626Q329.09375 347.6375 329.60938 348.1844Q330.125 348.71564 330.90625 348.71564Q331.48438 348.71564 331.89062 348.41876Q332.3125 348.10626 332.54688 347.45ZM329.09375 345.7469L332.5625 345.7469Q332.5 344.95 332.17188 344.5594Q331.65625 343.95 330.85938 343.95Q330.125 343.95 329.625 344.4344Q329.14062 344.91876 329.09375 345.7469ZM340.3125 351.98126Q339.4375 350.8719 338.82812 349.40314Q338.23438 347.91876 338.23438 346.34064Q338.23438 344.95 338.67188 343.66876Q339.20312 342.1844 340.3125 340.71564L341.0625 340.71564Q340.35938 341.9344 340.125 342.45Q339.76562 343.2625 339.5625 344.1375Q339.3125 345.23126 339.3125 346.34064Q339.3125 349.16876 341.0625 351.98126L340.3125 351.98126ZM341.875 347.59064L342.90625 347.4344Q343.0 348.0594 343.39062 348.3875Q343.79688 348.71564 344.53125 348.71564Q345.25 348.71564 345.59375 348.4344Q345.95312 348.1375 345.95312 347.73126Q345.95312 347.3719 345.64062 347.16876Q345.42188 347.02814 344.5625 346.8094Q343.40625 346.5125 342.95312 346.3094Q342.51562 346.09064 342.28125 345.71564Q342.04688 345.34064 342.04688 344.8719Q342.04688 344.46564 342.23438 344.10626Q342.42188 343.7469 342.75 343.5125Q343.0 343.34064 343.42188 343.21564Q343.84375 343.09064 344.34375 343.09064Q345.0625 343.09064 345.60938 343.3094Q346.17188 343.5125 346.4375 343.8719Q346.70312 344.23126 346.79688 344.825L345.76562 344.96564Q345.70312 344.4969 345.35938 344.23126Q345.03125 343.95 344.40625 343.95Q343.6875 343.95 343.375 344.2Q343.0625 344.4344 343.0625 344.7625Q343.0625 344.96564 343.1875 345.1219Q343.32812 345.29376 343.59375 345.40314Q343.75 345.46564 344.53125 345.66876Q345.65625 345.98126 346.09375 346.16876Q346.53125 346.35626 346.78125 346.71564Q347.03125 347.075 347.03125 347.6219Q347.03125 348.15314 346.71875 348.6219Q346.42188 349.075 345.84375 349.34064Q345.26562 349.59064 344.53125 349.59064Q343.3125 349.59064 342.67188 349.09064Q342.04688 348.575 341.875 347.59064ZM348.98438 351.98126L348.23438 351.98126Q349.98438 349.16876 349.98438 346.34064Q349.98438 345.2469 349.73438 344.15314Q349.53125 343.27814 349.17188 342.46564Q348.9375 341.95 348.23438 340.71564L348.98438 340.71564Q350.07812 342.1844 350.60938 343.66876Q351.0625 344.95 351.0625 346.34064Q351.0625 347.91876 350.45312 349.40314Q349.84375 350.8719 348.98438 351.98126Z" fill-rule="nonzero"/><path fill="#000000" d="M29.550013 279.4448L20.956263 281.72604L20.956263 280.55417L26.596888 279.24167Q27.471888 279.03854 28.346888 278.8823Q26.971888 278.55417 26.753138 278.49167L20.956263 276.86667L20.956263 275.49167L25.300013 274.2573Q26.925013 273.80417 28.346888 273.58542Q27.534388 273.42917 26.471888 273.16354L20.956263 271.8198L20.956263 270.67917L29.550013 273.02292L29.550013 274.1323L23.003138 275.92917Q22.190638 276.16354 22.003138 276.21042Q22.581263 276.33542 23.003138 276.46042L29.550013 278.27292L29.550013 279.4448ZM27.550013 265.8198L27.675013 264.72604Q28.628138 264.97604 29.159388 265.67917Q29.690638 266.3823 29.690638 267.46042Q29.690638 268.8198 28.846888 269.6323Q28.003138 270.42917 26.487513 270.42917Q24.925013 270.42917 24.065638 269.61667Q23.190638 268.80417 23.190638 267.52292Q23.190638 266.27292 24.034388 265.49167Q24.878138 264.6948 26.425013 264.6948Q26.518763 264.6948 26.706263 264.6948L26.706263 269.33542Q27.737513 269.27292 28.284388 268.7573Q28.815638 268.24167 28.815638 267.46042Q28.815638 266.8823 28.518763 266.47604Q28.206263 266.05417 27.550013 265.8198ZM25.846888 269.27292L25.846888 265.80417Q25.050013 265.86667 24.659388 266.1948Q24.050013 266.71042 24.050013 267.5073Q24.050013 268.24167 24.534388 268.74167Q25.018763 269.22604 25.846888 269.27292ZM22.175013 263.0698L20.956263 263.0698L20.956263 262.0073L22.175013 262.0073L22.175013 263.0698ZM29.550013 263.0698L23.331263 263.0698L23.331263 262.0073L29.550013 262.0073L29.550013 263.0698ZM30.065638 260.27292L30.221888 259.24167Q30.690638 259.17917 30.909388 258.8823Q31.206263 258.49167 31.206263 257.8198Q31.206263 257.08542 30.909388 256.6948Q30.612513 256.28854 30.096888 256.14792Q29.768763 256.05417 28.737513 256.0698Q29.550013 256.7573 29.550013 257.78854Q29.550013 259.0698 28.628138 259.77292Q27.690638 260.47604 26.409388 260.47604Q25.518763 260.47604 24.768763 260.16354Q24.003138 259.83542 23.596888 259.22604Q23.190638 258.61667 23.190638 257.78854Q23.190638 256.67917 24.081263 255.96042L23.331263 255.96042L23.331263 254.99167L28.706263 254.99167Q30.159388 254.99167 30.768763 255.28854Q31.378138 255.58542 31.721888 256.22604Q32.08126 256.86667 32.08126 257.80417Q32.08126 258.91354 31.581263 259.60104Q31.081263 260.28854 30.065638 260.27292ZM26.331263 259.39792Q27.550013 259.39792 28.112513 258.91354Q28.675013 258.42917 28.675013 257.6948Q28.675013 256.96042 28.112513 256.47604Q27.550013 255.97604 26.362513 255.97604Q25.221888 255.97604 24.643763 256.49167Q24.065638 256.99167 24.065638 257.71042Q24.065638 258.41354 24.643763 258.91354Q25.206263 259.39792 26.331263 259.39792ZM29.550013 253.0698L20.956263 253.0698L20.956263 252.02292L24.034388 252.02292Q23.190638 251.28854 23.190638 250.16354Q23.190638 249.46042 23.471888 248.96042Q23.737513 248.4448 24.221888 248.22604Q24.690638 248.0073 25.612513 248.0073L29.550013 248.0073L29.550013 249.05417L25.612513 249.05417Q24.815638 249.05417 24.456263 249.39792Q24.096888 249.74167 24.096888 250.36667Q24.096888 250.83542 24.346888 251.2573Q24.581263 251.66354 25.003138 251.85104Q25.409388 252.02292 26.143763 252.02292L29.550013 252.02292L29.550013 253.0698ZM28.612513 243.77292L29.534388 243.61667Q29.628138 244.0698 29.628138 244.41354Q29.628138 244.99167 29.456263 245.30417Q29.268763 245.61667 28.971888 245.7573Q28.675013 245.8823 27.721888 245.8823L24.143763 245.8823L24.143763 246.64792L23.331263 246.64792L23.331263 245.8823L21.784388 245.8823L21.159388 244.83542L23.331263 244.83542L23.331263 243.77292L24.143763 243.77292L24.143763 244.83542L27.784388 244.83542Q28.237513 244.83542 28.362513 244.78854Q28.487513 244.72604 28.565638 244.60104Q28.643763 244.47604 28.643763 244.24167Q28.643763 244.05417 28.612513 243.77292ZM28.612513 237.77292L29.534388 237.61667Q29.628138 238.0698 29.628138 238.41354Q29.628138 238.99167 29.456263 239.30417Q29.268763 239.61667 28.971888 239.7573Q28.675013 239.8823 27.721888 239.8823L24.143763 239.8823L24.143763 240.64792L23.331263 240.64792L23.331263 239.8823L21.784388 239.8823L21.159388 238.83542L23.331263 238.83542L23.331263 237.77292L24.143763 237.77292L24.143763 238.83542L27.784388 238.83542Q28.237513 238.83542 28.362513 238.78854Q28.487513 238.72604 28.565638 238.60104Q28.643763 238.47604 28.643763 238.24167Q28.643763 238.05417 28.612513 237.77292ZM26.440638 237.46042Q24.706263 237.46042 23.878138 236.5073Q23.190638 235.71042 23.190638 234.55417Q23.190638 233.27292 24.034388 232.46042Q24.862513 231.6323 26.346888 231.6323Q27.550013 231.6323 28.237513 231.99167Q28.925013 232.35104 29.315638 233.05417Q29.690638 233.74167 29.690638 234.55417Q29.690638 235.85104 28.862513 236.66354Q28.018763 237.46042 26.440638 237.46042ZM26.440638 236.3823Q27.628138 236.3823 28.221888 235.86667Q28.815638 235.33542 28.815638 234.55417Q28.815638 233.7573 28.221888 233.24167Q27.628138 232.72604 26.409388 232.72604Q25.253138 232.72604 24.659388 233.2573Q24.065638 233.77292 24.065638 234.55417Q24.065638 235.33542 24.659388 235.86667Q25.237513 236.3823 26.440638 236.3823ZM29.550013 226.89792L20.956263 226.89792L20.956263 225.77292L24.487513 225.77292L24.487513 221.30417L20.956263 221.30417L20.956263 220.16354L29.550013 220.16354L29.550013 221.30417L25.503138 221.30417L25.503138 225.77292L29.550013 225.77292L29.550013 226.89792ZM27.550013 213.8198L27.675013 212.72604Q28.628138 212.97604 29.159388 213.67917Q29.690638 214.3823 29.690638 215.46042Q29.690638 216.8198 28.846888 217.6323Q28.003138 218.42917 26.487513 218.42917Q24.925013 218.42917 24.065638 217.61667Q23.190638 216.80417 23.190638 215.52292Q23.190638 214.27292 24.034388 213.49167Q24.878138 212.6948 26.425013 212.6948Q26.518763 212.6948 26.706263 212.6948L26.706263 217.33542Q27.737513 217.27292 28.284388 216.7573Q28.815638 216.24167 28.815638 215.46042Q28.815638 214.8823 28.518763 214.47604Q28.206263 214.05417 27.550013 213.8198ZM25.846888 217.27292L25.846888 213.80417Q25.050013 213.86667 24.659388 214.1948Q24.050013 214.71042 24.050013 215.5073Q24.050013 216.24167 24.534388 216.74167Q25.018763 217.22604 25.846888 217.27292ZM22.175013 211.0698L20.956263 211.0698L20.956263 210.0073L22.175013 210.0073L22.175013 211.0698ZM29.550013 211.0698L23.331263 211.0698L23.331263 210.0073L29.550013 210.0073L29.550013 211.0698ZM30.065638 208.27292L30.221888 207.24167Q30.690638 207.17917 30.909388 206.8823Q31.206263 206.49167 31.206263 205.8198Q31.206263 205.08542 30.909388 204.6948Q30.612513 204.28854 30.096888 204.14792Q29.768763 204.05417 28.737513 204.0698Q29.550013 204.7573 29.550013 205.78854Q29.550013 207.0698 28.628138 207.77292Q27.690638 208.47604 26.409388 208.47604Q25.518763 208.47604 24.768763 208.16354Q24.003138 207.83542 23.596888 207.22604Q23.190638 206.61667 23.190638 205.78854Q23.190638 204.67917 24.081263 203.96042L23.331263 203.96042L23.331263 202.99167L28.706263 202.99167Q30.159388 202.99167 30.768763 203.28854Q31.378138 203.58542 31.721888 204.22604Q32.08126 204.86667 32.08126 205.80417Q32.08126 206.91354 31.581263 207.60104Q31.081263 208.28854 30.065638 208.27292ZM26.331263 207.39792Q27.550013 207.39792 28.112513 206.91354Q28.675013 206.42917 28.675013 205.6948Q28.675013 204.96042 28.112513 204.47604Q27.550013 203.97604 26.362513 203.97604Q25.221888 203.97604 24.643763 204.49167Q24.065638 204.99167 24.065638 205.71042Q24.065638 206.41354 24.643763 206.91354Q25.206263 207.39792 26.331263 207.39792ZM29.550013 201.0698L20.956263 201.0698L20.956263 200.02292L24.034388 200.02292Q23.190638 199.28854 23.190638 198.16354Q23.190638 197.46042 23.471888 196.96042Q23.737513 196.4448 24.221888 196.22604Q24.690638 196.0073 25.612513 196.0073L29.550013 196.0073L29.550013 197.05417L25.612513 197.05417Q24.815638 197.05417 24.456263 197.39792Q24.096888 197.74167 24.096888 198.36667Q24.096888 198.83542 24.346888 199.2573Q24.581263 199.66354 25.003138 199.85104Q25.409388 200.02292 26.143763 200.02292L29.550013 200.02292L29.550013 201.0698ZM28.612513 191.77292L29.534388 191.61667Q29.628138 192.0698 29.628138 192.41354Q29.628138 192.99167 29.456263 193.30417Q29.268763 193.61667 28.971888 193.7573Q28.675013 193.8823 27.721888 193.8823L24.143763 193.8823L24.143763 194.64792L23.331263 194.64792L23.331263 193.8823L21.784388 193.8823L21.159388 192.83542L23.331263 192.83542L23.331263 191.77292L24.143763 191.77292L24.143763 192.83542L27.784388 192.83542Q28.237513 192.83542 28.362513 192.78854Q28.487513 192.72604 28.565638 192.60104Q28.643763 192.47604 28.643763 192.24167Q28.643763 192.05417 28.612513 191.77292ZM29.550013 187.92917L20.956263 187.92917L20.956263 184.11667Q20.956263 182.96042 21.190638 182.36667Q21.425013 181.77292 22.018763 181.41354Q22.596888 181.05417 23.300013 181.05417Q24.221888 181.05417 24.846888 181.64792Q25.471888 182.24167 25.643763 183.47604Q25.862513 183.02292 26.065638 182.78854Q26.518763 182.28854 27.206263 181.85104L29.550013 180.35104L29.550013 181.78854L27.768763 182.91354Q26.987513 183.41354 26.581263 183.74167Q26.175013 184.05417 26.018763 184.3198Q25.846888 184.5698 25.768763 184.83542Q25.737513 185.02292 25.737513 185.46042L25.737513 186.78854L29.550013 186.78854L29.550013 187.92917ZM24.753138 186.78854L24.753138 184.33542Q24.753138 183.5698 24.596888 183.1323Q24.425013 182.67917 24.081263 182.46042Q23.721888 182.22604 23.300013 182.22604Q22.690638 182.22604 22.300013 182.67917Q21.909388 183.11667 21.909388 184.0698L21.909388 186.78854L24.753138 186.78854ZM28.784388 175.0073Q29.284388 175.60104 29.487513 176.14792Q29.690638 176.67917 29.690638 177.30417Q29.690638 178.33542 29.190638 178.8823Q28.690638 179.42917 27.909388 179.42917Q27.456263 179.42917 27.081263 179.22604Q26.690638 179.02292 26.471888 178.67917Q26.237513 178.33542 26.128138 177.91354Q26.034388 177.61667 25.956263 176.97604Q25.815638 175.71042 25.596888 175.10104Q25.378138 175.10104 25.331263 175.10104Q24.675013 175.10104 24.409388 175.39792Q24.065638 175.80417 24.065638 176.60104Q24.065638 177.33542 24.331263 177.6948Q24.581263 178.05417 25.237513 178.22604L25.096888 179.2573Q24.440638 179.11667 24.034388 178.78854Q23.628138 178.46042 23.409388 177.85104Q23.190638 177.24167 23.190638 176.4448Q23.190638 175.64792 23.378138 175.14792Q23.565638 174.64792 23.846888 174.41354Q24.128138 174.17917 24.565638 174.08542Q24.831263 174.03854 25.534388 174.03854L26.940638 174.03854Q28.409388 174.03854 28.800013 173.97604Q29.190638 173.89792 29.550013 173.6948L29.550013 174.80417Q29.221888 174.96042 28.784388 175.0073ZM26.425013 175.10104Q26.659388 175.67917 26.831263 176.8198Q26.925013 177.47604 27.050013 177.74167Q27.159388 178.0073 27.378138 178.16354Q27.596888 178.30417 27.878138 178.30417Q28.300013 178.30417 28.581263 177.99167Q28.862513 177.66354 28.862513 177.05417Q28.862513 176.4448 28.596888 175.97604Q28.331263 175.49167 27.862513 175.27292Q27.503138 175.10104 26.815638 175.10104L26.425013 175.10104ZM28.612513 169.77292L29.534388 169.61667Q29.628138 170.0698 29.628138 170.41354Q29.628138 170.99167 29.456263 171.30417Q29.268763 171.61667 28.971888 171.7573Q28.675013 171.8823 27.721888 171.8823L24.143763 171.8823L24.143763 172.64792L23.331263 172.64792L23.331263 171.8823L21.784388 171.8823L21.159388 170.83542L23.331263 170.83542L23.331263 169.77292L24.143763 169.77292L24.143763 170.83542L27.784388 170.83542Q28.237513 170.83542 28.362513 170.78854Q28.487513 170.72604 28.565638 170.60104Q28.643763 170.47604 28.643763 170.24167Q28.643763 170.05417 28.612513 169.77292ZM22.175013 169.0698L20.956263 169.0698L20.956263 168.0073L22.175013 168.0073L22.175013 169.0698ZM29.550013 169.0698L23.331263 169.0698L23.331263 168.0073L29.550013 168.0073L29.550013 169.0698ZM26.440638 166.46042Q24.706263 166.46042 23.878138 165.5073Q23.190638 164.71042 23.190638 163.55417Q23.190638 162.27292 24.034388 161.46042Q24.862513 160.6323 26.346888 160.6323Q27.550013 160.6323 28.237513 160.99167Q28.925013 161.35104 29.315638 162.05417Q29.690638 162.74167 29.690638 163.55417Q29.690638 164.85104 28.862513 165.66354Q28.018763 166.46042 26.440638 166.46042ZM26.440638 165.3823Q27.628138 165.3823 28.221888 164.86667Q28.815638 164.33542 28.815638 163.55417Q28.815638 162.7573 28.221888 162.24167Q27.628138 161.72604 26.409388 161.72604Q25.253138 161.72604 24.659388 162.2573Q24.065638 162.77292 24.065638 163.55417Q24.065638 164.33542 24.659388 164.86667Q25.237513 165.3823 26.440638 165.3823ZM32.08126 154.05417Q30.971888 154.92917 29.503138 155.53854Q28.018763 156.1323 26.440638 156.1323Q25.050013 156.1323 23.768763 155.6948Q22.284388 155.16354 20.815638 154.05417L20.815638 153.30417Q22.034388 154.0073 22.550013 154.24167Q23.362513 154.60104 24.237513 154.80417Q25.331263 155.05417 26.440638 155.05417Q29.268763 155.05417 32.08126 153.30417L32.08126 154.05417ZM29.550013 152.10104L20.956263 152.10104L20.956263 151.03854L29.550013 151.03854L29.550013 152.10104ZM29.550013 148.10104L29.550013 149.08542L20.956263 149.08542L20.956263 148.02292L24.018763 148.02292Q23.190638 147.35104 23.190638 146.3198Q23.190638 145.74167 23.425013 145.24167Q23.643763 144.72604 24.065638 144.39792Q24.487513 144.05417 25.081263 143.86667Q25.675013 143.67917 26.346888 143.67917Q27.940638 143.67917 28.815638 144.47604Q29.690638 145.27292 29.690638 146.36667Q29.690638 147.47604 28.768763 148.10104L29.550013 148.10104ZM26.393763 148.11667Q27.503138 148.11667 28.003138 147.80417Q28.815638 147.30417 28.815638 146.46042Q28.815638 145.77292 28.221888 145.27292Q27.628138 144.7573 26.425013 144.7573Q25.206263 144.7573 24.628138 145.24167Q24.050013 145.72604 24.050013 146.41354Q24.050013 147.10104 24.659388 147.61667Q25.253138 148.11667 26.393763 148.11667ZM27.690638 142.49167L27.534388 141.46042Q28.159388 141.36667 28.487513 140.97604Q28.815638 140.5698 28.815638 139.83542Q28.815638 139.11667 28.534388 138.77292Q28.237513 138.41354 27.831263 138.41354Q27.471888 138.41354 27.268763 138.72604Q27.128138 138.9448 26.909388 139.80417Q26.612513 140.96042 26.409388 141.41354Q26.190638 141.85104 25.815638 142.08542Q25.440638 142.3198 24.971888 142.3198Q24.565638 142.3198 24.206263 142.1323Q23.846888 141.9448 23.612513 141.61667Q23.440638 141.36667 23.315638 140.9448Q23.190638 140.52292 23.190638 140.02292Q23.190638 139.30417 23.409388 138.7573Q23.612513 138.1948 23.971888 137.92917Q24.331263 137.66354 24.925013 137.5698L25.065638 138.60104Q24.596888 138.66354 24.331263 139.0073Q24.050013 139.33542 24.050013 139.96042Q24.050013 140.67917 24.300013 140.99167Q24.534388 141.30417 24.862513 141.30417Q25.065638 141.30417 25.221888 141.17917Q25.393763 141.03854 25.503138 140.77292Q25.565638 140.61667 25.768763 139.83542Q26.081263 138.71042 26.268763 138.27292Q26.456263 137.83542 26.815638 137.58542Q27.175013 137.33542 27.721888 137.33542Q28.253138 137.33542 28.721888 137.64792Q29.175013 137.9448 29.440638 138.52292Q29.690638 139.10104 29.690638 139.83542Q29.690638 141.05417 29.190638 141.6948Q28.675013 142.3198 27.690638 142.49167ZM29.690638 136.86667L20.815638 134.3823L20.815638 133.53854L29.690638 136.02292L29.690638 136.86667ZM22.175013 133.0698L20.956263 133.0698L20.956263 132.0073L22.175013 132.0073L22.175013 133.0698ZM29.550013 133.0698L23.331263 133.0698L23.331263 132.0073L29.550013 132.0073L29.550013 133.0698ZM29.550013 130.0698L23.331263 130.0698L23.331263 129.1323L24.206263 129.1323Q23.190638 128.4448 23.190638 127.14792Q23.190638 126.58542 23.393763 126.11667Q23.596888 125.63229 23.925013 125.39792Q24.253138 125.16354 24.690638 125.06979Q24.987513 125.02292 25.721888 125.02292L29.550013 125.02292L29.550013 126.06979L25.768763 126.06979Q25.112513 126.06979 24.800013 126.19479Q24.487513 126.31979 24.300013 126.63229Q24.096888 126.94479 24.096888 127.36667Q24.096888 128.03854 24.534388 128.53854Q24.956263 129.02292 26.143763 129.02292L29.550013 129.02292L29.550013 130.0698ZM32.08126 122.38229L32.08126 123.13229Q29.268763 121.38229 26.440638 121.38229Q25.346888 121.38229 24.253138 121.63229Q23.378138 121.83542 22.565638 122.19479Q22.050013 122.42917 20.815638 123.13229L20.815638 122.38229Q22.284388 121.28854 23.768763 120.75729Q25.050013 120.30417 26.440638 120.30417Q28.018763 120.30417 29.503138 120.91354Q30.971888 121.52292 32.08126 122.38229Z" fill-rule="nonzero"/><path fill="#000000" d="M65.05 300.21564Q65.05 298.6844 65.3625 297.7625Q65.675 296.825 66.28438 296.325Q66.90938 295.825 67.84688 295.825Q68.53438 295.825 69.05 296.10626Q69.58125 296.3875 69.925 296.91876Q70.26875 297.4344 70.45625 298.1844Q70.64375 298.9344 70.64375 300.21564Q70.64375 301.73126 70.33125 302.65314Q70.03438 303.575 69.40938 304.09064Q68.8 304.59064 67.84688 304.59064Q66.6125 304.59064 65.89375 303.7Q65.05 302.6375 65.05 300.21564ZM66.12813 300.21564Q66.12813 302.325 66.62813 303.02814Q67.12813 303.73126 67.84688 303.73126Q68.58125 303.73126 69.06563 303.02814Q69.56563 302.325 69.56563 300.21564Q69.56563 298.09064 69.06563 297.40314Q68.58125 296.7 67.83125 296.7Q67.1125 296.7 66.675 297.3094Q66.12813 298.09064 66.12813 300.21564Z" fill-rule="nonzero"/><path fill="#000000" d="M69.01875 233.72778L67.97188 233.72778L67.97188 227.00903Q67.58125 227.36841 66.95625 227.74341Q66.34688 228.10278 65.8625 228.27466L65.8625 227.25903Q66.7375 226.83716 67.39375 226.25903Q68.06563 225.66528 68.34688 225.10278L69.01875 225.10278L69.01875 233.72778Z" fill-rule="nonzero"/><path fill="#000000" d="M70.59688 161.98993L70.59688 163.00555L64.90938 163.00555Q64.90938 162.63055 65.03438 162.27118Q65.25313 161.69305 65.72188 161.13055Q66.20625 160.56805 67.1125 159.83368Q68.51875 158.67743 69.00313 158.00555Q69.50313 157.33368 69.50313 156.73993Q69.50313 156.11493 69.05 155.69305Q68.59688 155.25555 67.87813 155.25555Q67.1125 155.25555 66.65938 155.70868Q66.20625 156.1618 66.19063 156.9743L65.1125 156.86493Q65.22188 155.64618 65.94063 155.02118Q66.675 154.38055 67.90938 154.38055Q69.14375 154.38055 69.8625 155.06805Q70.58125 155.75555 70.58125 156.77118Q70.58125 157.2868 70.3625 157.7868Q70.15938 158.27118 69.65938 158.83368Q69.175 159.38055 68.05 160.33368Q67.09688 161.13055 66.81563 161.42743Q66.55 161.70868 66.37813 161.98993L70.59688 161.98993Z" fill-rule="nonzero"/><path fill="#000000" d="M65.05 90.01771L66.1125 89.87708Q66.28438 90.76771 66.72188 91.17396Q67.15938 91.56458 67.78438 91.56458Q68.53438 91.56458 69.05 91.04896Q69.56563 90.53333 69.56563 89.76771Q69.56563 89.04896 69.08125 88.58021Q68.6125 88.09583 67.87813 88.09583Q67.58125 88.09583 67.12813 88.22083L67.25313 87.28333Q67.3625 87.29896 67.425 87.29896Q68.09688 87.29896 68.62813 86.95521Q69.175 86.59583 69.175 85.86146Q69.175 85.28333 68.78438 84.90833Q68.39375 84.51771 67.76875 84.51771Q67.15938 84.51771 66.7375 84.90833Q66.33125 85.29896 66.22188 86.06458L65.15938 85.87708Q65.34688 84.83021 66.03438 84.25208Q66.72188 83.65833 67.7375 83.65833Q68.44063 83.65833 69.03438 83.97083Q69.62813 84.26771 69.94063 84.78333Q70.25313 85.29896 70.25313 85.89271Q70.25313 86.43958 69.95625 86.90833Q69.65938 87.36146 69.08125 87.62708Q69.83125 87.79896 70.25313 88.36146Q70.675 88.90833 70.675 89.75208Q70.675 90.87708 69.84688 91.65833Q69.03438 92.43958 67.78438 92.43958Q66.65938 92.43958 65.90938 91.76771Q65.15938 91.08021 65.05 90.01771Z" fill-rule="nonzero"/><path fill="#000000" d="M552.02246 317.45L550.9756 317.45L550.9756 310.73126Q550.58496 311.09064 549.95996 311.46564Q549.3506 311.825 548.8662 311.9969L548.8662 310.98126Q549.7412 310.5594 550.39746 309.98126Q551.06934 309.3875 551.3506 308.825L552.02246 308.825L552.02246 317.45ZM555.20996 315.46564L556.2256 315.3719Q556.3506 316.09064 556.70996 316.41876Q557.08496 316.73126 557.64746 316.73126Q558.13184 316.73126 558.4912 316.5125Q558.8662 316.27814 559.1006 315.91876Q559.33496 315.54376 559.4912 314.91876Q559.64746 314.27814 559.64746 313.6219Q559.64746 313.54376 559.64746 313.40314Q559.33496 313.90314 558.7881 314.23126Q558.2412 314.54376 557.6006 314.54376Q556.52246 314.54376 555.7881 313.77814Q555.0537 312.9969 555.0537 311.73126Q555.0537 310.41876 555.81934 309.6219Q556.6006 308.825 557.75684 308.825Q558.58496 308.825 559.27246 309.27814Q559.9756 309.73126 560.33496 310.575Q560.69434 311.40314 560.69434 312.98126Q560.69434 314.6219 560.33496 315.60626Q559.9912 316.575 559.27246 317.09064Q558.56934 317.59064 557.63184 317.59064Q556.6162 317.59064 555.9756 317.04376Q555.33496 316.48126 555.20996 315.46564ZM559.52246 311.66876Q559.52246 310.7625 559.0381 310.23126Q558.56934 309.7 557.88184 309.7Q557.1787 309.7 556.64746 310.27814Q556.13184 310.84064 556.13184 311.7625Q556.13184 312.575 556.63184 313.09064Q557.13184 313.60626 557.8506 313.60626Q558.58496 313.60626 559.0537 313.09064Q559.52246 312.575 559.52246 311.66876ZM562.64746 317.45L562.64746 316.2469L563.8506 316.2469L563.8506 317.45L562.64746 317.45ZM566.6787 312.79376Q566.02246 312.54376 565.69434 312.10626Q565.38184 311.65314 565.38184 311.04376Q565.38184 310.10626 566.0537 309.46564Q566.7412 308.825 567.8506 308.825Q568.9756 308.825 569.6631 309.48126Q570.3506 310.1375 570.3506 311.075Q570.3506 311.66876 570.0381 312.10626Q569.7256 312.54376 569.08496 312.79376Q569.88184 313.04376 570.2881 313.6219Q570.69434 314.2 570.69434 314.9969Q570.69434 316.09064 569.9131 316.84064Q569.14746 317.59064 567.8662 317.59064Q566.6006 317.59064 565.81934 316.84064Q565.0381 316.09064 565.0381 314.96564Q565.0381 314.1219 565.45996 313.5594Q565.89746 312.9969 566.6787 312.79376ZM566.45996 310.9969Q566.45996 311.60626 566.8506 311.9969Q567.25684 312.3875 567.88184 312.3875Q568.4912 312.3875 568.88184 312.0125Q569.27246 311.6219 569.27246 311.0594Q569.27246 310.48126 568.8662 310.09064Q568.45996 309.6844 567.8662 309.6844Q567.25684 309.6844 566.8506 310.075Q566.45996 310.46564 566.45996 310.9969ZM566.13184 314.96564Q566.13184 315.41876 566.33496 315.84064Q566.5537 316.2625 566.9756 316.4969Q567.39746 316.73126 567.88184 316.73126Q568.63184 316.73126 569.1162 316.2469Q569.6162 315.7625 569.6162 315.0125Q569.6162 314.2469 569.1162 313.7469Q568.6162 313.2469 567.8506 313.2469Q567.1006 313.2469 566.6162 313.7469Q566.13184 314.23126 566.13184 314.96564Z" fill-rule="nonzero"/><path fill="#000000" d="M402.7457 316.4344L402.7457 317.45L397.0582 317.45Q397.0582 317.075 397.1832 316.71564Q397.40195 316.1375 397.8707 315.575Q398.35507 315.0125 399.26132 314.27814Q400.66757 313.1219 401.15195 312.45Q401.65195 311.77814 401.65195 311.1844Q401.65195 310.5594 401.19882 310.1375Q400.7457 309.7 400.02695 309.7Q399.26132 309.7 398.8082 310.15314Q398.35507 310.60626 398.33945 311.41876L397.26132 311.3094Q397.3707 310.09064 398.08945 309.46564Q398.82382 308.825 400.0582 308.825Q401.29257 308.825 402.01132 309.5125Q402.73007 310.2 402.73007 311.21564Q402.73007 311.73126 402.51132 312.23126Q402.3082 312.71564 401.8082 313.27814Q401.32382 313.825 400.19882 314.77814Q399.2457 315.575 398.96445 315.8719Q398.69882 316.15314 398.52695 316.4344L402.7457 316.4344ZM404.19882 313.21564Q404.19882 311.6844 404.51132 310.7625Q404.82382 309.825 405.4332 309.325Q406.0582 308.825 406.9957 308.825Q407.6832 308.825 408.19882 309.10626Q408.73007 309.3875 409.07382 309.91876Q409.41757 310.4344 409.60507 311.1844Q409.79257 311.9344 409.79257 313.21564Q409.79257 314.73126 409.48007 315.65314Q409.1832 316.575 408.5582 317.09064Q407.94882 317.59064 406.9957 317.59064Q405.76132 317.59064 405.04257 316.7Q404.19882 315.6375 404.19882 313.21564ZM405.27695 313.21564Q405.27695 315.325 405.77695 316.02814Q406.27695 316.73126 406.9957 316.73126Q407.73007 316.73126 408.21445 316.02814Q408.71445 315.325 408.71445 313.21564Q408.71445 311.09064 408.21445 310.40314Q407.73007 309.7 406.98007 309.7Q406.26132 309.7 405.82382 310.3094Q405.27695 311.09064 405.27695 313.21564ZM411.79257 317.45L411.79257 316.2469L412.9957 316.2469L412.9957 317.45L411.79257 317.45ZM414.19882 313.21564Q414.19882 311.6844 414.51132 310.7625Q414.82382 309.825 415.4332 309.325Q416.0582 308.825 416.9957 308.825Q417.6832 308.825 418.19882 309.10626Q418.73007 309.3875 419.07382 309.91876Q419.41757 310.4344 419.60507 311.1844Q419.79257 311.9344 419.79257 313.21564Q419.79257 314.73126 419.48007 315.65314Q419.1832 316.575 418.5582 317.09064Q417.94882 317.59064 416.9957 317.59064Q415.76132 317.59064 415.04257 316.7Q414.19882 315.6375 414.19882 313.21564ZM415.27695 313.21564Q415.27695 315.325 415.77695 316.02814Q416.27695 316.73126 416.9957 316.73126Q417.73007 316.73126 418.21445 316.02814Q418.71445 315.325 418.71445 313.21564Q418.71445 311.09064 418.21445 310.40314Q417.73007 309.7 416.98007 309.7Q416.26132 309.7 415.82382 310.3094Q415.27695 311.09064 415.27695 313.21564Z" fill-rule="nonzero"/><path fill="#000000" d="M251.8908 316.4344L251.8908 317.45L246.2033 317.45Q246.2033 317.075 246.3283 316.71564Q246.54704 316.1375 247.0158 315.575Q247.50017 315.0125 248.40642 314.27814Q249.81267 313.1219 250.29704 312.45Q250.79704 311.77814 250.79704 311.1844Q250.79704 310.5594 250.34392 310.1375Q249.8908 309.7 249.17204 309.7Q248.40642 309.7 247.9533 310.15314Q247.50017 310.60626 247.48454 311.41876L246.40642 311.3094Q246.5158 310.09064 247.23454 309.46564Q247.96892 308.825 249.2033 308.825Q250.43767 308.825 251.15642 309.5125Q251.87517 310.2 251.87517 311.21564Q251.87517 311.73126 251.65642 312.23126Q251.4533 312.71564 250.9533 313.27814Q250.46892 313.825 249.34392 314.77814Q248.3908 315.575 248.10954 315.8719Q247.84392 316.15314 247.67204 316.4344L251.8908 316.4344ZM253.34392 313.21564Q253.34392 311.6844 253.65642 310.7625Q253.96892 309.825 254.5783 309.325Q255.2033 308.825 256.1408 308.825Q256.8283 308.825 257.34393 309.10626Q257.87518 309.3875 258.21893 309.91876Q258.56268 310.4344 258.75018 311.1844Q258.93768 311.9344 258.93768 313.21564Q258.93768 314.73126 258.62518 315.65314Q258.3283 316.575 257.7033 317.09064Q257.09393 317.59064 256.1408 317.59064Q254.90642 317.59064 254.18767 316.7Q253.34392 315.6375 253.34392 313.21564ZM254.42204 313.21564Q254.42204 315.325 254.92204 316.02814Q255.42204 316.73126 256.1408 316.73126Q256.87518 316.73126 257.35956 316.02814Q257.85956 315.325 257.85956 313.21564Q257.85956 311.09064 257.35956 310.40314Q256.87518 309.7 256.12518 309.7Q255.40642 309.7 254.96892 310.3094Q254.42204 311.09064 254.42204 313.21564ZM260.93768 317.45L260.93768 316.2469L262.1408 316.2469L262.1408 317.45L260.93768 317.45ZM268.8908 316.4344L268.8908 317.45L263.2033 317.45Q263.2033 317.075 263.3283 316.71564Q263.54706 316.1375 264.0158 315.575Q264.50018 315.0125 265.40643 314.27814Q266.81268 313.1219 267.29706 312.45Q267.79706 311.77814 267.79706 311.1844Q267.79706 310.5594 267.34393 310.1375Q266.8908 309.7 266.17206 309.7Q265.40643 309.7 264.9533 310.15314Q264.50018 310.60626 264.48456 311.41876L263.40643 311.3094Q263.5158 310.09064 264.23456 309.46564Q264.96893 308.825 266.2033 308.825Q267.43768 308.825 268.15643 309.5125Q268.87518 310.2 268.87518 311.21564Q268.87518 311.73126 268.65643 312.23126Q268.4533 312.71564 267.9533 313.27814Q267.46893 313.825 266.34393 314.77814Q265.3908 315.575 265.10956 315.8719Q264.84393 316.15314 264.67206 316.4344L268.8908 316.4344Z" fill-rule="nonzero"/><path fill="#000000" d="M101.03589 316.4344L101.03589 317.45L95.34839 317.45Q95.34839 317.075 95.47339 316.71564Q95.69214 316.1375 96.16089 315.575Q96.64526 315.0125 97.55151 314.27814Q98.95776 313.1219 99.44214 312.45Q99.94214 311.77814 99.94214 311.1844Q99.94214 310.5594 99.48901 310.1375Q99.03589 309.7 98.31714 309.7Q97.55151 309.7 97.09839 310.15314Q96.64526 310.60626 96.62964 311.41876L95.55151 311.3094Q95.66089 310.09064 96.37964 309.46564Q97.11401 308.825 98.34839 308.825Q99.58276 308.825 100.30151 309.5125Q101.02026 310.2 101.02026 311.21564Q101.02026 311.73126 100.80151 312.23126Q100.59839 312.71564 100.09839 313.27814Q99.61401 313.825 98.48901 314.77814Q97.53589 315.575 97.25464 315.8719Q96.98901 316.15314 96.81714 316.4344L101.03589 316.4344ZM102.48901 313.21564Q102.48901 311.6844 102.80151 310.7625Q103.11401 309.825 103.72339 309.325Q104.34839 308.825 105.28589 308.825Q105.97339 308.825 106.48901 309.10626Q107.02026 309.3875 107.36401 309.91876Q107.70776 310.4344 107.89526 311.1844Q108.08276 311.9344 108.08276 313.21564Q108.08276 314.73126 107.77026 315.65314Q107.47339 316.575 106.84839 317.09064Q106.23901 317.59064 105.28589 317.59064Q104.05151 317.59064 103.33276 316.7Q102.48901 315.6375 102.48901 313.21564ZM103.56714 313.21564Q103.56714 315.325 104.06714 316.02814Q104.56714 316.73126 105.28589 316.73126Q106.02026 316.73126 106.50464 316.02814Q107.00464 315.325 107.00464 313.21564Q107.00464 311.09064 106.50464 310.40314Q106.02026 309.7 105.27026 309.7Q104.55151 309.7 104.11401 310.3094Q103.56714 311.09064 103.56714 313.21564ZM110.08276 317.45L110.08276 316.2469L111.28589 316.2469L111.28589 317.45L110.08276 317.45ZM115.86401 317.45L115.86401 315.3875L112.14526 315.3875L112.14526 314.41876L116.06714 308.85626L116.92651 308.85626L116.92651 314.41876L118.08276 314.41876L118.08276 315.3875L116.92651 315.3875L116.92651 317.45L115.86401 317.45ZM115.86401 314.41876L115.86401 310.5594L113.17651 314.41876L115.86401 314.41876Z" fill-rule="nonzero"/><path fill="#4285f4" d="M200.5 61.916668C200.5 65.23038 197.8137 67.916664 194.5 67.916664C191.1863 67.916664 188.5 65.23038 188.5 61.916668C188.5 58.60296 191.1863 55.916668 194.5 55.916668C197.8137 55.916668 200.5 58.60296 200.5 61.916668Z" fill-rule="nonzero"/><path stroke="#4285f4" stroke-width="4.0" stroke-linecap="butt" stroke-opacity="0.4" d="M216.5 61.916668L228.5 61.916668" fill-rule="nonzero"/><path fill="#1a1a1a" d="M239.60938 65.916664L239.60938 58.33854L236.78125 58.33854L236.78125 57.322914L243.59375 57.322914L243.59375 58.33854L240.75 58.33854L240.75 65.916664L239.60938 65.916664ZM244.28125 65.916664L244.28125 59.697914L245.23438 59.697914L245.23438 60.635414Q245.59375 59.979164 245.89062 59.77604Q246.20312 59.55729 246.57812 59.55729Q247.10938 59.55729 247.65625 59.885414L247.29688 60.86979Q246.90625 60.635414 246.53125 60.635414Q246.17188 60.635414 245.89062 60.854164Q245.625 61.05729 245.51562 61.43229Q245.32812 61.99479 245.32812 62.65104L245.32812 65.916664L244.28125 65.916664ZM252.54688 63.916664L253.64062 64.041664Q253.39062 64.99479 252.6875 65.52604Q251.98438 66.05729 250.90625 66.05729Q249.54688 66.05729 248.73438 65.21354Q247.9375 64.36979 247.9375 62.854164Q247.9375 61.291664 248.75 60.43229Q249.5625 59.55729 250.84375 59.55729Q252.09375 59.55729 252.875 60.40104Q253.67188 61.24479 253.67188 62.791664Q253.67188 62.885414 253.67188 63.072914L249.03125 63.072914Q249.09375 64.104164 249.60938 64.65104Q250.125 65.18229 250.90625 65.18229Q251.48438 65.18229 251.89062 64.885414Q252.3125 64.572914 252.54688 63.916664ZM249.09375 62.21354L252.5625 62.21354Q252.5 61.416664 252.17188 61.02604Q251.65625 60.416664 250.85938 60.416664Q250.125 60.416664 249.625 60.90104Q249.14062 61.385414 249.09375 62.21354ZM255.29688 65.916664L255.29688 59.697914L256.23438 59.697914L256.23438 60.572914Q256.92188 59.55729 258.21875 59.55729Q258.78125 59.55729 259.25 59.760414Q259.73438 59.96354 259.96875 60.291664Q260.20312 60.61979 260.29688 61.05729Q260.34375 61.354164 260.34375 62.08854L260.34375 65.916664L259.29688 65.916664L259.29688 62.135414Q259.29688 61.479164 259.17188 61.166664Q259.04688 60.854164 258.73438 60.666664Q258.42188 60.46354 258.0 60.46354Q257.32812 60.46354 256.82812 60.90104Q256.34375 61.322914 256.34375 62.510414L256.34375 65.916664L255.29688 65.916664ZM266.32812 65.916664L266.32812 65.135414Q265.73438 66.05729 264.59375 66.05729Q263.84375 66.05729 263.21875 65.65104Q262.59375 65.229164 262.25 64.49479Q261.90625 63.760414 261.90625 62.80729Q261.90625 61.885414 262.21875 61.11979Q262.53125 60.354164 263.15625 59.96354Q263.78125 59.55729 264.54688 59.55729Q265.10938 59.55729 265.54688 59.791664Q265.98438 60.02604 266.26562 60.40104L266.26562 57.322914L267.3125 57.322914L267.3125 65.916664L266.32812 65.916664ZM263.0 62.80729Q263.0 64.010414 263.5 64.604164Q264.0 65.18229 264.6875 65.18229Q265.375 65.18229 265.85938 64.61979Q266.34375 64.05729 266.34375 62.90104Q266.34375 61.61979 265.84375 61.02604Q265.35938 60.43229 264.64062 60.43229Q263.9375 60.43229 263.46875 61.010414Q263.0 61.572914 263.0 62.80729ZM269.26562 65.916664L269.26562 57.322914L270.32812 57.322914L270.32812 65.916664L269.26562 65.916664ZM272.29688 58.541664L272.29688 57.322914L273.35938 57.322914L273.35938 58.541664L272.29688 58.541664ZM272.29688 65.916664L272.29688 59.697914L273.35938 59.697914L273.35938 65.916664L272.29688 65.916664ZM275.29688 65.916664L275.29688 59.697914L276.23438 59.697914L276.23438 60.572914Q276.92188 59.55729 278.21875 59.55729Q278.78125 59.55729 279.25 59.760414Q279.73438 59.96354 279.96875 60.291664Q280.20312 60.61979 280.29688 61.05729Q280.34375 61.354164 280.34375 62.08854L280.34375 65.916664L279.29688 65.916664L279.29688 62.135414Q279.29688 61.479164 279.17188 61.166664Q279.04688 60.854164 278.73438 60.666664Q278.42188 60.46354 278.0 60.46354Q277.32812 60.46354 276.82812 60.90104Q276.34375 61.322914 276.34375 62.510414L276.34375 65.916664L275.29688 65.916664ZM286.54688 63.916664L287.64062 64.041664Q287.39062 64.99479 286.6875 65.52604Q285.98438 66.05729 284.90625 66.05729Q283.54688 66.05729 282.73438 65.21354Q281.9375 64.36979 281.9375 62.854164Q281.9375 61.291664 282.75 60.43229Q283.5625 59.55729 284.84375 59.55729Q286.09375 59.55729 286.875 60.40104Q287.67188 61.24479 287.67188 62.791664Q287.67188 62.885414 287.67188 63.072914L283.03125 63.072914Q283.09375 64.104164 283.60938 64.65104Q284.125 65.18229 284.90625 65.18229Q285.48438 65.18229 285.89062 64.885414Q286.3125 64.572914 286.54688 63.916664ZM283.09375 62.21354L286.5625 62.21354Q286.5 61.416664 286.17188 61.02604Q285.65625 60.416664 284.85938 60.416664Q284.125 60.416664 283.625 60.90104Q283.14062 61.385414 283.09375 62.21354ZM292.54688 65.916664L292.54688 60.510414L291.60938 60.510414L291.60938 59.697914L292.54688 59.697914L292.54688 59.02604Q292.54688 58.40104 292.65625 58.104164Q292.8125 57.68229 293.1875 57.43229Q293.57812 57.18229 294.26562 57.18229Q294.71875 57.18229 295.25 57.291664L295.09375 58.197914Q294.76562 58.15104 294.46875 58.15104Q293.98438 58.15104 293.78125 58.354164Q293.59375 58.55729 293.59375 59.11979L293.59375 59.697914L294.8125 59.697914L294.8125 60.510414L293.59375 60.510414L293.59375 65.916664L292.54688 65.916664ZM294.90625 62.80729Q294.90625 61.072914 295.85938 60.24479Q296.65625 59.55729 297.8125 59.55729Q299.09375 59.55729 299.90625 60.40104Q300.73438 61.229164 300.73438 62.71354Q300.73438 63.916664 300.375 64.604164Q300.01562 65.291664 299.3125 65.68229Q298.625 66.05729 297.8125 66.05729Q296.51562 66.05729 295.70312 65.229164Q294.90625 64.385414 294.90625 62.80729ZM295.98438 62.80729Q295.98438 63.99479 296.5 64.58854Q297.03125 65.18229 297.8125 65.18229Q298.60938 65.18229 299.125 64.58854Q299.64062 63.99479 299.64062 62.77604Q299.64062 61.61979 299.10938 61.02604Q298.59375 60.43229 297.8125 60.43229Q297.03125 60.43229 296.5 61.02604Q295.98438 61.604164 295.98438 62.80729ZM302.28125 65.916664L302.28125 59.697914L303.23438 59.697914L303.23438 60.635414Q303.59375 59.979164 303.89062 59.77604Q304.20312 59.55729 304.57812 59.55729Q305.10938 59.55729 305.65625 59.885414L305.29688 60.86979Q304.90625 60.635414 304.53125 60.635414Q304.17188 60.635414 303.89062 60.854164Q303.625 61.05729 303.51562 61.43229Q303.32812 61.99479 303.32812 62.65104L303.32812 65.916664L302.28125 65.916664ZM308.875 64.05729L309.90625 63.90104Q310.0 64.52604 310.39062 64.854164Q310.79688 65.18229 311.53125 65.18229Q312.25 65.18229 312.59375 64.90104Q312.95312 64.604164 312.95312 64.197914Q312.95312 63.83854 312.64062 63.635414Q312.42188 63.49479 311.5625 63.27604Q310.40625 62.979164 309.95312 62.77604Q309.51562 62.55729 309.28125 62.18229Q309.04688 61.80729 309.04688 61.33854Q309.04688 60.93229 309.23438 60.572914Q309.42188 60.21354 309.75 59.979164Q310.0 59.80729 310.42188 59.68229Q310.84375 59.55729 311.34375 59.55729Q312.0625 59.55729 312.60938 59.77604Q313.17188 59.979164 313.4375 60.33854Q313.70312 60.697914 313.79688 61.291664L312.76562 61.43229Q312.70312 60.96354 312.35938 60.697914Q312.03125 60.416664 311.40625 60.416664Q310.6875 60.416664 310.375 60.666664Q310.0625 60.90104 310.0625 61.229164Q310.0625 61.43229 310.1875 61.58854Q310.32812 61.760414 310.59375 61.86979Q310.75 61.93229 311.53125 62.135414Q312.65625 62.447914 313.09375 62.635414Q313.53125 62.822914 313.78125 63.18229Q314.03125 63.541664 314.03125 64.08854Q314.03125 64.61979 313.71875 65.08854Q313.42188 65.541664 312.84375 65.80729Q312.26562 66.05729 311.53125 66.05729Q310.3125 66.05729 309.67188 65.55729Q309.04688 65.041664 308.875 64.05729ZM319.54688 63.916664L320.64062 64.041664Q320.39062 64.99479 319.6875 65.52604Q318.98438 66.05729 317.90625 66.05729Q316.54688 66.05729 315.73438 65.21354Q314.9375 64.36979 314.9375 62.854164Q314.9375 61.291664 315.75 60.43229Q316.5625 59.55729 317.84375 59.55729Q319.09375 59.55729 319.875 60.40104Q320.67188 61.24479 320.67188 62.791664Q320.67188 62.885414 320.67188 63.072914L316.03125 63.072914Q316.09375 64.104164 316.60938 64.65104Q317.125 65.18229 317.90625 65.18229Q318.48438 65.18229 318.89062 64.885414Q319.3125 64.572914 319.54688 63.916664ZM316.09375 62.21354L319.5625 62.21354Q319.5 61.416664 319.17188 61.02604Q318.65625 60.416664 317.85938 60.416664Q317.125 60.416664 316.625 60.90104Q316.14062 61.385414 316.09375 62.21354ZM322.28125 65.916664L322.28125 59.697914L323.23438 59.697914L323.23438 60.635414Q323.59375 59.979164 323.89062 59.77604Q324.20312 59.55729 324.57812 59.55729Q325.10938 59.55729 325.65625 59.885414L325.29688 60.86979Q324.90625 60.635414 324.53125 60.635414Q324.17188 60.635414 323.89062 60.854164Q323.625 61.05729 323.51562 61.43229Q323.32812 61.99479 323.32812 62.65104L323.32812 65.916664L322.28125 65.916664ZM326.29688 58.541664L326.29688 57.322914L327.35938 57.322914L327.35938 58.541664L326.29688 58.541664ZM326.29688 65.916664L326.29688 59.697914L327.35938 59.697914L327.35938 65.916664L326.29688 65.916664ZM333.54688 63.916664L334.64062 64.041664Q334.39062 64.99479 333.6875 65.52604Q332.98438 66.05729 331.90625 66.05729Q330.54688 66.05729 329.73438 65.21354Q328.9375 64.36979 328.9375 62.854164Q328.9375 61.291664 329.75 60.43229Q330.5625 59.55729 331.84375 59.55729Q333.09375 59.55729 333.875 60.40104Q334.67188 61.24479 334.67188 62.791664Q334.67188 62.885414 334.67188 63.072914L330.03125 63.072914Q330.09375 64.104164 330.60938 64.65104Q331.125 65.18229 331.90625 65.18229Q332.48438 65.18229 332.89062 64.885414Q333.3125 64.572914 333.54688 63.916664ZM330.09375 62.21354L333.5625 62.21354Q333.5 61.416664 333.17188 61.02604Q332.65625 60.416664 331.85938 60.416664Q331.125 60.416664 330.625 60.90104Q330.14062 61.385414 330.09375 62.21354ZM335.875 64.05729L336.90625 63.90104Q337.0 64.52604 337.39062 64.854164Q337.79688 65.18229 338.53125 65.18229Q339.25 65.18229 339.59375 64.90104Q339.95312 64.604164 339.95312 64.197914Q339.95312 63.83854 339.64062 63.635414Q339.42188 63.49479 338.5625 63.27604Q337.40625 62.979164 336.95312 62.77604Q336.51562 62.55729 336.28125 62.18229Q336.04688 61.80729 336.04688 61.33854Q336.04688 60.93229 336.23438 60.572914Q336.42188 60.21354 336.75 59.979164Q337.0 59.80729 337.42188 59.68229Q337.84375 59.55729 338.34375 59.55729Q339.0625 59.55729 339.60938 59.77604Q340.17188 59.979164 340.4375 60.33854Q340.70312 60.697914 340.79688 61.291664L339.76562 61.43229Q339.70312 60.96354 339.35938 60.697914Q339.03125 60.416664 338.40625 60.416664Q337.6875 60.416664 337.375 60.666664Q337.0625 60.90104 337.0625 61.229164Q337.0625 61.43229 337.1875 61.58854Q337.32812 61.760414 337.59375 61.86979Q337.75 61.93229 338.53125 62.135414Q339.65625 62.447914 340.09375 62.635414Q340.53125 62.822914 340.78125 63.18229Q341.03125 63.541664 341.03125 64.08854Q341.03125 64.61979 340.71875 65.08854Q340.42188 65.541664 339.84375 65.80729Q339.26562 66.05729 338.53125 66.05729Q337.3125 66.05729 336.67188 65.55729Q336.04688 65.041664 335.875 64.05729ZM348.96875 65.916664L347.92188 65.916664L347.92188 59.197914Q347.53125 59.55729 346.90625 59.93229Q346.29688 60.291664 345.8125 60.46354L345.8125 59.447914Q346.6875 59.02604 347.34375 58.447914Q348.01562 57.854164 348.29688 57.291664L348.96875 57.291664L348.96875 65.916664ZM355.4375 65.916664L355.4375 57.322914L359.25 57.322914Q360.40625 57.322914 361.0 57.55729Q361.59375 57.791664 361.95312 58.385414Q362.3125 58.96354 362.3125 59.666664Q362.3125 60.58854 361.71875 61.21354Q361.125 61.83854 359.89062 62.010414Q360.34375 62.229164 360.57812 62.43229Q361.07812 62.885414 361.51562 63.572914L363.01562 65.916664L361.57812 65.916664L360.45312 64.135414Q359.95312 63.354164 359.625 62.947914Q359.3125 62.541664 359.04688 62.385414Q358.79688 62.21354 358.53125 62.135414Q358.34375 62.104164 357.90625 62.104164L356.57812 62.104164L356.57812 65.916664L355.4375 65.916664ZM356.57812 61.11979L359.03125 61.11979Q359.79688 61.11979 360.23438 60.96354Q360.6875 60.791664 360.90625 60.447914Q361.14062 60.08854 361.14062 59.666664Q361.14062 59.05729 360.6875 58.666664Q360.25 58.27604 359.29688 58.27604L356.57812 58.27604L356.57812 61.11979ZM363.64062 61.61979Q363.6875 61.291664 363.92188 60.947914Q364.29688 60.447914 365.14062 59.83854Q365.98438 59.229164 366.14062 59.041664Q366.35938 58.80729 366.35938 58.55729Q366.35938 58.27604 366.14062 58.104164Q365.9375 57.916664 365.54688 57.916664Q365.15625 57.916664 364.96875 58.05729Q364.78125 58.18229 364.65625 58.572914L363.76562 58.479164Q363.9375 57.83854 364.35938 57.52604Q364.78125 57.21354 365.5625 57.21354Q366.45312 57.21354 366.85938 57.572914Q367.28125 57.916664 367.28125 58.416664Q367.28125 58.90104 366.92188 59.33854Q366.67188 59.666664 365.73438 60.33854Q365.23438 60.697914 365.03125 60.916664L367.29688 60.916664L367.29688 61.61979L363.64062 61.61979ZM376.84375 60.86979L371.17188 60.86979L371.17188 59.885414L376.84375 59.885414L376.84375 60.86979ZM376.84375 63.479164L371.17188 63.479164L371.17188 62.49479L376.84375 62.49479L376.84375 63.479164ZM381.0 61.68229Q381.0 60.15104 381.3125 59.229164Q381.625 58.291664 382.23438 57.791664Q382.85938 57.291664 383.79688 57.291664Q384.48438 57.291664 385.0 57.572914Q385.53125 57.854164 385.875 58.385414Q386.21875 58.90104 386.40625 59.65104Q386.59375 60.40104 386.59375 61.68229Q386.59375 63.197914 386.28125 64.11979Q385.98438 65.041664 385.35938 65.55729Q384.75 66.05729 383.79688 66.05729Q382.5625 66.05729 381.84375 65.166664Q381.0 64.104164 381.0 61.68229ZM382.07812 61.68229Q382.07812 63.791664 382.57812 64.49479Q383.07812 65.197914 383.79688 65.197914Q384.53125 65.197914 385.01562 64.49479Q385.51562 63.791664 385.51562 61.68229Q385.51562 59.55729 385.01562 58.86979Q384.53125 58.166664 383.78125 58.166664Q383.0625 58.166664 382.625 58.77604Q382.07812 59.55729 382.07812 61.68229ZM388.59375 65.916664L388.59375 64.71354L389.79688 64.71354L389.79688 65.916664L388.59375 65.916664ZM394.96875 65.916664L393.92188 65.916664L393.92188 59.197914Q393.53125 59.55729 392.90625 59.93229Q392.29688 60.291664 391.8125 60.46354L391.8125 59.447914Q392.6875 59.02604 393.34375 58.447914Q394.01562 57.854164 394.29688 57.291664L394.96875 57.291664L394.96875 65.916664ZM398.0 63.65104L399.0625 63.510414Q399.23438 64.40104 399.67188 64.80729Q400.10938 65.197914 400.73438 65.197914Q401.48438 65.197914 402.0 64.68229Q402.51562 64.166664 402.51562 63.40104Q402.51562 62.68229 402.03125 62.21354Q401.5625 61.729164 400.82812 61.729164Q400.53125 61.729164 400.07812 61.854164L400.20312 60.916664Q400.3125 60.93229 400.375 60.93229Q401.04688 60.93229 401.57812 60.58854Q402.125 60.229164 402.125 59.49479Q402.125 58.916664 401.73438 58.541664Q401.34375 58.15104 400.71875 58.15104Q400.10938 58.15104 399.6875 58.541664Q399.28125 58.93229 399.17188 59.697914L398.10938 59.510414Q398.29688 58.46354 398.98438 57.885414Q399.67188 57.291664 400.6875 57.291664Q401.39062 57.291664 401.98438 57.604164Q402.57812 57.90104 402.89062 58.416664Q403.20312 58.93229 403.20312 59.52604Q403.20312 60.072914 402.90625 60.541664Q402.60938 60.99479 402.03125 61.260414Q402.78125 61.43229 403.20312 61.99479Q403.625 62.541664 403.625 63.385414Q403.625 64.510414 402.79688 65.291664Q401.98438 66.072914 400.73438 66.072914Q399.60938 66.072914 398.85938 65.40104Q398.10938 64.71354 398.0 63.65104ZM410.46875 59.43229L409.42188 59.510414Q409.28125 58.885414 409.03125 58.604164Q408.59375 58.15104 407.96875 58.15104Q407.46875 58.15104 407.07812 58.43229Q406.59375 58.80729 406.29688 59.510414Q406.01562 60.197914 406.0 61.479164Q406.375 60.90104 406.92188 60.61979Q407.48438 60.33854 408.09375 60.33854Q409.14062 60.33854 409.875 61.11979Q410.625 61.90104 410.625 63.11979Q410.625 63.93229 410.26562 64.635414Q409.92188 65.322914 409.3125 65.697914Q408.70312 66.05729 407.9375 66.05729Q406.60938 66.05729 405.78125 65.08854Q404.95312 64.11979 404.95312 61.90104Q404.95312 59.40104 405.875 58.27604Q406.67188 57.291664 408.03125 57.291664Q409.04688 57.291664 409.6875 57.86979Q410.34375 58.43229 410.46875 59.43229ZM406.17188 63.135414Q406.17188 63.68229 406.39062 64.18229Q406.625 64.666664 407.03125 64.93229Q407.45312 65.197914 407.92188 65.197914Q408.57812 65.197914 409.0625 64.666664Q409.54688 64.11979 409.54688 63.197914Q409.54688 62.30729 409.0625 61.791664Q408.59375 61.27604 407.875 61.27604Q407.15625 61.27604 406.65625 61.791664Q406.17188 62.30729 406.17188 63.135414Z" fill-rule="nonzero"/><path fill="#757575" d="M28.6125 35.8625L28.6125 37.55L19.159374 37.55Q19.14375 36.909374 19.3625 36.33125Q19.721874 35.3625 20.51875 34.425Q21.315624 33.4875 22.815624 32.253124Q25.159374 30.346874 25.971874 29.2375Q26.8 28.1125 26.8 27.1125Q26.8 26.065624 26.05 25.346874Q25.3 24.628124 24.096874 24.628124Q22.83125 24.628124 22.065624 25.39375Q21.3 26.159374 21.3 27.503124L19.4875 27.315624Q19.675 25.3 20.878124 24.2375Q22.096874 23.175 24.14375 23.175Q26.190624 23.175 27.39375 24.315624Q28.596874 25.45625 28.596874 27.14375Q28.596874 28.003124 28.2375 28.846874Q27.89375 29.675 27.08125 30.596874Q26.26875 31.503124 24.378124 33.1125Q22.784374 34.440624 22.33125 34.909374Q21.89375 35.378124 21.596874 35.8625L28.6125 35.8625ZM30.378124 30.4875Q30.378124 27.95625 30.89375 26.409374Q31.425 24.846874 32.45625 24.01875Q33.4875 23.175 35.05 23.175Q36.20625 23.175 37.065624 23.64375Q37.940624 24.096874 38.503124 24.971874Q39.065624 25.846874 39.39375 27.1125Q39.721874 28.3625 39.721874 30.4875Q39.721874 33.003124 39.190624 34.55Q38.675 36.096874 37.64375 36.95625Q36.628124 37.8 35.05 37.8Q32.971874 37.8 31.8 36.315624Q30.378124 34.51875 30.378124 30.4875ZM32.190624 30.4875Q32.190624 34.01875 33.003124 35.190624Q33.83125 36.346874 35.05 36.346874Q36.253124 36.346874 37.08125 35.175Q37.909374 34.003124 37.909374 30.4875Q37.909374 26.95625 37.08125 25.8Q36.253124 24.628124 35.034374 24.628124Q33.815624 24.628124 33.096874 25.659374Q32.190624 26.95625 32.190624 30.4875ZM41.378124 30.4875Q41.378124 27.95625 41.89375 26.409374Q42.425 24.846874 43.45625 24.01875Q44.4875 23.175 46.05 23.175Q47.20625 23.175 48.065624 23.64375Q48.940624 24.096874 49.503124 24.971874Q50.065624 25.846874 50.39375 27.1125Q50.721874 28.3625 50.721874 30.4875Q50.721874 33.003124 50.190624 34.55Q49.675 36.096874 48.64375 36.95625Q47.628124 37.8 46.05 37.8Q43.971874 37.8 42.8 36.315624Q41.378124 34.51875 41.378124 30.4875ZM43.190624 30.4875Q43.190624 34.01875 44.003124 35.190624Q44.83125 36.346874 46.05 36.346874Q47.253124 36.346874 48.08125 35.175Q48.909374 34.003124 48.909374 30.4875Q48.909374 26.95625 48.08125 25.8Q47.253124 24.628124 46.034374 24.628124Q44.815624 24.628124 44.096874 25.659374Q43.190624 26.95625 43.190624 30.4875ZM53.034374 37.55L53.034374 23.2375L55.89375 23.2375L59.26875 33.3625Q59.7375 34.784374 59.95625 35.4875Q60.20625 34.70625 60.721874 33.190624L64.14375 23.2375L66.69063 23.2375L66.69063 37.55L64.87813 37.55L64.87813 25.565624L60.70625 37.55L59.003124 37.55L54.8625 25.3625L54.8625 37.55L53.034374 37.55ZM78.59688 37.55L74.8 23.2375L76.7375 23.2375L78.90938 32.6125Q79.26875 34.096874 79.51875 35.55Q80.06563 33.253124 80.15938 32.89375L82.89375 23.2375L85.175 23.2375L87.22188 30.471874Q88.00313 33.175 88.34688 35.55Q88.6125 34.190624 89.05 32.425L91.3 23.2375L93.20625 23.2375L89.28438 37.55L87.45625 37.55L84.44063 26.64375Q84.05 25.26875 83.9875 24.95625Q83.75313 25.940624 83.56563 26.64375L80.53438 37.55L78.59688 37.55ZM101.97188 34.20625L103.78438 34.440624Q103.3625 36.01875 102.19063 36.909374Q101.03438 37.784374 99.22188 37.784374Q96.95625 37.784374 95.6125 36.39375Q94.28438 34.9875 94.28438 32.45625Q94.28438 29.83125 95.62813 28.39375Q96.97188 26.940624 99.12813 26.940624Q101.20625 26.940624 102.51875 28.3625Q103.84688 29.76875 103.84688 32.346874Q103.84688 32.503124 103.83125 32.815624L96.09688 32.815624Q96.19063 34.51875 97.06563 35.425Q97.94063 36.33125 99.2375 36.33125Q100.20625 36.33125 100.87813 35.83125Q101.56563 35.315624 101.97188 34.20625ZM96.19063 31.3625L101.9875 31.3625Q101.87813 30.065624 101.33125 29.409374Q100.4875 28.39375 99.14375 28.39375Q97.94063 28.39375 97.1125 29.20625Q96.28438 30.003124 96.19063 31.3625ZM105.87813 25.253124L105.87813 23.2375L107.64375 23.2375L107.64375 25.253124L105.87813 25.253124ZM105.87813 37.55L105.87813 27.175L107.64375 27.175L107.64375 37.55L105.87813 37.55ZM109.55 38.409374L111.25313 38.659374Q111.3625 39.45625 111.84688 39.815624Q112.50313 40.3 113.64375 40.3Q114.8625 40.3 115.51875 39.815624Q116.19063 39.33125 116.425 38.45625Q116.56563 37.909374 116.55 36.190624Q115.39375 37.55 113.675 37.55Q111.53438 37.55 110.3625 36.003124Q109.19063 34.45625 109.19063 32.3Q109.19063 30.815624 109.72188 29.565624Q110.26875 28.315624 111.28438 27.628124Q112.31563 26.940624 113.69063 26.940624Q115.51875 26.940624 116.72188 28.425L116.72188 27.175L118.33125 27.175L118.33125 36.14375Q118.33125 38.565624 117.83125 39.565624Q117.34688 40.58125 116.26875 41.159374Q115.20625 41.753124 113.64375 41.753124Q111.8 41.753124 110.64375 40.925Q109.50313 40.096874 109.55 38.409374ZM111.00313 32.175Q111.00313 34.221874 111.81563 35.159374Q112.62813 36.096874 113.84688 36.096874Q115.05 36.096874 115.8625 35.159374Q116.69063 34.221874 116.69063 32.2375Q116.69063 30.33125 115.84688 29.3625Q115.00313 28.39375 113.81563 28.39375Q112.64375 28.39375 111.81563 29.346874Q111.00313 30.3 111.00313 32.175ZM120.8625 37.55L120.8625 23.2375L122.62813 23.2375L122.62813 28.3625Q123.8625 26.940624 125.7375 26.940624Q126.87813 26.940624 127.72188 27.39375Q128.58125 27.846874 128.94063 28.659374Q129.31563 29.45625 129.31563 30.971874L129.31563 37.55L127.56563 37.55L127.56563 30.971874Q127.56563 29.659374 126.9875 29.065624Q126.40938 28.45625 125.37813 28.45625Q124.59688 28.45625 123.89375 28.8625Q123.20625 29.26875 122.90938 29.971874Q122.62813 30.659374 122.62813 31.878124L122.62813 37.55L120.8625 37.55ZM135.70625 35.971874L135.95625 37.534374Q135.22188 37.690624 134.62813 37.690624Q133.675 37.690624 133.14375 37.39375Q132.62813 37.08125 132.40938 36.596874Q132.19063 36.096874 132.19063 34.51875L132.19063 28.55L130.90938 28.55L130.90938 27.175L132.19063 27.175L132.19063 24.6125L133.94063 23.55L133.94063 27.175L135.70625 27.175L135.70625 28.55L133.94063 28.55L133.94063 34.6125Q133.94063 35.3625 134.03438 35.58125Q134.12813 35.784374 134.33125 35.925Q134.55 36.05 134.94063 36.05Q135.22188 36.05 135.70625 35.971874ZM136.55 37.8L140.70625 22.9875L142.1125 22.9875L137.97188 37.8L136.55 37.8ZM144.15938 37.55L144.15938 23.2375L146.05 23.2375L146.05 29.1125L153.4875 29.1125L153.4875 23.2375L155.37813 23.2375L155.37813 37.55L153.4875 37.55L153.4875 30.8L146.05 30.8L146.05 37.55L144.15938 37.55ZM164.97188 34.20625L166.78438 34.440624Q166.3625 36.01875 165.19063 36.909374Q164.03438 37.784374 162.22188 37.784374Q159.95625 37.784374 158.6125 36.39375Q157.28438 34.9875 157.28438 32.45625Q157.28438 29.83125 158.62813 28.39375Q159.97188 26.940624 162.12813 26.940624Q164.20625 26.940624 165.51875 28.3625Q166.84688 29.76875 166.84688 32.346874Q166.84688 32.503124 166.83125 32.815624L159.09688 32.815624Q159.19063 34.51875 160.06563 35.425Q160.94063 36.33125 162.2375 36.33125Q163.20625 36.33125 163.87813 35.83125Q164.56563 35.315624 164.97188 34.20625ZM159.19063 31.3625L164.9875 31.3625Q164.87813 30.065624 164.33125 29.409374Q163.4875 28.39375 162.14375 28.39375Q160.94063 28.39375 160.1125 29.20625Q159.28438 30.003124 159.19063 31.3625ZM168.87813 25.253124L168.87813 23.2375L170.64375 23.2375L170.64375 25.253124L168.87813 25.253124ZM168.87813 37.55L168.87813 27.175L170.64375 27.175L170.64375 37.55L168.87813 37.55ZM172.55 38.409374L174.25313 38.659374Q174.3625 39.45625 174.84688 39.815624Q175.50313 40.3 176.64375 40.3Q177.8625 40.3 178.51875 39.815624Q179.19063 39.33125 179.425 38.45625Q179.56563 37.909374 179.55 36.190624Q178.39375 37.55 176.675 37.55Q174.53438 37.55 173.3625 36.003124Q172.19063 34.45625 172.19063 32.3Q172.19063 30.815624 172.72188 29.565624Q173.26875 28.315624 174.28438 27.628124Q175.31563 26.940624 176.69063 26.940624Q178.51875 26.940624 179.72188 28.425L179.72188 27.175L181.33125 27.175L181.33125 36.14375Q181.33125 38.565624 180.83125 39.565624Q180.34688 40.58125 179.26875 41.159374Q178.20625 41.753124 176.64375 41.753124Q174.8 41.753124 173.64375 40.925Q172.50313 40.096874 172.55 38.409374ZM174.00313 32.175Q174.00313 34.221874 174.81563 35.159374Q175.62813 36.096874 176.84688 36.096874Q178.05 36.096874 178.8625 35.159374Q179.69063 34.221874 179.69063 32.2375Q179.69063 30.33125 178.84688 29.3625Q178.00313 28.39375 176.81563 28.39375Q175.64375 28.39375 174.81563 29.346874Q174.00313 30.3 174.00313 32.175ZM183.8625 37.55L183.8625 23.2375L185.62813 23.2375L185.62813 28.3625Q186.8625 26.940624 188.7375 26.940624Q189.87813 26.940624 190.72188 27.39375Q191.58125 27.846874 191.94063 28.659374Q192.31563 29.45625 192.31563 30.971874L192.31563 37.55L190.56563 37.55L190.56563 30.971874Q190.56563 29.659374 189.9875 29.065624Q189.40938 28.45625 188.37813 28.45625Q187.59688 28.45625 186.89375 28.8625Q186.20625 29.26875 185.90938 29.971874Q185.62813 30.659374 185.62813 31.878124L185.62813 37.55L183.8625 37.55ZM198.70625 35.971874L198.95625 37.534374Q198.22188 37.690624 197.62813 37.690624Q196.675 37.690624 196.14375 37.39375Q195.62813 37.08125 195.40938 36.596874Q195.19063 36.096874 195.19063 34.51875L195.19063 28.55L193.90938 28.55L193.90938 27.175L195.19063 27.175L195.19063 24.6125L196.94063 23.55L196.94063 27.175L198.70625 27.175L198.70625 28.55L196.94063 28.55L196.94063 34.6125Q196.94063 35.3625 197.03438 35.58125Q197.12813 35.784374 197.33125 35.925Q197.55 36.05 197.94063 36.05Q198.22188 36.05 198.70625 35.971874ZM207.12813 37.55L207.12813 23.2375L213.47188 23.2375Q215.37813 23.2375 216.37813 23.628124Q217.37813 24.003124 217.97188 24.9875Q218.56563 25.95625 218.56563 27.14375Q218.56563 28.659374 217.58125 29.70625Q216.59688 30.753124 214.53438 31.034374Q215.28438 31.39375 215.675 31.753124Q216.50313 32.503124 217.25313 33.659374L219.7375 37.55L217.3625 37.55L215.45625 34.565624Q214.62813 33.284374 214.09688 32.596874Q213.56563 31.909374 213.12813 31.64375Q212.70625 31.3625 212.26875 31.253124Q211.94063 31.190624 211.22188 31.190624L209.01875 31.190624L209.01875 37.55L207.12813 37.55ZM209.01875 29.55L213.09688 29.55Q214.39375 29.55 215.1125 29.284374Q215.84688 29.01875 216.22188 28.425Q216.6125 27.83125 216.6125 27.14375Q216.6125 26.128124 215.87813 25.471874Q215.14375 24.815624 213.55 24.815624L209.01875 24.815624L209.01875 29.55ZM227.64375 36.26875Q226.65938 37.096874 225.75313 37.440624Q224.84688 37.784374 223.81563 37.784374Q222.1125 37.784374 221.19063 36.95625Q220.26875 36.1125 220.26875 34.815624Q220.26875 34.05 220.6125 33.425Q220.97188 32.8 221.53438 32.425Q222.09688 32.034374 222.8 31.83125Q223.31563 31.70625 224.3625 31.565624Q226.4875 31.315624 227.4875 30.971874Q227.50313 30.6125 227.50313 30.503124Q227.50313 29.440624 227.00313 28.9875Q226.33125 28.39375 225.00313 28.39375Q223.75313 28.39375 223.15938 28.83125Q222.58125 29.26875 222.3 30.378124L220.58125 30.14375Q220.81563 29.034374 221.34688 28.3625Q221.87813 27.675 222.89375 27.315624Q223.90938 26.940624 225.25313 26.940624Q226.58125 26.940624 227.40938 27.253124Q228.2375 27.565624 228.62813 28.05Q229.01875 28.51875 229.175 29.2375Q229.26875 29.690624 229.26875 30.8625L229.26875 33.20625Q229.26875 35.659374 229.37813 36.315624Q229.4875 36.95625 229.83125 37.55L227.9875 37.55Q227.72188 37.003124 227.64375 36.26875ZM227.4875 32.346874Q226.53438 32.7375 224.6125 33.003124Q223.53438 33.159374 223.08125 33.3625Q222.64375 33.55 222.39375 33.925Q222.14375 34.3 222.14375 34.76875Q222.14375 35.471874 222.675 35.940624Q223.20625 36.409374 224.2375 36.409374Q225.25313 36.409374 226.03438 35.971874Q226.83125 35.51875 227.20625 34.753124Q227.4875 34.14375 227.4875 32.9875L227.4875 32.346874ZM235.70625 35.971874L235.95625 37.534374Q235.22188 37.690624 234.62813 37.690624Q233.675 37.690624 233.14375 37.39375Q232.62813 37.08125 232.40938 36.596874Q232.19063 36.096874 232.19063 34.51875L232.19063 28.55L230.90938 28.55L230.90938 27.175L232.19063 27.175L232.19063 24.6125L233.94063 23.55L233.94063 27.175L235.70625 27.175L235.70625 28.55L233.94063 28.55L233.94063 34.6125Q233.94063 35.3625 234.03438 35.58125Q234.12813 35.784374 234.33125 35.925Q234.55 36.05 234.94063 36.05Q235.22188 36.05 235.70625 35.971874ZM237.87813 25.253124L237.87813 23.2375L239.64375 23.2375L239.64375 25.253124L237.87813 25.253124ZM237.87813 37.55L237.87813 27.175L239.64375 27.175L239.64375 37.55L237.87813 37.55ZM241.22188 32.3625Q241.22188 29.4875 242.81563 28.096874Q244.15938 26.940624 246.08125 26.940624Q248.22188 26.940624 249.56563 28.346874Q250.925 29.753124 250.925 32.221874Q250.925 34.221874 250.33125 35.378124Q249.7375 36.51875 248.58125 37.159374Q247.44063 37.784374 246.08125 37.784374Q243.89375 37.784374 242.55 36.39375Q241.22188 34.9875 241.22188 32.3625ZM243.01875 32.3625Q243.01875 34.3625 243.87813 35.346874Q244.75313 36.33125 246.08125 36.33125Q247.39375 36.33125 248.25313 35.346874Q249.12813 34.346874 249.12813 32.3Q249.12813 30.378124 248.25313 29.39375Q247.37813 28.39375 246.08125 28.39375Q244.75313 28.39375 243.87813 29.39375Q243.01875 30.378124 243.01875 32.3625ZM261.7531 37.55L257.8 27.175L259.65936 27.175L261.89374 33.39375Q262.2531 34.39375 262.55 35.471874Q262.78436 34.659374 263.20624 33.503124L265.5031 27.175L267.3156 27.175L263.39374 37.55L261.7531 37.55ZM268.15936 34.45625L269.90936 34.175Q270.05 35.221874 270.72186 35.784374Q271.39374 36.33125 272.59686 36.33125Q273.8 36.33125 274.3781 35.846874Q274.97186 35.346874 274.97186 34.690624Q274.97186 34.096874 274.45624 33.753124Q274.09686 33.51875 272.65936 33.159374Q270.72186 32.659374 269.97186 32.315624Q269.2375 31.95625 268.84686 31.33125Q268.45624 30.690624 268.45624 29.925Q268.45624 29.2375 268.76874 28.64375Q269.09686 28.05 269.64374 27.659374Q270.05 27.3625 270.7531 27.159374Q271.47186 26.940624 272.28436 26.940624Q273.5031 26.940624 274.425 27.3Q275.34686 27.64375 275.78436 28.253124Q276.22186 28.846874 276.39374 29.846874L274.675 30.08125Q274.55 29.284374 273.9875 28.846874Q273.425 28.39375 272.40936 28.39375Q271.1906 28.39375 270.675 28.8Q270.15936 29.190624 270.15936 29.721874Q270.15936 30.065624 270.3781 30.346874Q270.58124 30.628124 271.05 30.815624Q271.3156 30.909374 272.59686 31.253124Q274.47186 31.753124 275.20624 32.08125Q275.9406 32.39375 276.3625 33.003124Q276.78436 33.596874 276.78436 34.503124Q276.78436 35.378124 276.26874 36.159374Q275.7531 36.940624 274.78436 37.3625Q273.8156 37.784374 272.59686 37.784374Q270.58124 37.784374 269.51874 36.940624Q268.45624 36.096874 268.15936 34.45625ZM285.1281 37.55L285.1281 23.2375L291.47186 23.2375Q293.3781 23.2375 294.3781 23.628124Q295.3781 24.003124 295.97186 24.9875Q296.5656 25.95625 296.5656 27.14375Q296.5656 28.659374 295.58124 29.70625Q294.59686 30.753124 292.53436 31.034374Q293.28436 31.39375 293.675 31.753124Q294.5031 32.503124 295.2531 33.659374L297.7375 37.55L295.3625 37.55L293.45624 34.565624Q292.6281 33.284374 292.09686 32.596874Q291.5656 31.909374 291.1281 31.64375Q290.70624 31.3625 290.26874 31.253124Q289.9406 31.190624 289.22186 31.190624L287.01874 31.190624L287.01874 37.55L285.1281 37.55ZM287.01874 29.55L291.09686 29.55Q292.39374 29.55 293.1125 29.284374Q293.84686 29.01875 294.22186 28.425Q294.6125 27.83125 294.6125 27.14375Q294.6125 26.128124 293.8781 25.471874Q293.14374 24.815624 291.55 24.815624L287.01874 24.815624L287.01874 29.55ZM305.97186 34.20625L307.78436 34.440624Q307.3625 36.01875 306.1906 36.909374Q305.03436 37.784374 303.22186 37.784374Q300.95624 37.784374 299.6125 36.39375Q298.28436 34.9875 298.28436 32.45625Q298.28436 29.83125 299.6281 28.39375Q300.97186 26.940624 303.1281 26.940624Q305.20624 26.940624 306.51874 28.3625Q307.84686 29.76875 307.84686 32.346874Q307.84686 32.503124 307.83124 32.815624L300.09686 32.815624Q300.1906 34.51875 301.0656 35.425Q301.9406 36.33125 303.2375 36.33125Q304.20624 36.33125 304.8781 35.83125Q305.5656 35.315624 305.97186 34.20625ZM300.1906 31.3625L305.9875 31.3625Q305.8781 30.065624 305.33124 29.409374Q304.4875 28.39375 303.14374 28.39375Q301.9406 28.39375 301.1125 29.20625Q300.28436 30.003124 300.1906 31.3625ZM309.15936 34.45625L310.90936 34.175Q311.05 35.221874 311.72186 35.784374Q312.39374 36.33125 313.59686 36.33125Q314.8 36.33125 315.3781 35.846874Q315.97186 35.346874 315.97186 34.690624Q315.97186 34.096874 315.45624 33.753124Q315.09686 33.51875 313.65936 33.159374Q311.72186 32.659374 310.97186 32.315624Q310.2375 31.95625 309.84686 31.33125Q309.45624 30.690624 309.45624 29.925Q309.45624 29.2375 309.76874 28.64375Q310.09686 28.05 310.64374 27.659374Q311.05 27.3625 311.7531 27.159374Q312.47186 26.940624 313.28436 26.940624Q314.5031 26.940624 315.425 27.3Q316.34686 27.64375 316.78436 28.253124Q317.22186 28.846874 317.39374 29.846874L315.675 30.08125Q315.55 29.284374 314.9875 28.846874Q314.425 28.39375 313.40936 28.39375Q312.1906 28.39375 311.675 28.8Q311.15936 29.190624 311.15936 29.721874Q311.15936 30.065624 311.3781 30.346874Q311.58124 30.628124 312.05 30.815624Q312.3156 30.909374 313.59686 31.253124Q315.47186 31.753124 316.20624 32.08125Q316.9406 32.39375 317.3625 33.003124Q317.78436 33.596874 317.78436 34.503124Q317.78436 35.378124 317.26874 36.159374Q316.7531 36.940624 315.78436 37.3625Q314.8156 37.784374 313.59686 37.784374Q311.58124 37.784374 310.51874 36.940624Q309.45624 36.096874 309.15936 34.45625ZM326.65936 37.55L326.65936 36.01875Q325.45624 37.784374 323.3781 37.784374Q322.45624 37.784374 321.65936 37.440624Q320.8625 37.08125 320.47186 36.55Q320.09686 36.01875 319.9406 35.2375Q319.83124 34.721874 319.83124 33.596874L319.83124 27.175L321.58124 27.175L321.58124 32.925Q321.58124 34.3 321.6906 34.784374Q321.8625 35.471874 322.39374 35.878124Q322.9406 36.26875 323.72186 36.26875Q324.51874 36.26875 325.20624 35.8625Q325.90936 35.45625 326.1906 34.76875Q326.4875 34.065624 326.4875 32.7375L326.4875 27.175L328.2375 27.175L328.2375 37.55L326.65936 37.55ZM330.83124 37.55L330.83124 23.2375L332.58124 23.2375L332.58124 37.55L330.83124 37.55ZM338.70624 35.971874L338.95624 37.534374Q338.22186 37.690624 337.6281 37.690624Q336.675 37.690624 336.14374 37.39375Q335.6281 37.08125 335.40936 36.596874Q335.1906 36.096874 335.1906 34.51875L335.1906 28.55L333.90936 28.55L333.90936 27.175L335.1906 27.175L335.1906 24.6125L336.9406 23.55L336.9406 27.175L338.70624 27.175L338.70624 28.55L336.9406 28.55L336.9406 34.6125Q336.9406 35.3625 337.03436 35.58125Q337.1281 35.784374 337.33124 35.925Q337.55 36.05 337.9406 36.05Q338.22186 36.05 338.70624 35.971874Z" fill-rule="nonzero"/></svg>