<svg version="1.1" viewBox="0.0 0.0 600.0 371.0" fill="none" stroke="none" stroke-linecap="square" stroke-miterlimit="10" width="600" height="371" xmlns:xlink="http://www.w3.org/1999/xlink" xmlns="http://www.w3.org/2000/svg"><path fill="#ffffff" d="M0 0L600.0 0L600.0 371.0L0 371.0L0 0Z" fill-rule="nonzero"/><path stroke="#cccccc" stroke-width="1.0" stroke-linecap="butt" d="M567.5 88.5L567.5 300.5" fill-rule="nonzero"/><path stroke="#cccccc" stroke-width="1.0" stroke-linecap="butt" d="M477.5 88.5L477.5 300.5" fill-rule="nonzero"/><path stroke="#cccccc" stroke-width="1.0" stroke-linecap="butt" d="M387.5 88.5L387.5 300.5" fill-rule="nonzero"/><path stroke="#cccccc" stroke-width="1.0" stroke-linecap="butt" d="M297.5 88.5L297.5 300.5" fill-rule="nonzero"/><path stroke="#cccccc" stroke-width="1.0" stroke-linecap="butt" d="M206.5 88.5L206.5 300.5" fill-rule="nonzero"/><path stroke="#cccccc" stroke-width="1.0" stroke-linecap="butt" d="M116.5 88.5L116.5 300.5" fill-rule="nonzero"/><path stroke="#333333" stroke-width="1.0" stroke-linecap="butt" d="M77.5 300.5L581.5 300.5" fill-rule="nonzero"/><path stroke="#cccccc" stroke-width="1.0" stroke-linecap="butt" d="M77.5 229.5L581.5 229.5" fill-rule="nonzero"/><path stroke="#cccccc" stroke-width="1.0" stroke-linecap="butt" d="M77.5 159.5L581.5 159.5" fill-rule="nonzero"/><path stroke="#cccccc" stroke-width="1.0" stroke-linecap="butt" d="M77.5 88.5L581.5 88.5" fill-rule="nonzero"/><clipPath id="id_0"><path d="M77.55 88.28333L581.45 88.28333L581.45 300.45L77.55 300.45L77.55 88.28333Z" clip-rule="nonzero"/></clipPath><path stroke="#4285f4" stroke-width="2.0" stroke-linecap="butt" stroke-opacity="0.4" clip-path="url(#id_0)" d="M0 146.86903L581.45 130.12103" fill-rule="nonzero"/><path fill="#4285f4" clip-path="url(#id_0)" d="M579.1392 118.86591C579.1392 121.3512 577.1245 123.36591 574.6392 123.36591C572.15393 123.36591 570.1392 121.3512 570.1392 118.86591C570.1392 116.38064 572.15393 114.36591 574.6392 114.36591C577.1245 114.36591 579.1392 116.38064 579.1392 118.86591Z" fill-rule="nonzero"/><path fill="#4285f4" clip-path="url(#id_0)" d="M561.11426 142.11667C561.11426 144.60194 559.09955 146.61667 556.61426 146.61667C554.129 146.61667 552.11426 144.60194 552.11426 142.11667C552.11426 139.63138 554.129 137.61667 556.61426 137.61667C559.09955 137.61667 561.11426 139.63138 561.11426 142.11667Z" fill-rule="nonzero"/><path fill="#4285f4" clip-path="url(#id_0)" d="M510.64444 124.11593C510.64444 126.601204 508.62973 128.61592 506.14444 128.61592C503.65915 128.61592 501.64444 126.601204 501.64444 124.11593C501.64444 121.630646 503.65915 119.61593 506.14444 119.61593C508.62973 119.61593 510.64444 121.630646 510.64444 124.11593Z" fill-rule="nonzero"/><path fill="#4285f4" clip-path="url(#id_0)" d="M492.6195 151.14754C492.6195 153.63281 490.60477 155.64754 488.1195 155.64754C485.63422 155.64754 483.6195 153.63281 483.6195 151.14754C483.6195 148.66225 485.63422 146.64754 488.1195 146.64754C490.60477 146.64754 492.6195 148.66225 492.6195 151.14754Z" fill-rule="nonzero"/><path fill="#4285f4" clip-path="url(#id_0)" d="M456.5696 118.86591C456.5696 121.3512 454.5549 123.36591 452.0696 123.36591C449.58432 123.36591 447.5696 121.3512 447.5696 118.86591C447.5696 116.38064 449.58432 114.36591 452.0696 114.36591C454.5549 114.36591 456.5696 116.38064 456.5696 118.86591Z" fill-rule="nonzero"/><path fill="#4285f4" clip-path="url(#id_0)" d="M337.60498 144.66997C337.60498 147.15526 335.59027 149.16997 333.10498 149.16997C330.61972 149.16997 328.60498 147.15526 328.60498 144.66997C328.60498 142.1847 330.61972 140.16997 333.10498 140.16997C335.59027 140.16997 337.60498 142.1847 337.60498 144.66997Z" fill-rule="nonzero"/><path fill="#4285f4" clip-path="url(#id_0)" d="M88.86077 142.03223C88.86077 144.5175 86.846054 146.53223 84.36077 146.53223C81.875496 146.53223 79.86077 144.5175 79.86077 142.03223C79.86077 139.54694 81.875496 137.53223 84.36077 137.53223C86.846054 137.53223 88.86077 139.54694 88.86077 142.03223Z" fill-rule="nonzero"/><path fill="#000000" d="M310.60938 349.45L310.60938 341.8719L307.78125 341.8719L307.78125 340.85626L314.59375 340.85626L314.59375 341.8719L311.75 341.8719L311.75 349.45L310.60938 349.45ZM315.29688 342.075L315.29688 340.85626L316.35938 340.85626L316.35938 342.075L315.29688 342.075ZM315.29688 349.45L315.29688 343.23126L316.35938 343.23126L316.35938 349.45L315.29688 349.45ZM318.29688 349.45L318.29688 343.23126L319.23438 343.23126L319.23438 344.10626Q319.53125 343.6375 320.01562 343.3719Q320.5 343.09064 321.125 343.09064Q321.8125 343.09064 322.25 343.3719Q322.70312 343.65314 322.875 344.16876Q323.625 343.09064 324.79688 343.09064Q325.73438 343.09064 326.21875 343.60626Q326.71875 344.10626 326.71875 345.1844L326.71875 349.45L325.67188 349.45L325.67188 345.52814Q325.67188 344.90314 325.5625 344.6219Q325.46875 344.34064 325.20312 344.16876Q324.9375 343.9969 324.5625 343.9969Q323.90625 343.9969 323.46875 344.4344Q323.04688 344.8719 323.04688 345.84064L323.04688 349.45L321.98438 349.45L321.98438 345.40314Q321.98438 344.7 321.71875 344.35626Q321.46875 343.9969 320.89062 343.9969Q320.4375 343.9969 320.0625 344.23126Q319.6875 344.46564 319.51562 344.91876Q319.34375 345.3719 319.34375 346.21564L319.34375 349.45L318.29688 349.45ZM332.54688 347.45L333.64062 347.575Q333.39062 348.52814 332.6875 349.0594Q331.98438 349.59064 330.90625 349.59064Q329.54688 349.59064 328.73438 348.7469Q327.9375 347.90314 327.9375 346.3875Q327.9375 344.825 328.75 343.96564Q329.5625 343.09064 330.84375 343.09064Q332.09375 343.09064 332.875 343.9344Q333.67188 344.77814 333.67188 346.325Q333.67188 346.41876 333.67188 346.60626L329.03125 346.60626Q329.09375 347.6375 329.60938 348.1844Q330.125 348.71564 330.90625 348.71564Q331.48438 348.71564 331.89062 348.41876Q332.3125 348.10626 332.54688 347.45ZM329.09375 345.7469L332.5625 345.7469Q332.5 344.95 332.17188 344.5594Q331.65625 343.95 330.85938 343.95Q330.125 343.95 329.625 344.4344Q329.14062 344.91876 329.09375 345.7469ZM340.3125 351.98126Q339.4375 350.8719 338.82812 349.40314Q338.23438 347.91876 338.23438 346.34064Q338.23438 344.95 338.67188 343.66876Q339.20312 342.1844 340.3125 340.71564L341.0625 340.71564Q340.35938 341.9344 340.125 342.45Q339.76562 343.2625 339.5625 344.1375Q339.3125 345.23126 339.3125 346.34064Q339.3125 349.16876 341.0625 351.98126L340.3125 351.98126ZM341.875 347.59064L342.90625 347.4344Q343.0 348.0594 343.39062 348.3875Q343.79688 348.71564 344.53125 348.71564Q345.25 348.71564 345.59375 348.4344Q345.95312 348.1375 345.95312 347.73126Q345.95312 347.3719 345.64062 347.16876Q345.42188 347.02814 344.5625 346.8094Q343.40625 346.5125 342.95312 346.3094Q342.51562 346.09064 342.28125 345.71564Q342.04688 345.34064 342.04688 344.8719Q342.04688 344.46564 342.23438 344.10626Q342.42188 343.7469 342.75 343.5125Q343.0 343.34064 343.42188 343.21564Q343.84375 343.09064 344.34375 343.09064Q345.0625 343.09064 345.60938 343.3094Q346.17188 343.5125 346.4375 343.8719Q346.70312 344.23126 346.79688 344.825L345.76562 344.96564Q345.70312 344.4969 345.35938 344.23126Q345.03125 343.95 344.40625 343.95Q343.6875 343.95 343.375 344.2Q343.0625 344.4344 343.0625 344.7625Q343.0625 344.96564 343.1875 345.1219Q343.32812 345.29376 343.59375 345.40314Q343.75 345.46564 344.53125 345.66876Q345.65625 345.98126 346.09375 346.16876Q346.53125 346.35626 346.78125 346.71564Q347.03125 347.075 347.03125 347.6219Q347.03125 348.15314 346.71875 348.6219Q346.42188 349.075 345.84375 349.34064Q345.26562 349.59064 344.53125 349.59064Q343.3125 349.59064 342.67188 349.09064Q342.04688 348.575 341.875 347.59064ZM348.98438 351.98126L348.23438 351.98126Q349.98438 349.16876 349.98438 346.34064Q349.98438 345.2469 349.73438 344.15314Q349.53125 343.27814 349.17188 342.46564Q348.9375 341.95 348.23438 340.71564L348.98438 340.71564Q350.07812 342.1844 350.60938 343.66876Q351.0625 344.95 351.0625 346.34064Q351.0625 347.91876 350.45312 349.40314Q349.84375 350.8719 348.98438 351.98126Z" fill-rule="nonzero"/><path fill="#000000" d="M29.550013 279.4448L20.956263 281.72604L20.956263 280.55417L26.596888 279.24167Q27.471888 279.03854 28.346888 278.8823Q26.971888 278.55417 26.753138 278.49167L20.956263 276.86667L20.956263 275.49167L25.300013 274.2573Q26.925013 273.80417 28.346888 273.58542Q27.534388 273.42917 26.471888 273.16354L20.956263 271.8198L20.956263 270.67917L29.550013 273.02292L29.550013 274.1323L23.003138 275.92917Q22.190638 276.16354 22.003138 276.21042Q22.581263 276.33542 23.003138 276.46042L29.550013 278.27292L29.550013 279.4448ZM27.550013 265.8198L27.675013 264.72604Q28.628138 264.97604 29.159388 265.67917Q29.690638 266.3823 29.690638 267.46042Q29.690638 268.8198 28.846888 269.6323Q28.003138 270.42917 26.487513 270.42917Q24.925013 270.42917 24.065638 269.61667Q23.190638 268.80417 23.190638 267.52292Q23.190638 266.27292 24.034388 265.49167Q24.878138 264.6948 26.425013 264.6948Q26.518763 264.6948 26.706263 264.6948L26.706263 269.33542Q27.737513 269.27292 28.284388 268.7573Q28.815638 268.24167 28.815638 267.46042Q28.815638 266.8823 28.518763 266.47604Q28.206263 266.05417 27.550013 265.8198ZM25.846888 269.27292L25.846888 265.80417Q25.050013 265.86667 24.659388 266.1948Q24.050013 266.71042 24.050013 267.5073Q24.050013 268.24167 24.534388 268.74167Q25.018763 269.22604 25.846888 269.27292ZM22.175013 263.0698L20.956263 263.0698L20.956263 262.0073L22.175013 262.0073L22.175013 263.0698ZM29.550013 263.0698L23.331263 263.0698L23.331263 262.0073L29.550013 262.0073L29.550013 263.0698ZM30.065638 260.27292L30.221888 259.24167Q30.690638 259.17917 30.909388 258.8823Q31.206263 258.49167 31.206263 257.8198Q31.206263 257.08542 30.909388 256.6948Q30.612513 256.28854 30.096888 256.14792Q29.768763 256.05417 28.737513 256.0698Q29.550013 256.7573 29.550013 257.78854Q29.550013 259.0698 28.628138 259.77292Q27.690638 260.47604 26.409388 260.47604Q25.518763 260.47604 24.768763 260.16354Q24.003138 259.83542 23.596888 259.22604Q23.190638 258.61667 23.190638 257.78854Q23.190638 256.67917 24.081263 255.96042L23.331263 255.96042L23.331263 254.99167L28.706263 254.99167Q30.159388 254.99167 30.768763 255.28854Q31.378138 255.58542 31.721888 256.22604Q32.08126 256.86667 32.08126 257.80417Q32.08126 258.91354 31.581263 259.60104Q31.081263 260.28854 30.065638 260.27292ZM26.331263 259.39792Q27.550013 259.39792 28.112513 258.91354Q28.675013 258.42917 28.675013 257.6948Q28.675013 256.96042 28.112513 256.47604Q27.550013 255.97604 26.362513 255.97604Q25.221888 255.97604 24.643763 256.49167Q24.065638 256.99167 24.065638 257.71042Q24.065638 258.41354 24.643763 258.91354Q25.206263 259.39792 26.331263 259.39792ZM29.550013 253.0698L20.956263 253.0698L20.956263 252.02292L24.034388 252.02292Q23.190638 251.28854 23.190638 250.16354Q23.190638 249.46042 23.471888 248.96042Q23.737513 248.4448 24.221888 248.22604Q24.690638 248.0073 25.612513 248.0073L29.550013 248.0073L29.550013 249.05417L25.612513 249.05417Q24.815638 249.05417 24.456263 249.39792Q24.096888 249.74167 24.096888 250.36667Q24.096888 250.83542 24.346888 251.2573Q24.581263 251.66354 25.003138 251.85104Q25.409388 252.02292 26.143763 252.02292L29.550013 252.02292L29.550013 253.0698ZM28.612513 243.77292L29.534388 243.61667Q29.628138 244.0698 29.628138 244.41354Q29.628138 244.99167 29.456263 245.30417Q29.268763 245.61667 28.971888 245.7573Q28.675013 245.8823 27.721888 245.8823L24.143763 245.8823L24.143763 246.64792L23.331263 246.64792L23.331263 245.8823L21.784388 245.8823L21.159388 244.83542L23.331263 244.83542L23.331263 243.77292L24.143763 243.77292L24.143763 244.83542L27.784388 244.83542Q28.237513 244.83542 28.362513 244.78854Q28.487513 244.72604 28.565638 244.60104Q28.643763 244.47604 28.643763 244.24167Q28.643763 244.05417 28.612513 243.77292ZM28.612513 237.77292L29.534388 237.61667Q29.628138 238.0698 29.628138 238.41354Q29.628138 238.99167 29.456263 239.30417Q29.268763 239.61667 28.971888 239.7573Q28.675013 239.8823 27.721888 239.8823L24.143763 239.8823L24.143763 240.64792L23.331263 240.64792L23.331263 239.8823L21.784388 239.8823L21.159388 238.83542L23.331263 238.83542L23.331263 237.77292L24.143763 237.77292L24.143763 238.83542L27.784388 238.83542Q28.237513 238.83542 28.362513 238.78854Q28.487513 238.72604 28.565638 238.60104Q28.643763 238.47604 28.643763 238.24167Q28.643763 238.05417 28.612513 237.77292ZM26.440638 237.46042Q24.706263 237.46042 23.878138 236.5073Q23.190638 235.71042 23.190638 234.55417Q23.190638 233.27292 24.034388 232.46042Q24.862513 231.6323 26.346888 231.6323Q27.550013 231.6323 28.237513 231.99167Q28.925013 232.35104 29.315638 233.05417Q29.690638 233.74167 29.690638 234.55417Q29.690638 235.85104 28.862513 236.66354Q28.018763 237.46042 26.440638 237.46042ZM26.440638 236.3823Q27.628138 236.3823 28.221888 235.86667Q28.815638 235.33542 28.815638 234.55417Q28.815638 233.7573 28.221888 233.24167Q27.628138 232.72604 26.409388 232.72604Q25.253138 232.72604 24.659388 233.2573Q24.065638 233.77292 24.065638 234.55417Q24.065638 235.33542 24.659388 235.86667Q25.237513 236.3823 26.440638 236.3823ZM29.550013 226.89792L20.956263 226.89792L20.956263 225.77292L24.487513 225.77292L24.487513 221.30417L20.956263 221.30417L20.956263 220.16354L29.550013 220.16354L29.550013 221.30417L25.503138 221.30417L25.503138 225.77292L29.550013 225.77292L29.550013 226.89792ZM27.550013 213.8198L27.675013 212.72604Q28.628138 212.97604 29.159388 213.67917Q29.690638 214.3823 29.690638 215.46042Q29.690638 216.8198 28.846888 217.6323Q28.003138 218.42917 26.487513 218.42917Q24.925013 218.42917 24.065638 217.61667Q23.190638 216.80417 23.190638 215.52292Q23.190638 214.27292 24.034388 213.49167Q24.878138 212.6948 26.425013 212.6948Q26.518763 212.6948 26.706263 212.6948L26.706263 217.33542Q27.737513 217.27292 28.284388 216.7573Q28.815638 216.24167 28.815638 215.46042Q28.815638 214.8823 28.518763 214.47604Q28.206263 214.05417 27.550013 213.8198ZM25.846888 217.27292L25.846888 213.80417Q25.050013 213.86667 24.659388 214.1948Q24.050013 214.71042 24.050013 215.5073Q24.050013 216.24167 24.534388 216.74167Q25.018763 217.22604 25.846888 217.27292ZM22.175013 211.0698L20.956263 211.0698L20.956263 210.0073L22.175013 210.0073L22.175013 211.0698ZM29.550013 211.0698L23.331263 211.0698L23.331263 210.0073L29.550013 210.0073L29.550013 211.0698ZM30.065638 208.27292L30.221888 207.24167Q30.690638 207.17917 30.909388 206.8823Q31.206263 206.49167 31.206263 205.8198Q31.206263 205.08542 30.909388 204.6948Q30.612513 204.28854 30.096888 204.14792Q29.768763 204.05417 28.737513 204.0698Q29.550013 204.7573 29.550013 205.78854Q29.550013 207.0698 28.628138 207.77292Q27.690638 208.47604 26.409388 208.47604Q25.518763 208.47604 24.768763 208.16354Q24.003138 207.83542 23.596888 207.22604Q23.190638 206.61667 23.190638 205.78854Q23.190638 204.67917 24.081263 203.96042L23.331263 203.96042L23.331263 202.99167L28.706263 202.99167Q30.159388 202.99167 30.768763 203.28854Q31.378138 203.58542 31.721888 204.22604Q32.08126 204.86667 32.08126 205.80417Q32.08126 206.91354 31.581263 207.60104Q31.081263 208.28854 30.065638 208.27292ZM26.331263 207.39792Q27.550013 207.39792 28.112513 206.91354Q28.675013 206.42917 28.675013 205.6948Q28.675013 204.96042 28.112513 204.47604Q27.550013 203.97604 26.362513 203.97604Q25.221888 203.97604 24.643763 204.49167Q24.065638 204.99167 24.065638 205.71042Q24.065638 206.41354 24.643763 206.91354Q25.206263 207.39792 26.331263 207.39792ZM29.550013 201.0698L20.956263 201.0698L20.956263 200.02292L24.034388 200.02292Q23.190638 199.28854 23.190638 198.16354Q23.190638 197.46042 23.471888 196.96042Q23.737513 196.4448 24.221888 196.22604Q24.690638 196.0073 25.612513 196.0073L29.550013 196.0073L29.550013 197.05417L25.612513 197.05417Q24.815638 197.05417 24.456263 197.39792Q24.096888 197.74167 24.096888 198.36667Q24.096888 198.83542 24.346888 199.2573Q24.581263 199.66354 25.003138 199.85104Q25.409388 200.02292 26.143763 200.02292L29.550013 200.02292L29.550013 201.0698ZM28.612513 191.77292L29.534388 191.61667Q29.628138 192.0698 29.628138 192.41354Q29.628138 192.99167 29.456263 193.30417Q29.268763 193.61667 28.971888 193.7573Q28.675013 193.8823 27.721888 193.8823L24.143763 193.8823L24.143763 194.64792L23.331263 194.64792L23.331263 193.8823L21.784388 193.8823L21.159388 192.83542L23.331263 192.83542L23.331263 191.77292L24.143763 191.77292L24.143763 192.83542L27.784388 192.83542Q28.237513 192.83542 28.362513 192.78854Q28.487513 192.72604 28.565638 192.60104Q28.643763 192.47604 28.643763 192.24167Q28.643763 192.05417 28.612513 191.77292ZM29.550013 187.92917L20.956263 187.92917L20.956263 184.11667Q20.956263 182.96042 21.190638 182.36667Q21.425013 181.77292 22.018763 181.41354Q22.596888 181.05417 23.300013 181.05417Q24.221888 181.05417 24.846888 181.64792Q25.471888 182.24167 25.643763 183.47604Q25.862513 183.02292 26.065638 182.78854Q26.518763 182.28854 27.206263 181.85104L29.550013 180.35104L29.550013 181.78854L27.768763 182.91354Q26.987513 183.41354 26.581263 183.74167Q26.175013 184.05417 26.018763 184.3198Q25.846888 184.5698 25.768763 184.83542Q25.737513 185.02292 25.737513 185.46042L25.737513 186.78854L29.550013 186.78854L29.550013 187.92917ZM24.753138 186.78854L24.753138 184.33542Q24.753138 183.5698 24.596888 183.1323Q24.425013 182.67917 24.081263 182.46042Q23.721888 182.22604 23.300013 182.22604Q22.690638 182.22604 22.300013 182.67917Q21.909388 183.11667 21.909388 184.0698L21.909388 186.78854L24.753138 186.78854ZM28.784388 175.0073Q29.284388 175.60104 29.487513 176.14792Q29.690638 176.67917 29.690638 177.30417Q29.690638 178.33542 29.190638 178.8823Q28.690638 179.42917 27.909388 179.42917Q27.456263 179.42917 27.081263 179.22604Q26.690638 179.02292 26.471888 178.67917Q26.237513 178.33542 26.128138 177.91354Q26.034388 177.61667 25.956263 176.97604Q25.815638 175.71042 25.596888 175.10104Q25.378138 175.10104 25.331263 175.10104Q24.675013 175.10104 24.409388 175.39792Q24.065638 175.80417 24.065638 176.60104Q24.065638 177.33542 24.331263 177.6948Q24.581263 178.05417 25.237513 178.22604L25.096888 179.2573Q24.440638 179.11667 24.034388 178.78854Q23.628138 178.46042 23.409388 177.85104Q23.190638 177.24167 23.190638 176.4448Q23.190638 175.64792 23.378138 175.14792Q23.565638 174.64792 23.846888 174.41354Q24.128138 174.17917 24.565638 174.08542Q24.831263 174.03854 25.534388 174.03854L26.940638 174.03854Q28.409388 174.03854 28.800013 173.97604Q29.190638 173.89792 29.550013 173.6948L29.550013 174.80417Q29.221888 174.96042 28.784388 175.0073ZM26.425013 175.10104Q26.659388 175.67917 26.831263 176.8198Q26.925013 177.47604 27.050013 177.74167Q27.159388 178.0073 27.378138 178.16354Q27.596888 178.30417 27.878138 178.30417Q28.300013 178.30417 28.581263 177.99167Q28.862513 177.66354 28.862513 177.05417Q28.862513 176.4448 28.596888 175.97604Q28.331263 175.49167 27.862513 175.27292Q27.503138 175.10104 26.815638 175.10104L26.425013 175.10104ZM28.612513 169.77292L29.534388 169.61667Q29.628138 170.0698 29.628138 170.41354Q29.628138 170.99167 29.456263 171.30417Q29.268763 171.61667 28.971888 171.7573Q28.675013 171.8823 27.721888 171.8823L24.143763 171.8823L24.143763 172.64792L23.331263 172.64792L23.331263 171.8823L21.784388 171.8823L21.159388 170.83542L23.331263 170.83542L23.331263 169.77292L24.143763 169.77292L24.143763 170.83542L27.784388 170.83542Q28.237513 170.83542 28.362513 170.78854Q28.487513 170.72604 28.565638 170.60104Q28.643763 170.47604 28.643763 170.24167Q28.643763 170.05417 28.612513 169.77292ZM22.175013 169.0698L20.956263 169.0698L20.956263 168.0073L22.175013 168.0073L22.175013 169.0698ZM29.550013 169.0698L23.331263 169.0698L23.331263 168.0073L29.550013 168.0073L29.550013 169.0698ZM26.440638 166.46042Q24.706263 166.46042 23.878138 165.5073Q23.190638 164.71042 23.190638 163.55417Q23.190638 162.27292 24.034388 161.46042Q24.862513 160.6323 26.346888 160.6323Q27.550013 160.6323 28.237513 160.99167Q28.925013 161.35104 29.315638 162.05417Q29.690638 162.74167 29.690638 163.55417Q29.690638 164.85104 28.862513 165.66354Q28.018763 166.46042 26.440638 166.46042ZM26.440638 165.3823Q27.628138 165.3823 28.221888 164.86667Q28.815638 164.33542 28.815638 163.55417Q28.815638 162.7573 28.221888 162.24167Q27.628138 161.72604 26.409388 161.72604Q25.253138 161.72604 24.659388 162.2573Q24.065638 162.77292 24.065638 163.55417Q24.065638 164.33542 24.659388 164.86667Q25.237513 165.3823 26.440638 165.3823ZM32.08126 154.05417Q30.971888 154.92917 29.503138 155.53854Q28.018763 156.1323 26.440638 156.1323Q25.050013 156.1323 23.768763 155.6948Q22.284388 155.16354 20.815638 154.05417L20.815638 153.30417Q22.034388 154.0073 22.550013 154.24167Q23.362513 154.60104 24.237513 154.80417Q25.331263 155.05417 26.440638 155.05417Q29.268763 155.05417 32.08126 153.30417L32.08126 154.05417ZM29.550013 152.10104L20.956263 152.10104L20.956263 151.03854L29.550013 151.03854L29.550013 152.10104ZM29.550013 148.10104L29.550013 149.08542L20.956263 149.08542L20.956263 148.02292L24.018763 148.02292Q23.190638 147.35104 23.190638 146.3198Q23.190638 145.74167 23.425013 145.24167Q23.643763 144.72604 24.065638 144.39792Q24.487513 144.05417 25.081263 143.86667Q25.675013 143.67917 26.346888 143.67917Q27.940638 143.67917 28.815638 144.47604Q29.690638 145.27292 29.690638 146.36667Q29.690638 147.47604 28.768763 148.10104L29.550013 148.10104ZM26.393763 148.11667Q27.503138 148.11667 28.003138 147.80417Q28.815638 147.30417 28.815638 146.46042Q28.815638 145.77292 28.221888 145.27292Q27.628138 144.7573 26.425013 144.7573Q25.206263 144.7573 24.628138 145.24167Q24.050013 145.72604 24.050013 146.41354Q24.050013 147.10104 24.659388 147.61667Q25.253138 148.11667 26.393763 148.11667ZM27.690638 142.49167L27.534388 141.46042Q28.159388 141.36667 28.487513 140.97604Q28.815638 140.5698 28.815638 139.83542Q28.815638 139.11667 28.534388 138.77292Q28.237513 138.41354 27.831263 138.41354Q27.471888 138.41354 27.268763 138.72604Q27.128138 138.9448 26.909388 139.80417Q26.612513 140.96042 26.409388 141.41354Q26.190638 141.85104 25.815638 142.08542Q25.440638 142.3198 24.971888 142.3198Q24.565638 142.3198 24.206263 142.1323Q23.846888 141.9448 23.612513 141.61667Q23.440638 141.36667 23.315638 140.9448Q23.190638 140.52292 23.190638 140.02292Q23.190638 139.30417 23.409388 138.7573Q23.612513 138.1948 23.971888 137.92917Q24.331263 137.66354 24.925013 137.5698L25.065638 138.60104Q24.596888 138.66354 24.331263 139.0073Q24.050013 139.33542 24.050013 139.96042Q24.050013 140.67917 24.300013 140.99167Q24.534388 141.30417 24.862513 141.30417Q25.065638 141.30417 25.221888 141.17917Q25.393763 141.03854 25.503138 140.77292Q25.565638 140.61667 25.768763 139.83542Q26.081263 138.71042 26.268763 138.27292Q26.456263 137.83542 26.815638 137.58542Q27.175013 137.33542 27.721888 137.33542Q28.253138 137.33542 28.721888 137.64792Q29.175013 137.9448 29.440638 138.52292Q29.690638 139.10104 29.690638 139.83542Q29.690638 141.05417 29.190638 141.6948Q28.675013 142.3198 27.690638 142.49167ZM29.690638 136.86667L20.815638 134.3823L20.815638 133.53854L29.690638 136.02292L29.690638 136.86667ZM22.175013 133.0698L20.956263 133.0698L20.956263 132.0073L22.175013 132.0073L22.175013 133.0698ZM29.550013 133.0698L23.331263 133.0698L23.331263 132.0073L29.550013 132.0073L29.550013 133.0698ZM29.550013 130.0698L23.331263 130.0698L23.331263 129.1323L24.206263 129.1323Q23.190638 128.4448 23.190638 127.14792Q23.190638 126.58542 23.393763 126.11667Q23.596888 125.63229 23.925013 125.39792Q24.253138 125.16354 24.690638 125.06979Q24.987513 125.02292 25.721888 125.02292L29.550013 125.02292L29.550013 126.06979L25.768763 126.06979Q25.112513 126.06979 24.800013 126.19479Q24.487513 126.31979 24.300013 126.63229Q24.096888 126.94479 24.096888 127.36667Q24.096888 128.03854 24.534388 128.53854Q24.956263 129.02292 26.143763 129.02292L29.550013 129.02292L29.550013 130.0698ZM32.08126 122.38229L32.08126 123.13229Q29.268763 121.38229 26.440638 121.38229Q25.346888 121.38229 24.253138 121.63229Q23.378138 121.83542 22.565638 122.19479Q22.050013 122.42917 20.815638 123.13229L20.815638 122.38229Q22.284388 121.28854 23.768763 120.75729Q25.050013 120.30417 26.440638 120.30417Q28.018763 120.30417 29.503138 120.91354Q30.971888 121.52292 32.08126 122.38229Z" fill-rule="nonzero"/><path fill="#000000" d="M65.05 300.21564Q65.05 298.6844 65.3625 297.7625Q65.675 296.825 66.28438 296.325Q66.90938 295.825 67.84688 295.825Q68.53438 295.825 69.05 296.10626Q69.58125 296.3875 69.925 296.91876Q70.26875 297.4344 70.45625 298.1844Q70.64375 298.9344 70.64375 300.21564Q70.64375 301.73126 70.33125 302.65314Q70.03438 303.575 69.40938 304.09064Q68.8 304.59064 67.84688 304.59064Q66.6125 304.59064 65.89375 303.7Q65.05 302.6375 65.05 300.21564ZM66.12813 300.21564Q66.12813 302.325 66.62813 303.02814Q67.12813 303.73126 67.84688 303.73126Q68.58125 303.73126 69.06563 303.02814Q69.56563 302.325 69.56563 300.21564Q69.56563 298.09064 69.06563 297.40314Q68.58125 296.7 67.83125 296.7Q67.1125 296.7 66.675 297.3094Q66.12813 298.09064 66.12813 300.21564Z" fill-rule="nonzero"/><path fill="#000000" d="M69.01875 233.72778L67.97188 233.72778L67.97188 227.00903Q67.58125 227.36841 66.95625 227.74341Q66.34688 228.10278 65.8625 228.27466L65.8625 227.25903Q66.7375 226.83716 67.39375 226.25903Q68.06563 225.66528 68.34688 225.10278L69.01875 225.10278L69.01875 233.72778Z" fill-rule="nonzero"/><path fill="#000000" d="M70.59688 161.98993L70.59688 163.00555L64.90938 163.00555Q64.90938 162.63055 65.03438 162.27118Q65.25313 161.69305 65.72188 161.13055Q66.20625 160.56805 67.1125 159.83368Q68.51875 158.67743 69.00313 158.00555Q69.50313 157.33368 69.50313 156.73993Q69.50313 156.11493 69.05 155.69305Q68.59688 155.25555 67.87813 155.25555Q67.1125 155.25555 66.65938 155.70868Q66.20625 156.1618 66.19063 156.9743L65.1125 156.86493Q65.22188 155.64618 65.94063 155.02118Q66.675 154.38055 67.90938 154.38055Q69.14375 154.38055 69.8625 155.06805Q70.58125 155.75555 70.58125 156.77118Q70.58125 157.2868 70.3625 157.7868Q70.15938 158.27118 69.65938 158.83368Q69.175 159.38055 68.05 160.33368Q67.09688 161.13055 66.81563 161.42743Q66.55 161.70868 66.37813 161.98993L70.59688 161.98993Z" fill-rule="nonzero"/><path fill="#000000" d="M65.05 90.01771L66.1125 89.87708Q66.28438 90.76771 66.72188 91.17396Q67.15938 91.56458 67.78438 91.56458Q68.53438 91.56458 69.05 91.04896Q69.56563 90.53333 69.56563 89.76771Q69.56563 89.04896 69.08125 88.58021Q68.6125 88.09583 67.87813 88.09583Q67.58125 88.09583 67.12813 88.22083L67.25313 87.28333Q67.3625 87.29896 67.425 87.29896Q68.09688 87.29896 68.62813 86.95521Q69.175 86.59583 69.175 85.86146Q69.175 85.28333 68.78438 84.90833Q68.39375 84.51771 67.76875 84.51771Q67.15938 84.51771 66.7375 84.90833Q66.33125 85.29896 66.22188 86.06458L65.15938 85.87708Q65.34688 84.83021 66.03438 84.25208Q66.72188 83.65833 67.7375 83.65833Q68.44063 83.65833 69.03438 83.97083Q69.62813 84.26771 69.94063 84.78333Q70.25313 85.29896 70.25313 85.89271Q70.25313 86.43958 69.95625 86.90833Q69.65938 87.36146 69.08125 87.62708Q69.83125 87.79896 70.25313 88.36146Q70.675 88.90833 70.675 89.75208Q70.675 90.87708 69.84688 91.65833Q69.03438 92.43958 67.78438 92.43958Q66.65938 92.43958 65.90938 91.76771Q65.15938 91.08021 65.05 90.01771Z" fill-rule="nonzero"/><path fill="#000000" d="M555.80426 317.45L555.80426 315.3875L552.0855 315.3875L552.0855 314.41876L556.0074 308.85626L556.86676 308.85626L556.86676 314.41876L558.023 314.41876L558.023 315.3875L556.86676 315.3875L556.86676 317.45L555.80426 317.45ZM555.80426 314.41876L555.80426 310.5594L553.11676 314.41876L555.80426 314.41876ZM559.49176 309.98126L559.49176 308.96564L565.05426 308.96564L565.05426 309.79376Q564.24176 310.66876 563.42926 312.1219Q562.6324 313.5594 562.1949 315.09064Q561.86676 316.16876 561.78864 317.45L560.6949 317.45Q560.7105 316.4344 561.0855 314.9969Q561.47614 313.5594 562.17926 312.23126Q562.898 310.90314 563.7105 309.98126L559.49176 309.98126ZM567.023 317.45L567.023 316.2469L568.22614 316.2469L568.22614 317.45L567.023 317.45ZM569.49176 309.98126L569.49176 308.96564L575.05426 308.96564L575.05426 309.79376Q574.24176 310.66876 573.42926 312.1219Q572.6324 313.5594 572.1949 315.09064Q571.86676 316.16876 571.78864 317.45L570.6949 317.45Q570.7105 316.4344 571.0855 314.9969Q571.47614 313.5594 572.17926 312.23126Q572.898 310.90314 573.7105 309.98126L569.49176 309.98126ZM576.42926 315.2L577.53864 315.10626Q577.66364 315.91876 578.10114 316.325Q578.55426 316.73126 579.1949 316.73126Q579.9449 316.73126 580.47614 316.15314Q581.0074 315.575 581.0074 314.6375Q581.0074 313.73126 580.49176 313.21564Q579.99176 312.6844 579.16364 312.6844Q578.66364 312.6844 578.24176 312.91876Q577.8355 313.15314 577.60114 313.5125L576.61676 313.3875L577.4449 308.98126L581.72614 308.98126L581.72614 309.98126L578.28864 309.98126L577.8355 312.29376Q578.60114 311.7469 579.4449 311.7469Q580.5699 311.7469 581.3355 312.52814Q582.11676 313.3094 582.11676 314.54376Q582.11676 315.7 581.4449 316.5594Q580.61676 317.59064 579.1949 317.59064Q578.023 317.59064 577.273 316.9344Q576.53864 316.27814 576.42926 315.2Z" fill-rule="nonzero"/><path fill="#000000" d="M465.67953 317.45L465.67953 315.3875L461.9608 315.3875L461.9608 314.41876L465.88266 308.85626L466.74203 308.85626L466.74203 314.41876L467.8983 314.41876L467.8983 315.3875L466.74203 315.3875L466.74203 317.45L465.67953 317.45ZM465.67953 314.41876L465.67953 310.5594L462.99203 314.41876L465.67953 314.41876ZM470.92953 312.79376Q470.2733 312.54376 469.94516 312.10626Q469.63266 311.65314 469.63266 311.04376Q469.63266 310.10626 470.30453 309.46564Q470.99203 308.825 472.1014 308.825Q473.2264 308.825 473.9139 309.48126Q474.6014 310.1375 474.6014 311.075Q474.6014 311.66876 474.2889 312.10626Q473.9764 312.54376 473.3358 312.79376Q474.13266 313.04376 474.5389 313.6219Q474.94516 314.2 474.94516 314.9969Q474.94516 316.09064 474.1639 316.84064Q473.3983 317.59064 472.11703 317.59064Q470.8514 317.59064 470.07016 316.84064Q469.2889 316.09064 469.2889 314.96564Q469.2889 314.1219 469.7108 313.5594Q470.1483 312.9969 470.92953 312.79376ZM470.7108 310.9969Q470.7108 311.60626 471.1014 311.9969Q471.50766 312.3875 472.13266 312.3875Q472.74203 312.3875 473.13266 312.0125Q473.5233 311.6219 473.5233 311.0594Q473.5233 310.48126 473.11703 310.09064Q472.7108 309.6844 472.11703 309.6844Q471.50766 309.6844 471.1014 310.075Q470.7108 310.46564 470.7108 310.9969ZM470.38266 314.96564Q470.38266 315.41876 470.5858 315.84064Q470.80453 316.2625 471.2264 316.4969Q471.6483 316.73126 472.13266 316.73126Q472.88266 316.73126 473.36703 316.2469Q473.86703 315.7625 473.86703 315.0125Q473.86703 314.2469 473.36703 313.7469Q472.86703 313.2469 472.1014 313.2469Q471.3514 313.2469 470.86703 313.7469Q470.38266 314.23126 470.38266 314.96564ZM476.8983 317.45L476.8983 316.2469L478.1014 316.2469L478.1014 317.45L476.8983 317.45ZM479.30453 313.21564Q479.30453 311.6844 479.61703 310.7625Q479.92953 309.825 480.5389 309.325Q481.1639 308.825 482.1014 308.825Q482.7889 308.825 483.30453 309.10626Q483.8358 309.3875 484.17953 309.91876Q484.5233 310.4344 484.7108 311.1844Q484.8983 311.9344 484.8983 313.21564Q484.8983 314.73126 484.5858 315.65314Q484.2889 316.575 483.6639 317.09064Q483.05453 317.59064 482.1014 317.59064Q480.86703 317.59064 480.1483 316.7Q479.30453 315.6375 479.30453 313.21564ZM480.38266 313.21564Q480.38266 315.325 480.88266 316.02814Q481.38266 316.73126 482.1014 316.73126Q482.8358 316.73126 483.32016 316.02814Q483.82016 315.325 483.82016 313.21564Q483.82016 311.09064 483.32016 310.40314Q482.8358 309.7 482.0858 309.7Q481.36703 309.7 480.92953 310.3094Q480.38266 311.09064 480.38266 313.21564ZM486.30453 313.21564Q486.30453 311.6844 486.61703 310.7625Q486.92953 309.825 487.5389 309.325Q488.1639 308.825 489.1014 308.825Q489.7889 308.825 490.30453 309.10626Q490.8358 309.3875 491.17953 309.91876Q491.5233 310.4344 491.7108 311.1844Q491.8983 311.9344 491.8983 313.21564Q491.8983 314.73126 491.5858 315.65314Q491.2889 316.575 490.6639 317.09064Q490.05453 317.59064 489.1014 317.59064Q487.86703 317.59064 487.1483 316.7Q486.30453 315.6375 486.30453 313.21564ZM487.38266 313.21564Q487.38266 315.325 487.88266 316.02814Q488.38266 316.73126 489.1014 316.73126Q489.8358 316.73126 490.32016 316.02814Q490.82016 315.325 490.82016 313.21564Q490.82016 311.09064 490.32016 310.40314Q489.8358 309.7 489.0858 309.7Q488.36703 309.7 487.92953 310.3094Q487.38266 311.09064 487.38266 313.21564Z" fill-rule="nonzero"/><path fill="#000000" d="M375.5548 317.45L375.5548 315.3875L371.83606 315.3875L371.83606 314.41876L375.75793 308.85626L376.6173 308.85626L376.6173 314.41876L377.77356 314.41876L377.77356 315.3875L376.6173 315.3875L376.6173 317.45L375.5548 317.45ZM375.5548 314.41876L375.5548 310.5594L372.8673 314.41876L375.5548 314.41876ZM380.8048 312.79376Q380.14856 312.54376 379.82043 312.10626Q379.50793 311.65314 379.50793 311.04376Q379.50793 310.10626 380.1798 309.46564Q380.8673 308.825 381.97668 308.825Q383.10168 308.825 383.78918 309.48126Q384.47668 310.1375 384.47668 311.075Q384.47668 311.66876 384.16418 312.10626Q383.85168 312.54376 383.21106 312.79376Q384.00793 313.04376 384.41418 313.6219Q384.82043 314.2 384.82043 314.9969Q384.82043 316.09064 384.03918 316.84064Q383.27356 317.59064 381.9923 317.59064Q380.72668 317.59064 379.94543 316.84064Q379.16418 316.09064 379.16418 314.96564Q379.16418 314.1219 379.58606 313.5594Q380.02356 312.9969 380.8048 312.79376ZM380.58606 310.9969Q380.58606 311.60626 380.97668 311.9969Q381.38293 312.3875 382.00793 312.3875Q382.6173 312.3875 383.00793 312.0125Q383.39856 311.6219 383.39856 311.0594Q383.39856 310.48126 382.9923 310.09064Q382.58606 309.6844 381.9923 309.6844Q381.38293 309.6844 380.97668 310.075Q380.58606 310.46564 380.58606 310.9969ZM380.25793 314.96564Q380.25793 315.41876 380.46106 315.84064Q380.6798 316.2625 381.10168 316.4969Q381.52356 316.73126 382.00793 316.73126Q382.75793 316.73126 383.2423 316.2469Q383.7423 315.7625 383.7423 315.0125Q383.7423 314.2469 383.2423 313.7469Q382.7423 313.2469 381.97668 313.2469Q381.22668 313.2469 380.7423 313.7469Q380.25793 314.23126 380.25793 314.96564ZM386.77356 317.45L386.77356 316.2469L387.97668 316.2469L387.97668 317.45L386.77356 317.45ZM394.72668 316.4344L394.72668 317.45L389.03918 317.45Q389.03918 317.075 389.16418 316.71564Q389.38293 316.1375 389.85168 315.575Q390.33606 315.0125 391.2423 314.27814Q392.64856 313.1219 393.13293 312.45Q393.63293 311.77814 393.63293 311.1844Q393.63293 310.5594 393.1798 310.1375Q392.72668 309.7 392.00793 309.7Q391.2423 309.7 390.78918 310.15314Q390.33606 310.60626 390.32043 311.41876L389.2423 311.3094Q389.35168 310.09064 390.07043 309.46564Q390.8048 308.825 392.03918 308.825Q393.27356 308.825 393.9923 309.5125Q394.71106 310.2 394.71106 311.21564Q394.71106 311.73126 394.4923 312.23126Q394.28918 312.71564 393.78918 313.27814Q393.3048 313.825 392.1798 314.77814Q391.22668 315.575 390.94543 315.8719Q390.6798 316.15314 390.50793 316.4344L394.72668 316.4344ZM396.1798 315.2L397.28918 315.10626Q397.41418 315.91876 397.85168 316.325Q398.3048 316.73126 398.94543 316.73126Q399.69543 316.73126 400.22668 316.15314Q400.75793 315.575 400.75793 314.6375Q400.75793 313.73126 400.2423 313.21564Q399.7423 312.6844 398.91418 312.6844Q398.41418 312.6844 397.9923 312.91876Q397.58606 313.15314 397.35168 313.5125L396.3673 313.3875L397.19543 308.98126L401.47668 308.98126L401.47668 309.98126L398.03918 309.98126L397.58606 312.29376Q398.35168 311.7469 399.19543 311.7469Q400.32043 311.7469 401.08606 312.52814Q401.8673 313.3094 401.8673 314.54376Q401.8673 315.7 401.19543 316.5594Q400.3673 317.59064 398.94543 317.59064Q397.77356 317.59064 397.02356 316.9344Q396.28918 316.27814 396.1798 315.2Z" fill-rule="nonzero"/><path fill="#000000" d="M285.4301 317.45L285.4301 315.3875L281.71136 315.3875L281.71136 314.41876L285.63324 308.85626L286.4926 308.85626L286.4926 314.41876L287.64886 314.41876L287.64886 315.3875L286.4926 315.3875L286.4926 317.45L285.4301 317.45ZM285.4301 314.41876L285.4301 310.5594L282.7426 314.41876L285.4301 314.41876ZM290.6801 312.79376Q290.02386 312.54376 289.69574 312.10626Q289.38324 311.65314 289.38324 311.04376Q289.38324 310.10626 290.0551 309.46564Q290.7426 308.825 291.852 308.825Q292.977 308.825 293.6645 309.48126Q294.352 310.1375 294.352 311.075Q294.352 311.66876 294.0395 312.10626Q293.727 312.54376 293.08636 312.79376Q293.88324 313.04376 294.2895 313.6219Q294.69574 314.2 294.69574 314.9969Q294.69574 316.09064 293.9145 316.84064Q293.14886 317.59064 291.8676 317.59064Q290.602 317.59064 289.82074 316.84064Q289.0395 316.09064 289.0395 314.96564Q289.0395 314.1219 289.46136 313.5594Q289.89886 312.9969 290.6801 312.79376ZM290.46136 310.9969Q290.46136 311.60626 290.852 311.9969Q291.25824 312.3875 291.88324 312.3875Q292.4926 312.3875 292.88324 312.0125Q293.27386 311.6219 293.27386 311.0594Q293.27386 310.48126 292.8676 310.09064Q292.46136 309.6844 291.8676 309.6844Q291.25824 309.6844 290.852 310.075Q290.46136 310.46564 290.46136 310.9969ZM290.13324 314.96564Q290.13324 315.41876 290.33636 315.84064Q290.5551 316.2625 290.977 316.4969Q291.39886 316.73126 291.88324 316.73126Q292.63324 316.73126 293.1176 316.2469Q293.6176 315.7625 293.6176 315.0125Q293.6176 314.2469 293.1176 313.7469Q292.6176 313.2469 291.852 313.2469Q291.102 313.2469 290.6176 313.7469Q290.13324 314.23126 290.13324 314.96564ZM296.64886 317.45L296.64886 316.2469L297.852 316.2469L297.852 317.45L296.64886 317.45ZM299.0551 315.2L300.1645 315.10626Q300.2895 315.91876 300.727 316.325Q301.1801 316.73126 301.82074 316.73126Q302.57074 316.73126 303.102 316.15314Q303.63324 315.575 303.63324 314.6375Q303.63324 313.73126 303.1176 313.21564Q302.6176 312.6844 301.7895 312.6844Q301.2895 312.6844 300.8676 312.91876Q300.46136 313.15314 300.227 313.5125L299.2426 313.3875L300.07074 308.98126L304.352 308.98126L304.352 309.98126L300.9145 309.98126L300.46136 312.29376Q301.227 311.7469 302.07074 311.7469Q303.19574 311.7469 303.96136 312.52814Q304.7426 313.3094 304.7426 314.54376Q304.7426 315.7 304.07074 316.5594Q303.2426 317.59064 301.82074 317.59064Q300.64886 317.59064 299.89886 316.9344Q299.1645 316.27814 299.0551 315.2ZM306.0551 313.21564Q306.0551 311.6844 306.3676 310.7625Q306.6801 309.825 307.2895 309.325Q307.9145 308.825 308.852 308.825Q309.5395 308.825 310.0551 309.10626Q310.58636 309.3875 310.9301 309.91876Q311.27386 310.4344 311.46136 311.1844Q311.64886 311.9344 311.64886 313.21564Q311.64886 314.73126 311.33636 315.65314Q311.0395 316.575 310.4145 317.09064Q309.8051 317.59064 308.852 317.59064Q307.6176 317.59064 306.89886 316.7Q306.0551 315.6375 306.0551 313.21564ZM307.13324 313.21564Q307.13324 315.325 307.63324 316.02814Q308.13324 316.73126 308.852 316.73126Q309.58636 316.73126 310.07074 316.02814Q310.57074 315.325 310.57074 313.21564Q310.57074 311.09064 310.07074 310.40314Q309.58636 309.7 308.83636 309.7Q308.1176 309.7 307.6801 310.3094Q307.13324 311.09064 307.13324 313.21564Z" fill-rule="nonzero"/><path fill="#000000" d="M195.30539 317.45L195.30539 315.3875L191.58664 315.3875L191.58664 314.41876L195.50851 308.85626L196.36789 308.85626L196.36789 314.41876L197.52414 314.41876L197.52414 315.3875L196.36789 315.3875L196.36789 317.45L195.30539 317.45ZM195.30539 314.41876L195.30539 310.5594L192.61789 314.41876L195.30539 314.41876ZM200.55539 312.79376Q199.89914 312.54376 199.57101 312.10626Q199.25851 311.65314 199.25851 311.04376Q199.25851 310.10626 199.93039 309.46564Q200.61789 308.825 201.72726 308.825Q202.85226 308.825 203.53976 309.48126Q204.22726 310.1375 204.22726 311.075Q204.22726 311.66876 203.91476 312.10626Q203.60226 312.54376 202.96164 312.79376Q203.75851 313.04376 204.16476 313.6219Q204.57101 314.2 204.57101 314.9969Q204.57101 316.09064 203.78976 316.84064Q203.02414 317.59064 201.74289 317.59064Q200.47726 317.59064 199.69601 316.84064Q198.91476 316.09064 198.91476 314.96564Q198.91476 314.1219 199.33664 313.5594Q199.77414 312.9969 200.55539 312.79376ZM200.33664 310.9969Q200.33664 311.60626 200.72726 311.9969Q201.13351 312.3875 201.75851 312.3875Q202.36789 312.3875 202.75851 312.0125Q203.14914 311.6219 203.14914 311.0594Q203.14914 310.48126 202.74289 310.09064Q202.33664 309.6844 201.74289 309.6844Q201.13351 309.6844 200.72726 310.075Q200.33664 310.46564 200.33664 310.9969ZM200.00851 314.96564Q200.00851 315.41876 200.21164 315.84064Q200.43039 316.2625 200.85226 316.4969Q201.27414 316.73126 201.75851 316.73126Q202.50851 316.73126 202.99289 316.2469Q203.49289 315.7625 203.49289 315.0125Q203.49289 314.2469 202.99289 313.7469Q202.49289 313.2469 201.72726 313.2469Q200.97726 313.2469 200.49289 313.7469Q200.00851 314.23126 200.00851 314.96564ZM206.52414 317.45L206.52414 316.2469L207.72726 316.2469L207.72726 317.45L206.52414 317.45ZM208.99289 309.98126L208.99289 308.96564L214.55539 308.96564L214.55539 309.79376Q213.74289 310.66876 212.93039 312.1219Q212.13351 313.5594 211.69601 315.09064Q211.36789 316.16876 211.28976 317.45L210.19601 317.45Q210.21164 316.4344 210.58664 314.9969Q210.97726 313.5594 211.68039 312.23126Q212.39914 310.90314 213.21164 309.98126L208.99289 309.98126ZM215.93039 315.2L217.03976 315.10626Q217.16476 315.91876 217.60226 316.325Q218.05539 316.73126 218.69601 316.73126Q219.44601 316.73126 219.97726 316.15314Q220.50851 315.575 220.50851 314.6375Q220.50851 313.73126 219.99289 313.21564Q219.49289 312.6844 218.66476 312.6844Q218.16476 312.6844 217.74289 312.91876Q217.33664 313.15314 217.10226 313.5125L216.11789 313.3875L216.94601 308.98126L221.22726 308.98126L221.22726 309.98126L217.78976 309.98126L217.33664 312.29376Q218.10226 311.7469 218.94601 311.7469Q220.07101 311.7469 220.83664 312.52814Q221.61789 313.3094 221.61789 314.54376Q221.61789 315.7 220.94601 316.5594Q220.11789 317.59064 218.69601 317.59064Q217.52414 317.59064 216.77414 316.9344Q216.03976 316.27814 215.93039 315.2Z" fill-rule="nonzero"/><path fill="#000000" d="M105.18067 317.45L105.18067 315.3875L101.46192 315.3875L101.46192 314.41876L105.3838 308.85626L106.24317 308.85626L106.24317 314.41876L107.39942 314.41876L107.39942 315.3875L106.24317 315.3875L106.24317 317.45L105.18067 317.45ZM105.18067 314.41876L105.18067 310.5594L102.49317 314.41876L105.18067 314.41876ZM108.96192 315.46564L109.97755 315.3719Q110.10255 316.09064 110.46192 316.41876Q110.83692 316.73126 111.39942 316.73126Q111.8838 316.73126 112.24317 316.5125Q112.61817 316.27814 112.85255 315.91876Q113.08692 315.54376 113.24317 314.91876Q113.39942 314.27814 113.39942 313.6219Q113.39942 313.54376 113.39942 313.40314Q113.08692 313.90314 112.54005 314.23126Q111.99317 314.54376 111.35255 314.54376Q110.27442 314.54376 109.54005 313.77814Q108.80567 312.9969 108.80567 311.73126Q108.80567 310.41876 109.5713 309.6219Q110.35255 308.825 111.5088 308.825Q112.33692 308.825 113.02442 309.27814Q113.72755 309.73126 114.08692 310.575Q114.4463 311.40314 114.4463 312.98126Q114.4463 314.6219 114.08692 315.60626Q113.74317 316.575 113.02442 317.09064Q112.3213 317.59064 111.3838 317.59064Q110.36817 317.59064 109.72755 317.04376Q109.08692 316.48126 108.96192 315.46564ZM113.27442 311.66876Q113.27442 310.7625 112.79005 310.23126Q112.3213 309.7 111.6338 309.7Q110.93067 309.7 110.39942 310.27814Q109.8838 310.84064 109.8838 311.7625Q109.8838 312.575 110.3838 313.09064Q110.8838 313.60626 111.60255 313.60626Q112.33692 313.60626 112.80567 313.09064Q113.27442 312.575 113.27442 311.66876ZM116.39942 317.45L116.39942 316.2469L117.60255 316.2469L117.60255 317.45L116.39942 317.45ZM118.80567 313.21564Q118.80567 311.6844 119.11817 310.7625Q119.43067 309.825 120.04005 309.325Q120.66505 308.825 121.60255 308.825Q122.29005 308.825 122.80567 309.10626Q123.33692 309.3875 123.68067 309.91876Q124.02442 310.4344 124.21192 311.1844Q124.39942 311.9344 124.39942 313.21564Q124.39942 314.73126 124.08692 315.65314Q123.79005 316.575 123.16505 317.09064Q122.55567 317.59064 121.60255 317.59064Q120.36817 317.59064 119.64942 316.7Q118.80567 315.6375 118.80567 313.21564ZM119.8838 313.21564Q119.8838 315.325 120.3838 316.02814Q120.8838 316.73126 121.60255 316.73126Q122.33692 316.73126 122.8213 316.02814Q123.3213 315.325 123.3213 313.21564Q123.3213 311.09064 122.8213 310.40314Q122.33692 309.7 121.58692 309.7Q120.86817 309.7 120.43067 310.3094Q119.8838 311.09064 119.8838 313.21564ZM125.80567 313.21564Q125.80567 311.6844 126.11817 310.7625Q126.43067 309.825 127.04005 309.325Q127.66505 308.825 128.60254 308.825Q129.29004 308.825 129.80566 309.10626Q130.33691 309.3875 130.68066 309.91876Q131.02441 310.4344 131.21191 311.1844Q131.39941 311.9344 131.39941 313.21564Q131.39941 314.73126 131.08691 315.65314Q130.79004 316.575 130.16504 317.09064Q129.55566 317.59064 128.60254 317.59064Q127.36817 317.59064 126.64942 316.7Q125.80567 315.6375 125.80567 313.21564ZM126.8838 313.21564Q126.8838 315.325 127.3838 316.02814Q127.8838 316.73126 128.60254 316.73126Q129.33691 316.73126 129.82129 316.02814Q130.32129 315.325 130.32129 313.21564Q130.32129 311.09064 129.82129 310.40314Q129.33691 309.7 128.58691 309.7Q127.86817 309.7 127.43067 310.3094Q126.8838 311.09064 126.8838 313.21564Z" fill-rule="nonzero"/><path fill="#4285f4" d="M200.5 61.916668C200.5 65.23038 197.8137 67.916664 194.5 67.916664C191.1863 67.916664 188.5 65.23038 188.5 61.916668C188.5 58.60296 191.1863 55.916668 194.5 55.916668C197.8137 55.916668 200.5 58.60296 200.5 61.916668Z" fill-rule="nonzero"/><path stroke="#4285f4" stroke-width="4.0" stroke-linecap="butt" stroke-opacity="0.4" d="M216.5 61.916668L228.5 61.916668" fill-rule="nonzero"/><path fill="#1a1a1a" d="M239.60938 65.916664L239.60938 58.33854L236.78125 58.33854L236.78125 57.322914L243.59375 57.322914L243.59375 58.33854L240.75 58.33854L240.75 65.916664L239.60938 65.916664ZM244.28125 65.916664L244.28125 59.697914L245.23438 59.697914L245.23438 60.635414Q245.59375 59.979164 245.89062 59.77604Q246.20312 59.55729 246.57812 59.55729Q247.10938 59.55729 247.65625 59.885414L247.29688 60.86979Q246.90625 60.635414 246.53125 60.635414Q246.17188 60.635414 245.89062 60.854164Q245.625 61.05729 245.51562 61.43229Q245.32812 61.99479 245.32812 62.65104L245.32812 65.916664L244.28125 65.916664ZM252.54688 63.916664L253.64062 64.041664Q253.39062 64.99479 252.6875 65.52604Q251.98438 66.05729 250.90625 66.05729Q249.54688 66.05729 248.73438 65.21354Q247.9375 64.36979 247.9375 62.854164Q247.9375 61.291664 248.75 60.43229Q249.5625 59.55729 250.84375 59.55729Q252.09375 59.55729 252.875 60.40104Q253.67188 61.24479 253.67188 62.791664Q253.67188 62.885414 253.67188 63.072914L249.03125 63.072914Q249.09375 64.104164 249.60938 64.65104Q250.125 65.18229 250.90625 65.18229Q251.48438 65.18229 251.89062 64.885414Q252.3125 64.572914 252.54688 63.916664ZM249.09375 62.21354L252.5625 62.21354Q252.5 61.416664 252.17188 61.02604Q251.65625 60.416664 250.85938 60.416664Q250.125 60.416664 249.625 60.90104Q249.14062 61.385414 249.09375 62.21354ZM255.29688 65.916664L255.29688 59.697914L256.23438 59.697914L256.23438 60.572914Q256.92188 59.55729 258.21875 59.55729Q258.78125 59.55729 259.25 59.760414Q259.73438 59.96354 259.96875 60.291664Q260.20312 60.61979 260.29688 61.05729Q260.34375 61.354164 260.34375 62.08854L260.34375 65.916664L259.29688 65.916664L259.29688 62.135414Q259.29688 61.479164 259.17188 61.166664Q259.04688 60.854164 258.73438 60.666664Q258.42188 60.46354 258.0 60.46354Q257.32812 60.46354 256.82812 60.90104Q256.34375 61.322914 256.34375 62.510414L256.34375 65.916664L255.29688 65.916664ZM266.32812 65.916664L266.32812 65.135414Q265.73438 66.05729 264.59375 66.05729Q263.84375 66.05729 263.21875 65.65104Q262.59375 65.229164 262.25 64.49479Q261.90625 63.760414 261.90625 62.80729Q261.90625 61.885414 262.21875 61.11979Q262.53125 60.354164 263.15625 59.96354Q263.78125 59.55729 264.54688 59.55729Q265.10938 59.55729 265.54688 59.791664Q265.98438 60.02604 266.26562 60.40104L266.26562 57.322914L267.3125 57.322914L267.3125 65.916664L266.32812 65.916664ZM263.0 62.80729Q263.0 64.010414 263.5 64.604164Q264.0 65.18229 264.6875 65.18229Q265.375 65.18229 265.85938 64.61979Q266.34375 64.05729 266.34375 62.90104Q266.34375 61.61979 265.84375 61.02604Q265.35938 60.43229 264.64062 60.43229Q263.9375 60.43229 263.46875 61.010414Q263.0 61.572914 263.0 62.80729ZM269.26562 65.916664L269.26562 57.322914L270.32812 57.322914L270.32812 65.916664L269.26562 65.916664ZM272.29688 58.541664L272.29688 57.322914L273.35938 57.322914L273.35938 58.541664L272.29688 58.541664ZM272.29688 65.916664L272.29688 59.697914L273.35938 59.697914L273.35938 65.916664L272.29688 65.916664ZM275.29688 65.916664L275.29688 59.697914L276.23438 59.697914L276.23438 60.572914Q276.92188 59.55729 278.21875 59.55729Q278.78125 59.55729 279.25 59.760414Q279.73438 59.96354 279.96875 60.291664Q280.20312 60.61979 280.29688 61.05729Q280.34375 61.354164 280.34375 62.08854L280.34375 65.916664L279.29688 65.916664L279.29688 62.135414Q279.29688 61.479164 279.17188 61.166664Q279.04688 60.854164 278.73438 60.666664Q278.42188 60.46354 278.0 60.46354Q277.32812 60.46354 276.82812 60.90104Q276.34375 61.322914 276.34375 62.510414L276.34375 65.916664L275.29688 65.916664ZM286.54688 63.916664L287.64062 64.041664Q287.39062 64.99479 286.6875 65.52604Q285.98438 66.05729 284.90625 66.05729Q283.54688 66.05729 282.73438 65.21354Q281.9375 64.36979 281.9375 62.854164Q281.9375 61.291664 282.75 60.43229Q283.5625 59.55729 284.84375 59.55729Q286.09375 59.55729 286.875 60.40104Q287.67188 61.24479 287.67188 62.791664Q287.67188 62.885414 287.67188 63.072914L283.03125 63.072914Q283.09375 64.104164 283.60938 64.65104Q284.125 65.18229 284.90625 65.18229Q285.48438 65.18229 285.89062 64.885414Q286.3125 64.572914 286.54688 63.916664ZM283.09375 62.21354L286.5625 62.21354Q286.5 61.416664 286.17188 61.02604Q285.65625 60.416664 284.85938 60.416664Q284.125 60.416664 283.625 60.90104Q283.14062 61.385414 283.09375 62.21354ZM292.54688 65.916664L292.54688 60.510414L291.60938 60.510414L291.60938 59.697914L292.54688 59.697914L292.54688 59.02604Q292.54688 58.40104 292.65625 58.104164Q292.8125 57.68229 293.1875 57.43229Q293.57812 57.18229 294.26562 57.18229Q294.71875 57.18229 295.25 57.291664L295.09375 58.197914Q294.76562 58.15104 294.46875 58.15104Q293.98438 58.15104 293.78125 58.354164Q293.59375 58.55729 293.59375 59.11979L293.59375 59.697914L294.8125 59.697914L294.8125 60.510414L293.59375 60.510414L293.59375 65.916664L292.54688 65.916664ZM294.90625 62.80729Q294.90625 61.072914 295.85938 60.24479Q296.65625 59.55729 297.8125 59.55729Q299.09375 59.55729 299.90625 60.40104Q300.73438 61.229164 300.73438 62.71354Q300.73438 63.916664 300.375 64.604164Q300.01562 65.291664 299.3125 65.68229Q298.625 66.05729 297.8125 66.05729Q296.51562 66.05729 295.70312 65.229164Q294.90625 64.385414 294.90625 62.80729ZM295.98438 62.80729Q295.98438 63.99479 296.5 64.58854Q297.03125 65.18229 297.8125 65.18229Q298.60938 65.18229 299.125 64.58854Q299.64062 63.99479 299.64062 62.77604Q299.64062 61.61979 299.10938 61.02604Q298.59375 60.43229 297.8125 60.43229Q297.03125 60.43229 296.5 61.02604Q295.98438 61.604164 295.98438 62.80729ZM302.28125 65.916664L302.28125 59.697914L303.23438 59.697914L303.23438 60.635414Q303.59375 59.979164 303.89062 59.77604Q304.20312 59.55729 304.57812 59.55729Q305.10938 59.55729 305.65625 59.885414L305.29688 60.86979Q304.90625 60.635414 304.53125 60.635414Q304.17188 60.635414 303.89062 60.854164Q303.625 61.05729 303.51562 61.43229Q303.32812 61.99479 303.32812 62.65104L303.32812 65.916664L302.28125 65.916664ZM308.875 64.05729L309.90625 63.90104Q310.0 64.52604 310.39062 64.854164Q310.79688 65.18229 311.53125 65.18229Q312.25 65.18229 312.59375 64.90104Q312.95312 64.604164 312.95312 64.197914Q312.95312 63.83854 312.64062 63.635414Q312.42188 63.49479 311.5625 63.27604Q310.40625 62.979164 309.95312 62.77604Q309.51562 62.55729 309.28125 62.18229Q309.04688 61.80729 309.04688 61.33854Q309.04688 60.93229 309.23438 60.572914Q309.42188 60.21354 309.75 59.979164Q310.0 59.80729 310.42188 59.68229Q310.84375 59.55729 311.34375 59.55729Q312.0625 59.55729 312.60938 59.77604Q313.17188 59.979164 313.4375 60.33854Q313.70312 60.697914 313.79688 61.291664L312.76562 61.43229Q312.70312 60.96354 312.35938 60.697914Q312.03125 60.416664 311.40625 60.416664Q310.6875 60.416664 310.375 60.666664Q310.0625 60.90104 310.0625 61.229164Q310.0625 61.43229 310.1875 61.58854Q310.32812 61.760414 310.59375 61.86979Q310.75 61.93229 311.53125 62.135414Q312.65625 62.447914 313.09375 62.635414Q313.53125 62.822914 313.78125 63.18229Q314.03125 63.541664 314.03125 64.08854Q314.03125 64.61979 313.71875 65.08854Q313.42188 65.541664 312.84375 65.80729Q312.26562 66.05729 311.53125 66.05729Q310.3125 66.05729 309.67188 65.55729Q309.04688 65.041664 308.875 64.05729ZM319.54688 63.916664L320.64062 64.041664Q320.39062 64.99479 319.6875 65.52604Q318.98438 66.05729 317.90625 66.05729Q316.54688 66.05729 315.73438 65.21354Q314.9375 64.36979 314.9375 62.854164Q314.9375 61.291664 315.75 60.43229Q316.5625 59.55729 317.84375 59.55729Q319.09375 59.55729 319.875 60.40104Q320.67188 61.24479 320.67188 62.791664Q320.67188 62.885414 320.67188 63.072914L316.03125 63.072914Q316.09375 64.104164 316.60938 64.65104Q317.125 65.18229 317.90625 65.18229Q318.48438 65.18229 318.89062 64.885414Q319.3125 64.572914 319.54688 63.916664ZM316.09375 62.21354L319.5625 62.21354Q319.5 61.416664 319.17188 61.02604Q318.65625 60.416664 317.85938 60.416664Q317.125 60.416664 316.625 60.90104Q316.14062 61.385414 316.09375 62.21354ZM322.28125 65.916664L322.28125 59.697914L323.23438 59.697914L323.23438 60.635414Q323.59375 59.979164 323.89062 59.77604Q324.20312 59.55729 324.57812 59.55729Q325.10938 59.55729 325.65625 59.885414L325.29688 60.86979Q324.90625 60.635414 324.53125 60.635414Q324.17188 60.635414 323.89062 60.854164Q323.625 61.05729 323.51562 61.43229Q323.32812 61.99479 323.32812 62.65104L323.32812 65.916664L322.28125 65.916664ZM326.29688 58.541664L326.29688 57.322914L327.35938 57.322914L327.35938 58.541664L326.29688 58.541664ZM326.29688 65.916664L326.29688 59.697914L327.35938 59.697914L327.35938 65.916664L326.29688 65.916664ZM333.54688 63.916664L334.64062 64.041664Q334.39062 64.99479 333.6875 65.52604Q332.98438 66.05729 331.90625 66.05729Q330.54688 66.05729 329.73438 65.21354Q328.9375 64.36979 328.9375 62.854164Q328.9375 61.291664 329.75 60.43229Q330.5625 59.55729 331.84375 59.55729Q333.09375 59.55729 333.875 60.40104Q334.67188 61.24479 334.67188 62.791664Q334.67188 62.885414 334.67188 63.072914L330.03125 63.072914Q330.09375 64.104164 330.60938 64.65104Q331.125 65.18229 331.90625 65.18229Q332.48438 65.18229 332.89062 64.885414Q333.3125 64.572914 333.54688 63.916664ZM330.09375 62.21354L333.5625 62.21354Q333.5 61.416664 333.17188 61.02604Q332.65625 60.416664 331.85938 60.416664Q331.125 60.416664 330.625 60.90104Q330.14062 61.385414 330.09375 62.21354ZM335.875 64.05729L336.90625 63.90104Q337.0 64.52604 337.39062 64.854164Q337.79688 65.18229 338.53125 65.18229Q339.25 65.18229 339.59375 64.90104Q339.95312 64.604164 339.95312 64.197914Q339.95312 63.83854 339.64062 63.635414Q339.42188 63.49479 338.5625 63.27604Q337.40625 62.979164 336.95312 62.77604Q336.51562 62.55729 336.28125 62.18229Q336.04688 61.80729 336.04688 61.33854Q336.04688 60.93229 336.23438 60.572914Q336.42188 60.21354 336.75 59.979164Q337.0 59.80729 337.42188 59.68229Q337.84375 59.55729 338.34375 59.55729Q339.0625 59.55729 339.60938 59.77604Q340.17188 59.979164 340.4375 60.33854Q340.70312 60.697914 340.79688 61.291664L339.76562 61.43229Q339.70312 60.96354 339.35938 60.697914Q339.03125 60.416664 338.40625 60.416664Q337.6875 60.416664 337.375 60.666664Q337.0625 60.90104 337.0625 61.229164Q337.0625 61.43229 337.1875 61.58854Q337.32812 61.760414 337.59375 61.86979Q337.75 61.93229 338.53125 62.135414Q339.65625 62.447914 340.09375 62.635414Q340.53125 62.822914 340.78125 63.18229Q341.03125 63.541664 341.03125 64.08854Q341.03125 64.61979 340.71875 65.08854Q340.42188 65.541664 339.84375 65.80729Q339.26562 66.05729 338.53125 66.05729Q337.3125 66.05729 336.67188 65.55729Q336.04688 65.041664 335.875 64.05729ZM348.96875 65.916664L347.92188 65.916664L347.92188 59.197914Q347.53125 59.55729 346.90625 59.93229Q346.29688 60.291664 345.8125 60.46354L345.8125 59.447914Q346.6875 59.02604 347.34375 58.447914Q348.01562 57.854164 348.29688 57.291664L348.96875 57.291664L348.96875 65.916664ZM355.4375 65.916664L355.4375 57.322914L359.25 57.322914Q360.40625 57.322914 361.0 57.55729Q361.59375 57.791664 361.95312 58.385414Q362.3125 58.96354 362.3125 59.666664Q362.3125 60.58854 361.71875 61.21354Q361.125 61.83854 359.89062 62.010414Q360.34375 62.229164 360.57812 62.43229Q361.07812 62.885414 361.51562 63.572914L363.01562 65.916664L361.57812 65.916664L360.45312 64.135414Q359.95312 63.354164 359.625 62.947914Q359.3125 62.541664 359.04688 62.385414Q358.79688 62.21354 358.53125 62.135414Q358.34375 62.104164 357.90625 62.104164L356.57812 62.104164L356.57812 65.916664L355.4375 65.916664ZM356.57812 61.11979L359.03125 61.11979Q359.79688 61.11979 360.23438 60.96354Q360.6875 60.791664 360.90625 60.447914Q361.14062 60.08854 361.14062 59.666664Q361.14062 59.05729 360.6875 58.666664Q360.25 58.27604 359.29688 58.27604L356.57812 58.27604L356.57812 61.11979ZM363.64062 61.61979Q363.6875 61.291664 363.92188 60.947914Q364.29688 60.447914 365.14062 59.83854Q365.98438 59.229164 366.14062 59.041664Q366.35938 58.80729 366.35938 58.55729Q366.35938 58.27604 366.14062 58.104164Q365.9375 57.916664 365.54688 57.916664Q365.15625 57.916664 364.96875 58.05729Q364.78125 58.18229 364.65625 58.572914L363.76562 58.479164Q363.9375 57.83854 364.35938 57.52604Q364.78125 57.21354 365.5625 57.21354Q366.45312 57.21354 366.85938 57.572914Q367.28125 57.916664 367.28125 58.416664Q367.28125 58.90104 366.92188 59.33854Q366.67188 59.666664 365.73438 60.33854Q365.23438 60.697914 365.03125 60.916664L367.29688 60.916664L367.29688 61.61979L363.64062 61.61979ZM376.84375 60.86979L371.17188 60.86979L371.17188 59.885414L376.84375 59.885414L376.84375 60.86979ZM376.84375 63.479164L371.17188 63.479164L371.17188 62.49479L376.84375 62.49479L376.84375 63.479164ZM381.0 61.68229Q381.0 60.15104 381.3125 59.229164Q381.625 58.291664 382.23438 57.791664Q382.85938 57.291664 383.79688 57.291664Q384.48438 57.291664 385.0 57.572914Q385.53125 57.854164 385.875 58.385414Q386.21875 58.90104 386.40625 59.65104Q386.59375 60.40104 386.59375 61.68229Q386.59375 63.197914 386.28125 64.11979Q385.98438 65.041664 385.35938 65.55729Q384.75 66.05729 383.79688 66.05729Q382.5625 66.05729 381.84375 65.166664Q381.0 64.104164 381.0 61.68229ZM382.07812 61.68229Q382.07812 63.791664 382.57812 64.49479Q383.07812 65.197914 383.79688 65.197914Q384.53125 65.197914 385.01562 64.49479Q385.51562 63.791664 385.51562 61.68229Q385.51562 59.55729 385.01562 58.86979Q384.53125 58.166664 383.78125 58.166664Q383.0625 58.166664 382.625 58.77604Q382.07812 59.55729 382.07812 61.68229ZM388.59375 65.916664L388.59375 64.71354L389.79688 64.71354L389.79688 65.916664L388.59375 65.916664ZM394.96875 65.916664L393.92188 65.916664L393.92188 59.197914Q393.53125 59.55729 392.90625 59.93229Q392.29688 60.291664 391.8125 60.46354L391.8125 59.447914Q392.6875 59.02604 393.34375 58.447914Q394.01562 57.854164 394.29688 57.291664L394.96875 57.291664L394.96875 65.916664ZM398.0 63.65104L399.0625 63.510414Q399.23438 64.40104 399.67188 64.80729Q400.10938 65.197914 400.73438 65.197914Q401.48438 65.197914 402.0 64.68229Q402.51562 64.166664 402.51562 63.40104Q402.51562 62.68229 402.03125 62.21354Q401.5625 61.729164 400.82812 61.729164Q400.53125 61.729164 400.07812 61.854164L400.20312 60.916664Q400.3125 60.93229 400.375 60.93229Q401.04688 60.93229 401.57812 60.58854Q402.125 60.229164 402.125 59.49479Q402.125 58.916664 401.73438 58.541664Q401.34375 58.15104 400.71875 58.15104Q400.10938 58.15104 399.6875 58.541664Q399.28125 58.93229 399.17188 59.697914L398.10938 59.510414Q398.29688 58.46354 398.98438 57.885414Q399.67188 57.291664 400.6875 57.291664Q401.39062 57.291664 401.98438 57.604164Q402.57812 57.90104 402.89062 58.416664Q403.20312 58.93229 403.20312 59.52604Q403.20312 60.072914 402.90625 60.541664Q402.60938 60.99479 402.03125 61.260414Q402.78125 61.43229 403.20312 61.99479Q403.625 62.541664 403.625 63.385414Q403.625 64.510414 402.79688 65.291664Q401.98438 66.072914 400.73438 66.072914Q399.60938 66.072914 398.85938 65.40104Q398.10938 64.71354 398.0 63.65104ZM405.0 63.65104L406.0625 63.510414Q406.23438 64.40104 406.67188 64.80729Q407.10938 65.197914 407.73438 65.197914Q408.48438 65.197914 409.0 64.68229Q409.51562 64.166664 409.51562 63.40104Q409.51562 62.68229 409.03125 62.21354Q408.5625 61.729164 407.82812 61.729164Q407.53125 61.729164 407.07812 61.854164L407.20312 60.916664Q407.3125 60.93229 407.375 60.93229Q408.04688 60.93229 408.57812 60.58854Q409.125 60.229164 409.125 59.49479Q409.125 58.916664 408.73438 58.541664Q408.34375 58.15104 407.71875 58.15104Q407.10938 58.15104 406.6875 58.541664Q406.28125 58.93229 406.17188 59.697914L405.10938 59.510414Q405.29688 58.46354 405.98438 57.885414Q406.67188 57.291664 407.6875 57.291664Q408.39062 57.291664 408.98438 57.604164Q409.57812 57.90104 409.89062 58.416664Q410.20312 58.93229 410.20312 59.52604Q410.20312 60.072914 409.90625 60.541664Q409.60938 60.99479 409.03125 61.260414Q409.78125 61.43229 410.20312 61.99479Q410.625 62.541664 410.625 63.385414Q410.625 64.510414 409.79688 65.291664Q408.98438 66.072914 407.73438 66.072914Q406.60938 66.072914 405.85938 65.40104Q405.10938 64.71354 405.0 63.65104Z" fill-rule="nonzero"/><path fill="#757575" d="M25.01875 37.55L25.01875 34.128124L18.8 34.128124L18.8 32.503124L25.33125 23.2375L26.76875 23.2375L26.76875 32.503124L28.70625 32.503124L28.70625 34.128124L26.76875 34.128124L26.76875 37.55L25.01875 37.55ZM25.01875 32.503124L25.01875 26.05L20.534374 32.503124L25.01875 32.503124ZM30.378124 30.4875Q30.378124 27.95625 30.89375 26.409374Q31.425 24.846874 32.45625 24.01875Q33.4875 23.175 35.05 23.175Q36.20625 23.175 37.065624 23.64375Q37.940624 24.096874 38.503124 24.971874Q39.065624 25.846874 39.39375 27.1125Q39.721874 28.3625 39.721874 30.4875Q39.721874 33.003124 39.190624 34.55Q38.675 36.096874 37.64375 36.95625Q36.628124 37.8 35.05 37.8Q32.971874 37.8 31.8 36.315624Q30.378124 34.51875 30.378124 30.4875ZM32.190624 30.4875Q32.190624 34.01875 33.003124 35.190624Q33.83125 36.346874 35.05 36.346874Q36.253124 36.346874 37.08125 35.175Q37.909374 34.003124 37.909374 30.4875Q37.909374 26.95625 37.08125 25.8Q36.253124 24.628124 35.034374 24.628124Q33.815624 24.628124 33.096874 25.659374Q32.190624 26.95625 32.190624 30.4875ZM41.378124 30.4875Q41.378124 27.95625 41.89375 26.409374Q42.425 24.846874 43.45625 24.01875Q44.4875 23.175 46.05 23.175Q47.20625 23.175 48.065624 23.64375Q48.940624 24.096874 49.503124 24.971874Q50.065624 25.846874 50.39375 27.1125Q50.721874 28.3625 50.721874 30.4875Q50.721874 33.003124 50.190624 34.55Q49.675 36.096874 48.64375 36.95625Q47.628124 37.8 46.05 37.8Q43.971874 37.8 42.8 36.315624Q41.378124 34.51875 41.378124 30.4875ZM43.190624 30.4875Q43.190624 34.01875 44.003124 35.190624Q44.83125 36.346874 46.05 36.346874Q47.253124 36.346874 48.08125 35.175Q48.909374 34.003124 48.909374 30.4875Q48.909374 26.95625 48.08125 25.8Q47.253124 24.628124 46.034374 24.628124Q44.815624 24.628124 44.096874 25.659374Q43.190624 26.95625 43.190624 30.4875ZM53.034374 37.55L53.034374 23.2375L55.89375 23.2375L59.26875 33.3625Q59.7375 34.784374 59.95625 35.4875Q60.20625 34.70625 60.721874 33.190624L64.14375 23.2375L66.69063 23.2375L66.69063 37.55L64.87813 37.55L64.87813 25.565624L60.70625 37.55L59.003124 37.55L54.8625 25.3625L54.8625 37.55L53.034374 37.55ZM76.15938 37.55L76.15938 23.2375L78.05 23.2375L78.05 29.1125L85.4875 29.1125L85.4875 23.2375L87.37813 23.2375L87.37813 37.55L85.4875 37.55L85.4875 30.8L78.05 30.8L78.05 37.55L76.15938 37.55ZM96.65938 37.55L96.65938 36.01875Q95.45625 37.784374 93.37813 37.784374Q92.45625 37.784374 91.65938 37.440624Q90.8625 37.08125 90.47188 36.55Q90.09688 36.01875 89.94063 35.2375Q89.83125 34.721874 89.83125 33.596874L89.83125 27.175L91.58125 27.175L91.58125 32.925Q91.58125 34.3 91.69063 34.784374Q91.8625 35.471874 92.39375 35.878124Q92.94063 36.26875 93.72188 36.26875Q94.51875 36.26875 95.20625 35.8625Q95.90938 35.45625 96.19063 34.76875Q96.4875 34.065624 96.4875 32.7375L96.4875 27.175L98.2375 27.175L98.2375 37.55L96.65938 37.55ZM100.84688 37.55L100.84688 27.175L102.425 27.175L102.425 28.753124Q103.03438 27.64375 103.55 27.3Q104.06563 26.940624 104.675 26.940624Q105.56563 26.940624 106.4875 27.503124L105.87813 29.14375Q105.2375 28.753124 104.59688 28.753124Q104.01875 28.753124 103.55 29.1125Q103.09688 29.45625 102.89375 30.065624Q102.6125 31.003124 102.6125 32.1125L102.6125 37.55L100.84688 37.55ZM114.59688 37.55L114.59688 36.2375Q113.6125 37.784374 111.69063 37.784374Q110.45625 37.784374 109.40938 37.096874Q108.37813 36.409374 107.8 35.190624Q107.2375 33.971874 107.2375 32.378124Q107.2375 30.815624 107.75313 29.55Q108.26875 28.284374 109.3 27.6125Q110.34688 26.940624 111.6125 26.940624Q112.55 26.940624 113.28438 27.346874Q114.01875 27.7375 114.4875 28.3625L114.4875 23.2375L116.22188 23.2375L116.22188 37.55L114.59688 37.55ZM109.03438 32.378124Q109.03438 34.3625 109.87813 35.346874Q110.72188 36.33125 111.8625 36.33125Q113.01875 36.33125 113.81563 35.39375Q114.62813 34.45625 114.62813 32.51875Q114.62813 30.39375 113.8 29.39375Q112.9875 28.39375 111.78438 28.39375Q110.6125 28.39375 109.81563 29.3625Q109.03438 30.315624 109.03438 32.378124ZM118.83125 37.55L118.83125 23.2375L120.58125 23.2375L120.58125 37.55L118.83125 37.55ZM129.97188 34.20625L131.78438 34.440624Q131.3625 36.01875 130.19063 36.909374Q129.03438 37.784374 127.22188 37.784374Q124.95625 37.784374 123.6125 36.39375Q122.28438 34.9875 122.28438 32.45625Q122.28438 29.83125 123.62813 28.39375Q124.97188 26.940624 127.12813 26.940624Q129.20625 26.940624 130.51875 28.3625Q131.84688 29.76875 131.84688 32.346874Q131.84688 32.503124 131.83125 32.815624L124.09688 32.815624Q124.19063 34.51875 125.06563 35.425Q125.94063 36.33125 127.2375 36.33125Q128.20625 36.33125 128.87813 35.83125Q129.56563 35.315624 129.97188 34.20625ZM124.19063 31.3625L129.9875 31.3625Q129.87813 30.065624 129.33125 29.409374Q128.4875 28.39375 127.14375 28.39375Q125.94063 28.39375 125.1125 29.20625Q124.28438 30.003124 124.19063 31.3625ZM133.15938 34.45625L134.90938 34.175Q135.05 35.221874 135.72188 35.784374Q136.39375 36.33125 137.59688 36.33125Q138.8 36.33125 139.37813 35.846874Q139.97188 35.346874 139.97188 34.690624Q139.97188 34.096874 139.45625 33.753124Q139.09688 33.51875 137.65938 33.159374Q135.72188 32.659374 134.97188 32.315624Q134.2375 31.95625 133.84688 31.33125Q133.45625 30.690624 133.45625 29.925Q133.45625 29.2375 133.76875 28.64375Q134.09688 28.05 134.64375 27.659374Q135.05 27.3625 135.75313 27.159374Q136.47188 26.940624 137.28438 26.940624Q138.50313 26.940624 139.425 27.3Q140.34688 27.64375 140.78438 28.253124Q141.22188 28.846874 141.39375 29.846874L139.675 30.08125Q139.55 29.284374 138.9875 28.846874Q138.425 28.39375 137.40938 28.39375Q136.19063 28.39375 135.675 28.8Q135.15938 29.190624 135.15938 29.721874Q135.15938 30.065624 135.37813 30.346874Q135.58125 30.628124 136.05 30.815624Q136.31563 30.909374 137.59688 31.253124Q139.47188 31.753124 140.20625 32.08125Q140.94063 32.39375 141.3625 33.003124Q141.78438 33.596874 141.78438 34.503124Q141.78438 35.378124 141.26875 36.159374Q140.75313 36.940624 139.78438 37.3625Q138.81563 37.784374 137.59688 37.784374Q135.58125 37.784374 134.51875 36.940624Q133.45625 36.096874 133.15938 34.45625ZM152.59688 37.55L148.8 23.2375L150.7375 23.2375L152.90938 32.6125Q153.26875 34.096874 153.51875 35.55Q154.06563 33.253124 154.15938 32.89375L156.89375 23.2375L159.175 23.2375L161.22188 30.471874Q162.00313 33.175 162.34688 35.55Q162.6125 34.190624 163.05 32.425L165.3 23.2375L167.20625 23.2375L163.28438 37.55L161.45625 37.55L158.44063 26.64375Q158.05 25.26875 157.9875 24.95625Q157.75313 25.940624 157.56563 26.64375L154.53438 37.55L152.59688 37.55ZM175.97188 34.20625L177.78438 34.440624Q177.3625 36.01875 176.19063 36.909374Q175.03438 37.784374 173.22188 37.784374Q170.95625 37.784374 169.6125 36.39375Q168.28438 34.9875 168.28438 32.45625Q168.28438 29.83125 169.62813 28.39375Q170.97188 26.940624 173.12813 26.940624Q175.20625 26.940624 176.51875 28.3625Q177.84688 29.76875 177.84688 32.346874Q177.84688 32.503124 177.83125 32.815624L170.09688 32.815624Q170.19063 34.51875 171.06563 35.425Q171.94063 36.33125 173.2375 36.33125Q174.20625 36.33125 174.87813 35.83125Q175.56563 35.315624 175.97188 34.20625ZM170.19063 31.3625L175.9875 31.3625Q175.87813 30.065624 175.33125 29.409374Q174.4875 28.39375 173.14375 28.39375Q171.94063 28.39375 171.1125 29.20625Q170.28438 30.003124 170.19063 31.3625ZM179.87813 25.253124L179.87813 23.2375L181.64375 23.2375L181.64375 25.253124L179.87813 25.253124ZM179.87813 37.55L179.87813 27.175L181.64375 27.175L181.64375 37.55L179.87813 37.55ZM183.55 38.409374L185.25313 38.659374Q185.3625 39.45625 185.84688 39.815624Q186.50313 40.3 187.64375 40.3Q188.8625 40.3 189.51875 39.815624Q190.19063 39.33125 190.425 38.45625Q190.56563 37.909374 190.55 36.190624Q189.39375 37.55 187.675 37.55Q185.53438 37.55 184.3625 36.003124Q183.19063 34.45625 183.19063 32.3Q183.19063 30.815624 183.72188 29.565624Q184.26875 28.315624 185.28438 27.628124Q186.31563 26.940624 187.69063 26.940624Q189.51875 26.940624 190.72188 28.425L190.72188 27.175L192.33125 27.175L192.33125 36.14375Q192.33125 38.565624 191.83125 39.565624Q191.34688 40.58125 190.26875 41.159374Q189.20625 41.753124 187.64375 41.753124Q185.8 41.753124 184.64375 40.925Q183.50313 40.096874 183.55 38.409374ZM185.00313 32.175Q185.00313 34.221874 185.81563 35.159374Q186.62813 36.096874 187.84688 36.096874Q189.05 36.096874 189.8625 35.159374Q190.69063 34.221874 190.69063 32.2375Q190.69063 30.33125 189.84688 29.3625Q189.00313 28.39375 187.81563 28.39375Q186.64375 28.39375 185.81563 29.346874Q185.00313 30.3 185.00313 32.175ZM194.8625 37.55L194.8625 23.2375L196.62813 23.2375L196.62813 28.3625Q197.8625 26.940624 199.7375 26.940624Q200.87813 26.940624 201.72188 27.39375Q202.58125 27.846874 202.94063 28.659374Q203.31563 29.45625 203.31563 30.971874L203.31563 37.55L201.56563 37.55L201.56563 30.971874Q201.56563 29.659374 200.9875 29.065624Q200.40938 28.45625 199.37813 28.45625Q198.59688 28.45625 197.89375 28.8625Q197.20625 29.26875 196.90938 29.971874Q196.62813 30.659374 196.62813 31.878124L196.62813 37.55L194.8625 37.55ZM209.70625 35.971874L209.95625 37.534374Q209.22188 37.690624 208.62813 37.690624Q207.675 37.690624 207.14375 37.39375Q206.62813 37.08125 206.40938 36.596874Q206.19063 36.096874 206.19063 34.51875L206.19063 28.55L204.90938 28.55L204.90938 27.175L206.19063 27.175L206.19063 24.6125L207.94063 23.55L207.94063 27.175L209.70625 27.175L209.70625 28.55L207.94063 28.55L207.94063 34.6125Q207.94063 35.3625 208.03438 35.58125Q208.12813 35.784374 208.33125 35.925Q208.55 36.05 208.94063 36.05Q209.22188 36.05 209.70625 35.971874ZM210.55 37.8L214.70625 22.9875L216.1125 22.9875L211.97188 37.8L210.55 37.8ZM218.15938 37.55L218.15938 23.2375L220.05 23.2375L220.05 29.1125L227.4875 29.1125L227.4875 23.2375L229.37813 23.2375L229.37813 37.55L227.4875 37.55L227.4875 30.8L220.05 30.8L220.05 37.55L218.15938 37.55ZM238.97188 34.20625L240.78438 34.440624Q240.3625 36.01875 239.19063 36.909374Q238.03438 37.784374 236.22188 37.784374Q233.95625 37.784374 232.6125 36.39375Q231.28438 34.9875 231.28438 32.45625Q231.28438 29.83125 232.62813 28.39375Q233.97188 26.940624 236.12813 26.940624Q238.20625 26.940624 239.51875 28.3625Q240.84688 29.76875 240.84688 32.346874Q240.84688 32.503124 240.83125 32.815624L233.09688 32.815624Q233.19063 34.51875 234.06563 35.425Q234.94063 36.33125 236.2375 36.33125Q237.20625 36.33125 237.87813 35.83125Q238.56563 35.315624 238.97188 34.20625ZM233.19063 31.3625L238.9875 31.3625Q238.87813 30.065624 238.33125 29.409374Q237.4875 28.39375 236.14375 28.39375Q234.94063 28.39375 234.1125 29.20625Q233.28438 30.003124 233.19063 31.3625ZM242.87813 25.253124L242.87813 23.2375L244.64375 23.2375L244.64375 25.253124L242.87813 25.253124ZM242.87813 37.55L242.87813 27.175L244.64375 27.175L244.64375 37.55L242.87813 37.55ZM246.55 38.409374L248.25313 38.659374Q248.3625 39.45625 248.84688 39.815624Q249.50313 40.3 250.64375 40.3Q251.8625 40.3 252.51875 39.815624Q253.19063 39.33125 253.425 38.45625Q253.56563 37.909374 253.55 36.190624Q252.39375 37.55 250.675 37.55Q248.53438 37.55 247.3625 36.003124Q246.19063 34.45625 246.19063 32.3Q246.19063 30.815624 246.72188 29.565624Q247.26875 28.315624 248.28438 27.628124Q249.31563 26.940624 250.69063 26.940624Q252.51875 26.940624 253.72188 28.425L253.72188 27.175L255.33125 27.175L255.33125 36.14375Q255.33125 38.565624 254.83125 39.565624Q254.34688 40.58125 253.26875 41.159374Q252.20625 41.753124 250.64375 41.753124Q248.8 41.753124 247.64375 40.925Q246.50313 40.096874 246.55 38.409374ZM248.00313 32.175Q248.00313 34.221874 248.81563 35.159374Q249.62813 36.096874 250.84688 36.096874Q252.05 36.096874 252.8625 35.159374Q253.69063 34.221874 253.69063 32.2375Q253.69063 30.33125 252.84688 29.3625Q252.00313 28.39375 250.81563 28.39375Q249.64375 28.39375 248.81563 29.346874Q248.00313 30.3 248.00313 32.175ZM257.8625 37.55L257.8625 23.2375L259.6281 23.2375L259.6281 28.3625Q260.8625 26.940624 262.7375 26.940624Q263.8781 26.940624 264.72186 27.39375Q265.58124 27.846874 265.9406 28.659374Q266.3156 29.45625 266.3156 30.971874L266.3156 37.55L264.5656 37.55L264.5656 30.971874Q264.5656 29.659374 263.9875 29.065624Q263.40936 28.45625 262.3781 28.45625Q261.59686 28.45625 260.89374 28.8625Q260.20624 29.26875 259.90936 29.971874Q259.6281 30.659374 259.6281 31.878124L259.6281 37.55L257.8625 37.55ZM272.70624 35.971874L272.95624 37.534374Q272.22186 37.690624 271.6281 37.690624Q270.675 37.690624 270.14374 37.39375Q269.6281 37.08125 269.40936 36.596874Q269.1906 36.096874 269.1906 34.51875L269.1906 28.55L267.90936 28.55L267.90936 27.175L269.1906 27.175L269.1906 24.6125L270.9406 23.55L270.9406 27.175L272.70624 27.175L272.70624 28.55L270.9406 28.55L270.9406 34.6125Q270.9406 35.3625 271.03436 35.58125Q271.1281 35.784374 271.33124 35.925Q271.55 36.05 271.9406 36.05Q272.22186 36.05 272.70624 35.971874ZM281.1281 37.55L281.1281 23.2375L287.47186 23.2375Q289.3781 23.2375 290.3781 23.628124Q291.3781 24.003124 291.97186 24.9875Q292.5656 25.95625 292.5656 27.14375Q292.5656 28.659374 291.58124 29.70625Q290.59686 30.753124 288.53436 31.034374Q289.28436 31.39375 289.675 31.753124Q290.5031 32.503124 291.2531 33.659374L293.7375 37.55L291.3625 37.55L289.45624 34.565624Q288.6281 33.284374 288.09686 32.596874Q287.5656 31.909374 287.1281 31.64375Q286.70624 31.3625 286.26874 31.253124Q285.9406 31.190624 285.22186 31.190624L283.01874 31.190624L283.01874 37.55L281.1281 37.55ZM283.01874 29.55L287.09686 29.55Q288.39374 29.55 289.1125 29.284374Q289.84686 29.01875 290.22186 28.425Q290.6125 27.83125 290.6125 27.14375Q290.6125 26.128124 289.8781 25.471874Q289.14374 24.815624 287.55 24.815624L283.01874 24.815624L283.01874 29.55ZM301.64374 36.26875Q300.65936 37.096874 299.7531 37.440624Q298.84686 37.784374 297.8156 37.784374Q296.1125 37.784374 295.1906 36.95625Q294.26874 36.1125 294.26874 34.815624Q294.26874 34.05 294.6125 33.425Q294.97186 32.8 295.53436 32.425Q296.09686 32.034374 296.8 31.83125Q297.3156 31.70625 298.3625 31.565624Q300.4875 31.315624 301.4875 30.971874Q301.5031 30.6125 301.5031 30.503124Q301.5031 29.440624 301.0031 28.9875Q300.33124 28.39375 299.0031 28.39375Q297.7531 28.39375 297.15936 28.83125Q296.58124 29.26875 296.3 30.378124L294.58124 30.14375Q294.8156 29.034374 295.34686 28.3625Q295.8781 27.675 296.89374 27.315624Q297.90936 26.940624 299.2531 26.940624Q300.58124 26.940624 301.40936 27.253124Q302.2375 27.565624 302.6281 28.05Q303.01874 28.51875 303.175 29.2375Q303.26874 29.690624 303.26874 30.8625L303.26874 33.20625Q303.26874 35.659374 303.3781 36.315624Q303.4875 36.95625 303.83124 37.55L301.9875 37.55Q301.72186 37.003124 301.64374 36.26875ZM301.4875 32.346874Q300.53436 32.7375 298.6125 33.003124Q297.53436 33.159374 297.08124 33.3625Q296.64374 33.55 296.39374 33.925Q296.14374 34.3 296.14374 34.76875Q296.14374 35.471874 296.675 35.940624Q297.20624 36.409374 298.2375 36.409374Q299.2531 36.409374 300.03436 35.971874Q300.83124 35.51875 301.20624 34.753124Q301.4875 34.14375 301.4875 32.9875L301.4875 32.346874ZM309.70624 35.971874L309.95624 37.534374Q309.22186 37.690624 308.6281 37.690624Q307.675 37.690624 307.14374 37.39375Q306.6281 37.08125 306.40936 36.596874Q306.1906 36.096874 306.1906 34.51875L306.1906 28.55L304.90936 28.55L304.90936 27.175L306.1906 27.175L306.1906 24.6125L307.9406 23.55L307.9406 27.175L309.70624 27.175L309.70624 28.55L307.9406 28.55L307.9406 34.6125Q307.9406 35.3625 308.03436 35.58125Q308.1281 35.784374 308.33124 35.925Q308.55 36.05 308.9406 36.05Q309.22186 36.05 309.70624 35.971874ZM311.8781 25.253124L311.8781 23.2375L313.64374 23.2375L313.64374 25.253124L311.8781 25.253124ZM311.8781 37.55L311.8781 27.175L313.64374 27.175L313.64374 37.55L311.8781 37.55ZM315.22186 32.3625Q315.22186 29.4875 316.8156 28.096874Q318.15936 26.940624 320.08124 26.940624Q322.22186 26.940624 323.5656 28.346874Q324.925 29.753124 324.925 32.221874Q324.925 34.221874 324.33124 35.378124Q323.7375 36.51875 322.58124 37.159374Q321.4406 37.784374 320.08124 37.784374Q317.89374 37.784374 316.55 36.39375Q315.22186 34.9875 315.22186 32.3625ZM317.01874 32.3625Q317.01874 34.3625 317.8781 35.346874Q318.7531 36.33125 320.08124 36.33125Q321.39374 36.33125 322.2531 35.346874Q323.1281 34.346874 323.1281 32.3Q323.1281 30.378124 322.2531 29.39375Q321.3781 28.39375 320.08124 28.39375Q318.7531 28.39375 317.8781 29.39375Q317.01874 30.378124 317.01874 32.3625ZM335.7531 37.55L331.8 27.175L333.65936 27.175L335.89374 33.39375Q336.2531 34.39375 336.55 35.471874Q336.78436 34.659374 337.20624 33.503124L339.5031 27.175L341.3156 27.175L337.39374 37.55L335.7531 37.55ZM342.15936 34.45625L343.90936 34.175Q344.05 35.221874 344.72186 35.784374Q345.39374 36.33125 346.59686 36.33125Q347.8 36.33125 348.3781 35.846874Q348.97186 35.346874 348.97186 34.690624Q348.97186 34.096874 348.45624 33.753124Q348.09686 33.51875 346.65936 33.159374Q344.72186 32.659374 343.97186 32.315624Q343.2375 31.95625 342.84686 31.33125Q342.45624 30.690624 342.45624 29.925Q342.45624 29.2375 342.76874 28.64375Q343.09686 28.05 343.64374 27.659374Q344.05 27.3625 344.7531 27.159374Q345.47186 26.940624 346.28436 26.940624Q347.5031 26.940624 348.425 27.3Q349.34686 27.64375 349.78436 28.253124Q350.22186 28.846874 350.39374 29.846874L348.675 30.08125Q348.55 29.284374 347.9875 28.846874Q347.425 28.39375 346.40936 28.39375Q345.1906 28.39375 344.675 28.8Q344.15936 29.190624 344.15936 29.721874Q344.15936 30.065624 344.3781 30.346874Q344.58124 30.628124 345.05 30.815624Q345.3156 30.909374 346.59686 31.253124Q348.47186 31.753124 349.20624 32.08125Q349.9406 32.39375 350.3625 33.003124Q350.78436 33.596874 350.78436 34.503124Q350.78436 35.378124 350.26874 36.159374Q349.7531 36.940624 348.78436 37.3625Q347.8156 37.784374 346.59686 37.784374Q344.58124 37.784374 343.51874 36.940624Q342.45624 36.096874 342.15936 34.45625ZM359.1281 37.55L359.1281 23.2375L365.47186 23.2375Q367.3781 23.2375 368.3781 23.628124Q369.3781 24.003124 369.97186 24.9875Q370.5656 25.95625 370.5656 27.14375Q370.5656 28.659374 369.58124 29.70625Q368.59686 30.753124 366.53436 31.034374Q367.28436 31.39375 367.675 31.753124Q368.5031 32.503124 369.2531 33.659374L371.7375 37.55L369.3625 37.55L367.45624 34.565624Q366.6281 33.284374 366.09686 32.596874Q365.5656 31.909374 365.1281 31.64375Q364.70624 31.3625 364.26874 31.253124Q363.9406 31.190624 363.22186 31.190624L361.01874 31.190624L361.01874 37.55L359.1281 37.55ZM361.01874 29.55L365.09686 29.55Q366.39374 29.55 367.1125 29.284374Q367.84686 29.01875 368.22186 28.425Q368.6125 27.83125 368.6125 27.14375Q368.6125 26.128124 367.8781 25.471874Q367.14374 24.815624 365.55 24.815624L361.01874 24.815624L361.01874 29.55ZM379.97186 34.20625L381.78436 34.440624Q381.3625 36.01875 380.1906 36.909374Q379.03436 37.784374 377.22186 37.784374Q374.95624 37.784374 373.6125 36.39375Q372.28436 34.9875 372.28436 32.45625Q372.28436 29.83125 373.6281 28.39375Q374.97186 26.940624 377.1281 26.940624Q379.20624 26.940624 380.51874 28.3625Q381.84686 29.76875 381.84686 32.346874Q381.84686 32.503124 381.83124 32.815624L374.09686 32.815624Q374.1906 34.51875 375.0656 35.425Q375.9406 36.33125 377.2375 36.33125Q378.20624 36.33125 378.8781 35.83125Q379.5656 35.315624 379.97186 34.20625ZM374.1906 31.3625L379.9875 31.3625Q379.8781 30.065624 379.33124 29.409374Q378.4875 28.39375 377.14374 28.39375Q375.9406 28.39375 375.1125 29.20625Q374.28436 30.003124 374.1906 31.3625ZM383.15936 34.45625L384.90936 34.175Q385.05 35.221874 385.72186 35.784374Q386.39374 36.33125 387.59686 36.33125Q388.8 36.33125 389.3781 35.846874Q389.97186 35.346874 389.97186 34.690624Q389.97186 34.096874 389.45624 33.753124Q389.09686 33.51875 387.65936 33.159374Q385.72186 32.659374 384.97186 32.315624Q384.2375 31.95625 383.84686 31.33125Q383.45624 30.690624 383.45624 29.925Q383.45624 29.2375 383.76874 28.64375Q384.09686 28.05 384.64374 27.659374Q385.05 27.3625 385.7531 27.159374Q386.47186 26.940624 387.28436 26.940624Q388.5031 26.940624 389.425 27.3Q390.34686 27.64375 390.78436 28.253124Q391.22186 28.846874 391.39374 29.846874L389.675 30.08125Q389.55 29.284374 388.9875 28.846874Q388.425 28.39375 387.40936 28.39375Q386.1906 28.39375 385.675 28.8Q385.15936 29.190624 385.15936 29.721874Q385.15936 30.065624 385.3781 30.346874Q385.58124 30.628124 386.05 30.815624Q386.3156 30.909374 387.59686 31.253124Q389.47186 31.753124 390.20624 32.08125Q390.9406 32.39375 391.3625 33.003124Q391.78436 33.596874 391.78436 34.503124Q391.78436 35.378124 391.26874 36.159374Q390.7531 36.940624 389.78436 37.3625Q388.8156 37.784374 387.59686 37.784374Q385.58124 37.784374 384.51874 36.940624Q383.45624 36.096874 383.15936 34.45625ZM400.65936 37.55L400.65936 36.01875Q399.45624 37.784374 397.3781 37.784374Q396.45624 37.784374 395.65936 37.440624Q394.8625 37.08125 394.47186 36.55Q394.09686 36.01875 393.9406 35.2375Q393.83124 34.721874 393.83124 33.596874L393.83124 27.175L395.58124 27.175L395.58124 32.925Q395.58124 34.3 395.6906 34.784374Q395.8625 35.471874 396.39374 35.878124Q396.9406 36.26875 397.72186 36.26875Q398.51874 36.26875 399.20624 35.8625Q399.90936 35.45625 400.1906 34.76875Q400.4875 34.065624 400.4875 32.7375L400.4875 27.175L402.2375 27.175L402.2375 37.55L400.65936 37.55ZM404.83124 37.55L404.83124 23.2375L406.58124 23.2375L406.58124 37.55L404.83124 37.55ZM412.70624 35.971874L412.95624 37.534374Q412.22186 37.690624 411.6281 37.690624Q410.675 37.690624 410.14374 37.39375Q409.6281 37.08125 409.40936 36.596874Q409.1906 36.096874 409.1906 34.51875L409.1906 28.55L407.90936 28.55L407.90936 27.175L409.1906 27.175L409.1906 24.6125L410.9406 23.55L410.9406 27.175L412.70624 27.175L412.70624 28.55L410.9406 28.55L410.9406 34.6125Q410.9406 35.3625 411.03436 35.58125Q411.1281 35.784374 411.33124 35.925Q411.55 36.05 411.9406 36.05Q412.22186 36.05 412.70624 35.971874Z" fill-rule="nonzero"/></svg>