<svg version="1.1" viewBox="0.0 0.0 600.0 371.0" fill="none" stroke="none" stroke-linecap="square" stroke-miterlimit="10" width="600" height="371" xmlns:xlink="http://www.w3.org/1999/xlink" xmlns="http://www.w3.org/2000/svg"><path fill="#ffffff" d="M0 0L600.0 0L600.0 371.0L0 371.0L0 0Z" fill-rule="nonzero"/><path stroke="#333333" stroke-width="1.0" stroke-linecap="butt" d="M77.5 300.5L581.5 300.5" fill-rule="nonzero"/><path stroke="#cccccc" stroke-width="1.0" stroke-linecap="butt" d="M77.5 258.5L581.5 258.5" fill-rule="nonzero"/><path stroke="#cccccc" stroke-width="1.0" stroke-linecap="butt" d="M77.5 215.5L581.5 215.5" fill-rule="nonzero"/><path stroke="#cccccc" stroke-width="1.0" stroke-linecap="butt" d="M77.5 173.5L581.5 173.5" fill-rule="nonzero"/><path stroke="#cccccc" stroke-width="1.0" stroke-linecap="butt" d="M77.5 130.5L581.5 130.5" fill-rule="nonzero"/><path stroke="#cccccc" stroke-width="1.0" stroke-linecap="butt" d="M77.5 88.5L581.5 88.5" fill-rule="nonzero"/><clipPath id="id_0"><path d="M77.55 88.28333L581.45 88.28333L581.45 300.45L77.55 300.45L77.55 88.28333Z" clip-rule="nonzero"/></clipPath><path stroke="#4285f4" stroke-width="2.0" stroke-linecap="butt" stroke-opacity="0.4" clip-path="url(#id_0)" d="M0 127.90605L581.45 110.83154" fill-rule="nonzero"/><path fill="#4285f4" clip-path="url(#id_0)" d="M554.45624 110.34866C554.45624 112.83395 552.4415 114.84866 549.95624 114.84866C547.47095 114.84866 545.45624 112.83395 545.45624 110.34866C545.45624 107.86339 547.47095 105.84866 549.95624 105.84866C552.4415 105.84866 554.45624 107.86339 554.45624 110.34866Z" fill-rule="nonzero"/><path fill="#4285f4" clip-path="url(#id_0)" d="M491.46875 111.03744C491.46875 113.52272 489.45404 115.53744 486.96875 115.53744C484.48346 115.53744 482.46875 113.52272 482.46875 111.03744C482.46875 108.552155 484.48346 106.53744 486.96875 106.53744C489.45404 106.53744 491.46875 108.552155 491.46875 111.03744Z" fill-rule="nonzero"/><path fill="#4285f4" clip-path="url(#id_0)" d="M428.48126 119.95892C428.48126 122.4442 426.46652 124.45892 423.98126 124.45892C421.49597 124.45892 419.48126 122.4442 419.48126 119.95892C419.48126 117.47364 421.49597 115.45892 423.98126 115.45892C426.46652 115.45892 428.48126 117.47364 428.48126 119.95892Z" fill-rule="nonzero"/><path fill="#4285f4" clip-path="url(#id_0)" d="M365.49374 117.928535C365.49374 120.41382 363.47903 122.428535 360.99374 122.428535C358.50845 122.428535 356.49374 120.41382 356.49374 117.928535C356.49374 115.44326 358.50845 113.428535 360.99374 113.428535C363.47903 113.428535 365.49374 115.44326 365.49374 117.928535Z" fill-rule="nonzero"/><path fill="#4285f4" clip-path="url(#id_0)" d="M302.50626 110.95319C302.50626 113.43848 300.49155 115.45319 298.00626 115.45319C295.52097 115.45319 293.50626 113.43848 293.50626 110.95319C293.50626 108.46792 295.52097 106.45319 298.00626 106.45319C300.49155 106.45319 302.50626 108.46792 302.50626 110.95319Z" fill-rule="nonzero"/><path fill="#4285f4" clip-path="url(#id_0)" d="M239.51875 129.50429C239.51875 131.98956 237.50403 134.00429 235.01875 134.00429C232.53346 134.00429 230.51875 131.98956 230.51875 129.50429C230.51875 127.019005 232.53346 125.00429 235.01875 125.00429C237.50403 125.00429 239.51875 127.019005 239.51875 129.50429Z" fill-rule="nonzero"/><path fill="#4285f4" clip-path="url(#id_0)" d="M176.53125 130.71666C176.53125 133.20195 174.51653 135.21666 172.03125 135.21666C169.54597 135.21666 167.53125 133.20195 167.53125 130.71666C167.53125 128.23138 169.54597 126.21667 172.03125 126.21667C174.51653 126.21667 176.53125 128.23138 176.53125 130.71666Z" fill-rule="nonzero"/><path fill="#4285f4" clip-path="url(#id_0)" d="M113.54375 115.39352C113.54375 117.8788 111.52903 119.89352 109.04375 119.89352C106.55847 119.89352 104.54375 117.8788 104.54375 115.39352C104.54375 112.90823 106.55847 110.89352 109.04375 110.89352C111.52903 110.89352 113.54375 112.90823 113.54375 115.39352Z" fill-rule="nonzero"/><path fill="#000000" d="M299.10938 349.45L299.10938 341.8719L296.28125 341.8719L296.28125 340.85626L303.09375 340.85626L303.09375 341.8719L300.25 341.8719L300.25 349.45L299.10938 349.45ZM303.79688 342.075L303.79688 340.85626L304.85938 340.85626L304.85938 342.075L303.79688 342.075ZM303.79688 349.45L303.79688 343.23126L304.85938 343.23126L304.85938 349.45L303.79688 349.45ZM306.79688 349.45L306.79688 343.23126L307.73438 343.23126L307.73438 344.10626Q308.03125 343.6375 308.51562 343.3719Q309.0 343.09064 309.625 343.09064Q310.3125 343.09064 310.75 343.3719Q311.20312 343.65314 311.375 344.16876Q312.125 343.09064 313.29688 343.09064Q314.23438 343.09064 314.71875 343.60626Q315.21875 344.10626 315.21875 345.1844L315.21875 349.45L314.17188 349.45L314.17188 345.52814Q314.17188 344.90314 314.0625 344.6219Q313.96875 344.34064 313.70312 344.16876Q313.4375 343.9969 313.0625 343.9969Q312.40625 343.9969 311.96875 344.4344Q311.54688 344.8719 311.54688 345.84064L311.54688 349.45L310.48438 349.45L310.48438 345.40314Q310.48438 344.7 310.21875 344.35626Q309.96875 343.9969 309.39062 343.9969Q308.9375 343.9969 308.5625 344.23126Q308.1875 344.46564 308.01562 344.91876Q307.84375 345.3719 307.84375 346.21564L307.84375 349.45L306.79688 349.45ZM321.04688 347.45L322.14062 347.575Q321.89062 348.52814 321.1875 349.0594Q320.48438 349.59064 319.40625 349.59064Q318.04688 349.59064 317.23438 348.7469Q316.4375 347.90314 316.4375 346.3875Q316.4375 344.825 317.25 343.96564Q318.0625 343.09064 319.34375 343.09064Q320.59375 343.09064 321.375 343.9344Q322.17188 344.77814 322.17188 346.325Q322.17188 346.41876 322.17188 346.60626L317.53125 346.60626Q317.59375 347.6375 318.10938 348.1844Q318.625 348.71564 319.40625 348.71564Q319.98438 348.71564 320.39062 348.41876Q320.8125 348.10626 321.04688 347.45ZM317.59375 345.7469L321.0625 345.7469Q321.0 344.95 320.67188 344.5594Q320.15625 343.95 319.35938 343.95Q318.625 343.95 318.125 344.4344Q317.64062 344.91876 317.59375 345.7469ZM328.8125 351.98126Q327.9375 350.8719 327.32812 349.40314Q326.73438 347.91876 326.73438 346.34064Q326.73438 344.95 327.17188 343.66876Q327.70312 342.1844 328.8125 340.71564L329.5625 340.71564Q328.85938 341.9344 328.625 342.45Q328.26562 343.2625 328.0625 344.1375Q327.8125 345.23126 327.8125 346.34064Q327.8125 349.16876 329.5625 351.98126L328.8125 351.98126ZM330.79688 349.45L330.79688 343.23126L331.73438 343.23126L331.73438 344.10626Q332.03125 343.6375 332.51562 343.3719Q333.0 343.09064 333.625 343.09064Q334.3125 343.09064 334.75 343.3719Q335.20312 343.65314 335.375 344.16876Q336.125 343.09064 337.29688 343.09064Q338.23438 343.09064 338.71875 343.60626Q339.21875 344.10626 339.21875 345.1844L339.21875 349.45L338.17188 349.45L338.17188 345.52814Q338.17188 344.90314 338.0625 344.6219Q337.96875 344.34064 337.70312 344.16876Q337.4375 343.9969 337.0625 343.9969Q336.40625 343.9969 335.96875 344.4344Q335.54688 344.8719 335.54688 345.84064L335.54688 349.45L334.48438 349.45L334.48438 345.40314Q334.48438 344.7 334.21875 344.35626Q333.96875 343.9969 333.39062 343.9969Q332.9375 343.9969 332.5625 344.23126Q332.1875 344.46564 332.01562 344.91876Q331.84375 345.3719 331.84375 346.21564L331.84375 349.45L330.79688 349.45ZM340.79688 342.075L340.79688 340.85626L341.85938 340.85626L341.85938 342.075L340.79688 342.075ZM340.79688 349.45L340.79688 343.23126L341.85938 343.23126L341.85938 349.45L340.79688 349.45ZM343.79688 349.45L343.79688 343.23126L344.73438 343.23126L344.73438 344.10626Q345.42188 343.09064 346.71875 343.09064Q347.28125 343.09064 347.75 343.29376Q348.23438 343.4969 348.46875 343.825Q348.70312 344.15314 348.79688 344.59064Q348.84375 344.8875 348.84375 345.6219L348.84375 349.45L347.79688 349.45L347.79688 345.66876Q347.79688 345.0125 347.67188 344.7Q347.54688 344.3875 347.23438 344.2Q346.92188 343.9969 346.5 343.9969Q345.82812 343.9969 345.32812 344.4344Q344.84375 344.85626 344.84375 346.04376L344.84375 349.45L343.79688 349.45ZM351.07812 344.4344L351.07812 343.23126L352.28125 343.23126L352.28125 344.4344L351.07812 344.4344ZM351.07812 349.45L351.07812 348.2469L352.28125 348.2469L352.28125 349.45L351.07812 349.45ZM353.375 347.59064L354.40625 347.4344Q354.5 348.0594 354.89062 348.3875Q355.29688 348.71564 356.03125 348.71564Q356.75 348.71564 357.09375 348.4344Q357.45312 348.1375 357.45312 347.73126Q357.45312 347.3719 357.14062 347.16876Q356.92188 347.02814 356.0625 346.8094Q354.90625 346.5125 354.45312 346.3094Q354.01562 346.09064 353.78125 345.71564Q353.54688 345.34064 353.54688 344.8719Q353.54688 344.46564 353.73438 344.10626Q353.92188 343.7469 354.25 343.5125Q354.5 343.34064 354.92188 343.21564Q355.34375 343.09064 355.84375 343.09064Q356.5625 343.09064 357.10938 343.3094Q357.67188 343.5125 357.9375 343.8719Q358.20312 344.23126 358.29688 344.825L357.26562 344.96564Q357.20312 344.4969 356.85938 344.23126Q356.53125 343.95 355.90625 343.95Q355.1875 343.95 354.875 344.2Q354.5625 344.4344 354.5625 344.7625Q354.5625 344.96564 354.6875 345.1219Q354.82812 345.29376 355.09375 345.40314Q355.25 345.46564 356.03125 345.66876Q357.15625 345.98126 357.59375 346.16876Q358.03125 346.35626 358.28125 346.71564Q358.53125 347.075 358.53125 347.6219Q358.53125 348.15314 358.21875 348.6219Q357.92188 349.075 357.34375 349.34064Q356.76562 349.59064 356.03125 349.59064Q354.8125 349.59064 354.17188 349.09064Q353.54688 348.575 353.375 347.59064ZM360.48438 351.98126L359.73438 351.98126Q361.48438 349.16876 361.48438 346.34064Q361.48438 345.2469 361.23438 344.15314Q361.03125 343.27814 360.67188 342.46564Q360.4375 341.95 359.73438 340.71564L360.48438 340.71564Q361.57812 342.1844 362.10938 343.66876Q362.5625 344.95 362.5625 346.34064Q362.5625 347.91876 361.95312 349.40314Q361.34375 350.8719 360.48438 351.98126Z" fill-rule="nonzero"/><path fill="#000000" d="M29.550013 279.4448L20.956263 281.72604L20.956263 280.55417L26.596888 279.24167Q27.471888 279.03854 28.346888 278.8823Q26.971888 278.55417 26.753138 278.49167L20.956263 276.86667L20.956263 275.49167L25.300013 274.2573Q26.925013 273.80417 28.346888 273.58542Q27.534388 273.42917 26.471888 273.16354L20.956263 271.8198L20.956263 270.67917L29.550013 273.02292L29.550013 274.1323L23.003138 275.92917Q22.190638 276.16354 22.003138 276.21042Q22.581263 276.33542 23.003138 276.46042L29.550013 278.27292L29.550013 279.4448ZM27.550013 265.8198L27.675013 264.72604Q28.628138 264.97604 29.159388 265.67917Q29.690638 266.3823 29.690638 267.46042Q29.690638 268.8198 28.846888 269.6323Q28.003138 270.42917 26.487513 270.42917Q24.925013 270.42917 24.065638 269.61667Q23.190638 268.80417 23.190638 267.52292Q23.190638 266.27292 24.034388 265.49167Q24.878138 264.6948 26.425013 264.6948Q26.518763 264.6948 26.706263 264.6948L26.706263 269.33542Q27.737513 269.27292 28.284388 268.7573Q28.815638 268.24167 28.815638 267.46042Q28.815638 266.8823 28.518763 266.47604Q28.206263 266.05417 27.550013 265.8198ZM25.846888 269.27292L25.846888 265.80417Q25.050013 265.86667 24.659388 266.1948Q24.050013 266.71042 24.050013 267.5073Q24.050013 268.24167 24.534388 268.74167Q25.018763 269.22604 25.846888 269.27292ZM22.175013 263.0698L20.956263 263.0698L20.956263 262.0073L22.175013 262.0073L22.175013 263.0698ZM29.550013 263.0698L23.331263 263.0698L23.331263 262.0073L29.550013 262.0073L29.550013 263.0698ZM30.065638 260.27292L30.221888 259.24167Q30.690638 259.17917 30.909388 258.8823Q31.206263 258.49167 31.206263 257.8198Q31.206263 257.08542 30.909388 256.6948Q30.612513 256.28854 30.096888 256.14792Q29.768763 256.05417 28.737513 256.0698Q29.550013 256.7573 29.550013 257.78854Q29.550013 259.0698 28.628138 259.77292Q27.690638 260.47604 26.409388 260.47604Q25.518763 260.47604 24.768763 260.16354Q24.003138 259.83542 23.596888 259.22604Q23.190638 258.61667 23.190638 257.78854Q23.190638 256.67917 24.081263 255.96042L23.331263 255.96042L23.331263 254.99167L28.706263 254.99167Q30.159388 254.99167 30.768763 255.28854Q31.378138 255.58542 31.721888 256.22604Q32.08126 256.86667 32.08126 257.80417Q32.08126 258.91354 31.581263 259.60104Q31.081263 260.28854 30.065638 260.27292ZM26.331263 259.39792Q27.550013 259.39792 28.112513 258.91354Q28.675013 258.42917 28.675013 257.6948Q28.675013 256.96042 28.112513 256.47604Q27.550013 255.97604 26.362513 255.97604Q25.221888 255.97604 24.643763 256.49167Q24.065638 256.99167 24.065638 257.71042Q24.065638 258.41354 24.643763 258.91354Q25.206263 259.39792 26.331263 259.39792ZM29.550013 253.0698L20.956263 253.0698L20.956263 252.02292L24.034388 252.02292Q23.190638 251.28854 23.190638 250.16354Q23.190638 249.46042 23.471888 248.96042Q23.737513 248.4448 24.221888 248.22604Q24.690638 248.0073 25.612513 248.0073L29.550013 248.0073L29.550013 249.05417L25.612513 249.05417Q24.815638 249.05417 24.456263 249.39792Q24.096888 249.74167 24.096888 250.36667Q24.096888 250.83542 24.346888 251.2573Q24.581263 251.66354 25.003138 251.85104Q25.409388 252.02292 26.143763 252.02292L29.550013 252.02292L29.550013 253.0698ZM28.612513 243.77292L29.534388 243.61667Q29.628138 244.0698 29.628138 244.41354Q29.628138 244.99167 29.456263 245.30417Q29.268763 245.61667 28.971888 245.7573Q28.675013 245.8823 27.721888 245.8823L24.143763 245.8823L24.143763 246.64792L23.331263 246.64792L23.331263 245.8823L21.784388 245.8823L21.159388 244.83542L23.331263 244.83542L23.331263 243.77292L24.143763 243.77292L24.143763 244.83542L27.784388 244.83542Q28.237513 244.83542 28.362513 244.78854Q28.487513 244.72604 28.565638 244.60104Q28.643763 244.47604 28.643763 244.24167Q28.643763 244.05417 28.612513 243.77292ZM28.612513 237.77292L29.534388 237.61667Q29.628138 238.0698 29.628138 238.41354Q29.628138 238.99167 29.456263 239.30417Q29.268763 239.61667 28.971888 239.7573Q28.675013 239.8823 27.721888 239.8823L24.143763 239.8823L24.143763 240.64792L23.331263 240.64792L23.331263 239.8823L21.784388 239.8823L21.159388 238.83542L23.331263 238.83542L23.331263 237.77292L24.143763 237.77292L24.143763 238.83542L27.784388 238.83542Q28.237513 238.83542 28.362513 238.78854Q28.487513 238.72604 28.565638 238.60104Q28.643763 238.47604 28.643763 238.24167Q28.643763 238.05417 28.612513 237.77292ZM26.440638 237.46042Q24.706263 237.46042 23.878138 236.5073Q23.190638 235.71042 23.190638 234.55417Q23.190638 233.27292 24.034388 232.46042Q24.862513 231.6323 26.346888 231.6323Q27.550013 231.6323 28.237513 231.99167Q28.925013 232.35104 29.315638 233.05417Q29.690638 233.74167 29.690638 234.55417Q29.690638 235.85104 28.862513 236.66354Q28.018763 237.46042 26.440638 237.46042ZM26.440638 236.3823Q27.628138 236.3823 28.221888 235.86667Q28.815638 235.33542 28.815638 234.55417Q28.815638 233.7573 28.221888 233.24167Q27.628138 232.72604 26.409388 232.72604Q25.253138 232.72604 24.659388 233.2573Q24.065638 233.77292 24.065638 234.55417Q24.065638 235.33542 24.659388 235.86667Q25.237513 236.3823 26.440638 236.3823ZM29.550013 226.89792L20.956263 226.89792L20.956263 225.77292L24.487513 225.77292L24.487513 221.30417L20.956263 221.30417L20.956263 220.16354L29.550013 220.16354L29.550013 221.30417L25.503138 221.30417L25.503138 225.77292L29.550013 225.77292L29.550013 226.89792ZM27.550013 213.8198L27.675013 212.72604Q28.628138 212.97604 29.159388 213.67917Q29.690638 214.3823 29.690638 215.46042Q29.690638 216.8198 28.846888 217.6323Q28.003138 218.42917 26.487513 218.42917Q24.925013 218.42917 24.065638 217.61667Q23.190638 216.80417 23.190638 215.52292Q23.190638 214.27292 24.034388 213.49167Q24.878138 212.6948 26.425013 212.6948Q26.518763 212.6948 26.706263 212.6948L26.706263 217.33542Q27.737513 217.27292 28.284388 216.7573Q28.815638 216.24167 28.815638 215.46042Q28.815638 214.8823 28.518763 214.47604Q28.206263 214.05417 27.550013 213.8198ZM25.846888 217.27292L25.846888 213.80417Q25.050013 213.86667 24.659388 214.1948Q24.050013 214.71042 24.050013 215.5073Q24.050013 216.24167 24.534388 216.74167Q25.018763 217.22604 25.846888 217.27292ZM22.175013 211.0698L20.956263 211.0698L20.956263 210.0073L22.175013 210.0073L22.175013 211.0698ZM29.550013 211.0698L23.331263 211.0698L23.331263 210.0073L29.550013 210.0073L29.550013 211.0698ZM30.065638 208.27292L30.221888 207.24167Q30.690638 207.17917 30.909388 206.8823Q31.206263 206.49167 31.206263 205.8198Q31.206263 205.08542 30.909388 204.6948Q30.612513 204.28854 30.096888 204.14792Q29.768763 204.05417 28.737513 204.0698Q29.550013 204.7573 29.550013 205.78854Q29.550013 207.0698 28.628138 207.77292Q27.690638 208.47604 26.409388 208.47604Q25.518763 208.47604 24.768763 208.16354Q24.003138 207.83542 23.596888 207.22604Q23.190638 206.61667 23.190638 205.78854Q23.190638 204.67917 24.081263 203.96042L23.331263 203.96042L23.331263 202.99167L28.706263 202.99167Q30.159388 202.99167 30.768763 203.28854Q31.378138 203.58542 31.721888 204.22604Q32.08126 204.86667 32.08126 205.80417Q32.08126 206.91354 31.581263 207.60104Q31.081263 208.28854 30.065638 208.27292ZM26.331263 207.39792Q27.550013 207.39792 28.112513 206.91354Q28.675013 206.42917 28.675013 205.6948Q28.675013 204.96042 28.112513 204.47604Q27.550013 203.97604 26.362513 203.97604Q25.221888 203.97604 24.643763 204.49167Q24.065638 204.99167 24.065638 205.71042Q24.065638 206.41354 24.643763 206.91354Q25.206263 207.39792 26.331263 207.39792ZM29.550013 201.0698L20.956263 201.0698L20.956263 200.02292L24.034388 200.02292Q23.190638 199.28854 23.190638 198.16354Q23.190638 197.46042 23.471888 196.96042Q23.737513 196.4448 24.221888 196.22604Q24.690638 196.0073 25.612513 196.0073L29.550013 196.0073L29.550013 197.05417L25.612513 197.05417Q24.815638 197.05417 24.456263 197.39792Q24.096888 197.74167 24.096888 198.36667Q24.096888 198.83542 24.346888 199.2573Q24.581263 199.66354 25.003138 199.85104Q25.409388 200.02292 26.143763 200.02292L29.550013 200.02292L29.550013 201.0698ZM28.612513 191.77292L29.534388 191.61667Q29.628138 192.0698 29.628138 192.41354Q29.628138 192.99167 29.456263 193.30417Q29.268763 193.61667 28.971888 193.7573Q28.675013 193.8823 27.721888 193.8823L24.143763 193.8823L24.143763 194.64792L23.331263 194.64792L23.331263 193.8823L21.784388 193.8823L21.159388 192.83542L23.331263 192.83542L23.331263 191.77292L24.143763 191.77292L24.143763 192.83542L27.784388 192.83542Q28.237513 192.83542 28.362513 192.78854Q28.487513 192.72604 28.565638 192.60104Q28.643763 192.47604 28.643763 192.24167Q28.643763 192.05417 28.612513 191.77292ZM29.550013 187.92917L20.956263 187.92917L20.956263 184.11667Q20.956263 182.96042 21.190638 182.36667Q21.425013 181.77292 22.018763 181.41354Q22.596888 181.05417 23.300013 181.05417Q24.221888 181.05417 24.846888 181.64792Q25.471888 182.24167 25.643763 183.47604Q25.862513 183.02292 26.065638 182.78854Q26.518763 182.28854 27.206263 181.85104L29.550013 180.35104L29.550013 181.78854L27.768763 182.91354Q26.987513 183.41354 26.581263 183.74167Q26.175013 184.05417 26.018763 184.3198Q25.846888 184.5698 25.768763 184.83542Q25.737513 185.02292 25.737513 185.46042L25.737513 186.78854L29.550013 186.78854L29.550013 187.92917ZM24.753138 186.78854L24.753138 184.33542Q24.753138 183.5698 24.596888 183.1323Q24.425013 182.67917 24.081263 182.46042Q23.721888 182.22604 23.300013 182.22604Q22.690638 182.22604 22.300013 182.67917Q21.909388 183.11667 21.909388 184.0698L21.909388 186.78854L24.753138 186.78854ZM28.784388 175.0073Q29.284388 175.60104 29.487513 176.14792Q29.690638 176.67917 29.690638 177.30417Q29.690638 178.33542 29.190638 178.8823Q28.690638 179.42917 27.909388 179.42917Q27.456263 179.42917 27.081263 179.22604Q26.690638 179.02292 26.471888 178.67917Q26.237513 178.33542 26.128138 177.91354Q26.034388 177.61667 25.956263 176.97604Q25.815638 175.71042 25.596888 175.10104Q25.378138 175.10104 25.331263 175.10104Q24.675013 175.10104 24.409388 175.39792Q24.065638 175.80417 24.065638 176.60104Q24.065638 177.33542 24.331263 177.6948Q24.581263 178.05417 25.237513 178.22604L25.096888 179.2573Q24.440638 179.11667 24.034388 178.78854Q23.628138 178.46042 23.409388 177.85104Q23.190638 177.24167 23.190638 176.4448Q23.190638 175.64792 23.378138 175.14792Q23.565638 174.64792 23.846888 174.41354Q24.128138 174.17917 24.565638 174.08542Q24.831263 174.03854 25.534388 174.03854L26.940638 174.03854Q28.409388 174.03854 28.800013 173.97604Q29.190638 173.89792 29.550013 173.6948L29.550013 174.80417Q29.221888 174.96042 28.784388 175.0073ZM26.425013 175.10104Q26.659388 175.67917 26.831263 176.8198Q26.925013 177.47604 27.050013 177.74167Q27.159388 178.0073 27.378138 178.16354Q27.596888 178.30417 27.878138 178.30417Q28.300013 178.30417 28.581263 177.99167Q28.862513 177.66354 28.862513 177.05417Q28.862513 176.4448 28.596888 175.97604Q28.331263 175.49167 27.862513 175.27292Q27.503138 175.10104 26.815638 175.10104L26.425013 175.10104ZM28.612513 169.77292L29.534388 169.61667Q29.628138 170.0698 29.628138 170.41354Q29.628138 170.99167 29.456263 171.30417Q29.268763 171.61667 28.971888 171.7573Q28.675013 171.8823 27.721888 171.8823L24.143763 171.8823L24.143763 172.64792L23.331263 172.64792L23.331263 171.8823L21.784388 171.8823L21.159388 170.83542L23.331263 170.83542L23.331263 169.77292L24.143763 169.77292L24.143763 170.83542L27.784388 170.83542Q28.237513 170.83542 28.362513 170.78854Q28.487513 170.72604 28.565638 170.60104Q28.643763 170.47604 28.643763 170.24167Q28.643763 170.05417 28.612513 169.77292ZM22.175013 169.0698L20.956263 169.0698L20.956263 168.0073L22.175013 168.0073L22.175013 169.0698ZM29.550013 169.0698L23.331263 169.0698L23.331263 168.0073L29.550013 168.0073L29.550013 169.0698ZM26.440638 166.46042Q24.706263 166.46042 23.878138 165.5073Q23.190638 164.71042 23.190638 163.55417Q23.190638 162.27292 24.034388 161.46042Q24.862513 160.6323 26.346888 160.6323Q27.550013 160.6323 28.237513 160.99167Q28.925013 161.35104 29.315638 162.05417Q29.690638 162.74167 29.690638 163.55417Q29.690638 164.85104 28.862513 165.66354Q28.018763 166.46042 26.440638 166.46042ZM26.440638 165.3823Q27.628138 165.3823 28.221888 164.86667Q28.815638 164.33542 28.815638 163.55417Q28.815638 162.7573 28.221888 162.24167Q27.628138 161.72604 26.409388 161.72604Q25.253138 161.72604 24.659388 162.2573Q24.065638 162.77292 24.065638 163.55417Q24.065638 164.33542 24.659388 164.86667Q25.237513 165.3823 26.440638 165.3823ZM32.08126 154.05417Q30.971888 154.92917 29.503138 155.53854Q28.018763 156.1323 26.440638 156.1323Q25.050013 156.1323 23.768763 155.6948Q22.284388 155.16354 20.815638 154.05417L20.815638 153.30417Q22.034388 154.0073 22.550013 154.24167Q23.362513 154.60104 24.237513 154.80417Q25.331263 155.05417 26.440638 155.05417Q29.268763 155.05417 32.08126 153.30417L32.08126 154.05417ZM29.550013 152.10104L20.956263 152.10104L20.956263 151.03854L29.550013 151.03854L29.550013 152.10104ZM29.550013 148.10104L29.550013 149.08542L20.956263 149.08542L20.956263 148.02292L24.018763 148.02292Q23.190638 147.35104 23.190638 146.3198Q23.190638 145.74167 23.425013 145.24167Q23.643763 144.72604 24.065638 144.39792Q24.487513 144.05417 25.081263 143.86667Q25.675013 143.67917 26.346888 143.67917Q27.940638 143.67917 28.815638 144.47604Q29.690638 145.27292 29.690638 146.36667Q29.690638 147.47604 28.768763 148.10104L29.550013 148.10104ZM26.393763 148.11667Q27.503138 148.11667 28.003138 147.80417Q28.815638 147.30417 28.815638 146.46042Q28.815638 145.77292 28.221888 145.27292Q27.628138 144.7573 26.425013 144.7573Q25.206263 144.7573 24.628138 145.24167Q24.050013 145.72604 24.050013 146.41354Q24.050013 147.10104 24.659388 147.61667Q25.253138 148.11667 26.393763 148.11667ZM27.690638 142.49167L27.534388 141.46042Q28.159388 141.36667 28.487513 140.97604Q28.815638 140.5698 28.815638 139.83542Q28.815638 139.11667 28.534388 138.77292Q28.237513 138.41354 27.831263 138.41354Q27.471888 138.41354 27.268763 138.72604Q27.128138 138.9448 26.909388 139.80417Q26.612513 140.96042 26.409388 141.41354Q26.190638 141.85104 25.815638 142.08542Q25.440638 142.3198 24.971888 142.3198Q24.565638 142.3198 24.206263 142.1323Q23.846888 141.9448 23.612513 141.61667Q23.440638 141.36667 23.315638 140.9448Q23.190638 140.52292 23.190638 140.02292Q23.190638 139.30417 23.409388 138.7573Q23.612513 138.1948 23.971888 137.92917Q24.331263 137.66354 24.925013 137.5698L25.065638 138.60104Q24.596888 138.66354 24.331263 139.0073Q24.050013 139.33542 24.050013 139.96042Q24.050013 140.67917 24.300013 140.99167Q24.534388 141.30417 24.862513 141.30417Q25.065638 141.30417 25.221888 141.17917Q25.393763 141.03854 25.503138 140.77292Q25.565638 140.61667 25.768763 139.83542Q26.081263 138.71042 26.268763 138.27292Q26.456263 137.83542 26.815638 137.58542Q27.175013 137.33542 27.721888 137.33542Q28.253138 137.33542 28.721888 137.64792Q29.175013 137.9448 29.440638 138.52292Q29.690638 139.10104 29.690638 139.83542Q29.690638 141.05417 29.190638 141.6948Q28.675013 142.3198 27.690638 142.49167ZM29.690638 136.86667L20.815638 134.3823L20.815638 133.53854L29.690638 136.02292L29.690638 136.86667ZM22.175013 133.0698L20.956263 133.0698L20.956263 132.0073L22.175013 132.0073L22.175013 133.0698ZM29.550013 133.0698L23.331263 133.0698L23.331263 132.0073L29.550013 132.0073L29.550013 133.0698ZM29.550013 130.0698L23.331263 130.0698L23.331263 129.1323L24.206263 129.1323Q23.190638 128.4448 23.190638 127.14792Q23.190638 126.58542 23.393763 126.11667Q23.596888 125.63229 23.925013 125.39792Q24.253138 125.16354 24.690638 125.06979Q24.987513 125.02292 25.721888 125.02292L29.550013 125.02292L29.550013 126.06979L25.768763 126.06979Q25.112513 126.06979 24.800013 126.19479Q24.487513 126.31979 24.300013 126.63229Q24.096888 126.94479 24.096888 127.36667Q24.096888 128.03854 24.534388 128.53854Q24.956263 129.02292 26.143763 129.02292L29.550013 129.02292L29.550013 130.0698ZM32.08126 122.38229L32.08126 123.13229Q29.268763 121.38229 26.440638 121.38229Q25.346888 121.38229 24.253138 121.63229Q23.378138 121.83542 22.565638 122.19479Q22.050013 122.42917 20.815638 123.13229L20.815638 122.38229Q22.284388 121.28854 23.768763 120.75729Q25.050013 120.30417 26.440638 120.30417Q28.018763 120.30417 29.503138 120.91354Q30.971888 121.52292 32.08126 122.38229Z" fill-rule="nonzero"/><path fill="#000000" d="M55.05 300.21564Q55.05 298.6844 55.3625 297.7625Q55.675 296.825 56.284374 296.325Q56.909374 295.825 57.846874 295.825Q58.534374 295.825 59.05 296.10626Q59.58125 296.3875 59.925 296.91876Q60.26875 297.4344 60.45625 298.1844Q60.64375 298.9344 60.64375 300.21564Q60.64375 301.73126 60.33125 302.65314Q60.034374 303.575 59.409374 304.09064Q58.8 304.59064 57.846874 304.59064Q56.6125 304.59064 55.89375 303.7Q55.05 302.6375 55.05 300.21564ZM56.128124 300.21564Q56.128124 302.325 56.628124 303.02814Q57.128124 303.73126 57.846874 303.73126Q58.58125 303.73126 59.065624 303.02814Q59.565624 302.325 59.565624 300.21564Q59.565624 298.09064 59.065624 297.40314Q58.58125 296.7 57.83125 296.7Q57.1125 296.7 56.675 297.3094Q56.128124 298.09064 56.128124 300.21564ZM62.64375 304.45L62.64375 303.2469L63.846874 303.2469L63.846874 304.45L62.64375 304.45ZM65.05 300.21564Q65.05 298.6844 65.3625 297.7625Q65.675 296.825 66.28438 296.325Q66.90938 295.825 67.84688 295.825Q68.53438 295.825 69.05 296.10626Q69.58125 296.3875 69.925 296.91876Q70.26875 297.4344 70.45625 298.1844Q70.64375 298.9344 70.64375 300.21564Q70.64375 301.73126 70.33125 302.65314Q70.03438 303.575 69.40938 304.09064Q68.8 304.59064 67.84688 304.59064Q66.6125 304.59064 65.89375 303.7Q65.05 302.6375 65.05 300.21564ZM66.12813 300.21564Q66.12813 302.325 66.62813 303.02814Q67.12813 303.73126 67.84688 303.73126Q68.58125 303.73126 69.06563 303.02814Q69.56563 302.325 69.56563 300.21564Q69.56563 298.09064 69.06563 297.40314Q68.58125 296.7 67.83125 296.7Q67.1125 296.7 66.675 297.3094Q66.12813 298.09064 66.12813 300.21564Z" fill-rule="nonzero"/><path fill="#000000" d="M55.05 257.7823Q55.05 256.25104 55.3625 255.32916Q55.675 254.39166 56.284374 253.89166Q56.909374 253.39166 57.846874 253.39166Q58.534374 253.39166 59.05 253.67291Q59.58125 253.95416 59.925 254.48541Q60.26875 255.00104 60.45625 255.75104Q60.64375 256.50104 60.64375 257.7823Q60.64375 259.2979 60.33125 260.2198Q60.034374 261.14166 59.409374 261.6573Q58.8 262.1573 57.846874 262.1573Q56.6125 262.1573 55.89375 261.26666Q55.05 260.20416 55.05 257.7823ZM56.128124 257.7823Q56.128124 259.89166 56.628124 260.5948Q57.128124 261.2979 57.846874 261.2979Q58.58125 261.2979 59.065624 260.5948Q59.565624 259.89166 59.565624 257.7823Q59.565624 255.65729 59.065624 254.96979Q58.58125 254.26666 57.83125 254.26666Q57.1125 254.26666 56.675 254.87604Q56.128124 255.65729 56.128124 257.7823ZM62.64375 262.01666L62.64375 260.81354L63.846874 260.81354L63.846874 262.01666L62.64375 262.01666ZM65.05 259.76666L66.15938 259.6729Q66.28438 260.4854 66.72188 260.89166Q67.175 261.2979 67.81563 261.2979Q68.56563 261.2979 69.09688 260.7198Q69.62813 260.14166 69.62813 259.20416Q69.62813 258.2979 69.1125 257.7823Q68.6125 257.25104 67.78438 257.25104Q67.28438 257.25104 66.8625 257.4854Q66.45625 257.7198 66.22188 258.07916L65.2375 257.95416L66.06563 253.54791L70.34688 253.54791L70.34688 254.54791L66.90938 254.54791L66.45625 256.8604Q67.22188 256.31354 68.06563 256.31354Q69.19063 256.31354 69.95625 257.0948Q70.7375 257.87604 70.7375 259.1104Q70.7375 260.26666 70.06563 261.12604Q69.2375 262.1573 67.81563 262.1573Q66.64375 262.1573 65.89375 261.50104Q65.15938 260.8448 65.05 259.76666Z" fill-rule="nonzero"/><path fill="#000000" d="M59.01875 219.58333L57.971874 219.58333L57.971874 212.86458Q57.58125 213.22395 56.95625 213.59895Q56.346874 213.95833 55.8625 214.1302L55.8625 213.11458Q56.7375 212.6927 57.39375 212.11458Q58.065624 211.52083 58.346874 210.95833L59.01875 210.95833L59.01875 219.58333ZM62.64375 219.58333L62.64375 218.3802L63.846874 218.3802L63.846874 219.58333L62.64375 219.58333ZM65.05 215.34895Q65.05 213.8177 65.3625 212.89583Q65.675 211.95833 66.28438 211.45833Q66.90938 210.95833 67.84688 210.95833Q68.53438 210.95833 69.05 211.23958Q69.58125 211.52083 69.925 212.05208Q70.26875 212.5677 70.45625 213.3177Q70.64375 214.0677 70.64375 215.34895Q70.64375 216.86458 70.33125 217.78645Q70.03438 218.70833 69.40938 219.22395Q68.8 219.72395 67.84688 219.72395Q66.6125 219.72395 65.89375 218.83333Q65.05 217.77083 65.05 215.34895ZM66.12813 215.34895Q66.12813 217.45833 66.62813 218.16145Q67.12813 218.86458 67.84688 218.86458Q68.58125 218.86458 69.06563 218.16145Q69.56563 217.45833 69.56563 215.34895Q69.56563 213.22395 69.06563 212.53645Q68.58125 211.83333 67.83125 211.83333Q67.1125 211.83333 66.675 212.4427Q66.12813 213.22395 66.12813 215.34895Z" fill-rule="nonzero"/><path fill="#000000" d="M59.01875 177.15L57.971874 177.15L57.971874 170.43124Q57.58125 170.79062 56.95625 171.16562Q56.346874 171.525 55.8625 171.69687L55.8625 170.68124Q56.7375 170.25937 57.39375 169.68124Q58.065624 169.0875 58.346874 168.525L59.01875 168.525L59.01875 177.15ZM62.64375 177.15L62.64375 175.94687L63.846874 175.94687L63.846874 177.15L62.64375 177.15ZM65.05 174.9L66.15938 174.80624Q66.28438 175.61874 66.72188 176.025Q67.175 176.43124 67.81563 176.43124Q68.56563 176.43124 69.09688 175.85312Q69.62813 175.275 69.62813 174.3375Q69.62813 173.43124 69.1125 172.91562Q68.6125 172.38437 67.78438 172.38437Q67.28438 172.38437 66.8625 172.61874Q66.45625 172.85312 66.22188 173.2125L65.2375 173.0875L66.06563 168.68124L70.34688 168.68124L70.34688 169.68124L66.90938 169.68124L66.45625 171.99374Q67.22188 171.44687 68.06563 171.44687Q69.19063 171.44687 69.95625 172.22812Q70.7375 173.00937 70.7375 174.24374Q70.7375 175.4 70.06563 176.25937Q69.2375 177.29062 67.81563 177.29062Q66.64375 177.29062 65.89375 176.63437Q65.15938 175.97812 65.05 174.9Z" fill-rule="nonzero"/><path fill="#000000" d="M60.596874 133.70103L60.596874 134.71666L54.909374 134.71666Q54.909374 134.34166 55.034374 133.98228Q55.253124 133.40416 55.721874 132.84166Q56.20625 132.27916 57.1125 131.54478Q58.51875 130.38853 59.003124 129.71666Q59.503124 129.04478 59.503124 128.45103Q59.503124 127.826035 59.05 127.40416Q58.596874 126.96666 57.878124 126.96666Q57.1125 126.96666 56.659374 127.419785Q56.20625 127.87291 56.190624 128.68541L55.1125 128.57603Q55.221874 127.357285 55.940624 126.732285Q56.675 126.09166 57.909374 126.09166Q59.14375 126.09166 59.8625 126.77916Q60.58125 127.46666 60.58125 128.48228Q60.58125 128.99791 60.3625 129.49791Q60.159374 129.98228 59.659374 130.54478Q59.175 131.09166 58.05 132.04478Q57.096874 132.84166 56.815624 133.13853Q56.55 133.41978 56.378124 133.70103L60.596874 133.70103ZM62.64375 134.71666L62.64375 133.51353L63.846874 133.51353L63.846874 134.71666L62.64375 134.71666ZM65.05 130.48228Q65.05 128.95103 65.3625 128.02916Q65.675 127.09166 66.28438 126.59166Q66.90938 126.09166 67.84688 126.09166Q68.53438 126.09166 69.05 126.37291Q69.58125 126.65416 69.925 127.18541Q70.26875 127.701035 70.45625 128.45103Q70.64375 129.20103 70.64375 130.48228Q70.64375 131.99791 70.33125 132.91978Q70.03438 133.84166 69.40938 134.35728Q68.8 134.85728 67.84688 134.85728Q66.6125 134.85728 65.89375 133.96666Q65.05 132.90416 65.05 130.48228ZM66.12813 130.48228Q66.12813 132.59166 66.62813 133.29478Q67.12813 133.99791 67.84688 133.99791Q68.58125 133.99791 69.06563 133.29478Q69.56563 132.59166 69.56563 130.48228Q69.56563 128.35728 69.06563 127.669785Q68.58125 126.96666 67.83125 126.96666Q67.1125 126.96666 66.675 127.576035Q66.12813 128.35728 66.12813 130.48228Z" fill-rule="nonzero"/><path fill="#000000" d="M60.596874 91.26771L60.596874 92.28333L54.909374 92.28333Q54.909374 91.90833 55.034374 91.54896Q55.253124 90.97083 55.721874 90.40833Q56.20625 89.84583 57.1125 89.11146Q58.51875 87.95521 59.003124 87.28333Q59.503124 86.61146 59.503124 86.01771Q59.503124 85.39271 59.05 84.97083Q58.596874 84.53333 57.878124 84.53333Q57.1125 84.53333 56.659374 84.98646Q56.20625 85.43958 56.190624 86.25208L55.1125 86.14271Q55.221874 84.92396 55.940624 84.29896Q56.675 83.65833 57.909374 83.65833Q59.14375 83.65833 59.8625 84.34583Q60.58125 85.03333 60.58125 86.04896Q60.58125 86.56458 60.3625 87.06458Q60.159374 87.54896 59.659374 88.11146Q59.175 88.65833 58.05 89.61146Q57.096874 90.40833 56.815624 90.70521Q56.55 90.98646 56.378124 91.26771L60.596874 91.26771ZM62.64375 92.28333L62.64375 91.08021L63.846874 91.08021L63.846874 92.28333L62.64375 92.28333ZM65.05 90.03333L66.15938 89.93958Q66.28438 90.75208 66.72188 91.15833Q67.175 91.56458 67.81563 91.56458Q68.56563 91.56458 69.09688 90.98646Q69.62813 90.40833 69.62813 89.47083Q69.62813 88.56458 69.1125 88.04896Q68.6125 87.51771 67.78438 87.51771Q67.28438 87.51771 66.8625 87.75208Q66.45625 87.98646 66.22188 88.34583L65.2375 88.22083L66.06563 83.81458L70.34688 83.81458L70.34688 84.81458L66.90938 84.81458L66.45625 87.12708Q67.22188 86.58021 68.06563 86.58021Q69.19063 86.58021 69.95625 87.36146Q70.7375 88.14271 70.7375 89.37708Q70.7375 90.53333 70.06563 91.39271Q69.2375 92.42396 67.81563 92.42396Q66.64375 92.42396 65.89375 91.76771Q65.15938 91.11146 65.05 90.03333Z" fill-rule="nonzero"/><path fill="#000000" d="M533.925 317.45L532.8781 317.45L532.8781 310.73126Q532.4875 311.09064 531.8625 311.46564Q531.2531 311.825 530.76874 311.9969L530.76874 310.98126Q531.64374 310.5594 532.3 309.98126Q532.97186 309.3875 533.2531 308.825L533.925 308.825L533.925 317.45ZM537.53436 312.4344L537.53436 311.23126L538.7375 311.23126L538.7375 312.4344L537.53436 312.4344ZM537.53436 317.45L537.53436 316.2469L538.7375 316.2469L538.7375 317.45L537.53436 317.45ZM543.33124 317.45L543.33124 315.3875L539.6125 315.3875L539.6125 314.41876L543.53436 308.85626L544.39374 308.85626L544.39374 314.41876L545.55 314.41876L545.55 315.3875L544.39374 315.3875L544.39374 317.45L543.33124 317.45ZM543.33124 314.41876L543.33124 310.5594L540.64374 314.41876L543.33124 314.41876ZM552.5031 316.4344L552.5031 317.45L546.8156 317.45Q546.8156 317.075 546.9406 316.71564Q547.15936 316.1375 547.6281 315.575Q548.1125 315.0125 549.01874 314.27814Q550.425 313.1219 550.90936 312.45Q551.40936 311.77814 551.40936 311.1844Q551.40936 310.5594 550.95624 310.1375Q550.5031 309.7 549.78436 309.7Q549.01874 309.7 548.5656 310.15314Q548.1125 310.60626 548.09686 311.41876L547.01874 311.3094Q547.1281 310.09064 547.84686 309.46564Q548.58124 308.825 549.8156 308.825Q551.05 308.825 551.76874 309.5125Q552.4875 310.2 552.4875 311.21564Q552.4875 311.73126 552.26874 312.23126Q552.0656 312.71564 551.5656 313.27814Q551.08124 313.825 549.95624 314.77814Q549.0031 315.575 548.72186 315.8719Q548.45624 316.15314 548.28436 316.4344L552.5031 316.4344ZM554.55 317.45L554.55 316.2469L555.7531 316.2469L555.7531 317.45L554.55 317.45ZM560.925 317.45L559.8781 317.45L559.8781 310.73126Q559.4875 311.09064 558.8625 311.46564Q558.2531 311.825 557.76874 311.9969L557.76874 310.98126Q558.64374 310.5594 559.3 309.98126Q559.97186 309.3875 560.2531 308.825L560.925 308.825L560.925 317.45ZM563.95624 315.2L565.0656 315.10626Q565.1906 315.91876 565.6281 316.325Q566.08124 316.73126 566.72186 316.73126Q567.47186 316.73126 568.0031 316.15314Q568.53436 315.575 568.53436 314.6375Q568.53436 313.73126 568.01874 313.21564Q567.51874 312.6844 566.6906 312.6844Q566.1906 312.6844 565.76874 312.91876Q565.3625 313.15314 565.1281 313.5125L564.14374 313.3875L564.97186 308.98126L569.2531 308.98126L569.2531 309.98126L565.8156 309.98126L565.3625 312.29376Q566.1281 311.7469 566.97186 311.7469Q568.09686 311.7469 568.8625 312.52814Q569.64374 313.3094 569.64374 314.54376Q569.64374 315.7 568.97186 316.5594Q568.14374 317.59064 566.72186 317.59064Q565.55 317.59064 564.8 316.9344Q564.0656 316.27814 563.95624 315.2Z" fill-rule="nonzero"/><path fill="#000000" d="M470.9375 317.45L469.89062 317.45L469.89062 310.73126Q469.5 311.09064 468.875 311.46564Q468.26562 311.825 467.78125 311.9969L467.78125 310.98126Q468.65625 310.5594 469.3125 309.98126Q469.98438 309.3875 470.26562 308.825L470.9375 308.825L470.9375 317.45ZM474.54688 312.4344L474.54688 311.23126L475.75 311.23126L475.75 312.4344L474.54688 312.4344ZM474.54688 317.45L474.54688 316.2469L475.75 316.2469L475.75 317.45L474.54688 317.45ZM480.34375 317.45L480.34375 315.3875L476.625 315.3875L476.625 314.41876L480.54688 308.85626L481.40625 308.85626L481.40625 314.41876L482.5625 314.41876L482.5625 315.3875L481.40625 315.3875L481.40625 317.45L480.34375 317.45ZM480.34375 314.41876L480.34375 310.5594L477.65625 314.41876L480.34375 314.41876ZM489.51562 316.4344L489.51562 317.45L483.82812 317.45Q483.82812 317.075 483.95312 316.71564Q484.17188 316.1375 484.64062 315.575Q485.125 315.0125 486.03125 314.27814Q487.4375 313.1219 487.92188 312.45Q488.42188 311.77814 488.42188 311.1844Q488.42188 310.5594 487.96875 310.1375Q487.51562 309.7 486.79688 309.7Q486.03125 309.7 485.57812 310.15314Q485.125 310.60626 485.10938 311.41876L484.03125 311.3094Q484.14062 310.09064 484.85938 309.46564Q485.59375 308.825 486.82812 308.825Q488.0625 308.825 488.78125 309.5125Q489.5 310.2 489.5 311.21564Q489.5 311.73126 489.28125 312.23126Q489.07812 312.71564 488.57812 313.27814Q488.09375 313.825 486.96875 314.77814Q486.01562 315.575 485.73438 315.8719Q485.46875 316.15314 485.29688 316.4344L489.51562 316.4344ZM491.5625 317.45L491.5625 316.2469L492.76562 316.2469L492.76562 317.45L491.5625 317.45ZM499.4375 310.96564L498.39062 311.04376Q498.25 310.41876 498.0 310.1375Q497.5625 309.6844 496.9375 309.6844Q496.4375 309.6844 496.04688 309.96564Q495.5625 310.34064 495.26562 311.04376Q494.98438 311.73126 494.96875 313.0125Q495.34375 312.4344 495.89062 312.15314Q496.45312 311.8719 497.0625 311.8719Q498.10938 311.8719 498.84375 312.65314Q499.59375 313.4344 499.59375 314.65314Q499.59375 315.46564 499.23438 316.16876Q498.89062 316.85626 498.28125 317.23126Q497.67188 317.59064 496.90625 317.59064Q495.57812 317.59064 494.75 316.6219Q493.92188 315.65314 493.92188 313.4344Q493.92188 310.9344 494.84375 309.8094Q495.64062 308.825 497.0 308.825Q498.01562 308.825 498.65625 309.40314Q499.3125 309.96564 499.4375 310.96564ZM495.14062 314.66876Q495.14062 315.21564 495.35938 315.71564Q495.59375 316.2 496.0 316.46564Q496.42188 316.73126 496.89062 316.73126Q497.54688 316.73126 498.03125 316.2Q498.51562 315.65314 498.51562 314.73126Q498.51562 313.84064 498.03125 313.325Q497.5625 312.8094 496.84375 312.8094Q496.125 312.8094 495.625 313.325Q495.14062 313.84064 495.14062 314.66876ZM504.9375 317.45L503.89062 317.45L503.89062 310.73126Q503.5 311.09064 502.875 311.46564Q502.26562 311.825 501.78125 311.9969L501.78125 310.98126Q502.65625 310.5594 503.3125 309.98126Q503.98438 309.3875 504.26562 308.825L504.9375 308.825L504.9375 317.45Z" fill-rule="nonzero"/><path fill="#000000" d="M407.95 317.45L406.90314 317.45L406.90314 310.73126Q406.5125 311.09064 405.8875 311.46564Q405.27814 311.825 404.79376 311.9969L404.79376 310.98126Q405.66876 310.5594 406.325 309.98126Q406.9969 309.3875 407.27814 308.825L407.95 308.825L407.95 317.45ZM411.5594 312.4344L411.5594 311.23126L412.7625 311.23126L412.7625 312.4344L411.5594 312.4344ZM411.5594 317.45L411.5594 316.2469L412.7625 316.2469L412.7625 317.45L411.5594 317.45ZM417.35626 317.45L417.35626 315.3875L413.6375 315.3875L413.6375 314.41876L417.5594 308.85626L418.41876 308.85626L418.41876 314.41876L419.575 314.41876L419.575 315.3875L418.41876 315.3875L418.41876 317.45L417.35626 317.45ZM417.35626 314.41876L417.35626 310.5594L414.66876 314.41876L417.35626 314.41876ZM426.52814 316.4344L426.52814 317.45L420.84064 317.45Q420.84064 317.075 420.96564 316.71564Q421.1844 316.1375 421.65314 315.575Q422.1375 315.0125 423.04376 314.27814Q424.45 313.1219 424.9344 312.45Q425.4344 311.77814 425.4344 311.1844Q425.4344 310.5594 424.98126 310.1375Q424.52814 309.7 423.8094 309.7Q423.04376 309.7 422.59064 310.15314Q422.1375 310.60626 422.1219 311.41876L421.04376 311.3094Q421.15314 310.09064 421.8719 309.46564Q422.60626 308.825 423.84064 308.825Q425.075 308.825 425.79376 309.5125Q426.5125 310.2 426.5125 311.21564Q426.5125 311.73126 426.29376 312.23126Q426.09064 312.71564 425.59064 313.27814Q425.10626 313.825 423.98126 314.77814Q423.02814 315.575 422.7469 315.8719Q422.48126 316.15314 422.3094 316.4344L426.52814 316.4344ZM428.575 317.45L428.575 316.2469L429.77814 316.2469L429.77814 317.45L428.575 317.45ZM431.1375 315.46564L432.15314 315.3719Q432.27814 316.09064 432.6375 316.41876Q433.0125 316.73126 433.575 316.73126Q434.0594 316.73126 434.41876 316.5125Q434.79376 316.27814 435.02814 315.91876Q435.2625 315.54376 435.41876 314.91876Q435.575 314.27814 435.575 313.6219Q435.575 313.54376 435.575 313.40314Q435.2625 313.90314 434.71564 314.23126Q434.16876 314.54376 433.52814 314.54376Q432.45 314.54376 431.71564 313.77814Q430.98126 312.9969 430.98126 311.73126Q430.98126 310.41876 431.7469 309.6219Q432.52814 308.825 433.6844 308.825Q434.5125 308.825 435.2 309.27814Q435.90314 309.73126 436.2625 310.575Q436.6219 311.40314 436.6219 312.98126Q436.6219 314.6219 436.2625 315.60626Q435.91876 316.575 435.2 317.09064Q434.4969 317.59064 433.5594 317.59064Q432.54376 317.59064 431.90314 317.04376Q431.2625 316.48126 431.1375 315.46564ZM435.45 311.66876Q435.45 310.7625 434.96564 310.23126Q434.4969 309.7 433.8094 309.7Q433.10626 309.7 432.575 310.27814Q432.0594 310.84064 432.0594 311.7625Q432.0594 312.575 432.5594 313.09064Q433.0594 313.60626 433.77814 313.60626Q434.5125 313.60626 434.98126 313.09064Q435.45 312.575 435.45 311.66876ZM437.98126 315.1844L439.04376 315.04376Q439.21564 315.9344 439.65314 316.34064Q440.09064 316.73126 440.71564 316.73126Q441.46564 316.73126 441.98126 316.21564Q442.4969 315.7 442.4969 314.9344Q442.4969 314.21564 442.0125 313.7469Q441.54376 313.2625 440.8094 313.2625Q440.5125 313.2625 440.0594 313.3875L440.1844 312.45Q440.29376 312.46564 440.35626 312.46564Q441.02814 312.46564 441.5594 312.1219Q442.10626 311.7625 442.10626 311.02814Q442.10626 310.45 441.71564 310.075Q441.325 309.6844 440.7 309.6844Q440.09064 309.6844 439.66876 310.075Q439.2625 310.46564 439.15314 311.23126L438.09064 311.04376Q438.27814 309.9969 438.96564 309.41876Q439.65314 308.825 440.66876 308.825Q441.3719 308.825 441.96564 309.1375Q442.5594 309.4344 442.8719 309.95Q443.1844 310.46564 443.1844 311.0594Q443.1844 311.60626 442.8875 312.075Q442.59064 312.52814 442.0125 312.79376Q442.7625 312.96564 443.1844 313.52814Q443.60626 314.075 443.60626 314.91876Q443.60626 316.04376 442.77814 316.825Q441.96564 317.60626 440.71564 317.60626Q439.59064 317.60626 438.84064 316.9344Q438.09064 316.2469 437.98126 315.1844Z" fill-rule="nonzero"/><path fill="#000000" d="M344.9625 317.45L343.91562 317.45L343.91562 310.73126Q343.525 311.09064 342.9 311.46564Q342.29062 311.825 341.80624 311.9969L341.80624 310.98126Q342.68124 310.5594 343.3375 309.98126Q344.00937 309.3875 344.29062 308.825L344.9625 308.825L344.9625 317.45ZM348.57187 312.4344L348.57187 311.23126L349.775 311.23126L349.775 312.4344L348.57187 312.4344ZM348.57187 317.45L348.57187 316.2469L349.775 316.2469L349.775 317.45L348.57187 317.45ZM354.36874 317.45L354.36874 315.3875L350.65 315.3875L350.65 314.41876L354.57187 308.85626L355.43124 308.85626L355.43124 314.41876L356.5875 314.41876L356.5875 315.3875L355.43124 315.3875L355.43124 317.45L354.36874 317.45ZM354.36874 314.41876L354.36874 310.5594L351.68124 314.41876L354.36874 314.41876ZM357.99374 315.1844L359.05624 315.04376Q359.22812 315.9344 359.66562 316.34064Q360.10312 316.73126 360.72812 316.73126Q361.47812 316.73126 361.99374 316.21564Q362.50937 315.7 362.50937 314.9344Q362.50937 314.21564 362.025 313.7469Q361.55624 313.2625 360.82187 313.2625Q360.525 313.2625 360.07187 313.3875L360.19687 312.45Q360.30624 312.46564 360.36874 312.46564Q361.04062 312.46564 361.57187 312.1219Q362.11874 311.7625 362.11874 311.02814Q362.11874 310.45 361.72812 310.075Q361.3375 309.6844 360.7125 309.6844Q360.10312 309.6844 359.68124 310.075Q359.275 310.46564 359.16562 311.23126L358.10312 311.04376Q358.29062 309.9969 358.97812 309.41876Q359.66562 308.825 360.68124 308.825Q361.38437 308.825 361.97812 309.1375Q362.57187 309.4344 362.88437 309.95Q363.19687 310.46564 363.19687 311.0594Q363.19687 311.60626 362.9 312.075Q362.60312 312.52814 362.025 312.79376Q362.775 312.96564 363.19687 313.52814Q363.61874 314.075 363.61874 314.91876Q363.61874 316.04376 362.79062 316.825Q361.97812 317.60626 360.72812 317.60626Q359.60312 317.60626 358.85312 316.9344Q358.10312 316.2469 357.99374 315.1844ZM365.5875 317.45L365.5875 316.2469L366.79062 316.2469L366.79062 317.45L365.5875 317.45ZM371.36874 317.45L371.36874 315.3875L367.65 315.3875L367.65 314.41876L371.57187 308.85626L372.43124 308.85626L372.43124 314.41876L373.5875 314.41876L373.5875 315.3875L372.43124 315.3875L372.43124 317.45L371.36874 317.45ZM371.36874 314.41876L371.36874 310.5594L368.68124 314.41876L371.36874 314.41876ZM378.9625 317.45L377.91562 317.45L377.91562 310.73126Q377.525 311.09064 376.9 311.46564Q376.29062 311.825 375.80624 311.9969L375.80624 310.98126Q376.68124 310.5594 377.3375 309.98126Q378.00937 309.3875 378.29062 308.825L378.9625 308.825L378.9625 317.45Z" fill-rule="nonzero"/><path fill="#000000" d="M281.975 317.45L280.92813 317.45L280.92813 310.73126Q280.5375 311.09064 279.9125 311.46564Q279.30313 311.825 278.81876 311.9969L278.81876 310.98126Q279.69376 310.5594 280.35 309.98126Q281.02188 309.3875 281.30313 308.825L281.975 308.825L281.975 317.45ZM285.58438 312.4344L285.58438 311.23126L286.7875 311.23126L286.7875 312.4344L285.58438 312.4344ZM285.58438 317.45L285.58438 316.2469L286.7875 316.2469L286.7875 317.45L285.58438 317.45ZM291.38126 317.45L291.38126 315.3875L287.6625 315.3875L287.6625 314.41876L291.58438 308.85626L292.44376 308.85626L292.44376 314.41876L293.6 314.41876L293.6 315.3875L292.44376 315.3875L292.44376 317.45L291.38126 317.45ZM291.38126 314.41876L291.38126 310.5594L288.69376 314.41876L291.38126 314.41876ZM295.00626 315.1844L296.06876 315.04376Q296.24063 315.9344 296.67813 316.34064Q297.11563 316.73126 297.74063 316.73126Q298.49063 316.73126 299.00626 316.21564Q299.52188 315.7 299.52188 314.9344Q299.52188 314.21564 299.0375 313.7469Q298.56876 313.2625 297.83438 313.2625Q297.5375 313.2625 297.08438 313.3875L297.20938 312.45Q297.31876 312.46564 297.38126 312.46564Q298.05313 312.46564 298.58438 312.1219Q299.13126 311.7625 299.13126 311.02814Q299.13126 310.45 298.74063 310.075Q298.35 309.6844 297.725 309.6844Q297.11563 309.6844 296.69376 310.075Q296.2875 310.46564 296.17813 311.23126L295.11563 311.04376Q295.30313 309.9969 295.99063 309.41876Q296.67813 308.825 297.69376 308.825Q298.39688 308.825 298.99063 309.1375Q299.58438 309.4344 299.89688 309.95Q300.20938 310.46564 300.20938 311.0594Q300.20938 311.60626 299.9125 312.075Q299.61563 312.52814 299.0375 312.79376Q299.7875 312.96564 300.20938 313.52814Q300.63126 314.075 300.63126 314.91876Q300.63126 316.04376 299.80313 316.825Q298.99063 317.60626 297.74063 317.60626Q296.61563 317.60626 295.86563 316.9344Q295.11563 316.2469 295.00626 315.1844ZM302.6 317.45L302.6 316.2469L303.80313 316.2469L303.80313 317.45L302.6 317.45ZM305.00626 315.2L306.11563 315.10626Q306.24063 315.91876 306.67813 316.325Q307.13126 316.73126 307.77188 316.73126Q308.52188 316.73126 309.05313 316.15314Q309.58438 315.575 309.58438 314.6375Q309.58438 313.73126 309.06876 313.21564Q308.56876 312.6844 307.74063 312.6844Q307.24063 312.6844 306.81876 312.91876Q306.4125 313.15314 306.17813 313.5125L305.19376 313.3875L306.02188 308.98126L310.30313 308.98126L310.30313 309.98126L306.86563 309.98126L306.4125 312.29376Q307.17813 311.7469 308.02188 311.7469Q309.14688 311.7469 309.9125 312.52814Q310.69376 313.3094 310.69376 314.54376Q310.69376 315.7 310.02188 316.5594Q309.19376 317.59064 307.77188 317.59064Q306.6 317.59064 305.85 316.9344Q305.11563 316.27814 305.00626 315.2ZM312.00626 315.2L313.11563 315.10626Q313.24063 315.91876 313.67813 316.325Q314.13126 316.73126 314.77188 316.73126Q315.52188 316.73126 316.05313 316.15314Q316.58438 315.575 316.58438 314.6375Q316.58438 313.73126 316.06876 313.21564Q315.56876 312.6844 314.74063 312.6844Q314.24063 312.6844 313.81876 312.91876Q313.4125 313.15314 313.17813 313.5125L312.19376 313.3875L313.02188 308.98126L317.30313 308.98126L317.30313 309.98126L313.86563 309.98126L313.4125 312.29376Q314.17813 311.7469 315.02188 311.7469Q316.14688 311.7469 316.9125 312.52814Q317.69376 313.3094 317.69376 314.54376Q317.69376 315.7 317.02188 316.5594Q316.19376 317.59064 314.77188 317.59064Q313.6 317.59064 312.85 316.9344Q312.11563 316.27814 312.00626 315.2Z" fill-rule="nonzero"/><path fill="#000000" d="M218.9875 317.45L217.94063 317.45L217.94063 310.73126Q217.55 311.09064 216.925 311.46564Q216.31563 311.825 215.83125 311.9969L215.83125 310.98126Q216.70625 310.5594 217.3625 309.98126Q218.03438 309.3875 218.31563 308.825L218.9875 308.825L218.9875 317.45ZM222.59688 312.4344L222.59688 311.23126L223.8 311.23126L223.8 312.4344L222.59688 312.4344ZM222.59688 317.45L222.59688 316.2469L223.8 316.2469L223.8 317.45L222.59688 317.45ZM228.39375 317.45L228.39375 315.3875L224.675 315.3875L224.675 314.41876L228.59688 308.85626L229.45625 308.85626L229.45625 314.41876L230.6125 314.41876L230.6125 315.3875L229.45625 315.3875L229.45625 317.45L228.39375 317.45ZM228.39375 314.41876L228.39375 310.5594L225.70625 314.41876L228.39375 314.41876ZM235.39375 317.45L235.39375 315.3875L231.675 315.3875L231.675 314.41876L235.59688 308.85626L236.45625 308.85626L236.45625 314.41876L237.6125 314.41876L237.6125 315.3875L236.45625 315.3875L236.45625 317.45L235.39375 317.45ZM235.39375 314.41876L235.39375 310.5594L232.70625 314.41876L235.39375 314.41876ZM239.6125 317.45L239.6125 316.2469L240.81563 316.2469L240.81563 317.45L239.6125 317.45ZM247.56563 316.4344L247.56563 317.45L241.87813 317.45Q241.87813 317.075 242.00313 316.71564Q242.22188 316.1375 242.69063 315.575Q243.175 315.0125 244.08125 314.27814Q245.4875 313.1219 245.97188 312.45Q246.47188 311.77814 246.47188 311.1844Q246.47188 310.5594 246.01875 310.1375Q245.56563 309.7 244.84688 309.7Q244.08125 309.7 243.62813 310.15314Q243.175 310.60626 243.15938 311.41876L242.08125 311.3094Q242.19063 310.09064 242.90938 309.46564Q243.64375 308.825 244.87813 308.825Q246.1125 308.825 246.83125 309.5125Q247.55 310.2 247.55 311.21564Q247.55 311.73126 247.33125 312.23126Q247.12813 312.71564 246.62813 313.27814Q246.14375 313.825 245.01875 314.77814Q244.06563 315.575 243.78438 315.8719Q243.51875 316.15314 243.34688 316.4344L247.56563 316.4344ZM249.01875 313.21564Q249.01875 311.6844 249.33125 310.7625Q249.64375 309.825 250.25313 309.325Q250.87813 308.825 251.81563 308.825Q252.50313 308.825 253.01875 309.10626Q253.55 309.3875 253.89375 309.91876Q254.2375 310.4344 254.425 311.1844Q254.6125 311.9344 254.6125 313.21564Q254.6125 314.73126 254.3 315.65314Q254.00313 316.575 253.37813 317.09064Q252.76875 317.59064 251.81563 317.59064Q250.58125 317.59064 249.8625 316.7Q249.01875 315.6375 249.01875 313.21564ZM250.09688 313.21564Q250.09688 315.325 250.59688 316.02814Q251.09688 316.73126 251.81563 316.73126Q252.55 316.73126 253.03438 316.02814Q253.53438 315.325 253.53438 313.21564Q253.53438 311.09064 253.03438 310.40314Q252.55 309.7 251.8 309.7Q251.08125 309.7 250.64375 310.3094Q250.09688 311.09064 250.09688 313.21564Z" fill-rule="nonzero"/><path fill="#000000" d="M156.0 317.45L154.95312 317.45L154.95312 310.73126Q154.5625 311.09064 153.9375 311.46564Q153.32812 311.825 152.84375 311.9969L152.84375 310.98126Q153.71875 310.5594 154.375 309.98126Q155.04688 309.3875 155.32812 308.825L156.0 308.825L156.0 317.45ZM159.60938 312.4344L159.60938 311.23126L160.8125 311.23126L160.8125 312.4344L159.60938 312.4344ZM159.60938 317.45L159.60938 316.2469L160.8125 316.2469L160.8125 317.45L159.60938 317.45ZM165.40625 317.45L165.40625 315.3875L161.6875 315.3875L161.6875 314.41876L165.60938 308.85626L166.46875 308.85626L166.46875 314.41876L167.625 314.41876L167.625 315.3875L166.46875 315.3875L166.46875 317.45L165.40625 317.45ZM165.40625 314.41876L165.40625 310.5594L162.71875 314.41876L165.40625 314.41876ZM174.5 310.96564L173.45312 311.04376Q173.3125 310.41876 173.0625 310.1375Q172.625 309.6844 172.0 309.6844Q171.5 309.6844 171.10938 309.96564Q170.625 310.34064 170.32812 311.04376Q170.04688 311.73126 170.03125 313.0125Q170.40625 312.4344 170.95312 312.15314Q171.51562 311.8719 172.125 311.8719Q173.17188 311.8719 173.90625 312.65314Q174.65625 313.4344 174.65625 314.65314Q174.65625 315.46564 174.29688 316.16876Q173.95312 316.85626 173.34375 317.23126Q172.73438 317.59064 171.96875 317.59064Q170.64062 317.59064 169.8125 316.6219Q168.98438 315.65314 168.98438 313.4344Q168.98438 310.9344 169.90625 309.8094Q170.70312 308.825 172.0625 308.825Q173.07812 308.825 173.71875 309.40314Q174.375 309.96564 174.5 310.96564ZM170.20312 314.66876Q170.20312 315.21564 170.42188 315.71564Q170.65625 316.2 171.0625 316.46564Q171.48438 316.73126 171.95312 316.73126Q172.60938 316.73126 173.09375 316.2Q173.57812 315.65314 173.57812 314.73126Q173.57812 313.84064 173.09375 313.325Q172.625 312.8094 171.90625 312.8094Q171.1875 312.8094 170.6875 313.325Q170.20312 313.84064 170.20312 314.66876ZM176.625 317.45L176.625 316.2469L177.82812 316.2469L177.82812 317.45L176.625 317.45ZM179.03125 313.21564Q179.03125 311.6844 179.34375 310.7625Q179.65625 309.825 180.26562 309.325Q180.89062 308.825 181.82812 308.825Q182.51562 308.825 183.03125 309.10626Q183.5625 309.3875 183.90625 309.91876Q184.25 310.4344 184.4375 311.1844Q184.625 311.9344 184.625 313.21564Q184.625 314.73126 184.3125 315.65314Q184.01562 316.575 183.39062 317.09064Q182.78125 317.59064 181.82812 317.59064Q180.59375 317.59064 179.875 316.7Q179.03125 315.6375 179.03125 313.21564ZM180.10938 313.21564Q180.10938 315.325 180.60938 316.02814Q181.10938 316.73126 181.82812 316.73126Q182.5625 316.73126 183.04688 316.02814Q183.54688 315.325 183.54688 313.21564Q183.54688 311.09064 183.04688 310.40314Q182.5625 309.7 181.8125 309.7Q181.09375 309.7 180.65625 310.3094Q180.10938 311.09064 180.10938 313.21564ZM191.57812 316.4344L191.57812 317.45L185.89062 317.45Q185.89062 317.075 186.01562 316.71564Q186.23438 316.1375 186.70312 315.575Q187.1875 315.0125 188.09375 314.27814Q189.5 313.1219 189.98438 312.45Q190.48438 311.77814 190.48438 311.1844Q190.48438 310.5594 190.03125 310.1375Q189.57812 309.7 188.85938 309.7Q188.09375 309.7 187.64062 310.15314Q187.1875 310.60626 187.17188 311.41876L186.09375 311.3094Q186.20312 310.09064 186.92188 309.46564Q187.65625 308.825 188.89062 308.825Q190.125 308.825 190.84375 309.5125Q191.5625 310.2 191.5625 311.21564Q191.5625 311.73126 191.34375 312.23126Q191.14062 312.71564 190.64062 313.27814Q190.15625 313.825 189.03125 314.77814Q188.07812 315.575 187.79688 315.8719Q187.53125 316.15314 187.35938 316.4344L191.57812 316.4344Z" fill-rule="nonzero"/><path fill="#000000" d="M93.0125 317.45L91.96562 317.45L91.96562 310.73126Q91.575 311.09064 90.95 311.46564Q90.34062 311.825 89.85625 311.9969L89.85625 310.98126Q90.73125 310.5594 91.3875 309.98126Q92.05937 309.3875 92.34062 308.825L93.0125 308.825L93.0125 317.45ZM96.62187 312.4344L96.62187 311.23126L97.825 311.23126L97.825 312.4344L96.62187 312.4344ZM96.62187 317.45L96.62187 316.2469L97.825 316.2469L97.825 317.45L96.62187 317.45ZM102.41875 317.45L102.41875 315.3875L98.7 315.3875L98.7 314.41876L102.62187 308.85626L103.48125 308.85626L103.48125 314.41876L104.6375 314.41876L104.6375 315.3875L103.48125 315.3875L103.48125 317.45L102.41875 317.45ZM102.41875 314.41876L102.41875 310.5594L99.73125 314.41876L102.41875 314.41876ZM111.5125 310.96564L110.46562 311.04376Q110.325 310.41876 110.075 310.1375Q109.6375 309.6844 109.0125 309.6844Q108.5125 309.6844 108.12187 309.96564Q107.6375 310.34064 107.34062 311.04376Q107.05937 311.73126 107.04375 313.0125Q107.41875 312.4344 107.96562 312.15314Q108.52812 311.8719 109.1375 311.8719Q110.18437 311.8719 110.91875 312.65314Q111.66875 313.4344 111.66875 314.65314Q111.66875 315.46564 111.30937 316.16876Q110.96562 316.85626 110.35625 317.23126Q109.74687 317.59064 108.98125 317.59064Q107.65312 317.59064 106.825 316.6219Q105.99687 315.65314 105.99687 313.4344Q105.99687 310.9344 106.91875 309.8094Q107.71562 308.825 109.075 308.825Q110.09062 308.825 110.73125 309.40314Q111.3875 309.96564 111.5125 310.96564ZM107.21562 314.66876Q107.21562 315.21564 107.43437 315.71564Q107.66875 316.2 108.075 316.46564Q108.49687 316.73126 108.96562 316.73126Q109.62187 316.73126 110.10625 316.2Q110.59062 315.65314 110.59062 314.73126Q110.59062 313.84064 110.10625 313.325Q109.6375 312.8094 108.91875 312.8094Q108.2 312.8094 107.7 313.325Q107.21562 313.84064 107.21562 314.66876ZM113.6375 317.45L113.6375 316.2469L114.84062 316.2469L114.84062 317.45L113.6375 317.45ZM120.0125 317.45L118.96562 317.45L118.96562 310.73126Q118.575 311.09064 117.95 311.46564Q117.34062 311.825 116.85625 311.9969L116.85625 310.98126Q117.73125 310.5594 118.3875 309.98126Q119.05937 309.3875 119.34062 308.825L120.0125 308.825L120.0125 317.45ZM123.04375 315.2L124.15312 315.10626Q124.27812 315.91876 124.71562 316.325Q125.16875 316.73126 125.80937 316.73126Q126.55937 316.73126 127.09062 316.15314Q127.62187 315.575 127.62187 314.6375Q127.62187 313.73126 127.10625 313.21564Q126.60625 312.6844 125.77812 312.6844Q125.27812 312.6844 124.85625 312.91876Q124.45 313.15314 124.21562 313.5125L123.23125 313.3875L124.05937 308.98126L128.34062 308.98126L128.34062 309.98126L124.90312 309.98126L124.45 312.29376Q125.21562 311.7469 126.05937 311.7469Q127.18437 311.7469 127.95 312.52814Q128.73125 313.3094 128.73125 314.54376Q128.73125 315.7 128.05937 316.5594Q127.23125 317.59064 125.80937 317.59064Q124.6375 317.59064 123.8875 316.9344Q123.15312 316.27814 123.04375 315.2Z" fill-rule="nonzero"/><path fill="#4285f4" d="M200.5 61.916668C200.5 65.23038 197.8137 67.916664 194.5 67.916664C191.1863 67.916664 188.5 65.23038 188.5 61.916668C188.5 58.60296 191.1863 55.916668 194.5 55.916668C197.8137 55.916668 200.5 58.60296 200.5 61.916668Z" fill-rule="nonzero"/><path stroke="#4285f4" stroke-width="4.0" stroke-linecap="butt" stroke-opacity="0.4" d="M216.5 61.916668L228.5 61.916668" fill-rule="nonzero"/><path fill="#1a1a1a" d="M239.60938 65.916664L239.60938 58.33854L236.78125 58.33854L236.78125 57.322914L243.59375 57.322914L243.59375 58.33854L240.75 58.33854L240.75 65.916664L239.60938 65.916664ZM244.28125 65.916664L244.28125 59.697914L245.23438 59.697914L245.23438 60.635414Q245.59375 59.979164 245.89062 59.77604Q246.20312 59.55729 246.57812 59.55729Q247.10938 59.55729 247.65625 59.885414L247.29688 60.86979Q246.90625 60.635414 246.53125 60.635414Q246.17188 60.635414 245.89062 60.854164Q245.625 61.05729 245.51562 61.43229Q245.32812 61.99479 245.32812 62.65104L245.32812 65.916664L244.28125 65.916664ZM252.54688 63.916664L253.64062 64.041664Q253.39062 64.99479 252.6875 65.52604Q251.98438 66.05729 250.90625 66.05729Q249.54688 66.05729 248.73438 65.21354Q247.9375 64.36979 247.9375 62.854164Q247.9375 61.291664 248.75 60.43229Q249.5625 59.55729 250.84375 59.55729Q252.09375 59.55729 252.875 60.40104Q253.67188 61.24479 253.67188 62.791664Q253.67188 62.885414 253.67188 63.072914L249.03125 63.072914Q249.09375 64.104164 249.60938 64.65104Q250.125 65.18229 250.90625 65.18229Q251.48438 65.18229 251.89062 64.885414Q252.3125 64.572914 252.54688 63.916664ZM249.09375 62.21354L252.5625 62.21354Q252.5 61.416664 252.17188 61.02604Q251.65625 60.416664 250.85938 60.416664Q250.125 60.416664 249.625 60.90104Q249.14062 61.385414 249.09375 62.21354ZM255.29688 65.916664L255.29688 59.697914L256.23438 59.697914L256.23438 60.572914Q256.92188 59.55729 258.21875 59.55729Q258.78125 59.55729 259.25 59.760414Q259.73438 59.96354 259.96875 60.291664Q260.20312 60.61979 260.29688 61.05729Q260.34375 61.354164 260.34375 62.08854L260.34375 65.916664L259.29688 65.916664L259.29688 62.135414Q259.29688 61.479164 259.17188 61.166664Q259.04688 60.854164 258.73438 60.666664Q258.42188 60.46354 258.0 60.46354Q257.32812 60.46354 256.82812 60.90104Q256.34375 61.322914 256.34375 62.510414L256.34375 65.916664L255.29688 65.916664ZM266.32812 65.916664L266.32812 65.135414Q265.73438 66.05729 264.59375 66.05729Q263.84375 66.05729 263.21875 65.65104Q262.59375 65.229164 262.25 64.49479Q261.90625 63.760414 261.90625 62.80729Q261.90625 61.885414 262.21875 61.11979Q262.53125 60.354164 263.15625 59.96354Q263.78125 59.55729 264.54688 59.55729Q265.10938 59.55729 265.54688 59.791664Q265.98438 60.02604 266.26562 60.40104L266.26562 57.322914L267.3125 57.322914L267.3125 65.916664L266.32812 65.916664ZM263.0 62.80729Q263.0 64.010414 263.5 64.604164Q264.0 65.18229 264.6875 65.18229Q265.375 65.18229 265.85938 64.61979Q266.34375 64.05729 266.34375 62.90104Q266.34375 61.61979 265.84375 61.02604Q265.35938 60.43229 264.64062 60.43229Q263.9375 60.43229 263.46875 61.010414Q263.0 61.572914 263.0 62.80729ZM269.26562 65.916664L269.26562 57.322914L270.32812 57.322914L270.32812 65.916664L269.26562 65.916664ZM272.29688 58.541664L272.29688 57.322914L273.35938 57.322914L273.35938 58.541664L272.29688 58.541664ZM272.29688 65.916664L272.29688 59.697914L273.35938 59.697914L273.35938 65.916664L272.29688 65.916664ZM275.29688 65.916664L275.29688 59.697914L276.23438 59.697914L276.23438 60.572914Q276.92188 59.55729 278.21875 59.55729Q278.78125 59.55729 279.25 59.760414Q279.73438 59.96354 279.96875 60.291664Q280.20312 60.61979 280.29688 61.05729Q280.34375 61.354164 280.34375 62.08854L280.34375 65.916664L279.29688 65.916664L279.29688 62.135414Q279.29688 61.479164 279.17188 61.166664Q279.04688 60.854164 278.73438 60.666664Q278.42188 60.46354 278.0 60.46354Q277.32812 60.46354 276.82812 60.90104Q276.34375 61.322914 276.34375 62.510414L276.34375 65.916664L275.29688 65.916664ZM286.54688 63.916664L287.64062 64.041664Q287.39062 64.99479 286.6875 65.52604Q285.98438 66.05729 284.90625 66.05729Q283.54688 66.05729 282.73438 65.21354Q281.9375 64.36979 281.9375 62.854164Q281.9375 61.291664 282.75 60.43229Q283.5625 59.55729 284.84375 59.55729Q286.09375 59.55729 286.875 60.40104Q287.67188 61.24479 287.67188 62.791664Q287.67188 62.885414 287.67188 63.072914L283.03125 63.072914Q283.09375 64.104164 283.60938 64.65104Q284.125 65.18229 284.90625 65.18229Q285.48438 65.18229 285.89062 64.885414Q286.3125 64.572914 286.54688 63.916664ZM283.09375 62.21354L286.5625 62.21354Q286.5 61.416664 286.17188 61.02604Q285.65625 60.416664 284.85938 60.416664Q284.125 60.416664 283.625 60.90104Q283.14062 61.385414 283.09375 62.21354ZM292.54688 65.916664L292.54688 60.510414L291.60938 60.510414L291.60938 59.697914L292.54688 59.697914L292.54688 59.02604Q292.54688 58.40104 292.65625 58.104164Q292.8125 57.68229 293.1875 57.43229Q293.57812 57.18229 294.26562 57.18229Q294.71875 57.18229 295.25 57.291664L295.09375 58.197914Q294.76562 58.15104 294.46875 58.15104Q293.98438 58.15104 293.78125 58.354164Q293.59375 58.55729 293.59375 59.11979L293.59375 59.697914L294.8125 59.697914L294.8125 60.510414L293.59375 60.510414L293.59375 65.916664L292.54688 65.916664ZM294.90625 62.80729Q294.90625 61.072914 295.85938 60.24479Q296.65625 59.55729 297.8125 59.55729Q299.09375 59.55729 299.90625 60.40104Q300.73438 61.229164 300.73438 62.71354Q300.73438 63.916664 300.375 64.604164Q300.01562 65.291664 299.3125 65.68229Q298.625 66.05729 297.8125 66.05729Q296.51562 66.05729 295.70312 65.229164Q294.90625 64.385414 294.90625 62.80729ZM295.98438 62.80729Q295.98438 63.99479 296.5 64.58854Q297.03125 65.18229 297.8125 65.18229Q298.60938 65.18229 299.125 64.58854Q299.64062 63.99479 299.64062 62.77604Q299.64062 61.61979 299.10938 61.02604Q298.59375 60.43229 297.8125 60.43229Q297.03125 60.43229 296.5 61.02604Q295.98438 61.604164 295.98438 62.80729ZM302.28125 65.916664L302.28125 59.697914L303.23438 59.697914L303.23438 60.635414Q303.59375 59.979164 303.89062 59.77604Q304.20312 59.55729 304.57812 59.55729Q305.10938 59.55729 305.65625 59.885414L305.29688 60.86979Q304.90625 60.635414 304.53125 60.635414Q304.17188 60.635414 303.89062 60.854164Q303.625 61.05729 303.51562 61.43229Q303.32812 61.99479 303.32812 62.65104L303.32812 65.916664L302.28125 65.916664ZM308.875 64.05729L309.90625 63.90104Q310.0 64.52604 310.39062 64.854164Q310.79688 65.18229 311.53125 65.18229Q312.25 65.18229 312.59375 64.90104Q312.95312 64.604164 312.95312 64.197914Q312.95312 63.83854 312.64062 63.635414Q312.42188 63.49479 311.5625 63.27604Q310.40625 62.979164 309.95312 62.77604Q309.51562 62.55729 309.28125 62.18229Q309.04688 61.80729 309.04688 61.33854Q309.04688 60.93229 309.23438 60.572914Q309.42188 60.21354 309.75 59.979164Q310.0 59.80729 310.42188 59.68229Q310.84375 59.55729 311.34375 59.55729Q312.0625 59.55729 312.60938 59.77604Q313.17188 59.979164 313.4375 60.33854Q313.70312 60.697914 313.79688 61.291664L312.76562 61.43229Q312.70312 60.96354 312.35938 60.697914Q312.03125 60.416664 311.40625 60.416664Q310.6875 60.416664 310.375 60.666664Q310.0625 60.90104 310.0625 61.229164Q310.0625 61.43229 310.1875 61.58854Q310.32812 61.760414 310.59375 61.86979Q310.75 61.93229 311.53125 62.135414Q312.65625 62.447914 313.09375 62.635414Q313.53125 62.822914 313.78125 63.18229Q314.03125 63.541664 314.03125 64.08854Q314.03125 64.61979 313.71875 65.08854Q313.42188 65.541664 312.84375 65.80729Q312.26562 66.05729 311.53125 66.05729Q310.3125 66.05729 309.67188 65.55729Q309.04688 65.041664 308.875 64.05729ZM319.54688 63.916664L320.64062 64.041664Q320.39062 64.99479 319.6875 65.52604Q318.98438 66.05729 317.90625 66.05729Q316.54688 66.05729 315.73438 65.21354Q314.9375 64.36979 314.9375 62.854164Q314.9375 61.291664 315.75 60.43229Q316.5625 59.55729 317.84375 59.55729Q319.09375 59.55729 319.875 60.40104Q320.67188 61.24479 320.67188 62.791664Q320.67188 62.885414 320.67188 63.072914L316.03125 63.072914Q316.09375 64.104164 316.60938 64.65104Q317.125 65.18229 317.90625 65.18229Q318.48438 65.18229 318.89062 64.885414Q319.3125 64.572914 319.54688 63.916664ZM316.09375 62.21354L319.5625 62.21354Q319.5 61.416664 319.17188 61.02604Q318.65625 60.416664 317.85938 60.416664Q317.125 60.416664 316.625 60.90104Q316.14062 61.385414 316.09375 62.21354ZM322.28125 65.916664L322.28125 59.697914L323.23438 59.697914L323.23438 60.635414Q323.59375 59.979164 323.89062 59.77604Q324.20312 59.55729 324.57812 59.55729Q325.10938 59.55729 325.65625 59.885414L325.29688 60.86979Q324.90625 60.635414 324.53125 60.635414Q324.17188 60.635414 323.89062 60.854164Q323.625 61.05729 323.51562 61.43229Q323.32812 61.99479 323.32812 62.65104L323.32812 65.916664L322.28125 65.916664ZM326.29688 58.541664L326.29688 57.322914L327.35938 57.322914L327.35938 58.541664L326.29688 58.541664ZM326.29688 65.916664L326.29688 59.697914L327.35938 59.697914L327.35938 65.916664L326.29688 65.916664ZM333.54688 63.916664L334.64062 64.041664Q334.39062 64.99479 333.6875 65.52604Q332.98438 66.05729 331.90625 66.05729Q330.54688 66.05729 329.73438 65.21354Q328.9375 64.36979 328.9375 62.854164Q328.9375 61.291664 329.75 60.43229Q330.5625 59.55729 331.84375 59.55729Q333.09375 59.55729 333.875 60.40104Q334.67188 61.24479 334.67188 62.791664Q334.67188 62.885414 334.67188 63.072914L330.03125 63.072914Q330.09375 64.104164 330.60938 64.65104Q331.125 65.18229 331.90625 65.18229Q332.48438 65.18229 332.89062 64.885414Q333.3125 64.572914 333.54688 63.916664ZM330.09375 62.21354L333.5625 62.21354Q333.5 61.416664 333.17188 61.02604Q332.65625 60.416664 331.85938 60.416664Q331.125 60.416664 330.625 60.90104Q330.14062 61.385414 330.09375 62.21354ZM335.875 64.05729L336.90625 63.90104Q337.0 64.52604 337.39062 64.854164Q337.79688 65.18229 338.53125 65.18229Q339.25 65.18229 339.59375 64.90104Q339.95312 64.604164 339.95312 64.197914Q339.95312 63.83854 339.64062 63.635414Q339.42188 63.49479 338.5625 63.27604Q337.40625 62.979164 336.95312 62.77604Q336.51562 62.55729 336.28125 62.18229Q336.04688 61.80729 336.04688 61.33854Q336.04688 60.93229 336.23438 60.572914Q336.42188 60.21354 336.75 59.979164Q337.0 59.80729 337.42188 59.68229Q337.84375 59.55729 338.34375 59.55729Q339.0625 59.55729 339.60938 59.77604Q340.17188 59.979164 340.4375 60.33854Q340.70312 60.697914 340.79688 61.291664L339.76562 61.43229Q339.70312 60.96354 339.35938 60.697914Q339.03125 60.416664 338.40625 60.416664Q337.6875 60.416664 337.375 60.666664Q337.0625 60.90104 337.0625 61.229164Q337.0625 61.43229 337.1875 61.58854Q337.32812 61.760414 337.59375 61.86979Q337.75 61.93229 338.53125 62.135414Q339.65625 62.447914 340.09375 62.635414Q340.53125 62.822914 340.78125 63.18229Q341.03125 63.541664 341.03125 64.08854Q341.03125 64.61979 340.71875 65.08854Q340.42188 65.541664 339.84375 65.80729Q339.26562 66.05729 338.53125 66.05729Q337.3125 66.05729 336.67188 65.55729Q336.04688 65.041664 335.875 64.05729ZM348.96875 65.916664L347.92188 65.916664L347.92188 59.197914Q347.53125 59.55729 346.90625 59.93229Q346.29688 60.291664 345.8125 60.46354L345.8125 59.447914Q346.6875 59.02604 347.34375 58.447914Q348.01562 57.854164 348.29688 57.291664L348.96875 57.291664L348.96875 65.916664ZM355.4375 65.916664L355.4375 57.322914L359.25 57.322914Q360.40625 57.322914 361.0 57.55729Q361.59375 57.791664 361.95312 58.385414Q362.3125 58.96354 362.3125 59.666664Q362.3125 60.58854 361.71875 61.21354Q361.125 61.83854 359.89062 62.010414Q360.34375 62.229164 360.57812 62.43229Q361.07812 62.885414 361.51562 63.572914L363.01562 65.916664L361.57812 65.916664L360.45312 64.135414Q359.95312 63.354164 359.625 62.947914Q359.3125 62.541664 359.04688 62.385414Q358.79688 62.21354 358.53125 62.135414Q358.34375 62.104164 357.90625 62.104164L356.57812 62.104164L356.57812 65.916664L355.4375 65.916664ZM356.57812 61.11979L359.03125 61.11979Q359.79688 61.11979 360.23438 60.96354Q360.6875 60.791664 360.90625 60.447914Q361.14062 60.08854 361.14062 59.666664Q361.14062 59.05729 360.6875 58.666664Q360.25 58.27604 359.29688 58.27604L356.57812 58.27604L356.57812 61.11979ZM363.64062 61.61979Q363.6875 61.291664 363.92188 60.947914Q364.29688 60.447914 365.14062 59.83854Q365.98438 59.229164 366.14062 59.041664Q366.35938 58.80729 366.35938 58.55729Q366.35938 58.27604 366.14062 58.104164Q365.9375 57.916664 365.54688 57.916664Q365.15625 57.916664 364.96875 58.05729Q364.78125 58.18229 364.65625 58.572914L363.76562 58.479164Q363.9375 57.83854 364.35938 57.52604Q364.78125 57.21354 365.5625 57.21354Q366.45312 57.21354 366.85938 57.572914Q367.28125 57.916664 367.28125 58.416664Q367.28125 58.90104 366.92188 59.33854Q366.67188 59.666664 365.73438 60.33854Q365.23438 60.697914 365.03125 60.916664L367.29688 60.916664L367.29688 61.61979L363.64062 61.61979ZM376.84375 60.86979L371.17188 60.86979L371.17188 59.885414L376.84375 59.885414L376.84375 60.86979ZM376.84375 63.479164L371.17188 63.479164L371.17188 62.49479L376.84375 62.49479L376.84375 63.479164ZM381.0 61.68229Q381.0 60.15104 381.3125 59.229164Q381.625 58.291664 382.23438 57.791664Q382.85938 57.291664 383.79688 57.291664Q384.48438 57.291664 385.0 57.572914Q385.53125 57.854164 385.875 58.385414Q386.21875 58.90104 386.40625 59.65104Q386.59375 60.40104 386.59375 61.68229Q386.59375 63.197914 386.28125 64.11979Q385.98438 65.041664 385.35938 65.55729Q384.75 66.05729 383.79688 66.05729Q382.5625 66.05729 381.84375 65.166664Q381.0 64.104164 381.0 61.68229ZM382.07812 61.68229Q382.07812 63.791664 382.57812 64.49479Q383.07812 65.197914 383.79688 65.197914Q384.53125 65.197914 385.01562 64.49479Q385.51562 63.791664 385.51562 61.68229Q385.51562 59.55729 385.01562 58.86979Q384.53125 58.166664 383.78125 58.166664Q383.0625 58.166664 382.625 58.77604Q382.07812 59.55729 382.07812 61.68229ZM388.59375 65.916664L388.59375 64.71354L389.79688 64.71354L389.79688 65.916664L388.59375 65.916664ZM391.0 63.65104L392.0625 63.510414Q392.23438 64.40104 392.67188 64.80729Q393.10938 65.197914 393.73438 65.197914Q394.48438 65.197914 395.0 64.68229Q395.51562 64.166664 395.51562 63.40104Q395.51562 62.68229 395.03125 62.21354Q394.5625 61.729164 393.82812 61.729164Q393.53125 61.729164 393.07812 61.854164L393.20312 60.916664Q393.3125 60.93229 393.375 60.93229Q394.04688 60.93229 394.57812 60.58854Q395.125 60.229164 395.125 59.49479Q395.125 58.916664 394.73438 58.541664Q394.34375 58.15104 393.71875 58.15104Q393.10938 58.15104 392.6875 58.541664Q392.28125 58.93229 392.17188 59.697914L391.10938 59.510414Q391.29688 58.46354 391.98438 57.885414Q392.67188 57.291664 393.6875 57.291664Q394.39062 57.291664 394.98438 57.604164Q395.57812 57.90104 395.89062 58.416664Q396.20312 58.93229 396.20312 59.52604Q396.20312 60.072914 395.90625 60.541664Q395.60938 60.99479 395.03125 61.260414Q395.78125 61.43229 396.20312 61.99479Q396.625 62.541664 396.625 63.385414Q396.625 64.510414 395.79688 65.291664Q394.98438 66.072914 393.73438 66.072914Q392.60938 66.072914 391.85938 65.40104Q391.10938 64.71354 391.0 63.65104ZM401.96875 65.916664L400.92188 65.916664L400.92188 59.197914Q400.53125 59.55729 399.90625 59.93229Q399.29688 60.291664 398.8125 60.46354L398.8125 59.447914Q399.6875 59.02604 400.34375 58.447914Q401.01562 57.854164 401.29688 57.291664L401.96875 57.291664L401.96875 65.916664ZM410.54688 64.90104L410.54688 65.916664L404.85938 65.916664Q404.85938 65.541664 404.98438 65.18229Q405.20312 64.604164 405.67188 64.041664Q406.15625 63.479164 407.0625 62.74479Q408.46875 61.58854 408.95312 60.916664Q409.45312 60.24479 409.45312 59.65104Q409.45312 59.02604 409.0 58.604164Q408.54688 58.166664 407.82812 58.166664Q407.0625 58.166664 406.60938 58.61979Q406.15625 59.072914 406.14062 59.885414L405.0625 59.77604Q405.17188 58.55729 405.89062 57.93229Q406.625 57.291664 407.85938 57.291664Q409.09375 57.291664 409.8125 57.979164Q410.53125 58.666664 410.53125 59.68229Q410.53125 60.197914 410.3125 60.697914Q410.10938 61.18229 409.60938 61.74479Q409.125 62.291664 408.0 63.24479Q407.04688 64.041664 406.76562 64.33854Q406.5 64.61979 406.32812 64.90104L410.54688 64.90104Z" fill-rule="nonzero"/><path fill="#757575" d="M22.08125 29.784374Q20.9875 29.378124 20.45625 28.64375Q19.940624 27.89375 19.940624 26.8625Q19.940624 25.3 21.065624 24.2375Q22.190624 23.175 24.05 23.175Q25.925 23.175 27.065624 24.26875Q28.20625 25.346874 28.20625 26.909374Q28.20625 27.909374 27.675 28.64375Q27.159374 29.378124 26.096874 29.784374Q27.425 30.221874 28.1125 31.175Q28.8 32.128124 28.8 33.45625Q28.8 35.3 27.4875 36.55Q26.190624 37.8 24.08125 37.8Q21.95625 37.8 20.659374 36.55Q19.3625 35.284374 19.3625 33.409374Q19.3625 32.01875 20.065624 31.08125Q20.784374 30.128124 22.08125 29.784374ZM21.7375 26.8Q21.7375 27.815624 22.39375 28.471874Q23.05 29.1125 24.08125 29.1125Q25.096874 29.1125 25.753124 28.471874Q26.409374 27.83125 26.409374 26.909374Q26.409374 25.940624 25.7375 25.284374Q25.065624 24.6125 24.065624 24.6125Q23.065624 24.6125 22.39375 25.26875Q21.7375 25.909374 21.7375 26.8ZM21.175 33.425Q21.175 34.175 21.51875 34.878124Q21.878124 35.58125 22.58125 35.971874Q23.284374 36.346874 24.096874 36.346874Q25.3625 36.346874 26.175 35.534374Q27.003124 34.721874 27.003124 33.471874Q27.003124 32.20625 26.159374 31.378124Q25.315624 30.55 24.034374 30.55Q22.8 30.55 21.9875 31.378124Q21.175 32.190624 21.175 33.425ZM30.378124 30.4875Q30.378124 27.95625 30.89375 26.409374Q31.425 24.846874 32.45625 24.01875Q33.4875 23.175 35.05 23.175Q36.20625 23.175 37.065624 23.64375Q37.940624 24.096874 38.503124 24.971874Q39.065624 25.846874 39.39375 27.1125Q39.721874 28.3625 39.721874 30.4875Q39.721874 33.003124 39.190624 34.55Q38.675 36.096874 37.64375 36.95625Q36.628124 37.8 35.05 37.8Q32.971874 37.8 31.8 36.315624Q30.378124 34.51875 30.378124 30.4875ZM32.190624 30.4875Q32.190624 34.01875 33.003124 35.190624Q33.83125 36.346874 35.05 36.346874Q36.253124 36.346874 37.08125 35.175Q37.909374 34.003124 37.909374 30.4875Q37.909374 26.95625 37.08125 25.8Q36.253124 24.628124 35.034374 24.628124Q33.815624 24.628124 33.096874 25.659374Q32.190624 26.95625 32.190624 30.4875ZM41.378124 30.4875Q41.378124 27.95625 41.89375 26.409374Q42.425 24.846874 43.45625 24.01875Q44.4875 23.175 46.05 23.175Q47.20625 23.175 48.065624 23.64375Q48.940624 24.096874 49.503124 24.971874Q50.065624 25.846874 50.39375 27.1125Q50.721874 28.3625 50.721874 30.4875Q50.721874 33.003124 50.190624 34.55Q49.675 36.096874 48.64375 36.95625Q47.628124 37.8 46.05 37.8Q43.971874 37.8 42.8 36.315624Q41.378124 34.51875 41.378124 30.4875ZM43.190624 30.4875Q43.190624 34.01875 44.003124 35.190624Q44.83125 36.346874 46.05 36.346874Q47.253124 36.346874 48.08125 35.175Q48.909374 34.003124 48.909374 30.4875Q48.909374 26.95625 48.08125 25.8Q47.253124 24.628124 46.034374 24.628124Q44.815624 24.628124 44.096874 25.659374Q43.190624 26.95625 43.190624 30.4875ZM53.034374 37.55L53.034374 23.2375L55.89375 23.2375L59.26875 33.3625Q59.7375 34.784374 59.95625 35.4875Q60.20625 34.70625 60.721874 33.190624L64.14375 23.2375L66.69063 23.2375L66.69063 37.55L64.87813 37.55L64.87813 25.565624L60.70625 37.55L59.003124 37.55L54.8625 25.3625L54.8625 37.55L53.034374 37.55ZM78.59688 37.55L74.8 23.2375L76.7375 23.2375L78.90938 32.6125Q79.26875 34.096874 79.51875 35.55Q80.06563 33.253124 80.15938 32.89375L82.89375 23.2375L85.175 23.2375L87.22188 30.471874Q88.00313 33.175 88.34688 35.55Q88.6125 34.190624 89.05 32.425L91.3 23.2375L93.20625 23.2375L89.28438 37.55L87.45625 37.55L84.44063 26.64375Q84.05 25.26875 83.9875 24.95625Q83.75313 25.940624 83.56563 26.64375L80.53438 37.55L78.59688 37.55ZM101.97188 34.20625L103.78438 34.440624Q103.3625 36.01875 102.19063 36.909374Q101.03438 37.784374 99.22188 37.784374Q96.95625 37.784374 95.6125 36.39375Q94.28438 34.9875 94.28438 32.45625Q94.28438 29.83125 95.62813 28.39375Q96.97188 26.940624 99.12813 26.940624Q101.20625 26.940624 102.51875 28.3625Q103.84688 29.76875 103.84688 32.346874Q103.84688 32.503124 103.83125 32.815624L96.09688 32.815624Q96.19063 34.51875 97.06563 35.425Q97.94063 36.33125 99.2375 36.33125Q100.20625 36.33125 100.87813 35.83125Q101.56563 35.315624 101.97188 34.20625ZM96.19063 31.3625L101.9875 31.3625Q101.87813 30.065624 101.33125 29.409374Q100.4875 28.39375 99.14375 28.39375Q97.94063 28.39375 97.1125 29.20625Q96.28438 30.003124 96.19063 31.3625ZM105.87813 25.253124L105.87813 23.2375L107.64375 23.2375L107.64375 25.253124L105.87813 25.253124ZM105.87813 37.55L105.87813 27.175L107.64375 27.175L107.64375 37.55L105.87813 37.55ZM109.55 38.409374L111.25313 38.659374Q111.3625 39.45625 111.84688 39.815624Q112.50313 40.3 113.64375 40.3Q114.8625 40.3 115.51875 39.815624Q116.19063 39.33125 116.425 38.45625Q116.56563 37.909374 116.55 36.190624Q115.39375 37.55 113.675 37.55Q111.53438 37.55 110.3625 36.003124Q109.19063 34.45625 109.19063 32.3Q109.19063 30.815624 109.72188 29.565624Q110.26875 28.315624 111.28438 27.628124Q112.31563 26.940624 113.69063 26.940624Q115.51875 26.940624 116.72188 28.425L116.72188 27.175L118.33125 27.175L118.33125 36.14375Q118.33125 38.565624 117.83125 39.565624Q117.34688 40.58125 116.26875 41.159374Q115.20625 41.753124 113.64375 41.753124Q111.8 41.753124 110.64375 40.925Q109.50313 40.096874 109.55 38.409374ZM111.00313 32.175Q111.00313 34.221874 111.81563 35.159374Q112.62813 36.096874 113.84688 36.096874Q115.05 36.096874 115.8625 35.159374Q116.69063 34.221874 116.69063 32.2375Q116.69063 30.33125 115.84688 29.3625Q115.00313 28.39375 113.81563 28.39375Q112.64375 28.39375 111.81563 29.346874Q111.00313 30.3 111.00313 32.175ZM120.8625 37.55L120.8625 23.2375L122.62813 23.2375L122.62813 28.3625Q123.8625 26.940624 125.7375 26.940624Q126.87813 26.940624 127.72188 27.39375Q128.58125 27.846874 128.94063 28.659374Q129.31563 29.45625 129.31563 30.971874L129.31563 37.55L127.56563 37.55L127.56563 30.971874Q127.56563 29.659374 126.9875 29.065624Q126.40938 28.45625 125.37813 28.45625Q124.59688 28.45625 123.89375 28.8625Q123.20625 29.26875 122.90938 29.971874Q122.62813 30.659374 122.62813 31.878124L122.62813 37.55L120.8625 37.55ZM135.70625 35.971874L135.95625 37.534374Q135.22188 37.690624 134.62813 37.690624Q133.675 37.690624 133.14375 37.39375Q132.62813 37.08125 132.40938 36.596874Q132.19063 36.096874 132.19063 34.51875L132.19063 28.55L130.90938 28.55L130.90938 27.175L132.19063 27.175L132.19063 24.6125L133.94063 23.55L133.94063 27.175L135.70625 27.175L135.70625 28.55L133.94063 28.55L133.94063 34.6125Q133.94063 35.3625 134.03438 35.58125Q134.12813 35.784374 134.33125 35.925Q134.55 36.05 134.94063 36.05Q135.22188 36.05 135.70625 35.971874ZM136.55 37.8L140.70625 22.9875L142.1125 22.9875L137.97188 37.8L136.55 37.8ZM144.15938 37.55L144.15938 23.2375L146.05 23.2375L146.05 29.1125L153.4875 29.1125L153.4875 23.2375L155.37813 23.2375L155.37813 37.55L153.4875 37.55L153.4875 30.8L146.05 30.8L146.05 37.55L144.15938 37.55ZM164.97188 34.20625L166.78438 34.440624Q166.3625 36.01875 165.19063 36.909374Q164.03438 37.784374 162.22188 37.784374Q159.95625 37.784374 158.6125 36.39375Q157.28438 34.9875 157.28438 32.45625Q157.28438 29.83125 158.62813 28.39375Q159.97188 26.940624 162.12813 26.940624Q164.20625 26.940624 165.51875 28.3625Q166.84688 29.76875 166.84688 32.346874Q166.84688 32.503124 166.83125 32.815624L159.09688 32.815624Q159.19063 34.51875 160.06563 35.425Q160.94063 36.33125 162.2375 36.33125Q163.20625 36.33125 163.87813 35.83125Q164.56563 35.315624 164.97188 34.20625ZM159.19063 31.3625L164.9875 31.3625Q164.87813 30.065624 164.33125 29.409374Q163.4875 28.39375 162.14375 28.39375Q160.94063 28.39375 160.1125 29.20625Q159.28438 30.003124 159.19063 31.3625ZM168.87813 25.253124L168.87813 23.2375L170.64375 23.2375L170.64375 25.253124L168.87813 25.253124ZM168.87813 37.55L168.87813 27.175L170.64375 27.175L170.64375 37.55L168.87813 37.55ZM172.55 38.409374L174.25313 38.659374Q174.3625 39.45625 174.84688 39.815624Q175.50313 40.3 176.64375 40.3Q177.8625 40.3 178.51875 39.815624Q179.19063 39.33125 179.425 38.45625Q179.56563 37.909374 179.55 36.190624Q178.39375 37.55 176.675 37.55Q174.53438 37.55 173.3625 36.003124Q172.19063 34.45625 172.19063 32.3Q172.19063 30.815624 172.72188 29.565624Q173.26875 28.315624 174.28438 27.628124Q175.31563 26.940624 176.69063 26.940624Q178.51875 26.940624 179.72188 28.425L179.72188 27.175L181.33125 27.175L181.33125 36.14375Q181.33125 38.565624 180.83125 39.565624Q180.34688 40.58125 179.26875 41.159374Q178.20625 41.753124 176.64375 41.753124Q174.8 41.753124 173.64375 40.925Q172.50313 40.096874 172.55 38.409374ZM174.00313 32.175Q174.00313 34.221874 174.81563 35.159374Q175.62813 36.096874 176.84688 36.096874Q178.05 36.096874 178.8625 35.159374Q179.69063 34.221874 179.69063 32.2375Q179.69063 30.33125 178.84688 29.3625Q178.00313 28.39375 176.81563 28.39375Q175.64375 28.39375 174.81563 29.346874Q174.00313 30.3 174.00313 32.175ZM183.8625 37.55L183.8625 23.2375L185.62813 23.2375L185.62813 28.3625Q186.8625 26.940624 188.7375 26.940624Q189.87813 26.940624 190.72188 27.39375Q191.58125 27.846874 191.94063 28.659374Q192.31563 29.45625 192.31563 30.971874L192.31563 37.55L190.56563 37.55L190.56563 30.971874Q190.56563 29.659374 189.9875 29.065624Q189.40938 28.45625 188.37813 28.45625Q187.59688 28.45625 186.89375 28.8625Q186.20625 29.26875 185.90938 29.971874Q185.62813 30.659374 185.62813 31.878124L185.62813 37.55L183.8625 37.55ZM198.70625 35.971874L198.95625 37.534374Q198.22188 37.690624 197.62813 37.690624Q196.675 37.690624 196.14375 37.39375Q195.62813 37.08125 195.40938 36.596874Q195.19063 36.096874 195.19063 34.51875L195.19063 28.55L193.90938 28.55L193.90938 27.175L195.19063 27.175L195.19063 24.6125L196.94063 23.55L196.94063 27.175L198.70625 27.175L198.70625 28.55L196.94063 28.55L196.94063 34.6125Q196.94063 35.3625 197.03438 35.58125Q197.12813 35.784374 197.33125 35.925Q197.55 36.05 197.94063 36.05Q198.22188 36.05 198.70625 35.971874ZM207.12813 37.55L207.12813 23.2375L213.47188 23.2375Q215.37813 23.2375 216.37813 23.628124Q217.37813 24.003124 217.97188 24.9875Q218.56563 25.95625 218.56563 27.14375Q218.56563 28.659374 217.58125 29.70625Q216.59688 30.753124 214.53438 31.034374Q215.28438 31.39375 215.675 31.753124Q216.50313 32.503124 217.25313 33.659374L219.7375 37.55L217.3625 37.55L215.45625 34.565624Q214.62813 33.284374 214.09688 32.596874Q213.56563 31.909374 213.12813 31.64375Q212.70625 31.3625 212.26875 31.253124Q211.94063 31.190624 211.22188 31.190624L209.01875 31.190624L209.01875 37.55L207.12813 37.55ZM209.01875 29.55L213.09688 29.55Q214.39375 29.55 215.1125 29.284374Q215.84688 29.01875 216.22188 28.425Q216.6125 27.83125 216.6125 27.14375Q216.6125 26.128124 215.87813 25.471874Q215.14375 24.815624 213.55 24.815624L209.01875 24.815624L209.01875 29.55ZM227.64375 36.26875Q226.65938 37.096874 225.75313 37.440624Q224.84688 37.784374 223.81563 37.784374Q222.1125 37.784374 221.19063 36.95625Q220.26875 36.1125 220.26875 34.815624Q220.26875 34.05 220.6125 33.425Q220.97188 32.8 221.53438 32.425Q222.09688 32.034374 222.8 31.83125Q223.31563 31.70625 224.3625 31.565624Q226.4875 31.315624 227.4875 30.971874Q227.50313 30.6125 227.50313 30.503124Q227.50313 29.440624 227.00313 28.9875Q226.33125 28.39375 225.00313 28.39375Q223.75313 28.39375 223.15938 28.83125Q222.58125 29.26875 222.3 30.378124L220.58125 30.14375Q220.81563 29.034374 221.34688 28.3625Q221.87813 27.675 222.89375 27.315624Q223.90938 26.940624 225.25313 26.940624Q226.58125 26.940624 227.40938 27.253124Q228.2375 27.565624 228.62813 28.05Q229.01875 28.51875 229.175 29.2375Q229.26875 29.690624 229.26875 30.8625L229.26875 33.20625Q229.26875 35.659374 229.37813 36.315624Q229.4875 36.95625 229.83125 37.55L227.9875 37.55Q227.72188 37.003124 227.64375 36.26875ZM227.4875 32.346874Q226.53438 32.7375 224.6125 33.003124Q223.53438 33.159374 223.08125 33.3625Q222.64375 33.55 222.39375 33.925Q222.14375 34.3 222.14375 34.76875Q222.14375 35.471874 222.675 35.940624Q223.20625 36.409374 224.2375 36.409374Q225.25313 36.409374 226.03438 35.971874Q226.83125 35.51875 227.20625 34.753124Q227.4875 34.14375 227.4875 32.9875L227.4875 32.346874ZM235.70625 35.971874L235.95625 37.534374Q235.22188 37.690624 234.62813 37.690624Q233.675 37.690624 233.14375 37.39375Q232.62813 37.08125 232.40938 36.596874Q232.19063 36.096874 232.19063 34.51875L232.19063 28.55L230.90938 28.55L230.90938 27.175L232.19063 27.175L232.19063 24.6125L233.94063 23.55L233.94063 27.175L235.70625 27.175L235.70625 28.55L233.94063 28.55L233.94063 34.6125Q233.94063 35.3625 234.03438 35.58125Q234.12813 35.784374 234.33125 35.925Q234.55 36.05 234.94063 36.05Q235.22188 36.05 235.70625 35.971874ZM237.87813 25.253124L237.87813 23.2375L239.64375 23.2375L239.64375 25.253124L237.87813 25.253124ZM237.87813 37.55L237.87813 27.175L239.64375 27.175L239.64375 37.55L237.87813 37.55ZM241.22188 32.3625Q241.22188 29.4875 242.81563 28.096874Q244.15938 26.940624 246.08125 26.940624Q248.22188 26.940624 249.56563 28.346874Q250.925 29.753124 250.925 32.221874Q250.925 34.221874 250.33125 35.378124Q249.7375 36.51875 248.58125 37.159374Q247.44063 37.784374 246.08125 37.784374Q243.89375 37.784374 242.55 36.39375Q241.22188 34.9875 241.22188 32.3625ZM243.01875 32.3625Q243.01875 34.3625 243.87813 35.346874Q244.75313 36.33125 246.08125 36.33125Q247.39375 36.33125 248.25313 35.346874Q249.12813 34.346874 249.12813 32.3Q249.12813 30.378124 248.25313 29.39375Q247.37813 28.39375 246.08125 28.39375Q244.75313 28.39375 243.87813 29.39375Q243.01875 30.378124 243.01875 32.3625ZM261.7531 37.55L257.8 27.175L259.65936 27.175L261.89374 33.39375Q262.2531 34.39375 262.55 35.471874Q262.78436 34.659374 263.20624 33.503124L265.5031 27.175L267.3156 27.175L263.39374 37.55L261.7531 37.55ZM268.15936 34.45625L269.90936 34.175Q270.05 35.221874 270.72186 35.784374Q271.39374 36.33125 272.59686 36.33125Q273.8 36.33125 274.3781 35.846874Q274.97186 35.346874 274.97186 34.690624Q274.97186 34.096874 274.45624 33.753124Q274.09686 33.51875 272.65936 33.159374Q270.72186 32.659374 269.97186 32.315624Q269.2375 31.95625 268.84686 31.33125Q268.45624 30.690624 268.45624 29.925Q268.45624 29.2375 268.76874 28.64375Q269.09686 28.05 269.64374 27.659374Q270.05 27.3625 270.7531 27.159374Q271.47186 26.940624 272.28436 26.940624Q273.5031 26.940624 274.425 27.3Q275.34686 27.64375 275.78436 28.253124Q276.22186 28.846874 276.39374 29.846874L274.675 30.08125Q274.55 29.284374 273.9875 28.846874Q273.425 28.39375 272.40936 28.39375Q271.1906 28.39375 270.675 28.8Q270.15936 29.190624 270.15936 29.721874Q270.15936 30.065624 270.3781 30.346874Q270.58124 30.628124 271.05 30.815624Q271.3156 30.909374 272.59686 31.253124Q274.47186 31.753124 275.20624 32.08125Q275.9406 32.39375 276.3625 33.003124Q276.78436 33.596874 276.78436 34.503124Q276.78436 35.378124 276.26874 36.159374Q275.7531 36.940624 274.78436 37.3625Q273.8156 37.784374 272.59686 37.784374Q270.58124 37.784374 269.51874 36.940624Q268.45624 36.096874 268.15936 34.45625ZM285.1281 37.55L285.1281 23.2375L291.47186 23.2375Q293.3781 23.2375 294.3781 23.628124Q295.3781 24.003124 295.97186 24.9875Q296.5656 25.95625 296.5656 27.14375Q296.5656 28.659374 295.58124 29.70625Q294.59686 30.753124 292.53436 31.034374Q293.28436 31.39375 293.675 31.753124Q294.5031 32.503124 295.2531 33.659374L297.7375 37.55L295.3625 37.55L293.45624 34.565624Q292.6281 33.284374 292.09686 32.596874Q291.5656 31.909374 291.1281 31.64375Q290.70624 31.3625 290.26874 31.253124Q289.9406 31.190624 289.22186 31.190624L287.01874 31.190624L287.01874 37.55L285.1281 37.55ZM287.01874 29.55L291.09686 29.55Q292.39374 29.55 293.1125 29.284374Q293.84686 29.01875 294.22186 28.425Q294.6125 27.83125 294.6125 27.14375Q294.6125 26.128124 293.8781 25.471874Q293.14374 24.815624 291.55 24.815624L287.01874 24.815624L287.01874 29.55ZM305.97186 34.20625L307.78436 34.440624Q307.3625 36.01875 306.1906 36.909374Q305.03436 37.784374 303.22186 37.784374Q300.95624 37.784374 299.6125 36.39375Q298.28436 34.9875 298.28436 32.45625Q298.28436 29.83125 299.6281 28.39375Q300.97186 26.940624 303.1281 26.940624Q305.20624 26.940624 306.51874 28.3625Q307.84686 29.76875 307.84686 32.346874Q307.84686 32.503124 307.83124 32.815624L300.09686 32.815624Q300.1906 34.51875 301.0656 35.425Q301.9406 36.33125 303.2375 36.33125Q304.20624 36.33125 304.8781 35.83125Q305.5656 35.315624 305.97186 34.20625ZM300.1906 31.3625L305.9875 31.3625Q305.8781 30.065624 305.33124 29.409374Q304.4875 28.39375 303.14374 28.39375Q301.9406 28.39375 301.1125 29.20625Q300.28436 30.003124 300.1906 31.3625ZM309.15936 34.45625L310.90936 34.175Q311.05 35.221874 311.72186 35.784374Q312.39374 36.33125 313.59686 36.33125Q314.8 36.33125 315.3781 35.846874Q315.97186 35.346874 315.97186 34.690624Q315.97186 34.096874 315.45624 33.753124Q315.09686 33.51875 313.65936 33.159374Q311.72186 32.659374 310.97186 32.315624Q310.2375 31.95625 309.84686 31.33125Q309.45624 30.690624 309.45624 29.925Q309.45624 29.2375 309.76874 28.64375Q310.09686 28.05 310.64374 27.659374Q311.05 27.3625 311.7531 27.159374Q312.47186 26.940624 313.28436 26.940624Q314.5031 26.940624 315.425 27.3Q316.34686 27.64375 316.78436 28.253124Q317.22186 28.846874 317.39374 29.846874L315.675 30.08125Q315.55 29.284374 314.9875 28.846874Q314.425 28.39375 313.40936 28.39375Q312.1906 28.39375 311.675 28.8Q311.15936 29.190624 311.15936 29.721874Q311.15936 30.065624 311.3781 30.346874Q311.58124 30.628124 312.05 30.815624Q312.3156 30.909374 313.59686 31.253124Q315.47186 31.753124 316.20624 32.08125Q316.9406 32.39375 317.3625 33.003124Q317.78436 33.596874 317.78436 34.503124Q317.78436 35.378124 317.26874 36.159374Q316.7531 36.940624 315.78436 37.3625Q314.8156 37.784374 313.59686 37.784374Q311.58124 37.784374 310.51874 36.940624Q309.45624 36.096874 309.15936 34.45625ZM326.65936 37.55L326.65936 36.01875Q325.45624 37.784374 323.3781 37.784374Q322.45624 37.784374 321.65936 37.440624Q320.8625 37.08125 320.47186 36.55Q320.09686 36.01875 319.9406 35.2375Q319.83124 34.721874 319.83124 33.596874L319.83124 27.175L321.58124 27.175L321.58124 32.925Q321.58124 34.3 321.6906 34.784374Q321.8625 35.471874 322.39374 35.878124Q322.9406 36.26875 323.72186 36.26875Q324.51874 36.26875 325.20624 35.8625Q325.90936 35.45625 326.1906 34.76875Q326.4875 34.065624 326.4875 32.7375L326.4875 27.175L328.2375 27.175L328.2375 37.55L326.65936 37.55ZM330.83124 37.55L330.83124 23.2375L332.58124 23.2375L332.58124 37.55L330.83124 37.55ZM338.70624 35.971874L338.95624 37.534374Q338.22186 37.690624 337.6281 37.690624Q336.675 37.690624 336.14374 37.39375Q335.6281 37.08125 335.40936 36.596874Q335.1906 36.096874 335.1906 34.51875L335.1906 28.55L333.90936 28.55L333.90936 27.175L335.1906 27.175L335.1906 24.6125L336.9406 23.55L336.9406 27.175L338.70624 27.175L338.70624 28.55L336.9406 28.55L336.9406 34.6125Q336.9406 35.3625 337.03436 35.58125Q337.1281 35.784374 337.33124 35.925Q337.55 36.05 337.9406 36.05Q338.22186 36.05 338.70624 35.971874Z" fill-rule="nonzero"/></svg>