<svg version="1.1" viewBox="0.0 0.0 600.0 371.0" fill="none" stroke="none" stroke-linecap="square" stroke-miterlimit="10" width="600" height="371" xmlns:xlink="http://www.w3.org/1999/xlink" xmlns="http://www.w3.org/2000/svg"><path fill="#ffffff" d="M0 0L600.0 0L600.0 371.0L0 371.0L0 0Z" fill-rule="nonzero"/><path stroke="#333333" stroke-width="1.0" stroke-linecap="butt" d="M77.5 272.5L581.5 272.5" fill-rule="nonzero"/><path stroke="#cccccc" stroke-width="1.0" stroke-linecap="butt" d="M77.5 230.5L581.5 230.5" fill-rule="nonzero"/><path stroke="#cccccc" stroke-width="1.0" stroke-linecap="butt" d="M77.5 188.5L581.5 188.5" fill-rule="nonzero"/><path stroke="#cccccc" stroke-width="1.0" stroke-linecap="butt" d="M77.5 145.5L581.5 145.5" fill-rule="nonzero"/><path stroke="#cccccc" stroke-width="1.0" stroke-linecap="butt" d="M77.5 103.5L581.5 103.5" fill-rule="nonzero"/><path stroke="#cccccc" stroke-width="1.0" stroke-linecap="butt" d="M77.5 61.5L581.5 61.5" fill-rule="nonzero"/><clipPath id="id_0"><path d="M77.55 61.916668L581.45 61.916668L581.45 272.06668L77.55 272.06668L77.55 61.916668Z" clip-rule="nonzero"/></clipPath><path stroke="#4285f4" stroke-width="2.0" stroke-linecap="butt" clip-path="url(#id_0)" d="M110.41304 99.74367L110.41304 138.65845" fill-rule="nonzero"/><path stroke="#4285f4" stroke-width="2.0" stroke-linecap="butt" clip-path="url(#id_0)" d="M110.41304 142.61427L110.41304 110.00398" fill-rule="nonzero"/><path fill="#4285f4" clip-path="url(#id_0)" d="M93.590096 109.00398L127.23599 109.00398L127.23599 139.65846L93.590096 139.65846L93.590096 109.00398Z" fill-rule="nonzero"/><path stroke="#4285f4" stroke-width="2.0" stroke-linecap="butt" clip-path="url(#id_0)" d="M159.09903 114.874466L159.09903 139.01044" fill-rule="nonzero"/><path stroke="#4285f4" stroke-width="2.0" stroke-linecap="butt" clip-path="url(#id_0)" d="M159.09903 142.61427L159.09903 116.19667" fill-rule="nonzero"/><path fill="#4285f4" clip-path="url(#id_0)" d="M142.2761 115.19667L175.92198 115.19667L175.92198 140.01042L142.2761 140.01042L142.2761 115.19667Z" fill-rule="nonzero"/><path stroke="#4285f4" stroke-width="2.0" stroke-linecap="butt" clip-path="url(#id_0)" d="M207.78502 99.74367L207.78502 139.49843" fill-rule="nonzero"/><path stroke="#4285f4" stroke-width="2.0" stroke-linecap="butt" clip-path="url(#id_0)" d="M207.78502 142.61427L207.78502 112.94671" fill-rule="nonzero"/><path fill="#4285f4" clip-path="url(#id_0)" d="M190.96208 111.94671L224.60797 111.94671L224.60797 140.49841L190.96208 140.49841L190.96208 111.94671Z" fill-rule="nonzero"/><path stroke="#4285f4" stroke-width="2.0" stroke-linecap="butt" clip-path="url(#id_0)" d="M256.471 116.555664L256.471 141.0248" fill-rule="nonzero"/><path stroke="#4285f4" stroke-width="2.0" stroke-linecap="butt" clip-path="url(#id_0)" d="M256.471 142.61427L256.471 119.40604" fill-rule="nonzero"/><path fill="#4285f4" clip-path="url(#id_0)" d="M239.64807 118.40604L273.29398 118.40604L273.29398 142.0248L239.64807 142.0248L239.64807 118.40604Z" fill-rule="nonzero"/><path stroke="#4285f4" stroke-width="2.0" stroke-linecap="butt" clip-path="url(#id_0)" d="M305.157 112.35267L305.157 142.7311" fill-rule="nonzero"/><path stroke="#4285f4" stroke-width="2.0" stroke-linecap="butt" clip-path="url(#id_0)" d="M305.157 145.97667L305.157 113.19652" fill-rule="nonzero"/><path fill="#4285f4" clip-path="url(#id_0)" d="M288.33405 112.19652L321.97995 112.19652L321.97995 143.7311L288.33405 143.7311L288.33405 112.19652Z" fill-rule="nonzero"/><path stroke="#4285f4" stroke-width="2.0" stroke-linecap="butt" clip-path="url(#id_0)" d="M353.843 130.84587L353.843 153.33652" fill-rule="nonzero"/><path stroke="#4285f4" stroke-width="2.0" stroke-linecap="butt" clip-path="url(#id_0)" d="M353.843 161.10747L353.843 133.78337" fill-rule="nonzero"/><path fill="#4285f4" clip-path="url(#id_0)" d="M337.02005 132.78337L370.66595 132.78337L370.66595 154.33652L337.02005 154.33652L337.02005 132.78337Z" fill-rule="nonzero"/><path stroke="#4285f4" stroke-width="2.0" stroke-linecap="butt" clip-path="url(#id_0)" d="M402.529 142.61427L402.529 166.16235" fill-rule="nonzero"/><path stroke="#4285f4" stroke-width="2.0" stroke-linecap="butt" clip-path="url(#id_0)" d="M402.529 170.35406L402.529 147.01613" fill-rule="nonzero"/><path fill="#4285f4" clip-path="url(#id_0)" d="M385.70602 146.01613L419.35193 146.01613L419.35193 167.16237L385.70602 167.16237L385.70602 146.01613Z" fill-rule="nonzero"/><path stroke="#4285f4" stroke-width="2.0" stroke-linecap="butt" clip-path="url(#id_0)" d="M451.21497 125.80227L451.21497 170.3573" fill-rule="nonzero"/><path stroke="#4285f4" stroke-width="2.0" stroke-linecap="butt" clip-path="url(#id_0)" d="M451.21497 175.39766L451.21497 138.61818" fill-rule="nonzero"/><path fill="#4285f4" clip-path="url(#id_0)" d="M434.39203 137.61818L468.03793 137.61818L468.03793 171.35728L434.39203 171.35728L434.39203 137.61818Z" fill-rule="nonzero"/><path stroke="#4285f4" stroke-width="2.0" stroke-linecap="butt" clip-path="url(#id_0)" d="M499.90097 151.86087L499.90097 168.65053" fill-rule="nonzero"/><path stroke="#4285f4" stroke-width="2.0" stroke-linecap="butt" clip-path="url(#id_0)" d="M499.90097 175.39766L499.90097 153.14412" fill-rule="nonzero"/><path fill="#4285f4" clip-path="url(#id_0)" d="M483.07803 152.14412L516.72394 152.14412L516.72394 169.65053L483.07803 169.65053L483.07803 152.14412Z" fill-rule="nonzero"/><path stroke="#4285f4" stroke-width="2.0" stroke-linecap="butt" clip-path="url(#id_0)" d="M548.587 159.42627L548.587 180.90572" fill-rule="nonzero"/><path stroke="#4285f4" stroke-width="2.0" stroke-linecap="butt" clip-path="url(#id_0)" d="M548.587 184.64427L548.587 162.53436" fill-rule="nonzero"/><path fill="#4285f4" clip-path="url(#id_0)" d="M531.76404 161.53436L565.4099 161.53436L565.4099 181.90572L531.76404 181.90572L531.76404 161.53436Z" fill-rule="nonzero"/><path fill="#000000" d="M29.550013 233.76146L20.956263 236.04271L20.956263 234.87083L26.596888 233.55833Q27.471888 233.35521 28.346888 233.19896Q26.971888 232.87083 26.753138 232.80833L20.956263 231.18333L20.956263 229.80833L25.300013 228.57396Q26.925013 228.12083 28.346888 227.90208Q27.534388 227.74583 26.471888 227.48021L20.956263 226.13646L20.956263 224.99583L29.550013 227.33958L29.550013 228.44896L23.003138 230.24583Q22.190638 230.48021 22.003138 230.52708Q22.581263 230.65208 23.003138 230.77708L29.550013 232.58958L29.550013 233.76146ZM27.550013 220.13646L27.675013 219.04271Q28.628138 219.29271 29.159388 219.99583Q29.690638 220.69896 29.690638 221.77708Q29.690638 223.13646 28.846888 223.94896Q28.003138 224.74583 26.487513 224.74583Q24.925013 224.74583 24.065638 223.93333Q23.190638 223.12083 23.190638 221.83958Q23.190638 220.58958 24.034388 219.80833Q24.878138 219.01146 26.425013 219.01146Q26.518763 219.01146 26.706263 219.01146L26.706263 223.65208Q27.737513 223.58958 28.284388 223.07396Q28.815638 222.55833 28.815638 221.77708Q28.815638 221.19896 28.518763 220.79271Q28.206263 220.37083 27.550013 220.13646ZM25.846888 223.58958L25.846888 220.12083Q25.050013 220.18333 24.659388 220.51146Q24.050013 221.02708 24.050013 221.82396Q24.050013 222.55833 24.534388 223.05833Q25.018763 223.54271 25.846888 223.58958ZM22.175013 217.38646L20.956263 217.38646L20.956263 216.32396L22.175013 216.32396L22.175013 217.38646ZM29.550013 217.38646L23.331263 217.38646L23.331263 216.32396L29.550013 216.32396L29.550013 217.38646ZM30.065638 214.58958L30.221888 213.55833Q30.690638 213.49583 30.909388 213.19896Q31.206263 212.80833 31.206263 212.13646Q31.206263 211.40208 30.909388 211.01146Q30.612513 210.60521 30.096888 210.46458Q29.768763 210.37083 28.737513 210.38646Q29.550013 211.07396 29.550013 212.10521Q29.550013 213.38646 28.628138 214.08958Q27.690638 214.79271 26.409388 214.79271Q25.518763 214.79271 24.768763 214.48021Q24.003138 214.15208 23.596888 213.54271Q23.190638 212.93333 23.190638 212.10521Q23.190638 210.99583 24.081263 210.27708L23.331263 210.27708L23.331263 209.30833L28.706263 209.30833Q30.159388 209.30833 30.768763 209.60521Q31.378138 209.90208 31.721888 210.54271Q32.08126 211.18333 32.08126 212.12083Q32.08126 213.23021 31.581263 213.91771Q31.081263 214.60521 30.065638 214.58958ZM26.331263 213.71458Q27.550013 213.71458 28.112513 213.23021Q28.675013 212.74583 28.675013 212.01146Q28.675013 211.27708 28.112513 210.79271Q27.550013 210.29271 26.362513 210.29271Q25.221888 210.29271 24.643763 210.80833Q24.065638 211.30833 24.065638 212.02708Q24.065638 212.73021 24.643763 213.23021Q25.206263 213.71458 26.331263 213.71458ZM29.550013 207.38646L20.956263 207.38646L20.956263 206.33958L24.034388 206.33958Q23.190638 205.60521 23.190638 204.48021Q23.190638 203.77708 23.471888 203.27708Q23.737513 202.76146 24.221888 202.54271Q24.690638 202.32396 25.612513 202.32396L29.550013 202.32396L29.550013 203.37083L25.612513 203.37083Q24.815638 203.37083 24.456263 203.71458Q24.096888 204.05833 24.096888 204.68333Q24.096888 205.15208 24.346888 205.57396Q24.581263 205.98021 25.003138 206.16771Q25.409388 206.33958 26.143763 206.33958L29.550013 206.33958L29.550013 207.38646ZM28.612513 198.08958L29.534388 197.93333Q29.628138 198.38646 29.628138 198.73021Q29.628138 199.30833 29.456263 199.62083Q29.268763 199.93333 28.971888 200.07396Q28.675013 200.19896 27.721888 200.19896L24.143763 200.19896L24.143763 200.96458L23.331263 200.96458L23.331263 200.19896L21.784388 200.19896L21.159388 199.15208L23.331263 199.15208L23.331263 198.08958L24.143763 198.08958L24.143763 199.15208L27.784388 199.15208Q28.237513 199.15208 28.362513 199.10521Q28.487513 199.04271 28.565638 198.91771Q28.643763 198.79271 28.643763 198.55833Q28.643763 198.37083 28.612513 198.08958ZM32.08126 192.37083Q30.971888 193.24583 29.503138 193.85521Q28.018763 194.44896 26.440638 194.44896Q25.050013 194.44896 23.768763 194.01146Q22.284388 193.48021 20.815638 192.37083L20.815638 191.62083Q22.034388 192.32396 22.550013 192.55833Q23.362513 192.91771 24.237513 193.12083Q25.331263 193.37083 26.440638 193.37083Q29.268763 193.37083 32.08126 191.62083L32.08126 192.37083ZM29.550013 190.41771L20.956263 190.41771L20.956263 189.35521L29.550013 189.35521L29.550013 190.41771ZM29.550013 186.41771L29.550013 187.40208L20.956263 187.40208L20.956263 186.33958L24.018763 186.33958Q23.190638 185.66771 23.190638 184.63646Q23.190638 184.05833 23.425013 183.55833Q23.643763 183.04271 24.065638 182.71458Q24.487513 182.37083 25.081263 182.18333Q25.675013 181.99583 26.346888 181.99583Q27.940638 181.99583 28.815638 182.79271Q29.690638 183.58958 29.690638 184.68333Q29.690638 185.79271 28.768763 186.41771L29.550013 186.41771ZM26.393763 186.43333Q27.503138 186.43333 28.003138 186.12083Q28.815638 185.62083 28.815638 184.77708Q28.815638 184.08958 28.221888 183.58958Q27.628138 183.07396 26.425013 183.07396Q25.206263 183.07396 24.628138 183.55833Q24.050013 184.04271 24.050013 184.73021Q24.050013 185.41771 24.659388 185.93333Q25.253138 186.43333 26.393763 186.43333ZM27.690638 180.80833L27.534388 179.77708Q28.159388 179.68333 28.487513 179.29271Q28.815638 178.88646 28.815638 178.15208Q28.815638 177.43333 28.534388 177.08958Q28.237513 176.73021 27.831263 176.73021Q27.471888 176.73021 27.268763 177.04271Q27.128138 177.26146 26.909388 178.12083Q26.612513 179.27708 26.409388 179.73021Q26.190638 180.16771 25.815638 180.40208Q25.440638 180.63646 24.971888 180.63646Q24.565638 180.63646 24.206263 180.44896Q23.846888 180.26146 23.612513 179.93333Q23.440638 179.68333 23.315638 179.26146Q23.190638 178.83958 23.190638 178.33958Q23.190638 177.62083 23.409388 177.07396Q23.612513 176.51146 23.971888 176.24583Q24.331263 175.98021 24.925013 175.88646L25.065638 176.91771Q24.596888 176.98021 24.331263 177.32396Q24.050013 177.65208 24.050013 178.27708Q24.050013 178.99583 24.300013 179.30833Q24.534388 179.62083 24.862513 179.62083Q25.065638 179.62083 25.221888 179.49583Q25.393763 179.35521 25.503138 179.08958Q25.565638 178.93333 25.768763 178.15208Q26.081263 177.02708 26.268763 176.58958Q26.456263 176.15208 26.815638 175.90208Q27.175013 175.65208 27.721888 175.65208Q28.253138 175.65208 28.721888 175.96458Q29.175013 176.26146 29.440638 176.83958Q29.690638 177.41771 29.690638 178.15208Q29.690638 179.37083 29.190638 180.01146Q28.675013 180.63646 27.690638 180.80833ZM32.08126 173.69896L32.08126 174.44896Q29.268763 172.69896 26.440638 172.69896Q25.346888 172.69896 24.253138 172.94896Q23.378138 173.15208 22.565638 173.51146Q22.050013 173.74583 20.815638 174.44896L20.815638 173.69896Q22.284388 172.60521 23.768763 172.07396Q25.050013 171.62083 26.440638 171.62083Q28.018763 171.62083 29.503138 172.23021Q30.971888 172.83958 32.08126 173.69896Z" fill-rule="nonzero"/><path fill="#000000" d="M65.05 271.8323Q65.05 270.30106 65.3625 269.37918Q65.675 268.44168 66.28438 267.94168Q66.90938 267.44168 67.84688 267.44168Q68.53438 267.44168 69.05 267.72293Q69.58125 268.00418 69.925 268.53543Q70.26875 269.05106 70.45625 269.80106Q70.64375 270.55106 70.64375 271.8323Q70.64375 273.34793 70.33125 274.2698Q70.03438 275.19168 69.40938 275.7073Q68.8 276.2073 67.84688 276.2073Q66.6125 276.2073 65.89375 275.31668Q65.05 274.25418 65.05 271.8323ZM66.12813 271.8323Q66.12813 273.94168 66.62813 274.6448Q67.12813 275.34793 67.84688 275.34793Q68.58125 275.34793 69.06563 274.6448Q69.56563 273.94168 69.56563 271.8323Q69.56563 269.7073 69.06563 269.0198Q68.58125 268.31668 67.83125 268.31668Q67.1125 268.31668 66.675 268.92606Q66.12813 269.7073 66.12813 271.8323Z" fill-rule="nonzero"/><path fill="#000000" d="M58.05 231.78667L59.159374 231.69292Q59.284374 232.50542 59.721874 232.91167Q60.175 233.31792 60.815624 233.31792Q61.565624 233.31792 62.096874 232.73979Q62.628124 232.16167 62.628124 231.22417Q62.628124 230.31792 62.1125 229.80229Q61.6125 229.27104 60.784374 229.27104Q60.284374 229.27104 59.8625 229.50542Q59.45625 229.73979 59.221874 230.09917L58.2375 229.97417L59.065624 225.56792L63.346874 225.56792L63.346874 226.56792L59.909374 226.56792L59.45625 228.88042Q60.221874 228.33354 61.065624 228.33354Q62.190624 228.33354 62.95625 229.11479Q63.7375 229.89604 63.7375 231.13042Q63.7375 232.28667 63.065624 233.14604Q62.2375 234.17729 60.815624 234.17729Q59.64375 234.17729 58.89375 233.52104Q58.159374 232.86479 58.05 231.78667ZM65.05 229.80229Q65.05 228.27104 65.3625 227.34917Q65.675 226.41167 66.28438 225.91167Q66.90938 225.41167 67.84688 225.41167Q68.53438 225.41167 69.05 225.69292Q69.58125 225.97417 69.925 226.50542Q70.26875 227.02104 70.45625 227.77104Q70.64375 228.52104 70.64375 229.80229Q70.64375 231.31792 70.33125 232.23979Q70.03438 233.16167 69.40938 233.67729Q68.8 234.17729 67.84688 234.17729Q66.6125 234.17729 65.89375 233.28667Q65.05 232.22417 65.05 229.80229ZM66.12813 229.80229Q66.12813 231.91167 66.62813 232.61479Q67.12813 233.31792 67.84688 233.31792Q68.58125 233.31792 69.06563 232.61479Q69.56563 231.91167 69.56563 229.80229Q69.56563 227.67729 69.06563 226.98979Q68.58125 226.28667 67.83125 226.28667Q67.1125 226.28667 66.675 226.89604Q66.12813 227.67729 66.12813 229.80229Z" fill-rule="nonzero"/><path fill="#000000" d="M55.01875 192.00667L53.971874 192.00667L53.971874 185.28792Q53.58125 185.6473 52.95625 186.0223Q52.346874 186.38167 51.8625 186.55354L51.8625 185.53792Q52.7375 185.11604 53.39375 184.53792Q54.065624 183.94417 54.346874 183.38167L55.01875 183.38167L55.01875 192.00667ZM58.05 187.7723Q58.05 186.24104 58.3625 185.31917Q58.675 184.38167 59.284374 183.88167Q59.909374 183.38167 60.846874 183.38167Q61.534374 183.38167 62.05 183.66292Q62.58125 183.94417 62.925 184.47542Q63.26875 184.99104 63.45625 185.74104Q63.64375 186.49104 63.64375 187.7723Q63.64375 189.28792 63.33125 190.2098Q63.034374 191.13167 62.409374 191.6473Q61.8 192.1473 60.846874 192.1473Q59.6125 192.1473 58.89375 191.25667Q58.05 190.19417 58.05 187.7723ZM59.128124 187.7723Q59.128124 189.88167 59.628124 190.5848Q60.128124 191.28792 60.846874 191.28792Q61.58125 191.28792 62.065624 190.5848Q62.565624 189.88167 62.565624 187.7723Q62.565624 185.6473 62.065624 184.9598Q61.58125 184.25667 60.83125 184.25667Q60.1125 184.25667 59.675 184.86604Q59.128124 185.6473 59.128124 187.7723ZM65.05 187.7723Q65.05 186.24104 65.3625 185.31917Q65.675 184.38167 66.28438 183.88167Q66.90938 183.38167 67.84688 183.38167Q68.53438 183.38167 69.05 183.66292Q69.58125 183.94417 69.925 184.47542Q70.26875 184.99104 70.45625 185.74104Q70.64375 186.49104 70.64375 187.7723Q70.64375 189.28792 70.33125 190.2098Q70.03438 191.13167 69.40938 191.6473Q68.8 192.1473 67.84688 192.1473Q66.6125 192.1473 65.89375 191.25667Q65.05 190.19417 65.05 187.7723ZM66.12813 187.7723Q66.12813 189.88167 66.62813 190.5848Q67.12813 191.28792 67.84688 191.28792Q68.58125 191.28792 69.06563 190.5848Q69.56563 189.88167 69.56563 187.7723Q69.56563 185.6473 69.06563 184.9598Q68.58125 184.25667 67.83125 184.25667Q67.1125 184.25667 66.675 184.86604Q66.12813 185.6473 66.12813 187.7723Z" fill-rule="nonzero"/><path fill="#000000" d="M55.01875 149.97667L53.971874 149.97667L53.971874 143.25792Q53.58125 143.6173 52.95625 143.9923Q52.346874 144.35167 51.8625 144.52354L51.8625 143.50792Q52.7375 143.08604 53.39375 142.50792Q54.065624 141.91417 54.346874 141.35167L55.01875 141.35167L55.01875 149.97667ZM58.05 147.72667L59.159374 147.63292Q59.284374 148.44542 59.721874 148.85167Q60.175 149.25792 60.815624 149.25792Q61.565624 149.25792 62.096874 148.6798Q62.628124 148.10167 62.628124 147.16417Q62.628124 146.25792 62.1125 145.7423Q61.6125 145.21104 60.784374 145.21104Q60.284374 145.21104 59.8625 145.44542Q59.45625 145.6798 59.221874 146.03917L58.2375 145.91417L59.065624 141.50792L63.346874 141.50792L63.346874 142.50792L59.909374 142.50792L59.45625 144.82042Q60.221874 144.27354 61.065624 144.27354Q62.190624 144.27354 62.95625 145.0548Q63.7375 145.83604 63.7375 147.07042Q63.7375 148.22667 63.065624 149.08604Q62.2375 150.1173 60.815624 150.1173Q59.64375 150.1173 58.89375 149.46104Q58.159374 148.8048 58.05 147.72667ZM65.05 145.7423Q65.05 144.21104 65.3625 143.28917Q65.675 142.35167 66.28438 141.85167Q66.90938 141.35167 67.84688 141.35167Q68.53438 141.35167 69.05 141.63292Q69.58125 141.91417 69.925 142.44542Q70.26875 142.96104 70.45625 143.71104Q70.64375 144.46104 70.64375 145.7423Q70.64375 147.25792 70.33125 148.1798Q70.03438 149.10167 69.40938 149.6173Q68.8 150.1173 67.84688 150.1173Q66.6125 150.1173 65.89375 149.22667Q65.05 148.16417 65.05 145.7423ZM66.12813 145.7423Q66.12813 147.85167 66.62813 148.5548Q67.12813 149.25792 67.84688 149.25792Q68.58125 149.25792 69.06563 148.5548Q69.56563 147.85167 69.56563 145.7423Q69.56563 143.6173 69.06563 142.9298Q68.58125 142.22667 67.83125 142.22667Q67.1125 142.22667 66.675 142.83604Q66.12813 143.6173 66.12813 145.7423Z" fill-rule="nonzero"/><path fill="#000000" d="M56.596874 106.93104L56.596874 107.94666L50.909374 107.94666Q50.909374 107.57166 51.034374 107.21229Q51.253124 106.63416 51.721874 106.07166Q52.20625 105.50916 53.1125 104.77479Q54.51875 103.61854 55.003124 102.94666Q55.503124 102.27479 55.503124 101.68104Q55.503124 101.05604 55.05 100.63416Q54.596874 100.19666 53.878124 100.19666Q53.1125 100.19666 52.659374 100.64979Q52.20625 101.10291 52.190624 101.91541L51.1125 101.80604Q51.221874 100.58729 51.940624 99.96229Q52.675 99.32166 53.909374 99.32166Q55.14375 99.32166 55.8625 100.00916Q56.58125 100.69666 56.58125 101.71229Q56.58125 102.22791 56.3625 102.72791Q56.159374 103.21229 55.659374 103.77479Q55.175 104.32166 54.05 105.27479Q53.096874 106.07166 52.815624 106.36854Q52.55 106.64979 52.378124 106.93104L56.596874 106.93104ZM58.05 103.71229Q58.05 102.18104 58.3625 101.25916Q58.675 100.32166 59.284374 99.82166Q59.909374 99.32166 60.846874 99.32166Q61.534374 99.32166 62.05 99.60291Q62.58125 99.88416 62.925 100.41541Q63.26875 100.93104 63.45625 101.68104Q63.64375 102.43104 63.64375 103.71229Q63.64375 105.22791 63.33125 106.14979Q63.034374 107.07166 62.409374 107.58729Q61.8 108.08729 60.846874 108.08729Q59.6125 108.08729 58.89375 107.19666Q58.05 106.13416 58.05 103.71229ZM59.128124 103.71229Q59.128124 105.82166 59.628124 106.52479Q60.128124 107.22791 60.846874 107.22791Q61.58125 107.22791 62.065624 106.52479Q62.565624 105.82166 62.565624 103.71229Q62.565624 101.58729 62.065624 100.89979Q61.58125 100.19666 60.83125 100.19666Q60.1125 100.19666 59.675 100.80604Q59.128124 101.58729 59.128124 103.71229ZM65.05 103.71229Q65.05 102.18104 65.3625 101.25916Q65.675 100.32166 66.28438 99.82166Q66.90938 99.32166 67.84688 99.32166Q68.53438 99.32166 69.05 99.60291Q69.58125 99.88416 69.925 100.41541Q70.26875 100.93104 70.45625 101.68104Q70.64375 102.43104 70.64375 103.71229Q70.64375 105.22791 70.33125 106.14979Q70.03438 107.07166 69.40938 107.58729Q68.8 108.08729 67.84688 108.08729Q66.6125 108.08729 65.89375 107.19666Q65.05 106.13416 65.05 103.71229ZM66.12813 103.71229Q66.12813 105.82166 66.62813 106.52479Q67.12813 107.22791 67.84688 107.22791Q68.58125 107.22791 69.06563 106.52479Q69.56563 105.82166 69.56563 103.71229Q69.56563 101.58729 69.06563 100.89979Q68.58125 100.19666 67.83125 100.19666Q67.1125 100.19666 66.675 100.80604Q66.12813 101.58729 66.12813 103.71229Z" fill-rule="nonzero"/><path fill="#000000" d="M56.596874 64.90104L56.596874 65.916664L50.909374 65.916664Q50.909374 65.541664 51.034374 65.18229Q51.253124 64.604164 51.721874 64.041664Q52.20625 63.479164 53.1125 62.74479Q54.51875 61.58854 55.003124 60.916664Q55.503124 60.24479 55.503124 59.65104Q55.503124 59.02604 55.05 58.604164Q54.596874 58.166664 53.878124 58.166664Q53.1125 58.166664 52.659374 58.61979Q52.20625 59.072914 52.190624 59.885414L51.1125 59.77604Q51.221874 58.55729 51.940624 57.93229Q52.675 57.291664 53.909374 57.291664Q55.14375 57.291664 55.8625 57.979164Q56.58125 58.666664 56.58125 59.68229Q56.58125 60.197914 56.3625 60.697914Q56.159374 61.18229 55.659374 61.74479Q55.175 62.291664 54.05 63.24479Q53.096874 64.041664 52.815624 64.33854Q52.55 64.61979 52.378124 64.90104L56.596874 64.90104ZM58.05 63.666664L59.159374 63.572914Q59.284374 64.385414 59.721874 64.791664Q60.175 65.197914 60.815624 65.197914Q61.565624 65.197914 62.096874 64.61979Q62.628124 64.041664 62.628124 63.104164Q62.628124 62.197914 62.1125 61.68229Q61.6125 61.15104 60.784374 61.15104Q60.284374 61.15104 59.8625 61.385414Q59.45625 61.61979 59.221874 61.979164L58.2375 61.854164L59.065624 57.447914L63.346874 57.447914L63.346874 58.447914L59.909374 58.447914L59.45625 60.760414Q60.221874 60.21354 61.065624 60.21354Q62.190624 60.21354 62.95625 60.99479Q63.7375 61.77604 63.7375 63.010414Q63.7375 64.166664 63.065624 65.02604Q62.2375 66.05729 60.815624 66.05729Q59.64375 66.05729 58.89375 65.40104Q58.159374 64.74479 58.05 63.666664ZM65.05 61.68229Q65.05 60.15104 65.3625 59.229164Q65.675 58.291664 66.28438 57.791664Q66.90938 57.291664 67.84688 57.291664Q68.53438 57.291664 69.05 57.572914Q69.58125 57.854164 69.925 58.385414Q70.26875 58.90104 70.45625 59.65104Q70.64375 60.40104 70.64375 61.68229Q70.64375 63.197914 70.33125 64.11979Q70.03438 65.041664 69.40938 65.55729Q68.8 66.05729 67.84688 66.05729Q66.6125 66.05729 65.89375 65.166664Q65.05 64.104164 65.05 61.68229ZM66.12813 61.68229Q66.12813 63.791664 66.62813 64.49479Q67.12813 65.197914 67.84688 65.197914Q68.58125 65.197914 69.06563 64.49479Q69.56563 63.791664 69.56563 61.68229Q69.56563 59.55729 69.06563 58.86979Q68.58125 58.166664 67.83125 58.166664Q67.1125 58.166664 66.675 58.77604Q66.12813 59.55729 66.12813 61.68229Z" fill-rule="nonzero"/><path fill="#000000" d="M99.430786 304.60526L98.69054 305.34552L93.93966 300.59464Q93.917564 301.12497 93.74078 301.83206Q93.56401 302.5171 93.34304 302.98114L92.624886 302.26297Q92.94529 301.34595 93.000534 300.4731Q93.05578 299.5782 92.8569 298.98157L93.33199 298.50647L99.430786 304.60526ZM98.58005 299.46768Q97.49729 298.38492 97.0664 297.5121Q96.62446 296.6282 96.7018 295.84378Q96.790184 295.04828 97.453094 294.38535Q97.93923 293.89923 98.50271 293.7335Q99.07723 293.55673 99.69595 293.6893Q100.30362 293.81082 100.96654 294.2086Q101.62945 294.60632 102.53543 295.5123Q103.60714 296.584 104.03803 297.45685Q104.47997 298.31863 104.40263 299.12518Q104.325294 299.90964 103.65133 300.5836Q102.778496 301.45642 101.640495 301.3349Q100.29257 301.1802 98.58005 299.46768ZM99.3424 298.70535Q100.833954 300.1969 101.68469 300.3405Q102.53543 300.48416 103.04366 299.97592Q103.56294 299.45663 103.408264 298.61694Q103.26463 297.7662 101.77308 296.27466Q100.27048 294.77206 99.430786 294.63947Q98.591095 294.4848 98.06077 295.01514Q97.552536 295.52335 97.674065 296.2636Q97.8398 297.20273 99.3424 298.70535ZM103.52979 294.51794Q102.44704 293.43518 102.01614 292.56235Q101.5742 291.67847 101.65154 290.894Q101.73993 290.0985 102.40285 289.4356Q102.88898 288.94946 103.45245 288.78375Q104.02698 288.60696 104.6457 288.73956Q105.25337 288.86108 105.916275 289.25885Q106.579185 289.6566 107.48517 290.56256Q108.55688 291.63428 108.98778 292.5071Q109.42972 293.3689 109.35238 294.17545Q109.27504 294.95987 108.601074 295.63385Q107.72824 296.50668 106.59024 296.38513Q105.24232 296.23047 103.52979 294.51794ZM104.292145 293.75558Q105.7837 295.24713 106.63444 295.39078Q107.485176 295.5344 107.99341 295.02618Q108.51269 294.5069 108.35801 293.6672Q108.21438 292.81647 106.722824 291.32492Q105.22022 289.8223 104.38053 289.68973Q103.54085 289.53503 103.01051 290.06537Q102.50228 290.5736 102.62382 291.31387Q102.78954 292.253 104.292145 293.75558ZM111.74991 292.28613L105.67321 286.20944L106.88855 284.9941L112.62274 287.85568Q113.42928 288.26447 113.81599 288.4744Q113.58396 288.0435 113.16412 287.1817L110.39094 281.4917L111.473694 280.40897L117.55039 286.48566L116.77699 287.25906L111.694664 282.17673L115.009224 289.02682L114.28002 289.756L107.352585 286.342L112.52331 291.51276L111.74991 292.28613Z" fill-rule="nonzero"/><path fill="#000000" d="M115.58987 337.13217L114.84961 337.87244L110.09874 333.12155Q110.07664 333.6519 109.899864 334.35898Q109.72309 335.044 109.50211 335.50803L108.78396 334.7899Q109.10437 333.87286 109.159615 333.00003Q109.21485 332.10507 109.01598 331.50845L109.491066 331.0334L115.58987 337.13217ZM120.53961 332.18243L119.79936 332.92267L115.048485 328.1718Q115.02639 328.70215 114.84961 329.40924Q114.67284 330.09424 114.451866 330.5583L113.73371 329.84015Q114.054115 328.9231 114.10936 328.05026Q114.164604 327.15533 113.96573 326.55872L114.44082 326.08362L120.53961 332.18243ZM119.68887 327.04486Q118.60612 325.9621 118.175224 325.08926Q117.733284 324.20538 117.81062 323.42093Q117.89901 322.62543 118.56193 321.96252Q119.048065 321.47638 119.61154 321.31067Q120.186066 321.13388 120.80478 321.26645Q121.41245 321.388 122.07536 321.78574Q122.73827 322.1835 123.64426 323.08948Q124.715965 324.16116 125.14686 325.03403Q125.5888 325.8958 125.51146 326.70233Q125.43412 327.4868 124.76016 328.16074Q123.88732 329.0336 122.74932 328.91205Q121.4014 328.7574 119.68887 327.04486ZM120.451225 326.2825Q121.94278 327.77405 122.79352 327.9177Q123.64425 328.0613 124.15249 327.55307Q124.671776 327.0338 124.51709 326.19412Q124.37346 325.34338 122.881905 323.8518Q121.3793 322.3492 120.53962 322.21664Q119.69993 322.06195 119.1696 322.5923Q118.66136 323.10052 118.78289 323.8408Q118.94862 324.7799 120.451225 326.2825ZM127.909 324.81305L121.8323 318.73633L123.04764 317.521L128.78183 320.38257Q129.58838 320.79138 129.97507 321.00128Q129.74306 320.5704 129.32321 319.70862L126.550026 314.01862L127.63278 312.93585L133.70949 319.01254L132.93608 319.78595L127.85375 314.7036L131.16832 321.5537L130.43912 322.28293L123.51167 318.86893L128.68239 324.03964L127.909 324.81305ZM137.15663 315.5654L131.07993 309.4887L131.87543 308.6932L134.37239 311.1902L137.53227 308.0303L135.03531 305.53333L135.84184 304.72678L141.91855 310.8035L141.112 311.61005L138.25043 308.74847L135.09055 311.90836L137.95212 314.76993L137.15663 315.5654ZM146.28273 306.4393L145.63086 305.78745Q145.86288 307.05804 144.97899 307.94193Q144.5923 308.3286 144.10616 308.5275Q143.62003 308.70425 143.23332 308.64902Q142.83557 308.58273 142.43784 308.31757Q142.18372 308.15182 141.69757 307.6657L138.97963 304.94775L139.73094 304.19647L142.17267 306.63818Q142.7472 307.2127 143.00131 307.37845Q143.35486 307.59943 143.75261 307.5552Q144.15036 307.48892 144.49286 307.14642Q144.82431 306.81497 144.94585 306.36197Q145.06738 305.8869 144.89061 305.46704Q144.72488 305.03616 144.1614 304.4727L141.80806 302.11932L142.54831 301.3791L146.94563 305.7764L146.28273 306.4393ZM148.33775 304.38428L143.94043 299.98697L144.6144 299.31302L145.27731 299.97592Q145.06738 299.25775 145.13368 298.9042Q145.19997 298.52856 145.46513 298.2634Q145.84077 297.88776 146.4595 297.73306L146.90144 298.68323Q146.4595 298.79373 146.19434 299.0589Q145.94022 299.31302 145.89603 299.66656Q145.85184 299.99802 146.03966 300.3405Q146.30482 300.87085 146.76886 301.3349L149.078 303.64404L148.33775 304.38428ZM154.02776 298.69427L153.47533 298.14185Q153.70735 299.21356 152.9008 300.0201Q152.37047 300.55045 151.64127 300.7051Q150.90102 300.84875 150.13867 300.57254Q149.37631 300.29633 148.70235 299.62238Q148.05049 298.9705 147.73009 298.20816Q147.40967 297.4458 147.57541 296.72763Q147.73009 295.99844 148.27145 295.45706Q148.6692 295.05933 149.1443 294.91568Q149.61938 294.77206 150.08342 294.83835L147.90686 292.66177L148.64711 291.92154L154.72382 297.99823L154.02776 298.69427ZM149.47575 298.84897Q150.32649 299.6997 151.09988 299.766Q151.86224 299.82123 152.34837 299.3351Q152.8345 298.84897 152.77927 298.1087Q152.72403 297.36847 151.90643 296.55087Q151.00046 295.6449 150.22705 295.57858Q149.4647 295.50125 148.95647 296.0095Q148.45929 296.50668 148.53662 297.24692Q148.60292 297.97614 149.47575 298.84897ZM156.10487 296.61716L150.02818 290.54047L150.77948 289.78915L156.85619 295.86584L156.10487 296.61716ZM159.83928 290.05432L160.70107 289.36932Q161.19826 290.22006 161.07672 291.0929Q160.95518 291.96573 160.19284 292.72806Q159.23161 293.6893 158.06047 293.6672Q156.90038 293.63406 155.82866 292.56235Q154.72382 291.4575 154.69066 290.2753Q154.64647 289.08206 155.55244 288.1761Q156.43634 287.29218 157.58539 287.3364Q158.74548 287.36954 159.83928 288.46335Q159.90558 288.52963 160.03816 288.6622L156.75674 291.94363Q157.53014 292.62863 158.28145 292.65073Q159.0217 292.66177 159.57413 292.10934Q159.98291 291.70056 160.06026 291.20337Q160.1376 290.68408 159.83928 290.05432ZM156.19327 291.29175L158.64604 288.839Q158.03838 288.3197 157.53014 288.2755Q156.73465 288.20923 156.17117 288.7727Q155.65189 289.29196 155.64084 289.98804Q155.64084 290.67303 156.19327 291.29175ZM161.58496 288.50754L162.20367 287.66785Q162.71191 288.0435 163.22014 287.9993Q163.73943 287.94406 164.2587 287.42477Q164.76694 286.91653 164.81113 286.4746Q164.85533 286.01056 164.56807 285.7233Q164.31395 285.46918 163.94934 285.5465Q163.69522 285.60178 162.93288 286.05475Q161.90536 286.6624 161.44133 286.8392Q160.97728 286.99387 160.54639 286.89444Q160.1155 286.795 159.78404 286.46356Q159.49678 286.1763 159.37524 285.78958Q159.25371 285.4029 159.32 285.00513Q159.37524 284.70682 159.58517 284.32013Q159.79509 283.93344 160.14865 283.57986Q160.65688 283.07166 161.19826 282.83963Q161.73964 282.5855 162.18158 282.6518Q162.62352 282.71808 163.10965 283.07166L162.47989 283.9003Q162.10423 283.61304 161.67334 283.66827Q161.24245 283.70142 160.8005 284.14334Q160.29228 284.65158 160.24808 285.04935Q160.19284 285.43604 160.42487 285.66806Q160.5685 285.81168 160.76736 285.83377Q160.98833 285.85587 161.2535 285.7454Q161.40817 285.6791 162.10423 285.2703Q163.1207 284.69577 163.56265 284.519Q164.0046 284.34222 164.43549 284.41956Q164.86638 284.49692 165.25307 284.8836Q165.62872 285.25925 165.73921 285.81168Q165.8497 286.342 165.62872 286.93863Q165.3967 287.5242 164.87743 288.0435Q164.01564 288.90527 163.20909 289.0047Q162.40254 289.08206 161.58496 288.50754Z" fill-rule="nonzero"/><path fill="#000000" d="M197.20052 302.7712L197.91867 303.48935L193.897 307.51102Q193.63184 307.24585 193.46611 306.90335Q193.21199 306.33987 193.1457 305.6107Q193.09045 304.87042 193.21199 303.71033Q193.38878 301.89838 193.2562 301.08078Q193.13466 300.25214 192.71481 299.83228Q192.27287 299.39035 191.65414 299.41245Q191.02438 299.4235 190.51614 299.93173Q189.97478 300.4731 189.97478 301.11392Q189.97478 301.75473 190.53825 302.3403L189.69856 303.02533Q188.91411 302.08618 188.98041 301.13602Q189.04669 300.16376 189.91953 299.2909Q190.79236 298.41806 191.78673 298.39597Q192.7811 298.37387 193.49925 299.09204Q193.86386 299.45663 194.06273 299.96487Q194.26161 300.45102 194.3058 301.2023Q194.34999 301.93152 194.22845 303.40097Q194.11798 304.6384 194.12903 305.0472Q194.14008 305.4339 194.2174 305.7543L197.20052 302.7712ZM195.95203 299.46768Q194.86928 298.38492 194.43839 297.5121Q193.99644 296.6282 194.07378 295.84375Q194.16217 295.04828 194.82509 294.38535Q195.31122 293.89923 195.8747 293.7335Q196.44922 293.5567 197.06793 293.6893Q197.67561 293.81082 198.33852 294.2086Q199.00143 294.60632 199.90741 295.5123Q200.97913 296.584 201.41002 297.45685Q201.85196 298.31863 201.77461 299.12518Q201.69728 299.90964 201.02332 300.5836Q200.15048 301.45642 199.01248 301.3349Q197.66455 301.1802 195.95203 299.46768ZM196.71439 298.70532Q198.20593 300.1969 199.05667 300.3405Q199.90741 300.48416 200.41565 299.97592Q200.93492 299.45663 200.78024 298.61694Q200.63661 297.7662 199.14507 296.27466Q197.64246 294.77206 196.80276 294.63947Q195.96309 294.4848 195.43275 295.0151Q194.92451 295.52335 195.04605 296.2636Q195.21178 297.20273 196.71439 298.70532ZM200.90178 294.51794Q199.81903 293.43518 199.38814 292.56235Q198.94618 291.67847 199.02353 290.894Q199.11192 290.0985 199.77483 289.4356Q200.26097 288.94946 200.82445 288.78375Q201.39897 288.60696 202.01768 288.73956Q202.62535 288.86108 203.28827 289.25882Q203.95117 289.6566 204.85716 290.56256Q205.92886 291.63428 206.35976 292.5071Q206.8017 293.3689 206.72437 294.17545Q206.64702 294.95987 205.97307 295.63385Q205.10022 296.50668 203.96223 296.38513Q202.6143 296.23047 200.90178 294.51794ZM201.66412 293.75558Q203.15569 295.24713 204.00642 295.39078Q204.85716 295.5344 205.36539 295.02618Q205.88467 294.5069 205.73 293.6672Q205.58636 292.81647 204.0948 291.32492Q202.59221 289.8223 201.75252 289.68973Q200.91283 289.53503 200.38249 290.06537Q199.87427 290.5736 199.9958 291.31387Q200.16153 292.253 201.66412 293.75558ZM209.1219 292.28613L203.0452 286.20944L204.26054 284.99408L209.99474 287.85565Q210.80127 288.26447 211.18797 288.4744Q210.95595 288.0435 210.53612 287.1817L207.76292 281.4917L208.84569 280.40894L214.92238 286.48566L214.14899 287.25903L209.06665 282.17673L212.38121 289.02682L211.65201 289.756L204.72458 286.342L209.8953 291.51273L209.1219 292.28613Z" fill-rule="nonzero"/><path fill="#000000" d="M245.06891 305.02512L243.6105 303.56668L240.98096 306.19626L240.29594 305.51123L239.13585 298.80478L239.74352 298.1971L243.6768 302.13037L244.49438 301.3128L245.1794 301.9978L244.36182 302.8154L245.82022 304.2738L245.06891 305.02512ZM242.92549 302.88168L240.1965 300.15268L241.02515 304.78204L242.92549 302.88168ZM244.63802 299.46768Q243.55527 298.38492 243.12437 297.5121Q242.68243 296.6282 242.75977 295.84375Q242.84816 295.04828 243.51108 294.38535Q243.99721 293.89923 244.56068 293.7335Q245.13521 293.5567 245.75392 293.6893Q246.3616 293.81082 247.0245 294.2086Q247.68742 294.60632 248.5934 295.5123Q249.66512 296.584 250.09601 297.45685Q250.53795 298.31863 250.4606 299.12518Q250.38327 299.90964 249.7093 300.5836Q248.83647 301.45642 247.69847 301.3349Q246.35054 301.1802 244.63802 299.46768ZM245.40038 298.70532Q246.89192 300.1969 247.74266 300.3405Q248.5934 300.48416 249.10164 299.97592Q249.62091 299.45663 249.46623 298.61694Q249.3226 297.7662 247.83105 296.27466Q246.32845 294.77206 245.48875 294.63947Q244.64908 294.4848 244.11874 295.01514Q243.6105 295.52335 243.73204 296.2636Q243.89777 297.20273 245.40038 298.70532ZM249.58777 294.51794Q248.50502 293.43518 248.07413 292.56235Q247.63217 291.67847 247.70952 290.894Q247.79791 290.0985 248.46082 289.4356Q248.94696 288.94946 249.51044 288.78375Q250.08496 288.60696 250.70367 288.73956Q251.31134 288.86108 251.97426 289.25882Q252.63716 289.6566 253.54315 290.56256Q254.61485 291.63428 255.04575 292.5071Q255.48769 293.3689 255.41035 294.17545Q255.33301 294.95987 254.65906 295.63385Q253.78622 296.50668 252.64822 296.38513Q251.3003 296.23047 249.58777 294.51794ZM250.35011 293.75558Q251.84167 295.24713 252.69241 295.39078Q253.54315 295.5344 254.05138 295.02618Q254.57066 294.5069 254.41599 293.6672Q254.27235 292.81647 252.78079 291.32492Q251.2782 289.8223 250.4385 289.68973Q249.59882 289.53503 249.06848 290.06537Q248.56026 290.5736 248.6818 291.31387Q248.84752 292.253 250.35011 293.75558ZM257.8079 292.28613L251.73119 286.20944L252.94653 284.99408L258.68073 287.85565Q259.48727 288.26447 259.87396 288.4744Q259.64194 288.0435 259.2221 287.1817L256.4489 281.4917L257.53168 280.40894L263.60837 286.48566L262.83496 287.25903L257.75266 282.17673L261.0672 289.02682L260.338 289.756L253.41057 286.342L258.5813 291.51273L257.8079 292.28613Z" fill-rule="nonzero"/><path fill="#000000" d="M261.228 337.55203L259.76956 336.09363L257.14 338.72318L256.45502 338.03815L255.29492 331.3317L255.90259 330.72403L259.83588 334.65732L260.65347 333.83972L261.33847 334.52472L260.52087 335.34232L261.97928 336.80072L261.228 337.55203ZM259.08456 335.4086L256.35556 332.67963L257.1842 337.30896L259.08456 335.4086ZM260.7971 331.9946Q259.71432 330.91187 259.28345 330.039Q258.8415 329.15512 258.91882 328.3707Q259.00723 327.5752 259.67014 326.9123Q260.15628 326.42615 260.71976 326.2604Q261.29428 326.08365 261.913 326.21622Q262.52066 326.33777 263.18356 326.7355Q263.8465 327.13324 264.75247 328.0392Q265.8242 329.11093 266.25507 329.98376Q266.69702 330.84555 266.61966 331.6521Q266.54233 332.43655 265.86838 333.1105Q264.99554 333.98334 263.85754 333.86182Q262.5096 333.70712 260.7971 331.9946ZM261.55945 331.23227Q263.051 332.72382 263.90173 332.86743Q264.75247 333.01108 265.2607 332.50284Q265.77997 331.98355 265.6253 331.14386Q265.48166 330.29312 263.9901 328.80157Q262.48752 327.29898 261.64783 327.16638Q260.80814 327.01172 260.2778 327.54205Q259.76956 328.0503 259.8911 328.79053Q260.05682 329.72964 261.55945 331.23227ZM265.74683 327.04486Q264.6641 325.9621 264.2332 325.08926Q263.79126 324.20538 263.8686 323.42093Q263.95697 322.62546 264.61987 321.96252Q265.10602 321.4764 265.6695 321.31067Q266.24402 321.13388 266.86273 321.26648Q267.4704 321.388 268.13333 321.78577Q268.79623 322.1835 269.7022 323.08948Q270.77393 324.1612 271.2048 325.03403Q271.64676 325.8958 271.56943 326.70236Q271.49207 327.48682 270.8181 328.16077Q269.94528 329.0336 268.80728 328.91208Q267.45935 328.7574 265.74683 327.04486ZM266.5092 326.2825Q268.00073 327.77408 268.85147 327.9177Q269.7022 328.06134 270.21045 327.5531Q270.72974 327.0338 270.57504 326.19412Q270.43143 325.34338 268.93988 323.85184Q267.43726 322.34924 266.59756 322.21664Q265.75787 322.06198 265.22757 322.5923Q264.71933 323.10052 264.84085 323.8408Q265.0066 324.7799 266.5092 326.2825ZM273.96695 324.81305L267.89026 318.73636L269.1056 317.52103L274.83978 320.3826Q275.64633 320.79138 276.03302 321.0013Q275.80103 320.5704 275.38116 319.70862L272.60797 314.01862L273.69073 312.93588L279.76743 319.01257L278.99405 319.78598L273.9117 314.70364L277.2263 321.55374L276.49707 322.28293L269.56964 318.86893L274.74036 324.03964L273.96695 324.81305ZM283.2146 315.56543L277.13788 309.48874L277.93338 308.69324L280.43036 311.19022L283.59024 308.0303L281.09326 305.53336L281.8998 304.7268L287.9765 310.8035L287.16995 311.61005L284.30838 308.74847L281.1485 311.90836L284.01007 314.76993L283.2146 315.56543ZM292.34067 306.43933L291.6888 305.78748Q291.92084 307.05804 291.03696 307.94193Q290.65027 308.3286 290.16412 308.5275Q289.67798 308.70428 289.2913 308.64905Q288.89352 308.58273 288.4958 308.31757Q288.24167 308.15186 287.75552 307.6657L285.0376 304.94778L285.7889 304.19647L288.23062 306.6382Q288.80515 307.21274 289.05927 307.37845Q289.4128 307.59943 289.81058 307.55524Q290.2083 307.48895 290.5508 307.14642Q290.88226 306.81497 291.0038 306.362Q291.12534 305.8869 290.94858 305.46704Q290.78284 305.03616 290.21936 304.4727L287.86603 302.11935L288.60626 301.3791L293.0036 305.77643L292.34067 306.43933ZM294.39572 304.3843L289.99838 299.98697L290.67236 299.31302L291.33527 299.97592Q291.12534 299.25778 291.19162 298.90424Q291.25793 298.52856 291.5231 298.2634Q291.89874 297.88776 292.51746 297.73306L292.9594 298.68326Q292.51746 298.79373 292.2523 299.0589Q291.99817 299.31302 291.95398 299.66656Q291.9098 299.99802 292.09763 300.34055Q292.3628 300.87085 292.8268 301.3349L295.13596 303.64404L294.39572 304.3843ZM300.08572 298.6943L299.5333 298.14188Q299.7653 299.2136 298.95877 300.0201Q298.42844 300.55045 297.69922 300.70514Q296.95898 300.84875 296.19662 300.57254Q295.43427 300.29633 294.7603 299.62238Q294.10846 298.97052 293.78806 298.20816Q293.46762 297.4458 293.63336 296.72766Q293.78806 295.99844 294.3294 295.45706Q294.72717 295.05933 295.20224 294.9157Q295.67734 294.77206 296.1414 294.83835L293.9648 292.6618L294.70508 291.92154L300.78177 297.99823L300.08572 298.6943ZM295.53372 298.84897Q296.38446 299.6997 297.15784 299.76602Q297.9202 299.82126 298.40634 299.3351Q298.89246 298.84897 298.83722 298.10873Q298.78198 297.36847 297.9644 296.55087Q297.0584 295.6449 296.285 295.5786Q295.52267 295.50128 295.01443 296.0095Q294.51724 296.50668 294.59457 297.24695Q294.6609 297.97614 295.53372 298.84897ZM302.16284 296.61716L296.08615 290.54047L296.83743 289.78918L302.91412 295.86588L302.16284 296.61716ZM305.89725 290.05435L306.75903 289.36932Q307.25623 290.22006 307.13467 291.0929Q307.01315 291.96573 306.2508 292.7281Q305.28958 293.6893 304.11844 293.6672Q302.95834 293.63406 301.88663 292.56235Q300.78177 291.4575 300.74863 290.2753Q300.70444 289.08206 301.6104 288.1761Q302.4943 287.2922 303.64334 287.3364Q304.80344 287.36954 305.89725 288.46335Q305.96353 288.52963 306.09613 288.66223L302.8147 291.94363Q303.5881 292.62866 304.3394 292.65076Q305.07965 292.6618 305.63208 292.10938Q306.04086 291.70056 306.11823 291.2034Q306.19556 290.6841 305.89725 290.05435ZM302.25122 291.29178L304.704 288.839Q304.09634 288.3197 303.5881 288.2755Q302.7926 288.20923 302.22913 288.7727Q301.70984 289.292 301.6988 289.98804Q301.6988 290.67307 302.25122 291.29178ZM307.6429 288.50754L308.26163 287.66785Q308.76987 288.0435 309.2781 287.9993Q309.7974 287.94406 310.31665 287.42477Q310.8249 286.91656 310.86908 286.4746Q310.91327 286.01056 310.626 285.7233Q310.37192 285.46918 310.0073 285.54654Q309.75317 285.60178 308.99084 286.05478Q307.96332 286.66245 307.4993 286.8392Q307.03525 286.9939 306.60434 286.89444Q306.17346 286.795 305.842 286.46356Q305.55475 286.1763 305.4332 285.7896Q305.31168 285.4029 305.37796 285.00516Q305.4332 284.70685 305.64313 284.32013Q305.85306 283.93344 306.2066 283.5799Q306.71484 283.07166 307.25623 282.83963Q307.7976 282.5855 308.23953 282.65182Q308.6815 282.7181 309.1676 283.07166L308.53784 283.9003Q308.1622 283.61304 307.7313 283.66827Q307.3004 283.70142 306.85846 284.14337Q306.35022 284.6516 306.30603 285.04935Q306.2508 285.43604 306.48282 285.66806Q306.62643 285.8117 306.82532 285.8338Q307.0463 285.8559 307.31146 285.7454Q307.46613 285.6791 308.1622 285.27032Q309.17865 284.6958 309.6206 284.519Q310.06253 284.34225 310.49344 284.4196Q310.92432 284.49692 311.31104 284.8836Q311.68668 285.25928 311.79718 285.8117Q311.90765 286.34204 311.68668 286.93866Q311.45465 287.52423 310.9354 288.0435Q310.0736 288.9053 309.26706 289.00473Q308.4605 289.08206 307.6429 288.50754Z" fill-rule="nonzero"/><path fill="#000000" d="M337.91098 302.97006Q337.27017 303.25732 336.7288 303.18Q336.1874 303.08057 335.75653 302.64966Q335.09363 301.98676 335.11572 301.0587Q335.14886 300.11954 335.9333 299.3351Q336.7288 298.5396 337.679 298.51752Q338.62915 298.49542 339.29205 299.15833Q339.7119 299.5782 339.8003 300.1085Q339.88867 300.63882 339.61246 301.2686Q340.35272 300.8819 341.04877 301.00345Q341.74484 301.12497 342.30832 301.68845Q343.08173 302.46185 343.0596 303.5446Q343.04855 304.6163 342.14258 305.52228Q341.24765 306.4172 340.1649 306.43933Q339.08215 306.46143 338.28665 305.66592Q337.69003 305.0693 337.59058 304.37323Q337.5022 303.66614 337.91098 302.97006ZM336.48572 301.85416Q336.91663 302.28506 337.46906 302.28506Q338.03253 302.27402 338.47446 301.83206Q338.90536 301.40118 338.9164 300.8598Q338.9164 300.30737 338.51868 299.90964Q338.10986 299.50082 337.5464 299.51187Q336.97186 299.51187 336.55203 299.93173Q336.12112 300.3626 336.11008 300.9261Q336.11008 301.47852 336.48572 301.85416ZM339.06003 304.89252Q339.38046 305.21292 339.8224 305.3676Q340.2754 305.51123 340.7394 305.37866Q341.20346 305.24606 341.54596 304.90356Q342.0763 304.37323 342.0763 303.68823Q342.08734 302.99216 341.557 302.46185Q341.01562 301.92047 340.30853 301.92047Q339.6014 301.92047 339.06003 302.46185Q338.52972 302.99216 338.54077 303.68823Q338.54077 304.37323 339.06003 304.89252ZM342.01 299.46768Q340.92725 298.38492 340.49634 297.5121Q340.0544 296.6282 340.13174 295.84375Q340.22012 295.04828 340.88306 294.38535Q341.3692 293.89923 341.93265 293.7335Q342.50717 293.5567 343.12592 293.6893Q343.73358 293.81082 344.39648 294.2086Q345.0594 294.60632 345.9654 295.5123Q347.03708 296.584 347.468 297.45685Q347.9099 298.31863 347.83258 299.12518Q347.75525 299.90964 347.0813 300.5836Q346.20844 301.45642 345.07043 301.3349Q343.72253 301.1802 342.01 299.46768ZM342.77234 298.70532Q344.26392 300.1969 345.11465 300.3405Q345.9654 300.48416 346.4736 299.97592Q346.9929 299.45663 346.83823 298.61694Q346.69458 297.7662 345.20303 296.27466Q343.70044 294.77206 342.86075 294.63947Q342.02106 294.4848 341.49072 295.01514Q340.98248 295.52335 341.10403 296.2636Q341.26974 297.20273 342.77234 298.70532ZM346.95975 294.51794Q345.87698 293.43518 345.4461 292.56235Q345.00415 291.67847 345.0815 290.894Q345.1699 290.0985 345.8328 289.4356Q346.31894 288.94946 346.88242 288.78375Q347.45694 288.60696 348.07565 288.73956Q348.68332 288.86108 349.34622 289.25882Q350.00916 289.6566 350.91513 290.56256Q351.98685 291.63428 352.41772 292.5071Q352.85968 293.3689 352.78232 294.17545Q352.705 294.95987 352.03104 295.63385Q351.1582 296.50668 350.0202 296.38513Q348.67227 296.23047 346.95975 294.51794ZM347.7221 293.75558Q349.21365 295.24713 350.0644 295.39078Q350.91513 295.5344 351.42337 295.02618Q351.94266 294.5069 351.78796 293.6672Q351.64432 292.81647 350.15277 291.32492Q348.65018 289.8223 347.8105 289.68973Q346.9708 289.53503 346.44046 290.06537Q345.93222 290.5736 346.05377 291.31387Q346.21948 292.253 347.7221 293.75558ZM355.17987 292.28613L349.10318 286.20944L350.3185 284.99408L356.0527 287.85568Q356.85925 288.26447 357.24594 288.4744Q357.01392 288.0435 356.5941 287.1817L353.8209 281.4917L354.90366 280.40894L360.98035 286.48566L360.20694 287.25903L355.12463 282.17673L358.43918 289.02682L357.71 289.756L350.78253 286.342L355.95328 291.51273L355.17987 292.28613Z" fill-rule="nonzero"/><path fill="#000000" d="M386.597 309.55502L385.85672 310.29526L381.10583 305.5444Q381.08374 306.07474 380.90698 306.78183Q380.7302 307.46686 380.50922 307.93088L379.79108 307.21274Q380.11148 306.2957 380.16672 305.42285Q380.22195 304.52792 380.0231 303.9313L380.49817 303.4562L386.597 309.55502ZM387.14938 305.82062L387.86755 304.96988Q388.53046 305.456 389.12708 305.4339Q389.73477 305.40076 390.18774 304.94778Q390.71808 304.41745 390.68494 303.633Q390.6518 302.84854 389.98886 302.18564Q389.34805 301.54483 388.61887 301.54483Q387.88965 301.52274 387.30408 302.1083Q386.95053 302.46185 386.81793 302.9259Q386.6964 303.37888 386.7848 303.79874L386.00034 304.4064L383.47025 300.70514L386.49753 297.67783L387.20465 298.38495L384.77396 300.8156L386.08875 302.7712Q386.2434 301.84314 386.84003 301.24652Q387.63553 300.45102 388.72934 300.46207Q389.8342 300.46207 390.70703 301.3349Q391.52463 302.1525 391.6572 303.23526Q391.80084 304.55002 390.7954 305.55545Q389.96677 306.3841 388.9724 306.45038Q387.98907 306.5056 387.14938 305.82062ZM390.69598 299.4677Q389.61322 298.38495 389.18234 297.51212Q388.7404 296.62823 388.81772 295.84378Q388.90613 295.04828 389.56903 294.38538Q390.05518 293.89923 390.61865 293.7335Q391.19318 293.55673 391.8119 293.6893Q392.41956 293.81085 393.08246 294.2086Q393.7454 294.60635 394.65137 295.51233Q395.72308 296.584 396.15396 297.45685Q396.59592 298.31863 396.51855 299.12518Q396.44122 299.90964 395.76727 300.5836Q394.89444 301.45642 393.75644 301.3349Q392.4085 301.18024 390.69598 299.4677ZM391.45834 298.70535Q392.9499 300.1969 393.80063 300.34055Q394.65137 300.48416 395.1596 299.97592Q395.67886 299.45663 395.5242 298.61697Q395.38055 297.76624 393.889 296.27466Q392.3864 294.77206 391.54672 294.6395Q390.70703 294.4848 390.1767 295.01514Q389.66846 295.52338 389.79 296.2636Q389.95572 297.20276 391.45834 298.70535ZM395.64572 294.51794Q394.56296 293.43518 394.13208 292.56235Q393.69012 291.67847 393.7675 290.89404Q393.85587 290.09854 394.51877 289.4356Q395.0049 288.9495 395.5684 288.78375Q396.1429 288.607 396.76163 288.73956Q397.3693 288.86108 398.03223 289.25885Q398.69513 289.6566 399.6011 290.56256Q400.67282 291.63428 401.1037 292.5071Q401.54565 293.3689 401.46832 294.17545Q401.39096 294.9599 400.717 295.63385Q399.84418 296.50668 398.70618 296.38516Q397.35825 296.23047 395.64572 294.51794ZM396.40808 293.7556Q397.89963 295.24716 398.75037 295.39078Q399.6011 295.53442 400.10934 295.02618Q400.62863 294.5069 400.47394 293.6672Q400.33032 292.81647 398.83875 291.32492Q397.33615 289.82233 396.49646 289.68973Q395.65677 289.53506 395.12643 290.0654Q394.61823 290.5736 394.73975 291.31387Q394.9055 292.253 396.40808 293.7556ZM403.86584 292.28613L397.78915 286.20944L399.0045 284.9941L404.73868 287.85568Q405.54523 288.26447 405.93192 288.4744Q405.6999 288.04352 405.28006 287.18173L402.50687 281.49173L403.58963 280.40897L409.66632 286.48566L408.89294 287.25906L403.8106 282.17673L407.12515 289.02682L406.39597 289.75604L399.46854 286.34204L404.63925 291.51276L403.86584 292.28613Z" fill-rule="nonzero"/><path fill="#000000" d="M430.8746 310.7593L431.52646 309.90857Q432.27777 310.4168 432.8744 310.39468Q433.45996 310.36154 433.90192 309.91962Q434.43222 309.38928 434.43222 308.66006Q434.43222 307.93088 433.89087 307.3895Q433.38263 306.88126 432.70865 306.8923Q432.0347 306.88126 431.5154 307.40054Q431.3055 307.61047 431.0735 308.01926L430.49896 307.26794Q430.58734 307.20166 430.63153 307.15747Q431.10663 306.68237 431.2392 306.06366Q431.3718 305.42285 430.8525 304.90356Q430.4437 304.49478 429.90234 304.50583Q429.3499 304.50583 428.90796 304.94775Q428.47708 305.37866 428.455 305.9532Q428.4439 306.51666 428.90796 307.13538L428.02408 307.7541Q427.4164 306.88126 427.49374 305.98633Q427.56003 305.08035 428.2782 304.36218Q428.7754 303.86502 429.4162 303.66614Q430.04596 303.4562 430.63153 303.59985Q431.2171 303.74347 431.63696 304.16333Q432.02365 304.55002 432.14517 305.0914Q432.25568 305.62173 432.0347 306.21835Q432.68655 305.80954 433.38263 305.909Q434.06763 305.99738 434.66425 306.594Q435.45975 307.3895 435.4266 308.5275Q435.4045 309.65445 434.52063 310.53833Q433.72513 311.33383 432.7197 311.38907Q431.70325 311.43326 430.8746 310.7593ZM434.43222 304.41745Q433.3495 303.3347 432.91858 302.46185Q432.47665 301.57797 432.554 300.79352Q432.64236 299.99802 433.3053 299.3351Q433.7914 298.84897 434.3549 298.68323Q434.9294 298.50647 435.54813 298.63904Q436.1558 298.7606 436.81873 299.15833Q437.48163 299.55606 438.3876 300.46207Q439.45932 301.53375 439.89023 302.4066Q440.33215 303.26837 440.25482 304.07492Q440.1775 304.85938 439.5035 305.53333Q438.63068 306.40616 437.49268 306.28464Q436.14474 306.12997 434.43222 304.41745ZM435.19458 303.6551Q436.68613 305.14664 437.53687 305.29028Q438.3876 305.4339 438.89584 304.92566Q439.41513 304.40637 439.26044 303.5667Q439.11682 302.71597 437.62527 301.2244Q436.12265 299.7218 435.28296 299.58923Q434.44327 299.43454 433.91296 299.96487Q433.40472 300.4731 433.52625 301.21335Q433.692 302.1525 435.19458 303.6551ZM439.382 299.46768Q438.29922 298.38492 437.86832 297.5121Q437.4264 296.6282 437.50372 295.84378Q437.59213 295.04828 438.25504 294.38535Q438.74118 293.89923 439.30466 293.7335Q439.87918 293.5567 440.4979 293.6893Q441.10556 293.81082 441.76846 294.2086Q442.43137 294.60632 443.33737 295.5123Q444.40906 296.584 444.83997 297.45685Q445.2819 298.31863 445.20456 299.12518Q445.12723 299.90964 444.45328 300.5836Q443.5804 301.45642 442.4424 301.3349Q441.0945 301.1802 439.382 299.46768ZM440.14432 298.70535Q441.6359 300.1969 442.48663 300.3405Q443.33737 300.48416 443.84558 299.97592Q444.36487 299.45663 444.2102 298.61694Q444.06656 297.7662 442.575 296.27466Q441.07242 294.77206 440.23273 294.63947Q439.39304 294.4848 438.8627 295.01514Q438.35446 295.52335 438.476 296.2636Q438.64172 297.20273 440.14432 298.70535ZM444.33173 294.51794Q443.24896 293.43518 442.81808 292.56235Q442.37613 291.67847 442.4535 290.894Q442.54187 290.0985 443.20477 289.4356Q443.69092 288.94946 444.2544 288.78375Q444.82892 288.60696 445.44763 288.73956Q446.0553 288.86108 446.7182 289.25882Q447.38113 289.6566 448.2871 290.56256Q449.35883 291.63428 449.7897 292.5071Q450.23166 293.3689 450.1543 294.17545Q450.07697 294.95987 449.403 295.63385Q448.53018 296.50668 447.39218 296.38513Q446.04425 296.23047 444.33173 294.51794ZM445.0941 293.75558Q446.58563 295.24713 447.43637 295.39078Q448.2871 295.5344 448.79535 295.02618Q449.31464 294.5069 449.15994 293.6672Q449.0163 292.81647 447.52475 291.32492Q446.02216 289.8223 445.18246 289.68973Q444.34277 289.53503 443.81244 290.06537Q443.30423 290.5736 443.42575 291.31387Q443.5915 292.253 445.0941 293.75558ZM452.55185 292.28613L446.47516 286.20944L447.6905 284.9941L453.42468 287.85568Q454.23123 288.26447 454.61792 288.4744Q454.3859 288.0435 453.96606 287.1817L451.19287 281.4917L452.27563 280.40894L458.35233 286.48566L457.57892 287.25903L452.4966 282.17673L455.81116 289.02682L455.08197 289.756L448.1545 286.342L453.32526 291.51273L452.55185 292.28613Z" fill-rule="nonzero"/><path fill="#000000" d="M479.57162 310.77036L480.2898 309.91962Q480.9527 310.40576 481.54932 310.38367Q482.15698 310.35052 482.61 309.89752Q483.14032 309.3672 483.10718 308.58273Q483.074 307.7983 482.4111 307.13538Q481.7703 306.49457 481.04108 306.49457Q480.3119 306.47247 479.72632 307.05804Q479.37274 307.4116 479.24017 307.87564Q479.11865 308.32864 479.20703 308.74847L478.42258 309.35614L475.89246 305.65488L478.91977 302.6276L479.62686 303.3347L477.1962 305.76538L478.51096 307.72095Q478.66565 306.79288 479.26227 306.19626Q480.05777 305.40076 481.15158 305.4118Q482.25644 305.4118 483.12927 306.28464Q483.94687 307.10223 484.07944 308.185Q484.22305 309.4998 483.21765 310.5052Q482.389 311.33383 481.39465 311.40012Q480.41132 311.45538 479.57162 310.77036ZM483.11823 304.41745Q482.03546 303.3347 481.60455 302.46185Q481.16263 301.57797 481.23996 300.79352Q481.32834 299.99802 481.99127 299.3351Q482.4774 298.84897 483.04086 298.68326Q483.6154 298.50647 484.23413 298.63907Q484.8418 298.7606 485.5047 299.15833Q486.1676 299.5561 487.07358 300.46207Q488.1453 301.53378 488.5762 302.40662Q489.01813 303.2684 488.9408 304.07495Q488.86346 304.85938 488.18948 305.53336Q487.31665 306.4062 486.17865 306.28464Q484.83075 306.12997 483.11823 304.41745ZM483.88055 303.6551Q485.3721 305.14664 486.22284 305.29028Q487.07358 305.4339 487.58182 304.9257Q488.1011 304.4064 487.94644 303.5667Q487.8028 302.71597 486.31125 301.22443Q484.80865 299.7218 483.96896 299.58923Q483.12927 299.43454 482.59894 299.96487Q482.0907 300.4731 482.21222 301.21338Q482.37796 302.1525 483.88055 303.6551ZM488.06796 299.4677Q486.9852 298.38495 486.55432 297.51212Q486.11237 296.62823 486.1897 295.84378Q486.2781 295.04828 486.941 294.38538Q487.42715 293.89923 487.99063 293.7335Q488.56516 293.55673 489.18387 293.6893Q489.79153 293.81085 490.45444 294.2086Q491.11737 294.60635 492.02335 295.51233Q493.09506 296.584 493.52594 297.45688Q493.9679 298.31866 493.89053 299.12518Q493.8132 299.90964 493.13925 300.5836Q492.26642 301.45645 491.12842 301.3349Q489.7805 301.18024 488.06796 299.4677ZM488.83032 298.70535Q490.32187 300.1969 491.1726 300.34055Q492.02335 300.48416 492.5316 299.97592Q493.05084 299.45667 492.89618 298.61697Q492.75253 297.76624 491.261 296.27466Q489.7584 294.77206 488.9187 294.6395Q488.079 294.4848 487.54868 295.01514Q487.04044 295.52338 487.162 296.2636Q487.3277 297.20276 488.83032 298.70535ZM493.0177 294.51797Q491.93494 293.4352 491.50403 292.56238Q491.0621 291.6785 491.13943 290.89404Q491.2278 290.09854 491.89075 289.43564Q492.37686 288.9495 492.94034 288.78378Q493.51486 288.607 494.13358 288.7396Q494.74127 288.8611 495.40417 289.25888Q496.06708 289.65662 496.97305 290.5626Q498.04477 291.6343 498.47568 292.50714Q498.9176 293.36893 498.84027 294.17548Q498.76294 294.9599 498.08896 295.63388Q497.21613 296.5067 496.07812 296.38516Q494.73022 296.2305 493.0177 294.51797ZM493.78003 293.7556Q495.27158 295.24716 496.1223 295.3908Q496.97305 295.53445 497.4813 295.0262Q498.00058 294.50693 497.8459 293.66724Q497.70227 292.8165 496.21072 291.32495Q494.7081 289.82236 493.86844 289.68976Q493.02875 289.5351 492.4984 290.0654Q491.99017 290.57364 492.1117 291.3139Q492.27744 292.25302 493.78003 293.7556ZM501.2378 292.28616L495.1611 286.20947L496.37643 284.99414L502.11063 287.8557Q502.91718 288.2645 503.3039 288.47443Q503.07187 288.04352 502.652 287.18173L499.87885 281.49173L500.96158 280.409L507.0383 286.4857L506.2649 287.2591L501.18256 282.17676L504.49713 289.02686L503.7679 289.75604L496.84048 286.34204L502.0112 291.51276L501.2378 292.28616Z" fill-rule="nonzero"/><path fill="#000000" d="M527.7052 314.50476L526.96497 315.245L522.21405 310.49414Q522.19196 311.02448 522.0152 311.73157Q521.83844 312.4166 521.61743 312.8806L520.8993 312.16248Q521.2197 311.24542 521.27496 310.3726Q521.3302 309.47766 521.13135 308.88104L521.6064 308.40598L527.7052 314.50476ZM526.8545 309.3672Q525.7717 308.28442 525.3408 307.4116Q524.89886 306.5277 524.9762 305.74326Q525.0646 304.94775 525.72754 304.28485Q526.2136 303.7987 526.7771 303.633Q527.3516 303.4562 527.9704 303.5888Q528.57806 303.71033 529.24097 304.10806Q529.9039 304.50583 530.8098 305.4118Q531.88153 306.48352 532.31244 307.35635Q532.7544 308.21814 532.67706 309.0247Q532.59973 309.8091 531.9257 310.4831Q531.0529 311.35593 529.9149 311.23438Q528.567 311.0797 526.8545 309.3672ZM527.6168 308.60483Q529.1084 310.09637 529.9591 310.24002Q530.8098 310.38364 531.31805 309.87543Q531.83734 309.35614 531.6827 308.51645Q531.53906 307.6657 530.0475 306.17416Q528.5449 304.67154 527.7052 304.53897Q526.86554 304.38428 526.3352 304.9146Q525.82697 305.42285 525.9485 306.16312Q526.1142 307.10223 527.6168 308.60483ZM531.8042 304.41745Q530.72144 303.3347 530.2906 302.46185Q529.84863 301.57797 529.92596 300.79352Q530.01434 299.99802 530.67725 299.3351Q531.1634 298.84897 531.72687 298.68323Q532.3014 298.50647 532.9201 298.63904Q533.5278 298.7606 534.1907 299.15833Q534.85364 299.5561 535.7596 300.46207Q536.8313 301.53375 537.2622 302.40662Q537.70416 303.2684 537.6268 304.07492Q537.54944 304.85938 536.8755 305.53333Q536.0027 306.4062 534.8647 306.28464Q533.5167 306.12997 531.8042 304.41745ZM532.5666 303.6551Q534.0581 305.14664 534.9089 305.29028Q535.7596 305.4339 536.2678 304.92566Q536.7871 304.4064 536.63245 303.5667Q536.4888 302.71597 534.99725 301.2244Q533.4946 299.7218 532.65497 299.58923Q531.81525 299.43454 531.2849 299.96487Q530.7767 300.4731 530.89825 301.21335Q531.06396 302.1525 532.5666 303.6551ZM536.75397 299.46768Q535.6712 298.38492 535.2403 297.5121Q534.79834 296.6282 534.87573 295.84378Q534.9641 295.04828 535.627 294.38535Q536.11316 293.89923 536.67664 293.7335Q537.25116 293.55673 537.8699 293.6893Q538.47754 293.81082 539.14044 294.2086Q539.80334 294.60632 540.70935 295.5123Q541.78107 296.584 542.2119 297.45685Q542.6539 298.31863 542.57654 299.12518Q542.4992 299.90964 541.82526 300.5836Q540.9524 301.45642 539.8144 301.3349Q538.4665 301.1802 536.75397 299.46768ZM537.5163 298.70535Q539.0079 300.1969 539.8586 300.3405Q540.70935 300.48416 541.2176 299.97592Q541.7369 299.45663 541.58215 298.61694Q541.43854 297.7662 539.94696 296.27466Q538.4444 294.77206 537.6047 294.63947Q536.765 294.4848 536.2347 295.01514Q535.72644 295.52335 535.84796 296.2636Q536.01373 297.20273 537.5163 298.70535ZM541.70374 294.51794Q540.621 293.43518 540.19006 292.56235Q539.7481 291.67847 539.82544 290.894Q539.9138 290.0985 540.5768 289.4356Q541.06287 288.94946 541.62634 288.78375Q542.20087 288.60696 542.81964 288.73956Q543.4273 288.86108 544.0902 289.25885Q544.7531 289.6566 545.65906 290.56256Q546.7308 291.63428 547.1617 292.5071Q547.60364 293.3689 547.5263 294.17545Q547.449 294.95987 546.77496 295.63385Q545.90216 296.50668 544.76416 296.38513Q543.41626 296.23047 541.70374 294.51794ZM542.46606 293.75558Q543.95764 295.24713 544.80835 295.39078Q545.65906 295.5344 546.1673 295.02618Q546.6866 294.5069 546.5319 293.6672Q546.3883 292.81647 544.8967 291.32492Q543.39417 289.8223 542.55444 289.68973Q541.7148 289.53503 541.18445 290.06537Q540.6762 290.5736 540.7977 291.31387Q540.96344 292.253 542.46606 293.75558ZM549.9238 292.28613L543.8471 286.20944L545.06244 284.9941L550.79663 287.85568Q551.6032 288.26447 551.9899 288.4744Q551.7579 288.0435 551.338 287.1817L548.5649 281.4917L549.6476 280.40897L555.7243 286.48566L554.9509 287.25906L549.8686 282.17673L553.18317 289.02682L552.4539 289.756L545.5265 286.342L550.6972 291.51273L549.9238 292.28613Z" fill-rule="nonzero"/><path fill="#757575" d="M23.7375 37.55L23.7375 24.925L19.01875 24.925L19.01875 23.2375L30.3625 23.2375L30.3625 24.925L25.628124 24.925L25.628124 37.55L23.7375 37.55ZM31.846874 37.55L31.846874 27.175L33.425 27.175L33.425 28.753124Q34.034374 27.64375 34.55 27.3Q35.065624 26.940624 35.675 26.940624Q36.565624 26.940624 37.4875 27.503124L36.878124 29.14375Q36.2375 28.753124 35.596874 28.753124Q35.01875 28.753124 34.55 29.1125Q34.096874 29.45625 33.89375 30.065624Q33.6125 31.003124 33.6125 32.1125L33.6125 37.55L31.846874 37.55ZM45.64375 36.26875Q44.659374 37.096874 43.753124 37.440624Q42.846874 37.784374 41.815624 37.784374Q40.1125 37.784374 39.190624 36.95625Q38.26875 36.1125 38.26875 34.815624Q38.26875 34.05 38.6125 33.425Q38.971874 32.8 39.534374 32.425Q40.096874 32.034374 40.8 31.83125Q41.315624 31.70625 42.3625 31.565624Q44.4875 31.315624 45.4875 30.971874Q45.503124 30.6125 45.503124 30.503124Q45.503124 29.440624 45.003124 28.9875Q44.33125 28.39375 43.003124 28.39375Q41.753124 28.39375 41.159374 28.83125Q40.58125 29.26875 40.3 30.378124L38.58125 30.14375Q38.815624 29.034374 39.346874 28.3625Q39.878124 27.675 40.89375 27.315624Q41.909374 26.940624 43.253124 26.940624Q44.58125 26.940624 45.409374 27.253124Q46.2375 27.565624 46.628124 28.05Q47.01875 28.51875 47.175 29.2375Q47.26875 29.690624 47.26875 30.8625L47.26875 33.20625Q47.26875 35.659374 47.378124 36.315624Q47.4875 36.95625 47.83125 37.55L45.9875 37.55Q45.721874 37.003124 45.64375 36.26875ZM45.4875 32.346874Q44.534374 32.7375 42.6125 33.003124Q41.534374 33.159374 41.08125 33.3625Q40.64375 33.55 40.39375 33.925Q40.14375 34.3 40.14375 34.76875Q40.14375 35.471874 40.675 35.940624Q41.20625 36.409374 42.2375 36.409374Q43.253124 36.409374 44.034374 35.971874Q44.83125 35.51875 45.20625 34.753124Q45.4875 34.14375 45.4875 32.9875L45.4875 32.346874ZM56.64375 33.753124L58.3625 33.971874Q58.08125 35.76875 56.909374 36.784374Q55.753124 37.784374 54.05 37.784374Q51.925 37.784374 50.628124 36.39375Q49.33125 35.003124 49.33125 32.409374Q49.33125 30.721874 49.878124 29.471874Q50.440624 28.20625 51.58125 27.58125Q52.721874 26.940624 54.065624 26.940624Q55.753124 26.940624 56.815624 27.8Q57.89375 28.659374 58.20625 30.221874L56.4875 30.4875Q56.253124 29.440624 55.628124 28.925Q55.003124 28.39375 54.128124 28.39375Q52.8 28.39375 51.971874 29.346874Q51.14375 30.3 51.14375 32.346874Q51.14375 34.440624 51.940624 35.39375Q52.7375 36.33125 54.034374 36.33125Q55.065624 36.33125 55.753124 35.70625Q56.45625 35.065624 56.64375 33.753124ZM59.878124 37.55L59.878124 23.2375L61.64375 23.2375L61.64375 31.39375L65.8 27.175L68.06563 27.175L64.1125 31.01875L68.47188 37.55L66.3 37.55L62.878124 32.253124L61.64375 33.440624L61.64375 37.55L59.878124 37.55ZM75.51875 30.58125Q75.51875 27.01875 77.425 25.003124Q79.34688 22.971874 82.37813 22.971874Q84.3625 22.971874 85.94063 23.925Q87.53438 24.878124 88.3625 26.58125Q89.20625 28.26875 89.20625 30.409374Q89.20625 32.58125 88.33125 34.3Q87.45625 36.01875 85.83125 36.909374Q84.22188 37.8 82.3625 37.8Q80.34688 37.8 78.75313 36.83125Q77.15938 35.846874 76.33125 34.159374Q75.51875 32.45625 75.51875 30.58125ZM77.47188 30.6125Q77.47188 33.190624 78.8625 34.690624Q80.25313 36.175 82.34688 36.175Q84.4875 36.175 85.8625 34.675Q87.25313 33.159374 87.25313 30.39375Q87.25313 28.659374 86.65938 27.3625Q86.08125 26.05 84.94063 25.33125Q83.8 24.6125 82.37813 24.6125Q80.37813 24.6125 78.925 26.003124Q77.47188 27.378124 77.47188 30.6125ZM91.83125 37.55L91.83125 23.2375L93.58125 23.2375L93.58125 37.55L91.83125 37.55ZM95.78438 41.55L95.59688 39.89375Q96.175 40.05 96.59688 40.05Q97.19063 40.05 97.53438 39.846874Q97.89375 39.659374 98.1125 39.315624Q98.28438 39.05 98.65938 38.003124Q98.70625 37.846874 98.81563 37.565624L94.87813 27.175L96.76875 27.175L98.925 33.190624Q99.34688 34.33125 99.675 35.58125Q99.9875 34.378124 100.39375 33.221874L102.6125 27.175L104.37813 27.175L100.425 37.721874Q99.8 39.440624 99.44063 40.08125Q98.97188 40.95625 98.3625 41.346874Q97.76875 41.753124 96.925 41.753124Q96.40938 41.753124 95.78438 41.55ZM105.8625 37.55L105.8625 27.175L107.44063 27.175L107.44063 28.628124Q107.925 27.878124 108.7375 27.409374Q109.55 26.940624 110.58125 26.940624Q111.7375 26.940624 112.47188 27.425Q113.20625 27.89375 113.51875 28.753124Q114.75313 26.940624 116.72188 26.940624Q118.26875 26.940624 119.09688 27.8Q119.925 28.659374 119.925 30.425L119.925 37.55L118.175 37.55L118.175 31.01875Q118.175 29.95625 118.00313 29.503124Q117.83125 29.034374 117.37813 28.753124Q116.94063 28.471874 116.33125 28.471874Q115.2375 28.471874 114.50313 29.20625Q113.78438 29.925 113.78438 31.51875L113.78438 37.55L112.03438 37.55L112.03438 30.815624Q112.03438 29.64375 111.59688 29.065624Q111.175 28.471874 110.19063 28.471874Q109.45625 28.471874 108.81563 28.8625Q108.19063 29.253124 107.90938 30.003124Q107.62813 30.753124 107.62813 32.175L107.62813 37.55L105.8625 37.55ZM122.8625 41.51875L122.8625 27.175L124.47188 27.175L124.47188 28.51875Q125.03438 27.7375 125.7375 27.346874Q126.45625 26.940624 127.47188 26.940624Q128.8 26.940624 129.81563 27.628124Q130.83125 28.315624 131.34688 29.565624Q131.87813 30.8 131.87813 32.284374Q131.87813 33.878124 131.3 35.159374Q130.7375 36.425 129.64375 37.1125Q128.55 37.784374 127.34688 37.784374Q126.47188 37.784374 125.76875 37.409374Q125.08125 37.034374 124.62813 36.471874L124.62813 41.51875L122.8625 41.51875ZM124.45625 32.425Q124.45625 34.425 125.26875 35.378124Q126.08125 36.33125 127.2375 36.33125Q128.40938 36.33125 129.2375 35.346874Q130.08125 34.3625 130.08125 32.26875Q130.08125 30.3 129.25313 29.315624Q128.44063 28.315624 127.31563 28.315624Q126.19063 28.315624 125.31563 29.378124Q124.45625 30.425 124.45625 32.425ZM133.87813 25.253124L133.87813 23.2375L135.64375 23.2375L135.64375 25.253124L133.87813 25.253124ZM133.87813 37.55L133.87813 27.175L135.64375 27.175L135.64375 37.55L133.87813 37.55ZM144.64375 36.26875Q143.65938 37.096874 142.75313 37.440624Q141.84688 37.784374 140.81563 37.784374Q139.1125 37.784374 138.19063 36.95625Q137.26875 36.1125 137.26875 34.815624Q137.26875 34.05 137.6125 33.425Q137.97188 32.8 138.53438 32.425Q139.09688 32.034374 139.8 31.83125Q140.31563 31.70625 141.3625 31.565624Q143.4875 31.315624 144.4875 30.971874Q144.50313 30.6125 144.50313 30.503124Q144.50313 29.440624 144.00313 28.9875Q143.33125 28.39375 142.00313 28.39375Q140.75313 28.39375 140.15938 28.83125Q139.58125 29.26875 139.3 30.378124L137.58125 30.14375Q137.81563 29.034374 138.34688 28.3625Q138.87813 27.675 139.89375 27.315624Q140.90938 26.940624 142.25313 26.940624Q143.58125 26.940624 144.40938 27.253124Q145.2375 27.565624 145.62813 28.05Q146.01875 28.51875 146.175 29.2375Q146.26875 29.690624 146.26875 30.8625L146.26875 33.20625Q146.26875 35.659374 146.37813 36.315624Q146.4875 36.95625 146.83125 37.55L144.9875 37.55Q144.72188 37.003124 144.64375 36.26875ZM144.4875 32.346874Q143.53438 32.7375 141.6125 33.003124Q140.53438 33.159374 140.08125 33.3625Q139.64375 33.55 139.39375 33.925Q139.14375 34.3 139.14375 34.76875Q139.14375 35.471874 139.675 35.940624Q140.20625 36.409374 141.2375 36.409374Q142.25313 36.409374 143.03438 35.971874Q143.83125 35.51875 144.20625 34.753124Q144.4875 34.14375 144.4875 32.9875L144.4875 32.346874ZM148.8625 37.55L148.8625 27.175L150.45625 27.175L150.45625 28.659374Q151.59688 26.940624 153.75313 26.940624Q154.69063 26.940624 155.47188 27.284374Q156.26875 27.6125 156.65938 28.159374Q157.05 28.70625 157.20625 29.45625Q157.3 29.95625 157.3 31.175L157.3 37.55L155.53438 37.55L155.53438 31.2375Q155.53438 30.159374 155.33125 29.628124Q155.12813 29.096874 154.59688 28.784374Q154.08125 28.471874 153.37813 28.471874Q152.25313 28.471874 151.44063 29.190624Q150.62813 29.89375 150.62813 31.878124L150.62813 37.55L148.8625 37.55ZM168.59688 37.55L164.8 23.2375L166.7375 23.2375L168.90938 32.6125Q169.26875 34.096874 169.51875 35.55Q170.06563 33.253124 170.15938 32.89375L172.89375 23.2375L175.175 23.2375L177.22188 30.471874Q178.00313 33.175 178.34688 35.55Q178.6125 34.190624 179.05 32.425L181.3 23.2375L183.20625 23.2375L179.28438 37.55L177.45625 37.55L174.44063 26.64375Q174.05 25.26875 173.9875 24.95625Q173.75313 25.940624 173.56563 26.64375L170.53438 37.55L168.59688 37.55ZM191.97188 34.20625L193.78438 34.440624Q193.3625 36.01875 192.19063 36.909374Q191.03438 37.784374 189.22188 37.784374Q186.95625 37.784374 185.6125 36.39375Q184.28438 34.9875 184.28438 32.45625Q184.28438 29.83125 185.62813 28.39375Q186.97188 26.940624 189.12813 26.940624Q191.20625 26.940624 192.51875 28.3625Q193.84688 29.76875 193.84688 32.346874Q193.84688 32.503124 193.83125 32.815624L186.09688 32.815624Q186.19063 34.51875 187.06563 35.425Q187.94063 36.33125 189.2375 36.33125Q190.20625 36.33125 190.87813 35.83125Q191.56563 35.315624 191.97188 34.20625ZM186.19063 31.3625L191.9875 31.3625Q191.87813 30.065624 191.33125 29.409374Q190.4875 28.39375 189.14375 28.39375Q187.94063 28.39375 187.1125 29.20625Q186.28438 30.003124 186.19063 31.3625ZM195.87813 25.253124L195.87813 23.2375L197.64375 23.2375L197.64375 25.253124L195.87813 25.253124ZM195.87813 37.55L195.87813 27.175L197.64375 27.175L197.64375 37.55L195.87813 37.55ZM199.55 38.409374L201.25313 38.659374Q201.3625 39.45625 201.84688 39.815624Q202.50313 40.3 203.64375 40.3Q204.8625 40.3 205.51875 39.815624Q206.19063 39.33125 206.425 38.45625Q206.56563 37.909374 206.55 36.190624Q205.39375 37.55 203.675 37.55Q201.53438 37.55 200.3625 36.003124Q199.19063 34.45625 199.19063 32.3Q199.19063 30.815624 199.72188 29.565624Q200.26875 28.315624 201.28438 27.628124Q202.31563 26.940624 203.69063 26.940624Q205.51875 26.940624 206.72188 28.425L206.72188 27.175L208.33125 27.175L208.33125 36.14375Q208.33125 38.565624 207.83125 39.565624Q207.34688 40.58125 206.26875 41.159374Q205.20625 41.753124 203.64375 41.753124Q201.8 41.753124 200.64375 40.925Q199.50313 40.096874 199.55 38.409374ZM201.00313 32.175Q201.00313 34.221874 201.81563 35.159374Q202.62813 36.096874 203.84688 36.096874Q205.05 36.096874 205.8625 35.159374Q206.69063 34.221874 206.69063 32.2375Q206.69063 30.33125 205.84688 29.3625Q205.00313 28.39375 203.81563 28.39375Q202.64375 28.39375 201.81563 29.346874Q201.00313 30.3 201.00313 32.175ZM210.8625 37.55L210.8625 23.2375L212.62813 23.2375L212.62813 28.3625Q213.8625 26.940624 215.7375 26.940624Q216.87813 26.940624 217.72188 27.39375Q218.58125 27.846874 218.94063 28.659374Q219.31563 29.45625 219.31563 30.971874L219.31563 37.55L217.56563 37.55L217.56563 30.971874Q217.56563 29.659374 216.9875 29.065624Q216.40938 28.45625 215.37813 28.45625Q214.59688 28.45625 213.89375 28.8625Q213.20625 29.26875 212.90938 29.971874Q212.62813 30.659374 212.62813 31.878124L212.62813 37.55L210.8625 37.55ZM225.70625 35.971874L225.95625 37.534374Q225.22188 37.690624 224.62813 37.690624Q223.675 37.690624 223.14375 37.39375Q222.62813 37.08125 222.40938 36.596874Q222.19063 36.096874 222.19063 34.51875L222.19063 28.55L220.90938 28.55L220.90938 27.175L222.19063 27.175L222.19063 24.6125L223.94063 23.55L223.94063 27.175L225.70625 27.175L225.70625 28.55L223.94063 28.55L223.94063 34.6125Q223.94063 35.3625 224.03438 35.58125Q224.12813 35.784374 224.33125 35.925Q224.55 36.05 224.94063 36.05Q225.22188 36.05 225.70625 35.971874ZM235.4875 37.55L233.8625 37.55L233.8625 23.2375L235.6125 23.2375L235.6125 28.346874Q236.7375 26.940624 238.45625 26.940624Q239.40938 26.940624 240.26875 27.33125Q241.12813 27.721874 241.675 28.425Q242.22188 29.1125 242.53438 30.096874Q242.84688 31.08125 242.84688 32.20625Q242.84688 34.878124 241.53438 36.33125Q240.22188 37.784374 238.37813 37.784374Q236.53438 37.784374 235.4875 36.253124L235.4875 37.55ZM235.47188 32.284374Q235.47188 34.14375 235.97188 34.9875Q236.81563 36.33125 238.22188 36.33125Q239.37813 36.33125 240.20625 35.33125Q241.05 34.33125 241.05 32.346874Q241.05 30.315624 240.2375 29.3625Q239.44063 28.39375 238.3 28.39375Q237.14375 28.39375 236.3 29.39375Q235.47188 30.39375 235.47188 32.284374ZM244.78438 41.55L244.59688 39.89375Q245.175 40.05 245.59688 40.05Q246.19063 40.05 246.53438 39.846874Q246.89375 39.659374 247.1125 39.315624Q247.28438 39.05 247.65938 38.003124Q247.70625 37.846874 247.81563 37.565624L243.87813 27.175L245.76875 27.175L247.925 33.190624Q248.34688 34.33125 248.675 35.58125Q248.9875 34.378124 249.39375 33.221874L251.6125 27.175L253.37813 27.175L249.425 37.721874Q248.8 39.440624 248.44063 40.08125Q247.97188 40.95625 247.3625 41.346874Q246.76875 41.753124 245.925 41.753124Q245.40938 41.753124 244.78438 41.55ZM261.1281 37.55L261.1281 23.2375L271.4875 23.2375L271.4875 24.925L263.03436 24.925L263.03436 29.3L270.9406 29.3L270.9406 30.9875L263.03436 30.9875L263.03436 35.8625L271.8156 35.8625L271.8156 37.55L261.1281 37.55ZM276.7531 37.55L272.8 27.175L274.65936 27.175L276.89374 33.39375Q277.2531 34.39375 277.55 35.471874Q277.78436 34.659374 278.20624 33.503124L280.5031 27.175L282.3156 27.175L278.39374 37.55L276.7531 37.55ZM290.97186 34.20625L292.78436 34.440624Q292.3625 36.01875 291.1906 36.909374Q290.03436 37.784374 288.22186 37.784374Q285.95624 37.784374 284.6125 36.39375Q283.28436 34.9875 283.28436 32.45625Q283.28436 29.83125 284.6281 28.39375Q285.97186 26.940624 288.1281 26.940624Q290.20624 26.940624 291.51874 28.3625Q292.84686 29.76875 292.84686 32.346874Q292.84686 32.503124 292.83124 32.815624L285.09686 32.815624Q285.1906 34.51875 286.0656 35.425Q286.9406 36.33125 288.2375 36.33125Q289.20624 36.33125 289.8781 35.83125Q290.5656 35.315624 290.97186 34.20625ZM285.1906 31.3625L290.9875 31.3625Q290.8781 30.065624 290.33124 29.409374Q289.4875 28.39375 288.14374 28.39375Q286.9406 28.39375 286.1125 29.20625Q285.28436 30.003124 285.1906 31.3625ZM294.8625 37.55L294.8625 27.175L296.45624 27.175L296.45624 28.659374Q297.59686 26.940624 299.7531 26.940624Q300.6906 26.940624 301.47186 27.284374Q302.26874 27.6125 302.65936 28.159374Q303.05 28.70625 303.20624 29.45625Q303.3 29.95625 303.3 31.175L303.3 37.55L301.53436 37.55L301.53436 31.2375Q301.53436 30.159374 301.33124 29.628124Q301.1281 29.096874 300.59686 28.784374Q300.08124 28.471874 299.3781 28.471874Q298.2531 28.471874 297.4406 29.190624Q296.6281 29.89375 296.6281 31.878124L296.6281 37.55L294.8625 37.55ZM309.70624 35.971874L309.95624 37.534374Q309.22186 37.690624 308.6281 37.690624Q307.675 37.690624 307.14374 37.39375Q306.6281 37.08125 306.40936 36.596874Q306.1906 36.096874 306.1906 34.51875L306.1906 28.55L304.90936 28.55L304.90936 27.175L306.1906 27.175L306.1906 24.6125L307.9406 23.55L307.9406 27.175L309.70624 27.175L309.70624 28.55L307.9406 28.55L307.9406 34.6125Q307.9406 35.3625 308.03436 35.58125Q308.1281 35.784374 308.33124 35.925Q308.55 36.05 308.9406 36.05Q309.22186 36.05 309.70624 35.971874Z" fill-rule="nonzero"/></svg>